<svg width="4876" height="590" viewBox="0 0 4876 590" fill="none" xmlns="http://www.w3.org/2000/svg">
<path d="M1460.51 479.705C1477.19 480.889 1494.09 482.1 1509.99 487.292C1531.33 494.261 1549.77 508.036 1570 517.776C1598.23 531.363 1630.12 536.986 1661.33 533.892C1693.52 530.717 1726.88 518.637 1757.08 529.964C1772.23 535.641 1784.71 546.672 1798.06 555.927C1870.34 606.105 1975.45 600.267 2043.4 542.34C2057.01 530.744 2069.93 516.915 2086.94 512.126C2099.13 508.682 2111.99 510.35 2124.48 511.857C2228.37 524.314 2333.99 523.318 2438 508.924C2390.45 502.951 2342.87 497.005 2295.32 491.032C2280.74 489.203 2265.24 486.969 2254.18 477.149C2229.18 454.872 2237.87 404.128 2207.6 390.192C2185.05 379.833 2158.14 399.528 2134.24 392.936C2112.96 387.044 2100.28 361.887 2078.51 358.067C2070.06 356.587 2060.94 358.551 2053.08 355.134C2040.38 349.646 2036.72 333.449 2033.49 319.673C2024.53 281.414 2005.62 244.581 1974.94 221.147C1944.26 197.739 1900.83 189.964 1866.22 207.748C1819.56 231.72 1803.98 288.463 1790.8 335.789C1780.22 373.726 1756.19 425.061 1713.51 379.887C1700.27 365.869 1691.55 345.395 1672.47 340.767C1650.68 335.493 1627.02 354.273 1619.92 374.291C1615.34 387.205 1611.09 401.922 1599.36 408.568C1586.9 415.617 1571.37 410.236 1559.51 402.487C1539.16 389.169 1517.5 369.206 1494.17 389.25C1479.18 402.138 1480.77 419.384 1459.51 431.034C1434.24 444.89 1404.26 444.917 1376.79 449.733C1357.63 453.123 1325.28 475.373 1310 475.535C1360.03 475.024 1409.81 476.127 1460.51 479.705Z" fill="white"/>
<path d="M89.1293 166.723C99.0096 167.424 109.017 168.141 118.435 171.214C131.073 175.338 141.989 183.491 153.972 189.255C170.689 197.296 189.573 200.624 208.059 198.793C227.118 196.914 246.879 189.765 264.759 196.468C273.731 199.828 281.125 206.357 289.029 211.835C331.833 241.532 394.078 238.076 434.316 203.793C442.38 196.93 450.029 188.746 460.101 185.911C467.32 183.873 474.937 184.86 482.331 185.752C543.86 193.124 606.408 192.535 668 184.016C639.841 180.481 611.667 176.962 583.508 173.427C574.871 172.344 565.692 171.023 559.142 165.211C544.338 152.026 549.485 121.994 531.557 113.746C518.203 107.616 502.267 119.271 488.116 115.37C475.511 111.883 468.005 96.9946 455.113 94.7335C450.109 93.8577 444.707 95.0201 440.053 92.9978C432.532 89.7494 430.364 80.1635 428.452 72.0107C423.145 49.3675 411.942 27.5683 393.775 13.699C375.609 -0.154411 349.888 -4.75629 329.395 5.76911C301.762 19.9569 292.535 53.5395 284.726 81.5488C278.463 104.001 264.233 134.383 238.958 107.647C231.118 99.3513 225.955 87.2335 214.656 84.4947C201.748 81.3737 187.741 92.4882 183.533 104.335C180.824 111.979 178.307 120.689 171.358 124.622C163.98 128.794 154.785 125.609 147.757 121.023C135.71 113.141 122.882 101.326 109.065 113.189C100.189 120.816 101.129 131.023 88.5397 137.918C73.5759 146.118 55.8234 146.134 39.5528 148.985C28.2065 150.991 9.05158 164.16 0 164.255C29.6248 163.953 59.1062 164.606 89.1293 166.723Z" fill="white"/>
<path d="M3898.51 479.705C3915.19 480.889 3932.09 482.1 3947.99 487.292C3969.33 494.261 3987.77 508.036 4008 517.776C4036.23 531.363 4068.12 536.986 4099.33 533.892C4131.52 530.717 4164.88 518.637 4195.08 529.964C4210.23 535.641 4222.71 546.672 4236.06 555.927C4308.34 606.105 4413.45 600.267 4481.4 542.34C4495.01 530.744 4507.93 516.915 4524.94 512.126C4537.13 508.682 4549.99 510.35 4562.48 511.857C4666.37 524.314 4771.99 523.318 4876 508.924C4828.45 502.951 4780.87 497.005 4733.32 491.032C4718.74 489.203 4703.24 486.969 4692.18 477.149C4667.18 454.872 4675.87 404.128 4645.6 390.192C4623.05 379.833 4596.14 399.528 4572.24 392.936C4550.96 387.044 4538.28 361.887 4516.51 358.067C4508.06 356.587 4498.94 358.551 4491.08 355.134C4478.38 349.646 4474.72 333.449 4471.49 319.673C4462.53 281.414 4443.62 244.581 4412.94 221.147C4382.26 197.739 4338.83 189.964 4304.22 207.748C4257.56 231.72 4241.98 288.463 4228.8 335.789C4218.22 373.726 4194.19 425.061 4151.51 379.887C4138.27 365.869 4129.55 345.395 4110.47 340.767C4088.68 335.493 4065.02 354.273 4057.92 374.291C4053.34 387.205 4049.09 401.922 4037.36 408.568C4024.9 415.617 4009.37 410.236 3997.51 402.487C3977.16 389.169 3955.5 369.206 3932.17 389.25C3917.18 402.138 3918.77 419.384 3897.51 431.034C3872.24 444.89 3842.26 444.917 3814.79 449.733C3795.63 453.123 3763.28 475.373 3748 475.535C3798.03 475.024 3847.81 476.127 3898.51 479.705Z" fill="white"/>
<path d="M2527.13 166.723C2537.01 167.424 2547.02 168.141 2556.44 171.214C2569.07 175.338 2579.99 183.491 2591.97 189.255C2608.69 197.296 2627.57 200.624 2646.06 198.793C2665.12 196.914 2684.88 189.765 2702.76 196.468C2711.73 199.828 2719.12 206.357 2727.03 211.835C2769.83 241.532 2832.08 238.076 2872.32 203.793C2880.38 196.93 2888.03 188.746 2898.1 185.911C2905.32 183.873 2912.94 184.86 2920.33 185.752C2981.86 193.124 3044.41 192.535 3106 184.016C3077.84 180.481 3049.67 176.962 3021.51 173.427C3012.87 172.344 3003.69 171.023 2997.14 165.211C2982.34 152.026 2987.48 121.994 2969.56 113.746C2956.2 107.616 2940.27 119.271 2926.12 115.37C2913.51 111.883 2906 96.9946 2893.11 94.7335C2888.11 93.8577 2882.71 95.0201 2878.05 92.9978C2870.53 89.7494 2868.36 80.1635 2866.45 72.0107C2861.15 49.3675 2849.94 27.5683 2831.78 13.699C2813.61 -0.154411 2787.89 -4.75629 2767.39 5.76911C2739.76 19.9569 2730.53 53.5395 2722.73 81.5488C2716.46 104.001 2702.23 134.383 2676.96 107.647C2669.12 99.3513 2663.95 87.2335 2652.66 84.4947C2639.75 81.3737 2625.74 92.4882 2621.53 104.335C2618.82 111.979 2616.31 120.689 2609.36 124.622C2601.98 128.794 2592.79 125.609 2585.76 121.023C2573.71 113.141 2560.88 101.326 2547.07 113.189C2538.19 120.816 2539.13 131.023 2526.54 137.918C2511.58 146.118 2493.82 146.134 2477.55 148.985C2466.21 150.991 2447.05 164.16 2438 164.255C2467.62 163.953 2497.11 164.606 2527.13 166.723Z" fill="white"/>
</svg>
