<svg width="4373" height="648" viewBox="0 0 4373 648" fill="none" xmlns="http://www.w3.org/2000/svg">
<path d="M1257.87 582.723C1247.99 583.424 1237.98 584.141 1228.56 587.214C1215.93 591.338 1205.01 599.491 1193.03 605.255C1176.31 613.296 1157.43 616.624 1138.94 614.793C1119.88 612.914 1100.12 605.765 1082.24 612.468C1073.27 615.828 1065.88 622.357 1057.97 627.835C1015.17 657.532 952.922 654.076 912.684 619.793C904.62 612.93 896.971 604.746 886.899 601.911C879.68 599.873 872.063 600.86 864.669 601.752C803.14 609.124 740.592 608.535 679 600.016C707.159 596.481 735.333 592.962 763.492 589.427C772.129 588.344 781.308 587.023 787.858 581.211C802.662 568.026 797.515 537.994 815.443 529.746C828.797 523.616 844.733 535.271 858.884 531.37C871.489 527.883 878.995 512.995 891.887 510.733C896.891 509.858 902.293 511.02 906.947 508.998C914.468 505.749 916.636 496.163 918.548 488.011C923.855 465.368 935.058 443.568 953.225 429.699C971.391 415.846 997.112 411.244 1017.61 421.769C1045.24 435.957 1054.47 469.539 1062.27 497.549C1068.54 520.001 1082.77 550.383 1108.04 523.647C1115.88 515.351 1121.05 503.234 1132.34 500.495C1145.25 497.374 1159.26 508.488 1163.47 520.335C1166.18 527.979 1168.69 536.689 1175.64 540.622C1183.02 544.794 1192.21 541.609 1199.24 537.023C1211.29 529.141 1224.12 517.326 1237.93 529.189C1246.81 536.816 1245.87 547.023 1258.46 553.918C1273.42 562.118 1291.18 562.134 1307.45 564.985C1318.79 566.991 1337.95 580.16 1347 580.255C1317.38 579.953 1287.89 580.606 1257.87 582.723Z" fill="white"/>
<path d="M546.494 397.705C529.81 398.889 512.911 400.1 497.007 405.292C475.668 412.261 457.235 426.036 436.999 435.776C408.77 449.363 376.882 454.986 345.667 451.892C313.483 448.717 280.115 436.637 249.923 447.964C234.772 453.641 222.286 464.672 208.939 473.927C136.66 524.105 31.5505 518.267 -36.3965 460.34C-50.0127 448.744 -62.9294 434.915 -79.9363 430.126C-92.1264 426.682 -104.989 428.35 -117.475 429.857C-221.374 442.314 -326.994 441.318 -431 426.924C-383.451 420.951 -335.874 415.005 -288.325 409.032C-273.74 407.203 -258.24 404.969 -247.18 395.149C-222.181 372.872 -230.873 322.128 -200.599 308.192C-178.049 297.833 -151.139 317.528 -127.243 310.936C-105.958 305.044 -93.2835 279.887 -71.5136 276.067C-63.0639 274.587 -53.9416 276.551 -46.084 273.134C-33.3826 267.646 -29.7228 251.449 -26.4936 237.673C-17.5327 199.414 1.38475 162.581 32.0618 139.147C62.7388 115.739 106.171 107.964 140.777 125.748C187.438 149.72 203.019 206.463 216.205 253.789C226.78 291.726 250.811 343.061 293.489 297.887C306.729 283.869 315.448 263.395 334.527 258.767C356.323 253.493 379.977 272.273 387.081 292.291C391.656 305.205 395.908 319.922 407.64 326.568C420.099 333.617 435.626 328.236 447.493 320.487C467.837 307.169 489.499 287.206 512.83 307.25C527.819 320.138 526.231 337.384 547.49 349.034C572.758 362.89 602.735 362.917 630.21 367.733C649.37 371.123 681.715 393.373 697 393.535C646.975 393.024 597.192 394.127 546.494 397.705Z" fill="white"/>
<path d="M1881.87 166.723C1871.99 167.424 1861.98 168.141 1852.56 171.214C1839.93 175.338 1829.01 183.491 1817.03 189.255C1800.31 197.296 1781.43 200.624 1762.94 198.793C1743.88 196.914 1724.12 189.765 1706.24 196.468C1697.27 199.828 1689.88 206.357 1681.97 211.835C1639.17 241.532 1576.92 238.076 1536.68 203.793C1528.62 196.93 1520.97 188.746 1510.9 185.911C1503.68 183.873 1496.06 184.86 1488.67 185.752C1427.14 193.124 1364.59 192.535 1303 184.016C1331.16 180.481 1359.33 176.962 1387.49 173.427C1396.13 172.344 1405.31 171.023 1411.86 165.211C1426.66 152.026 1421.52 121.994 1439.44 113.746C1452.8 107.616 1468.73 119.271 1482.88 115.37C1495.49 111.883 1503 96.9946 1515.89 94.7335C1520.89 93.8577 1526.29 95.0201 1530.95 92.9978C1538.47 89.7494 1540.64 80.1635 1542.55 72.0107C1547.85 49.3675 1559.06 27.5683 1577.22 13.699C1595.39 -0.154411 1621.11 -4.75629 1641.61 5.76911C1669.24 19.9569 1678.47 53.5395 1686.27 81.5488C1692.54 104.001 1706.77 134.383 1732.04 107.647C1739.88 99.3513 1745.05 87.2335 1756.34 84.4947C1769.25 81.3737 1783.26 92.4882 1787.47 104.335C1790.18 111.979 1792.69 120.689 1799.64 124.622C1807.02 128.794 1816.21 125.609 1823.24 121.023C1835.29 113.141 1848.12 101.326 1861.93 113.189C1870.81 120.816 1869.87 131.023 1882.46 137.918C1897.42 146.118 1915.18 146.134 1931.45 148.985C1942.79 150.991 1961.95 164.16 1971 164.255C1941.38 163.953 1911.89 164.606 1881.87 166.723Z" fill="white"/>
<path d="M3659.87 582.723C3649.99 583.424 3639.98 584.141 3630.56 587.214C3617.93 591.338 3607.01 599.491 3595.03 605.255C3578.31 613.296 3559.43 616.624 3540.94 614.793C3521.88 612.914 3502.12 605.765 3484.24 612.468C3475.27 615.828 3467.88 622.357 3459.97 627.835C3417.17 657.532 3354.92 654.076 3314.68 619.793C3306.62 612.93 3298.97 604.746 3288.9 601.911C3281.68 599.873 3274.06 600.86 3266.67 601.752C3205.14 609.124 3142.59 608.535 3081 600.016C3109.16 596.481 3137.33 592.962 3165.49 589.427C3174.13 588.344 3183.31 587.023 3189.86 581.211C3204.66 568.026 3199.52 537.994 3217.44 529.746C3230.8 523.616 3246.73 535.271 3260.88 531.37C3273.49 527.883 3281 512.995 3293.89 510.733C3298.89 509.858 3304.29 511.02 3308.95 508.998C3316.47 505.749 3318.64 496.163 3320.55 488.011C3325.85 465.368 3337.06 443.568 3355.22 429.699C3373.39 415.846 3399.11 411.244 3419.61 421.769C3447.24 435.957 3456.47 469.539 3464.27 497.549C3470.54 520.001 3484.77 550.383 3510.04 523.647C3517.88 515.351 3523.05 503.234 3534.34 500.495C3547.25 497.374 3561.26 508.488 3565.47 520.335C3568.18 527.979 3570.69 536.689 3577.64 540.622C3585.02 544.794 3594.21 541.609 3601.24 537.023C3613.29 529.141 3626.12 517.326 3639.93 529.189C3648.81 536.816 3647.87 547.023 3660.46 553.918C3675.42 562.118 3693.18 562.134 3709.45 564.985C3720.79 566.991 3739.95 580.16 3749 580.255C3719.38 579.953 3689.89 580.606 3659.87 582.723Z" fill="white"/>
<path d="M2948.49 397.705C2931.81 398.889 2914.91 400.1 2899.01 405.292C2877.67 412.261 2859.23 426.036 2839 435.776C2810.77 449.363 2778.88 454.986 2747.67 451.892C2715.48 448.717 2682.12 436.637 2651.92 447.964C2636.77 453.641 2624.29 464.672 2610.94 473.927C2538.66 524.105 2433.55 518.267 2365.6 460.34C2351.99 448.744 2339.07 434.915 2322.06 430.126C2309.87 426.682 2297.01 428.35 2284.52 429.857C2180.63 442.314 2075.01 441.318 1971 426.924C2018.55 420.951 2066.13 415.005 2113.68 409.032C2128.26 407.203 2143.76 404.969 2154.82 395.149C2179.82 372.872 2171.13 322.128 2201.4 308.192C2223.95 297.833 2250.86 317.528 2274.76 310.936C2296.04 305.044 2308.72 279.887 2330.49 276.067C2338.94 274.587 2348.06 276.551 2355.92 273.134C2368.62 267.646 2372.28 251.449 2375.51 237.673C2384.47 199.414 2403.38 162.581 2434.06 139.147C2464.74 115.739 2508.17 107.964 2542.78 125.748C2589.44 149.72 2605.02 206.463 2618.2 253.789C2628.78 291.726 2652.81 343.061 2695.49 297.887C2708.73 283.869 2717.45 263.395 2736.53 258.767C2758.32 253.493 2781.98 272.273 2789.08 292.291C2793.66 305.205 2797.91 319.922 2809.64 326.568C2822.1 333.617 2837.63 328.236 2849.49 320.487C2869.84 307.169 2891.5 287.206 2914.83 307.25C2929.82 320.138 2928.23 337.384 2949.49 349.034C2974.76 362.89 3004.74 362.917 3032.21 367.733C3051.37 371.123 3083.72 393.373 3099 393.535C3048.97 393.024 2999.19 394.127 2948.49 397.705Z" fill="white"/>
<path d="M4283.87 166.723C4273.99 167.424 4263.98 168.141 4254.56 171.214C4241.93 175.338 4231.01 183.491 4219.03 189.255C4202.31 197.296 4183.43 200.624 4164.94 198.793C4145.88 196.914 4126.12 189.765 4108.24 196.468C4099.27 199.828 4091.88 206.357 4083.97 211.835C4041.17 241.532 3978.92 238.076 3938.68 203.793C3930.62 196.93 3922.97 188.746 3912.9 185.911C3905.68 183.873 3898.06 184.86 3890.67 185.752C3829.14 193.124 3766.59 192.535 3705 184.016C3733.16 180.481 3761.33 176.962 3789.49 173.427C3798.13 172.344 3807.31 171.023 3813.86 165.211C3828.66 152.026 3823.52 121.994 3841.44 113.746C3854.8 107.616 3870.73 119.271 3884.88 115.37C3897.49 111.883 3905 96.9946 3917.89 94.7335C3922.89 93.8577 3928.29 95.0201 3932.95 92.9978C3940.47 89.7494 3942.64 80.1635 3944.55 72.0107C3949.85 49.3675 3961.06 27.5683 3979.22 13.699C3997.39 -0.154411 4023.11 -4.75629 4043.61 5.76911C4071.24 19.9569 4080.47 53.5395 4088.27 81.5488C4094.54 104.001 4108.77 134.383 4134.04 107.647C4141.88 99.3513 4147.05 87.2335 4158.34 84.4947C4171.25 81.3737 4185.26 92.4882 4189.47 104.335C4192.18 111.979 4194.69 120.689 4201.64 124.622C4209.02 128.794 4218.21 125.609 4225.24 121.023C4237.29 113.141 4250.12 101.326 4263.93 113.189C4272.81 120.816 4271.87 131.023 4284.46 137.918C4299.42 146.118 4317.18 146.134 4333.45 148.985C4344.79 150.991 4363.95 164.16 4373 164.255C4343.38 163.953 4313.89 164.606 4283.87 166.723Z" fill="white"/>
</svg>
