<svg width="43" height="136" viewBox="0 0 43 136" fill="none" xmlns="http://www.w3.org/2000/svg">
<path d="M21.1922 117.125C21.2337 121.364 21.4649 125.428 21.8266 129.287L22.3543 131.961C24.3049 132.075 30.459 132.442 32.3029 132.503C32.3029 132.485 32.297 132.461 32.2911 132.442C32.2911 132.436 32.2911 132.436 32.2911 132.43C32.0717 131.365 31.3365 130.437 30.3879 129.763C30.9452 125.621 31.295 121.231 31.3424 116.613C31.3543 115.866 31.3543 115.126 31.3424 114.397C31.0934 114.451 30.8326 114.506 30.5598 114.554C29.8839 114.674 29.1547 114.771 28.3839 114.825C25.7693 115.017 23.4985 114.686 21.7436 114.253C21.5539 114.205 21.376 114.162 21.1981 114.114C21.1803 115.108 21.1803 116.113 21.1922 117.125Z" fill="#0D294C"/>
<path d="M8.04193 113.621C8.06565 114.65 8.09529 115.698 8.13679 116.752C8.3028 120.846 8.62296 124.784 9.0617 128.553C9.20992 128.36 9.3285 128.15 9.40557 127.909C9.50636 127.59 9.64866 127.282 9.7613 126.963C9.93324 126.488 9.98067 126.301 10.1645 126.211C10.3779 126.108 10.6862 126.181 10.87 126.355C11.1783 126.638 11.0182 127.078 11.119 127.716C11.1724 128.071 11.3206 128.571 11.7534 129.149L11.9491 129.33C12.7198 129.613 13.289 129.583 13.6566 129.51C14.4036 129.366 14.706 128.974 15.5953 128.655C15.874 128.553 16.1408 128.487 16.3839 128.439C16.2534 124.772 16.787 121.075 16.8641 117.402C16.8819 116.535 16.9175 115.294 16.9886 113.789C16.793 113.807 16.5914 113.825 16.3898 113.843C15.5835 113.91 14.7356 113.952 13.8522 113.964C11.9135 113.994 10.123 113.88 8.52217 113.687C8.35616 113.663 8.19608 113.645 8.04193 113.621Z" fill="#0D294C"/>
<path d="M17.0716 24.3396C17.125 24.5022 17.1724 24.6768 17.2258 24.8695C17.7653 26.8263 17.5637 27.3983 18.1507 28.0065C18.5064 28.3738 18.9629 28.5604 19.3957 28.6568C19.8345 28.7531 20.2554 28.7471 20.5222 28.735C20.6586 28.723 20.7535 28.7109 20.789 28.7049C22.378 28.4821 23.3681 27.2659 24.2515 26.2062C24.4056 26.0195 24.5539 25.8449 24.7021 25.6763C25.0222 25.309 25.3424 24.9959 25.6804 24.7912C25.6804 24.743 25.6744 24.6889 25.6685 24.6286C25.6389 24.3155 25.5381 23.9543 25.2594 23.7435C25.0222 23.5689 24.7436 23.5569 24.4827 23.587C24.3641 23.599 24.2515 23.6231 24.1507 23.6412C23.1962 23.8098 22.212 23.7134 21.2456 23.7736C18.957 23.9182 17.374 22.1419 16.6981 22.1178C16.6151 22.1118 16.544 22.1359 16.4906 22.1901C16.2475 22.4189 16.621 22.9006 17.0716 24.3396Z" fill="#FF7900"/>
<path d="M16.2238 20.0888C16.2594 20.1731 16.378 20.4741 16.6329 20.7632C16.7989 20.9438 17.0183 21.1244 17.3029 21.2448C17.9847 21.5278 18.8029 21.3592 19.4017 20.8234C19.4551 20.9378 19.5262 21.0642 19.627 21.1907C20.0776 21.7627 20.712 21.9011 20.961 21.9553C22.0993 22.2022 23.0539 21.564 23.2614 21.4195L24.6132 21.4435L24.8088 21.4496L24.8978 20.6728C24.8622 20.6367 24.8325 20.6066 24.797 20.5765C24.5302 20.3116 24.2278 20.0406 23.8899 19.7637C23.6646 19.577 23.4393 19.4024 23.2199 19.2519C23.1369 19.1917 23.0539 19.1375 22.9768 19.0833L22.793 18.9508C22.2238 18.716 21.5657 18.4872 20.8365 18.3066C19.4551 17.9634 18.21 17.873 17.1843 17.8911C17.0183 17.8911 16.8641 17.8971 16.7159 17.9031L16.2238 20.0888Z" fill="#000B22"/>
<path d="M9.50638 45.1245C11.1783 43.4446 12.2099 41.7948 12.8562 40.4943C13.0578 40.0909 13.2179 39.7236 13.3542 39.3984C13.3957 39.29 13.4372 39.1877 13.4728 39.0914C15.0499 34.9789 14.7001 30.9087 14.4214 27.7115C14.3384 26.7361 14.2258 25.8811 14.119 25.2007C14.0538 25.2187 13.9945 25.2308 13.9293 25.2489C13.0815 25.4415 12.3522 25.574 11.706 25.6944C11.202 25.7908 10.7574 25.8811 10.3423 25.9955C10.6091 26.718 10.8463 27.4947 11.036 28.3076C12.3285 33.7506 11.1546 38.7 9.89768 42.0417C9.79689 43.1134 9.66053 44.1431 9.50638 45.1245Z" fill="#000B22"/>
<path d="M0.541911 51.796C1.01029 53.0544 1.86998 53.8131 2.51623 54.373C4.22374 55.8482 6.23363 56.4563 7.97079 56.6791C9.56566 56.8838 10.9412 56.7574 11.6348 56.6671C11.0716 56.3961 11.6052 53.9034 11.6763 53.7167C11.7475 53.5361 11.8186 53.3675 11.8957 53.217C11.8957 53.211 11.8957 53.211 11.8957 53.2049C11.8957 53.1869 11.8957 53.1688 11.8957 53.1508C11.8957 53.0905 11.9016 53.0364 11.9194 52.9761C12.0499 52.5005 12.2989 51.7779 12.791 51.0133C12.2989 50.7062 11.7712 50.4051 11.202 50.1101C10.3483 49.6585 9.52416 49.2912 8.7534 48.9781C9.03206 47.792 9.29293 46.4974 9.5123 45.1126C9.66645 44.1312 9.80282 43.0955 9.90954 42.0238C11.1665 38.6881 12.3463 33.7387 11.0479 28.2896C10.8522 27.4708 10.621 26.7001 10.3542 25.9775C9.54787 26.1943 8.87791 26.5014 8.23166 27.0914C7.46091 27.7899 7.09332 28.5606 6.82059 29.1687C4.51426 34.3107 4.4609 38.4051 2.66445 43.4809C1.18223 47.6415 -0.359279 49.3514 0.541911 51.796Z" fill="#924B44"/>
<path d="M24.4827 23.5812C24.7436 23.5511 25.0222 23.5631 25.2594 23.7377C25.538 23.9485 25.6388 24.3097 25.6685 24.6228C25.7337 24.6409 25.8048 24.665 25.8701 24.683C26.1191 24.5686 26.374 24.5084 26.6586 24.5445C26.9788 24.5807 27.4471 24.7312 27.9926 25.3574C28.0578 25.3815 28.1171 25.3995 28.1823 25.4176C28.3305 25.4658 28.4728 25.5139 28.6151 25.5621C28.4906 25.2249 28.3009 24.8576 28.0104 24.5024C26.9373 23.2018 25.2535 23.0935 24.5064 23.1115C24.4946 23.2259 24.4886 23.3162 24.4886 23.3825C24.4886 23.4547 24.4827 23.5149 24.4827 23.5812Z" fill="#D05900"/>
<path d="M19.0756 53.1264C19.0874 53.1926 19.1052 53.2529 19.1171 53.307C19.1704 53.5118 19.2416 53.6683 19.2831 53.7707L19.4965 53.9393C21.8562 55.9864 25.0519 58.3166 29.1487 60.2373C30.459 60.8515 31.7219 61.3633 32.9254 61.7847C33.3879 61.9533 33.8444 62.1039 34.2891 62.2423C34.5796 62.3688 34.8879 62.429 35.1903 62.429C35.6053 62.429 36.0203 62.3146 36.382 62.0858C37.212 61.568 38.1191 60.7973 38.7239 59.6593C39.6962 57.8349 39.4294 55.9744 39.2871 54.8665C38.7772 50.8866 38.6112 46.4912 38.4215 42.5413C38.2555 39.1635 38.0836 36.1168 37.6685 33.9372C37.4077 32.5583 37.0519 31.5649 36.8741 31.0952C36.6547 30.5112 36.4531 30.0777 36.3998 29.9693C36.0677 29.2829 35.4511 28.6747 34.5025 28.0726C33.8266 27.6451 32.9729 27.2237 31.9353 26.7962C31.627 26.6697 31.295 26.5372 30.9511 26.4048C30.708 26.8263 30.4472 27.3561 30.21 27.9823C29.7238 29.2889 29.6171 30.3727 29.5223 31.6853C29.3266 34.4731 29.2258 35.8699 29.3088 37.4836C29.3918 39.0431 29.6112 41.1384 30.2041 43.601C30.1329 45.4254 30.0974 47.2137 30.1092 48.9658C30.1151 49.9292 30.127 50.8745 30.1566 51.8138C29.3385 51.0732 28.4076 50.3567 27.3582 49.7185C25.7989 48.7671 23.5637 47.4485 20.7772 47.7857C20.3681 47.8339 20.0183 47.9121 19.7574 47.9844C19.6566 48.0085 19.5677 48.0747 19.5143 48.165C19.5084 48.171 19.5084 48.1771 19.5025 48.1831C19.4669 48.2493 19.4432 48.3216 19.4432 48.3938C19.4432 48.442 19.4491 48.4841 19.4669 48.5263C19.6388 49.0381 19.6685 49.4475 19.6685 49.7185C19.6744 51.1154 18.8325 51.8499 19.0756 53.1264Z" fill="#924B44"/>
<path d="M34.3483 56.9379C33.5479 55.6073 32.1902 53.6323 30.1685 51.814" stroke="#020304" stroke-width="0.4126" stroke-miterlimit="10" stroke-linecap="round" stroke-linejoin="round"/>
<path d="M31.1231 32.9739C30.963 34.1841 30.8207 35.4184 30.7021 36.6768C30.4709 39.0371 30.3108 41.3492 30.2219 43.5951" stroke="#020304" stroke-width="0.4126" stroke-miterlimit="10" stroke-linecap="round" stroke-linejoin="round"/>
<path d="M10.1408 35.6594C10.1823 37.4898 10.1348 39.5189 9.92732 41.7227C9.91546 41.825 9.90953 41.9334 9.89767 42.0358" stroke="#020304" stroke-width="0.4126" stroke-miterlimit="10" stroke-linecap="round" stroke-linejoin="round"/>
<path d="M8.74748 48.9901C8.51032 48.8938 8.2791 48.8095 8.0538 48.7252H7.91151C7.53799 48.7011 7.06368 48.7192 6.53601 48.8456C5.19015 49.1708 4.33639 50.0137 3.97473 50.4292" stroke="#020304" stroke-width="0.4126" stroke-miterlimit="10" stroke-linecap="round" stroke-linejoin="round"/>
<path d="M12.4886 56.667C12.7554 56.679 13.04 56.6911 13.2771 56.7031C13.5973 57.6003 14.0479 58.1843 14.3443 58.5155C14.8364 59.0574 15.2989 59.5752 15.957 59.5632C16.6625 59.5511 17.1605 58.9309 17.3325 58.7322C17.6586 58.3469 17.7594 57.9796 17.9135 57.4437C18.2337 56.3057 17.9787 55.9565 18.1507 54.5717C18.1625 54.4633 18.1922 54.2345 18.121 53.9515C18.0795 53.7769 18.0143 53.6324 17.9372 53.5119C17.6408 53.4999 17.4748 53.4096 17.3799 53.2952C17.3028 53.1988 17.2732 53.0844 17.2791 52.9399C17.0182 52.952 16.7337 53.0062 16.455 53.1447C16.0874 53.3313 16.0163 53.518 15.6072 53.813C15.4352 53.9394 14.7178 54.4633 13.9174 54.4813C13.5083 54.4934 13.1408 54.3669 12.8384 54.1983C12.7969 54.2826 12.7554 54.373 12.7198 54.4633C12.4115 55.2641 12.4352 56.1371 12.4886 56.667Z" fill="#AB1708"/>
<path d="M5.7949 64.5305C6.04984 64.8978 6.42928 65.0061 7.84629 65.0844C8.20795 65.1025 8.63483 65.1205 9.13878 65.1386C15.5657 65.3794 16.3364 65.1988 16.959 64.5666C17.2021 64.3197 17.3681 64.0548 17.5044 63.5731C17.6586 63.0192 17.7772 62.1642 17.9432 60.7011C18.1447 58.8706 18.3819 56.414 18.5479 53.4517C18.2989 53.4998 18.0973 53.5179 17.9372 53.5119C18.0084 53.6323 18.0736 53.7768 18.121 53.9514C18.1922 54.2344 18.1625 54.4632 18.1507 54.5716C17.9787 55.9564 18.2337 56.3057 17.9135 57.4436C17.7594 57.9795 17.6586 58.3468 17.3325 58.7322C17.1606 58.9369 16.6625 59.551 15.957 59.5631C15.2989 59.5751 14.8364 59.0633 14.3443 58.5154C14.0479 58.1842 13.5914 57.6002 13.2771 56.7031C13.04 56.691 12.7554 56.679 12.4886 56.6669C12.204 56.6549 11.9431 56.6549 11.8068 56.685C11.7416 56.697 11.6823 56.691 11.6289 56.6669C10.9352 56.7572 9.55973 56.8837 7.96486 56.679C7.76921 57.2088 7.56763 57.7567 7.4787 57.9855C6.03798 61.8872 5.32059 63.8561 5.7949 64.5305Z" fill="#642B28"/>
<path d="M17.5103 63.5732C17.7534 63.8381 18.0736 64.1271 18.4768 64.3921C19.0459 64.7593 19.621 64.9641 20.4155 65.1447C22.1942 65.5421 23.6467 65.4698 23.7297 65.4698C27.6665 65.2832 30.0618 66.1562 31.5321 65.8672C31.9472 65.789 32.291 65.6083 32.5756 65.2892C32.9076 64.9159 33.4531 64.0067 32.9373 61.7909C31.7337 61.3695 30.4709 60.8577 29.1606 60.2435C25.0637 58.3228 21.8681 55.9926 19.5084 53.9454L19.2949 53.7769C19.2475 53.6805 19.1823 53.5179 19.1289 53.3132C18.9155 53.3795 18.7317 53.4276 18.5657 53.4577C18.3997 56.4141 18.1625 58.8767 17.9609 60.7071C17.7831 62.1643 17.6645 63.0132 17.5103 63.5732Z" fill="#501A19"/>
<path d="M13.3542 39.3986C15.1566 39.9525 17.2139 40.4583 19.4906 40.7955L19.8404 34.666L20.208 31.4868C19.8938 31.234 19.6803 30.6138 19.544 29.819C19.3483 29.9214 19.1408 30.0177 18.9155 30.114C18.2337 30.391 17.8898 30.5355 17.6112 30.4693C16.4076 30.1863 16.4076 25.9595 16.4372 24.5505C15.5242 24.8456 14.7416 25.0503 14.119 25.2008C14.2258 25.8812 14.3384 26.7362 14.4214 27.7116C14.6941 30.9088 15.0499 34.9731 13.4728 39.0915C13.4372 39.1878 13.3957 39.2902 13.3542 39.3986Z" fill="#924B44"/>
<path d="M21.9273 30.4814C22.6862 30.9751 23.1783 30.9872 23.5103 30.8607C24.4115 30.5115 24.376 29.0243 25.959 26.2064C26.2554 25.6826 26.5222 25.2551 26.7238 24.954C26.7475 24.96 26.7653 24.9661 26.789 24.9721C27.204 25.1045 27.6013 25.231 27.9926 25.3574C27.4471 24.7252 26.9787 24.5747 26.6586 24.5446C26.374 24.5145 26.1191 24.5687 25.87 24.6831C25.8048 24.7132 25.7455 24.7433 25.6803 24.7794C25.3424 24.9841 25.0222 25.2972 24.7021 25.6645C24.5538 25.8331 24.4056 26.0137 24.2515 26.1944C24.1803 26.369 24.1032 26.5496 24.0202 26.7363C23.5993 27.7057 22.7633 29.3735 21.9273 30.4814Z" fill="#D05900"/>
<path d="M19.4906 40.7954C20.7001 40.976 21.9748 41.1085 23.3029 41.1807C24.6724 41.253 25.9768 41.259 27.1981 41.2108C27.1685 41.0543 27.1389 40.9037 27.1092 40.7532C26.8187 39.2901 26.7001 38.2424 26.546 36.8335C26.0894 32.697 26.2673 30.7642 26.3325 30.144C26.4689 28.8977 26.6942 27.8259 27.2989 26.706C27.5717 26.2123 27.8622 25.8089 28.1112 25.5018C28.0697 25.4476 28.0282 25.3994 27.9926 25.3573C27.6072 25.2308 27.2041 25.1044 26.789 24.9719C26.7653 24.9659 26.7475 24.9599 26.7238 24.9539C26.5222 25.2549 26.2554 25.6824 25.959 26.2062C24.376 29.0241 24.4116 30.5113 23.5104 30.8606C23.1784 30.987 22.6803 30.975 21.9274 30.4812C21.3878 31.1977 20.8542 31.6854 20.4274 31.5951C20.3503 31.5771 20.2732 31.5409 20.2021 31.4867L19.8404 34.6659L19.4906 40.7954Z" fill="#924B44"/>
<path d="M12.8562 40.5004C14.6823 41.1326 16.8878 41.7407 19.4135 42.1441L19.4906 40.8014C17.2139 40.4643 15.1566 39.9585 13.3542 39.4045C13.2179 39.7237 13.0578 40.0909 12.8562 40.5004Z" fill="#000B22"/>
<path d="M19.4135 42.1381C20.042 42.2344 20.6883 42.3187 21.3523 42.391C23.629 42.6258 25.6922 42.6379 27.4887 42.5295C27.382 42.0779 27.293 41.6384 27.2041 41.2109C25.9827 41.259 24.6784 41.259 23.3088 41.1808C21.9748 41.1085 20.706 40.976 19.4965 40.7954L19.4135 42.1381Z" fill="#000B22"/>
<path d="M8.74747 48.9901C9.51822 49.2971 10.3423 49.6705 11.1961 50.122C11.7653 50.4171 12.2929 50.7241 12.785 51.0252C13.0459 50.6218 13.372 50.2124 13.787 49.821C14.2732 49.3634 15.1744 48.5445 16.5854 48.3157C17.4096 48.1832 18.1092 48.2976 18.5657 48.4241C18.6843 48.2736 18.8621 48.1772 19.0578 48.1592L19.4076 42.132C16.8819 41.7346 14.6763 41.1265 12.8502 40.4883C12.2099 41.7828 11.1724 43.4386 9.50043 45.1185C9.28699 46.5094 9.03205 47.8039 8.74747 48.9901Z" fill="#642B28"/>
<path d="M12.0321 12.7972C15.204 12.2974 19.6625 12.0626 24.7021 13.333C26.4867 13.7846 28.0756 14.3566 29.4689 14.9587L33.0322 16.5483C33.1033 16.0245 33.1804 15.5006 33.2575 14.9828C33.2812 14.8443 33.2871 14.7059 33.2812 14.5674L33.2752 14.453C33.2515 13.7666 32.9314 13.1404 32.4156 12.7249C32.3148 12.6406 32.2021 12.5684 32.0835 12.5082C31.1527 12.0084 30.1329 11.5388 29.0065 11.1293C27.8147 10.7018 26.6468 10.3827 25.5025 10.1659C25.1527 10.0997 24.8088 10.0395 24.4649 9.99133C19.9234 9.32901 15.9155 10.0877 13.3483 10.8162C13.0874 10.8885 12.8503 11.027 12.6605 11.2136C12.453 11.4123 12.3048 11.6652 12.2218 11.9482L12.0914 12.4178C12.0617 12.5262 12.038 12.6406 12.0321 12.755C12.0321 12.7671 12.0321 12.7851 12.0321 12.7972Z" fill="#000B22"/>
<path d="M11.9491 14.0798C13.621 13.8149 15.4886 13.6222 17.5222 13.5801C18.21 13.562 18.8799 13.5681 19.5202 13.5861C19.704 13.5319 19.87 13.4958 20.0183 13.4657C20.5519 13.3453 22.704 12.9659 24.3286 14.4833C24.376 14.5314 24.4234 14.5736 24.4708 14.6278C25.793 15.0854 27.1566 15.5911 28.5499 16.1511C30.0499 16.7532 31.4788 17.3734 32.8306 17.9996C32.8958 17.5119 32.961 17.0302 33.0262 16.5545L29.463 14.9649C28.0697 14.3628 26.4807 13.7908 24.6961 13.3393C19.6566 12.0688 15.1981 12.3036 12.0261 12.8034C12.0024 13.2249 11.9728 13.6523 11.9491 14.0798Z" fill="#0D294C"/>
<path d="M17.3206 16.8917C17.3443 16.8796 17.374 16.8736 17.4036 16.8616C18.2159 16.5726 19.704 16.2294 21.3285 16.8194C22.2001 17.1325 22.8404 17.6202 23.2613 18.0176C23.2673 18.1682 23.2673 18.3247 23.2673 18.4873C23.2613 18.7522 23.2495 19.0051 23.2258 19.2459C23.4451 19.4025 23.6704 19.5711 23.8957 19.7577C24.2337 20.0347 24.5301 20.3056 24.8029 20.5706C24.9155 20.2515 25.0637 19.836 25.2297 19.3423C25.5499 18.415 25.71 17.9514 25.7337 17.837C25.9708 16.6749 25.2238 15.3864 24.4827 14.6278C24.4353 14.5796 24.3878 14.5314 24.3404 14.4832C22.7159 12.9659 20.5637 13.3453 20.0301 13.4657C19.8819 13.5018 19.71 13.5379 19.5321 13.5861C19.0459 13.7246 18.4827 13.9654 18.0262 14.5073C17.3562 15.2961 17.285 16.2595 17.3206 16.8917Z" fill="#CF1919"/>
<path d="M17.1961 17.8732C18.2218 17.8551 19.4669 17.9454 20.8483 18.2886C21.5775 18.4693 22.2297 18.6981 22.8048 18.9329L22.9886 19.0654C23.0657 19.1195 23.1487 19.1737 23.2317 19.2339C23.2554 18.9931 23.2673 18.7402 23.2732 18.4753C23.2791 18.3127 23.2791 18.1562 23.2673 18.0056C22.8463 17.6082 22.206 17.1266 21.3345 16.8074C19.704 16.2174 18.2218 16.5606 17.4095 16.8496C17.3918 16.9218 17.374 17.0242 17.3503 17.1326V17.1386C17.291 17.4096 17.2258 17.7287 17.1961 17.8732Z" fill="#FFBB80"/>
<path d="M11.7119 25.6882C12.3582 25.5678 13.0874 25.4353 13.9352 25.2426C13.9945 25.2306 14.0597 25.2125 14.125 25.1945C14.7475 25.0499 15.536 24.8392 16.4431 24.5442C16.6447 24.4779 16.8582 24.4057 17.0716 24.3334C16.621 22.8944 16.2534 22.4127 16.4846 22.1779C16.538 22.1237 16.6092 22.0996 16.6922 22.1056C16.5973 21.5457 16.6151 21.0519 16.6269 20.781C16.6269 20.775 16.6269 20.7629 16.6269 20.7569C16.3661 20.4679 16.2475 20.1668 16.2178 20.0825L16.7218 17.8848C16.876 17.8788 17.0301 17.8728 17.1902 17.8728C17.2198 17.7283 17.285 17.4092 17.3443 17.1442V17.1382C17.3325 17.0599 17.3265 16.9757 17.3206 16.8853C17.2791 16.2591 17.3562 15.2897 18.0143 14.507C18.4708 13.9651 19.0341 13.7243 19.5202 13.5858C18.874 13.5677 18.2099 13.5617 17.5222 13.5798C15.4886 13.6219 13.6151 13.8146 11.9491 14.0795C11.9076 14.79 11.8661 15.5065 11.8364 16.229C11.6882 19.5045 11.6526 22.6596 11.7119 25.6882Z" fill="#000B22"/>
<path d="M16.6922 22.1118C17.3681 22.1359 18.9511 23.9121 21.2396 23.7676C22.206 23.7074 23.1902 23.7977 24.1448 23.6352C24.2456 23.6171 24.3582 23.593 24.4768 23.581C24.4827 23.5147 24.4827 23.4545 24.4886 23.3883C24.4946 23.3221 24.5005 23.2318 24.5064 23.1173C24.5301 22.8223 24.5657 22.3647 24.5894 21.7506C24.5954 21.6362 24.6013 21.5338 24.6072 21.4375L23.2554 21.4134C23.0538 21.5579 22.0993 22.2021 20.955 21.9493C20.706 21.8951 20.0657 21.7566 19.621 21.1846C19.5202 21.0581 19.4491 20.9317 19.3957 20.8173C18.7969 21.3532 17.9847 21.5157 17.2969 21.2388C17.0123 21.1183 16.787 20.9437 16.6269 20.7571C16.6269 20.7631 16.6269 20.7751 16.6269 20.7812C16.621 21.0581 16.5973 21.5519 16.6922 22.1118Z" fill="#FFBB80"/>
<path d="M11.6349 56.6671C11.6823 56.6912 11.7416 56.7033 11.8127 56.6852C11.9491 56.6611 12.21 56.6611 12.4945 56.6671C12.4412 56.1373 12.4175 55.2582 12.7317 54.4754C12.7673 54.3791 12.8088 54.2948 12.8503 54.2105C12.5064 54.0178 12.2396 53.771 12.0736 53.5964C11.9787 53.494 11.9194 53.3615 11.9017 53.217C11.8246 53.3676 11.7475 53.5301 11.6823 53.7168C11.6052 53.9034 11.0716 56.3902 11.6349 56.6671Z" fill="white"/>
<path d="M11.8957 53.1566C11.8957 53.1747 11.8957 53.1927 11.8957 53.2108C11.8957 53.2168 11.8957 53.2168 11.8957 53.2228C11.9076 53.3613 11.9669 53.4938 12.0677 53.6022C12.2337 53.7768 12.5005 54.0236 12.8443 54.2163C13.1526 54.3849 13.5143 54.5113 13.9234 54.4993C14.7297 54.4812 15.4412 53.9514 15.6131 53.831C16.0163 53.5359 16.0874 53.3432 16.461 53.1626C16.7396 53.0241 17.0242 52.9699 17.2851 52.9579C17.2969 52.422 17.8009 51.4827 18.2218 49.7306C18.3048 49.3753 18.376 49.0562 18.4234 48.7732C18.4471 48.6468 18.5005 48.5384 18.5776 48.4421C18.1151 48.3217 17.4214 48.2012 16.5973 48.3337C15.1803 48.5625 14.2851 49.3814 13.7989 49.839C13.3839 50.2243 13.0578 50.6398 12.7969 51.0432C12.3048 51.8019 12.0558 52.5304 11.9254 53.0061C11.9016 53.0422 11.8957 53.1024 11.8957 53.1566Z" fill="#D9331E"/>
<path d="M17.2791 52.9459C17.2732 53.0904 17.3088 53.2048 17.3799 53.3011C17.4748 53.4155 17.6408 53.5058 17.9372 53.5179C18.0973 53.5239 18.2989 53.5058 18.5479 53.4577C18.7139 53.4215 18.9037 53.3794 19.1112 53.3132C19.0934 53.259 19.0815 53.1927 19.0697 53.1325C18.8266 51.8621 19.6744 51.1215 19.6803 49.7246C19.6803 49.4536 19.6507 49.0382 19.4788 48.5324C19.461 48.4903 19.455 48.4421 19.455 48.3999C19.455 48.3277 19.4728 48.2554 19.5143 48.1892C19.5203 48.1832 19.5203 48.1772 19.5262 48.1711H19.1289C19.1052 48.1711 19.0874 48.1711 19.0637 48.1772C18.8681 48.1952 18.6902 48.2916 18.5716 48.4421C18.4946 48.5324 18.4412 48.6468 18.4175 48.7733C18.3641 49.0562 18.2989 49.3814 18.2159 49.7306C17.795 51.4707 17.2969 52.41 17.2791 52.9459Z" fill="white"/>
<path d="M19.0637 48.1653C19.0874 48.1653 19.1052 48.1593 19.1289 48.1593H19.5262C19.5855 48.069 19.6685 48.0027 19.7693 47.9786C20.0301 47.9064 20.3799 47.8341 20.789 47.78C23.5756 47.4428 25.8108 48.7614 27.3701 49.7127C28.4195 50.351 29.3444 51.0675 30.1685 51.8081C30.1389 50.8688 30.127 49.9235 30.1211 48.9601C29.4689 47.9184 29.0124 46.9791 28.6922 46.2446C28.0993 44.8898 27.7495 43.6675 27.4827 42.5296C25.6863 42.6319 23.623 42.6259 21.3463 42.3911C20.6823 42.3188 20.0361 42.2345 19.4076 42.1382L19.0637 48.1653Z" fill="#642B28"/>
<path d="M26.546 36.8335C26.7001 38.2364 26.8187 39.2901 27.1092 40.7532C27.1389 40.9037 27.1685 41.0543 27.1981 41.2108C27.2871 41.6383 27.376 42.0779 27.4827 42.5294C27.7495 43.6674 28.1053 44.8897 28.6922 46.2445C29.0124 46.979 29.4689 47.9123 30.1211 48.96C30.1152 47.2139 30.1448 45.4256 30.2159 43.5952C29.6231 41.1386 29.4037 39.0372 29.3207 37.4777C29.2377 35.8641 29.3385 34.4672 29.5341 31.6794C29.629 30.3668 29.7357 29.283 30.2219 27.9764C30.4531 27.3503 30.7199 26.8264 30.963 26.3989C30.2574 26.128 29.4748 25.851 28.6151 25.562C28.4729 25.5138 28.3306 25.4656 28.1823 25.4175C28.1586 25.4476 28.1349 25.4717 28.1112 25.5018C27.8622 25.8089 27.5717 26.2062 27.2989 26.706C26.6883 27.8259 26.463 28.8977 26.3325 30.144C26.2673 30.7642 26.0835 32.697 26.546 36.8335Z" fill="#000B22"/>
<path d="M24.5953 21.7567C24.5657 22.3708 24.5301 22.8284 24.5123 23.1234C25.2594 23.0994 26.9432 23.2138 28.0163 24.5143C28.3068 24.8696 28.4965 25.2369 28.6211 25.574C29.4807 25.863 30.2634 26.14 30.9689 26.411C31.3128 26.5434 31.6389 26.6699 31.9531 26.8023C32.0361 25.6764 32.1309 24.5324 32.2377 23.3703C32.4155 21.5339 32.6171 19.7396 32.8424 17.9995C31.4906 17.3733 30.0677 16.7531 28.5618 16.151C27.1685 15.5911 25.8048 15.0853 24.4827 14.6277C25.2238 15.3924 25.9708 16.6749 25.7337 17.8369C25.71 17.9513 25.5499 18.415 25.2297 19.3422C25.0578 19.8359 24.9096 20.2574 24.8029 20.5705C24.8384 20.6066 24.8681 20.6367 24.9036 20.6668L24.8147 21.4436L24.6191 21.4375C24.6072 21.5399 24.6013 21.6423 24.5953 21.7567Z" fill="#000B22"/>
<path d="M33.2812 14.4532L33.2871 14.5676C33.293 14.7061 33.2812 14.8446 33.2634 14.9831C33.1863 15.5009 33.1092 16.0187 33.0381 16.5486L38.4037 17.7106C38.3622 17.5541 38.3148 17.4036 38.2555 17.247C37.9176 16.3318 37.3899 15.6815 36.8385 15.1697C36.4946 14.8506 36.1448 14.5857 35.8247 14.3509C34.6507 13.4718 33.4413 12.9901 32.4156 12.7312C32.9373 13.1406 33.2575 13.7729 33.2812 14.4532Z" fill="#2A4448"/>
<path d="M31.9471 26.7965C32.9847 27.224 33.8325 27.6455 34.5144 28.073C34.5559 27.79 34.6092 27.4648 34.6626 27.1036C34.7634 26.4593 34.876 25.7127 35.0005 24.9239C35.1725 23.798 35.3622 22.5877 35.5282 21.504C35.7831 19.8421 37.0638 19.1015 38.5934 19.2581C38.5993 19.1136 38.5934 18.963 38.5816 18.8065L32.8365 17.9937C32.6112 19.7337 32.4096 21.528 32.2317 23.3645C32.125 24.5265 32.0301 25.6706 31.9471 26.7965Z" fill="#2A4448"/>
<path d="M35.0005 24.9298C35.9373 25.8571 37.965 27.4768 40.4255 27.0733C40.9828 26.983 41.4749 26.8024 41.8899 26.5856L42.6784 22.9609C43.046 21.269 41.8425 20.125 40.2002 19.6554L39.3642 19.4145C39.1033 19.3423 38.8425 19.2881 38.5934 19.264C37.0638 19.1014 35.7832 19.848 35.5282 21.5099C35.3563 22.5937 35.1725 23.7979 35.0005 24.9298ZM36.6013 20.2454C36.7851 19.7276 37.5796 19.5169 38.5757 19.6433C38.9966 19.6915 39.4531 19.8059 39.9156 19.9745C41.4867 20.5585 42.5421 21.6243 42.2812 22.3528C42.0203 23.0874 40.5322 23.2078 38.961 22.6238C37.3958 22.0397 36.3405 20.974 36.6013 20.2454Z" fill="#CF1919"/>
<path d="M34.6626 27.1035C34.9353 27.4346 35.2021 27.6755 35.4037 27.8441C35.5104 27.9344 37.793 29.7768 40.6863 29.1085C40.9413 29.0483 41.1725 28.976 41.3859 28.8977L41.8899 26.5796C41.4689 26.7964 40.9769 26.977 40.4255 27.0673C37.965 27.4708 35.9314 25.8511 35.0005 24.9238C34.876 25.7126 34.7634 26.4592 34.6626 27.1035Z" fill="#000B22"/>
<path d="M34.5144 28.0729C35.463 28.669 36.0796 29.2832 36.4116 29.9696C36.465 30.0779 36.6666 30.5115 36.8859 31.0955C37.0638 31.5651 37.4136 32.5586 37.6804 33.9375C38.0954 36.1171 38.2733 39.1638 38.4334 42.5416L41.3919 28.8978C41.1784 28.9761 40.9413 29.0483 40.6923 29.1085C37.799 29.7829 35.5164 27.9404 35.4096 27.8441C35.2021 27.6695 34.9413 27.4287 34.6685 27.1035C34.6092 27.4648 34.5559 27.7899 34.5144 28.0729Z" fill="#CF1919"/>
<path d="M38.967 22.6236C40.5381 23.2076 42.0204 23.0872 42.2872 22.3527C42.548 21.6241 41.4927 20.5523 39.9215 19.9743C39.4591 19.7997 39.0026 19.6913 38.5816 19.6432C37.5796 19.5167 36.7911 19.7335 36.6073 20.2453C36.3405 20.9738 37.3958 22.0396 38.967 22.6236Z" fill="#000B22"/>
<path d="M37.71 15.567C37.8049 15.6272 37.8998 15.6753 38.0065 15.6994C39.2575 16.0607 40.9176 14.0256 41.712 11.1595C42.5065 8.29348 42.1389 5.68032 40.8879 5.31905C40.8583 5.31303 40.8346 5.30701 40.8049 5.30099C39.5658 5.0481 37.9591 7.05915 37.1824 9.86498C36.4531 12.4902 36.7021 14.9107 37.71 15.567Z" fill="#AB1708"/>
<path d="M8.10715 6.74607C8.88977 9.61813 10.538 11.6593 11.789 11.304C11.8542 11.286 11.9135 11.2619 11.9787 11.2318L12.6665 11.2077C12.8562 11.021 13.0933 10.8826 13.3542 10.8103C15.9214 10.0878 19.9293 9.3231 24.4709 9.98542C23.6052 7.21572 23.9965 4.36172 25.6329 2.43497C26.125 1.85092 26.6764 1.4174 27.2041 1.09829C26.5519 0.9598 25.8997 0.827336 25.2653 0.718956C22.1112 0.165016 15.8028 -0.0276594 9.25143 0.875505C9.15657 0.887547 9.05577 0.899589 8.96091 0.917652C7.70399 1.26085 7.32454 3.87401 8.10715 6.74607Z" fill="#D9331E"/>
<path d="M24.4708 9.98528C24.8147 10.0334 25.1586 10.0937 25.5084 10.1599C25.1704 8.70881 24.9036 6.1378 26.3207 3.66313C26.9195 2.6275 27.6547 1.87487 28.3246 1.34501C27.9511 1.26071 27.5776 1.17642 27.2041 1.09814C26.6764 1.41726 26.125 1.85078 25.6329 2.43483C23.9965 4.3676 23.6052 7.2216 24.4708 9.98528Z" fill="white"/>
<path d="M25.5025 10.166C26.6468 10.3828 27.8207 10.7019 29.0065 11.1294C30.127 11.5388 31.1527 12.0085 32.0835 12.5082C32.2021 12.5745 32.3088 12.6467 32.4156 12.725C33.4413 12.9899 34.6507 13.4656 35.8247 14.3447C36.1448 14.5855 36.4946 14.8444 36.8385 15.1635L37.71 15.5609C36.7021 14.9046 36.4531 12.4842 37.1824 9.85896C37.965 7.05313 39.5658 5.04811 40.8049 5.29497C39.4116 4.81328 36.8385 3.65723 34.4492 2.96481C33.3938 2.65773 30.9274 1.94724 28.3128 1.33911C27.6428 1.86897 26.9076 2.6216 26.3088 3.65723C24.8977 6.13792 25.1645 8.70893 25.5025 10.166Z" fill="#D9331E"/>
<path d="M19.3958 28.6568C19.4313 29.0662 19.4788 29.4576 19.544 29.8189C19.6803 30.6137 19.8938 31.2338 20.208 31.4867C20.2792 31.5409 20.3503 31.577 20.4333 31.5951C20.8543 31.6854 21.3938 31.2037 21.9333 30.4812C22.7693 29.3733 23.6053 27.7055 24.0321 26.7421C24.1151 26.5554 24.1922 26.3748 24.2634 26.2002C23.38 27.2599 22.3898 28.4762 20.8009 28.6989C20.7653 28.705 20.6705 28.717 20.5341 28.7291C20.2614 28.7471 19.8404 28.7531 19.3958 28.6568Z" fill="#642B28"/>
<path d="M17.6111 30.4693C17.8839 30.5356 18.2337 30.391 18.9155 30.1141C19.1408 30.0238 19.3483 29.9214 19.544 29.819C19.4787 29.4578 19.4313 29.0664 19.3957 28.657C18.9629 28.5667 18.5005 28.374 18.1507 28.0067C17.5637 27.3986 17.7653 26.8205 17.2258 24.8697C17.1724 24.677 17.119 24.5024 17.0716 24.3398C16.8582 24.4121 16.6447 24.4844 16.4431 24.5506C16.4076 25.9595 16.4076 30.1863 17.6111 30.4693Z" fill="#642B28"/>
<path d="M8.51624 113.681C10.117 113.873 11.9016 113.988 13.8463 113.958C14.7297 113.946 15.5775 113.897 16.3839 113.837C16.2179 101.488 16.6151 88.6509 17.7001 75.3684C17.8601 73.3875 18.038 71.4186 18.2277 69.4677L19.4965 69.5761C19.8167 71.4487 20.3266 74.6278 20.7653 78.5897C21.9333 89.2109 21.5123 95.7558 21.7139 112.832C21.7198 113.265 21.7258 113.747 21.7317 114.259C23.4867 114.692 25.7574 115.023 28.372 114.831C29.1487 114.776 29.8721 114.68 30.5479 114.56C30.963 100.82 31.2594 87.0734 31.4373 73.3272C31.4729 70.8345 31.4966 68.3418 31.5203 65.8551C30.0499 66.1441 27.6606 65.271 23.7179 65.4577C23.6349 65.4637 22.1823 65.5299 20.4036 65.1325C19.6092 64.9579 19.0341 64.7532 18.4649 64.3799C18.0617 64.115 17.7416 63.826 17.4985 63.561C17.3621 64.0487 17.1961 64.3077 16.953 64.5545C16.3305 65.1867 15.5597 65.3674 9.13284 65.1265C8.62296 65.1085 8.19608 65.0904 7.84035 65.0723C7.80477 67.3844 7.77513 69.7026 7.75734 72.0327C7.66248 86.2545 7.92928 100.139 8.51624 113.681Z" fill="#FF7900"/>
<path d="M22.3542 131.967L22.3898 132.153C22.4491 132.473 22.7159 132.701 23.0361 132.719L31.6863 133.159C32.048 133.177 32.3385 132.87 32.3029 132.515C30.459 132.449 24.3048 132.081 22.3542 131.967Z" fill="#000B22"/>
<path d="M30.382 129.775C29.5578 129.191 28.5677 128.806 27.6013 128.685C26.2021 128.511 25.04 128.932 24.3582 129.257" stroke="#020304" stroke-width="0.4126" stroke-miterlimit="10" stroke-linecap="round" stroke-linejoin="round"/>
<path d="M4.06366 132.346L16.4847 131.407C16.5439 131.07 16.5677 130.841 16.538 130.6C16.455 129.883 16.4017 129.161 16.372 128.438C16.1289 128.487 15.8621 128.553 15.5835 128.655C14.6941 128.974 14.3918 129.366 13.6447 129.51C13.2771 129.582 12.702 129.613 11.9372 129.33L11.7416 129.149C11.3088 128.577 11.1605 128.071 11.1072 127.716C11.0064 127.078 11.1665 126.644 10.8582 126.355C10.6744 126.18 10.3661 126.108 10.1526 126.211C9.96883 126.295 9.91546 126.482 9.74946 126.963C9.63681 127.282 9.50044 127.589 9.39372 127.909C9.31665 128.143 9.19807 128.36 9.04985 128.553C8.73562 128.962 8.29688 129.287 7.91743 129.57C6.47672 130.648 4.70398 131.148 4.21189 131.876C4.17038 131.955 4.05181 132.135 4.06366 132.346Z" fill="#0D294C"/>
<path d="M4.06366 132.346C4.06366 132.37 4.06959 132.388 4.07552 132.412C4.12888 132.665 4.37196 132.804 4.46089 132.858C5.83046 133.659 15.8206 132.334 15.9688 132.316C16.0044 132.31 16.1467 132.298 16.2534 132.195C16.3542 132.099 16.3839 131.973 16.3898 131.913C16.4313 131.714 16.4609 131.551 16.4846 131.407L4.06366 132.346Z" fill="#000B22"/>
<path d="M15.2455 67.8301L18.2277 69.4678" stroke="#020304" stroke-width="0.4126" stroke-miterlimit="10" stroke-linecap="round" stroke-linejoin="round"/>
<path d="M19.4965 69.5761L21.9274 68.7693" stroke="#020304" stroke-width="0.4126" stroke-miterlimit="10" stroke-linecap="round" stroke-linejoin="round"/>
<path d="M32.8365 17.9934L38.5816 18.8062C38.5579 18.463 38.5045 18.0958 38.4037 17.7104L33.0321 16.5483C32.9669 17.03 32.9017 17.5117 32.8365 17.9934Z" fill="#0D294C"/>
<path d="M13.5854 56.2576L12.5123 135.321H13.0696L14.6645 57.9615L13.5854 56.2576Z" fill="white"/>
<path d="M19.2357 31.1677C18.9451 32.5586 18.6783 33.9916 18.4234 35.4547C17.7179 39.5491 17.2554 43.4628 16.9649 47.1598" stroke="#020304" stroke-width="0.4126" stroke-miterlimit="10" stroke-linecap="round" stroke-linejoin="round"/>
</svg>
