<svg width="71" height="116" viewBox="0 0 71 116" fill="none" xmlns="http://www.w3.org/2000/svg">
<path d="M16.598 74.4643C16.8352 74.9939 17.0785 75.5235 17.34 76.0592C18.2524 77.9585 19.2133 79.7056 20.1743 81.2945C20.9832 81.1605 21.8104 81.0084 22.6558 80.8318C24.9183 80.3631 27.0471 79.3038 28.969 78.5003C29.8935 78.1168 30.6781 77.4228 31.1951 76.5218L31.5539 75.907C33.1414 72.6928 34.7288 68.7724 35.927 64.1885C36.225 63.0502 36.4804 61.9361 36.6994 60.8587C37.8732 61.5161 39.2235 62.3075 40.7683 63.245L41.1211 63.458C43.4809 64.9008 46.2726 66.6722 49.5509 68.7968C49.557 69.4847 49.5691 70.1786 49.5813 70.8787C49.6543 73.8007 49.8307 76.6436 50.0861 79.4012C51.8925 79.4134 53.7658 79.3891 55.6877 79.3282C57.3056 79.2734 58.8808 79.1943 60.4135 79.0908C60.6751 76.0653 60.9366 73.0337 61.192 70.0143C61.192 70.0082 61.192 70.0021 61.192 69.996C61.3441 68.188 60.8149 66.3922 59.7262 64.9921C57.5002 62.1249 54.7632 59.0872 51.4181 56.1591C49.1799 54.1928 46.9842 52.5492 44.9163 51.1673C44.7703 51.0699 44.6244 50.9786 44.4845 50.8812C44.302 50.7595 44.1196 50.6438 43.9371 50.5281L43.9614 50.2725C44.1317 48.5558 44.1317 46.8513 44.1317 45.1163C44.1317 44.7876 44.1135 44.4163 43.8763 44.191C43.6208 43.9475 43.2194 43.9719 42.8727 44.0084C40.817 44.2519 38.816 44.7937 36.748 44.3858C35.191 44.0754 33.8773 43.5518 32.8555 43.0222C32.7703 43.357 32.667 43.7101 32.5453 44.0814C32.4115 44.5015 32.2838 44.8363 32.1986 45.0494L28.8474 45.3355C28.7318 45.3476 28.6224 45.3233 28.525 45.2807C28.3669 45.305 28.2148 45.3172 28.0689 45.3172C27.5519 45.3294 27.0592 45.2563 26.597 45.1285C26.4571 46.1695 26.3537 47.2713 26.299 48.4279C26.1409 51.5326 26.3294 54.3511 26.6761 56.7861C26.5362 57.9123 26.3841 59.0567 26.2138 60.2195C25.6604 63.9816 25.0035 67.5549 24.2615 70.9274C23.3248 71.3292 22.376 71.7431 21.4211 72.1754C19.7729 72.9302 18.1672 73.6851 16.598 74.4643Z" fill="#FF7900"/>
<path d="M38.8829 19.7251C39.0471 19.8834 39.2174 20.0417 39.3816 20.206C39.3816 20.2 39.3877 20.2 39.3877 20.1939C39.5093 20.0234 39.6735 19.7921 39.8986 19.5364C40.0932 19.3173 40.3365 19.0677 40.6345 18.8364C42.2828 17.5093 45.1718 16.657 47.2397 18.0632C48.6568 19.0251 49.1312 20.7478 49.5205 22.1541C50.1591 24.4673 49.8732 26.4458 49.6664 27.7424C49.5266 28.6312 49.3258 29.4226 49.113 30.0983C49.2529 31.0236 49.3806 31.9489 49.5083 32.862C49.9766 30.9018 50.4145 29.0756 50.8281 27.3711C51.0957 26.2692 51.4363 24.8995 51.0653 23.2498C50.67 21.4844 49.5935 19.9747 48.9183 19.0312C48.6507 18.6537 48.3953 18.325 48.1581 18.0389C48.1155 17.8624 48.0973 17.6797 48.1033 17.4849C48.1033 17.3632 48.1216 17.2536 48.1398 17.1379C48.1702 16.9736 48.225 16.8153 48.298 16.6631C48.2797 16.3648 48.2797 16.097 48.298 15.8474C47.2519 16.0787 44.8859 16.4135 42.6659 15.0256C42.2889 14.7882 41.9543 14.5264 41.6624 14.2585C41.34 15.0317 40.8352 15.9204 40.0081 16.8518C39.9655 17.2719 39.8743 17.698 39.7344 18.118C39.5215 18.7268 39.2296 19.2686 38.8829 19.7251Z" fill="#992525"/>
<path d="M41.6624 14.2526C41.9483 14.5204 42.2828 14.7822 42.666 15.0196C44.8859 16.4076 47.2519 16.0788 48.298 15.8414C48.3406 15.257 48.4683 14.8066 48.6082 14.4717C49.2103 12.962 50.2017 12.962 52.2027 10.4357C53.1698 9.21212 53.6807 8.27465 53.8631 7.91548C54.3619 6.97192 54.6842 6.10749 54.8971 5.42569C54.6356 5.08479 54.3923 4.7865 54.1672 4.53082C52.9022 3.06373 52.0993 2.54629 51.8317 2.38193C51.7526 2.33323 51.5093 2.1993 51.0289 1.92536C48.7602 0.653071 46.7106 -0.187006 44.4176 1.62707C43.2316 2.56455 42.4348 3.94642 42.0821 5.41351C41.4495 8.01288 42.666 10.5209 42.0456 13.102C41.9544 13.449 41.8327 13.8386 41.6624 14.2526Z" fill="#992525"/>
<path d="M48.298 16.657C48.7907 15.6343 50.22 14.8308 52.3487 12.5236C52.7866 12.0488 53.1576 11.6165 53.4739 11.2269C54.2889 10.2164 54.7207 9.49809 54.9336 9.12675C55.1647 8.72497 55.3654 8.34146 55.5357 7.9823C55.7121 7.61705 55.8581 7.27614 55.9797 6.97177C55.6026 6.38737 55.2377 5.87601 54.891 5.42554C54.6782 6.10125 54.3558 6.96568 53.8571 7.91533C53.6685 8.2745 53.1576 9.21198 52.1966 10.4356C50.1956 12.9619 49.2043 12.9619 48.6021 14.4716C48.4683 14.8125 48.3406 15.2569 48.2919 15.8413C48.2737 16.0909 48.2737 16.3648 48.298 16.657Z" fill="#FF7900"/>
<path d="M63.3877 43.4848C63.2113 43.564 63.0714 43.6736 63.0775 43.8379C63.0775 43.9292 63.1262 44.0084 63.1688 44.0875C63.8074 45.2441 64.1723 46.559 64.2149 47.8861C64.221 48.0079 64.221 48.1357 64.3 48.2331C64.3426 48.2879 64.4034 48.3183 64.4642 48.3488C64.8292 48.5497 65.2063 48.8358 65.5894 48.9697C66.003 49.1158 66.6234 49.2497 67.0613 49.2497C67.1343 49.2619 67.2073 49.2741 67.2803 49.2802C67.554 49.3167 67.9432 49.3593 68.3811 49.1889C68.3811 49.1889 68.4784 49.1462 68.6183 49.0671C68.7217 49.0062 68.8494 48.9332 68.965 48.8297C70.1753 47.8374 70.5524 45.5911 69.7192 44.0023C69.6097 43.7892 69.2205 43.0466 68.3872 42.6509C68.3203 42.6204 68.2534 42.59 68.1804 42.5595C67.8702 42.4439 67.5661 42.4013 67.2863 42.4013C67.0309 42.4013 66.7998 42.4378 66.5991 42.4926L66.5687 41.9812C66.5382 41.9751 66.5139 41.9691 66.4835 41.9569C65.705 41.7743 65.0664 42.2065 64.9447 42.2978C64.5798 42.5474 64.3913 42.9552 64.0324 43.217C63.8925 43.3144 63.6127 43.3814 63.3877 43.4848Z" fill="#000B22"/>
<path d="M63.0167 48.0933C63.1627 47.6915 63.6736 46.127 62.9863 44.4834C62.7917 44.0146 62.5423 43.6372 62.3051 43.3572" fill="#FF910E"/>
<path d="M63.0167 48.0933C63.1627 47.6915 63.6736 46.127 62.9863 44.4834C62.7917 44.0146 62.5423 43.6372 62.3051 43.3572" stroke="black" stroke-width="0.1978" stroke-miterlimit="10"/>
<path d="M33.4941 17.7163C33.5002 18.9581 33.9442 20.0661 34.7166 20.6931C34.7166 20.6931 34.7166 20.6931 34.7227 20.6931C34.9234 20.8574 35.1424 20.9853 35.3856 21.0766C36.5838 21.5332 37.9401 20.9488 38.8829 19.7252C39.2295 19.2686 39.5215 18.7268 39.7283 18.1181C39.8682 17.6919 39.9594 17.2658 40.002 16.8519C40.1297 15.6222 39.8438 14.4716 39.2234 13.6985L39.2174 13.6924C39.1018 13.5889 38.9741 13.455 38.8403 13.3028C38.6335 13.1263 38.3963 12.9863 38.1408 12.8889C37.7637 12.7428 37.3684 12.7063 36.9792 12.755C35.6715 12.9254 34.3821 14.1064 33.7921 15.8535C33.5853 16.4805 33.488 17.1136 33.4941 17.7163Z" fill="#FF9933"/>
<path d="M34.9234 17.3938C34.9295 18.0938 35.1728 18.7148 35.6107 19.0678C35.7262 19.1591 35.8479 19.2322 35.9817 19.2809C36.6568 19.5366 37.4171 19.2078 37.9523 18.52C38.1469 18.2643 38.3111 17.9599 38.4267 17.6129C38.5058 17.3755 38.5605 17.132 38.5788 16.9007C38.6517 16.2067 38.4875 15.5614 38.1408 15.1292C38.1408 15.1292 38.1408 15.1292 38.1348 15.1231C38.0679 15.0622 37.9949 14.9892 37.9219 14.904C37.8063 14.8066 37.6725 14.7274 37.5326 14.6726C37.3198 14.5935 37.1008 14.5692 36.8758 14.5996C36.1398 14.697 35.4161 15.3605 35.0815 16.3406C34.9721 16.6998 34.9234 17.059 34.9234 17.3938Z" fill="#CC6633"/>
<path d="M35.8783 17.1807C35.8783 17.5155 36 17.8199 36.2128 17.9904C36.2676 18.033 36.3284 18.0695 36.3953 18.0939C36.7177 18.2156 37.0887 18.0573 37.3441 17.7286C37.4414 17.6069 37.5205 17.4547 37.5752 17.2903C37.6117 17.1746 37.6361 17.059 37.6482 16.9494C37.6847 16.6146 37.6056 16.3041 37.4353 16.0911C37.4049 16.0606 37.3684 16.0241 37.3319 15.9876C37.2772 15.9389 37.2103 15.9024 37.1434 15.878C37.04 15.8415 36.9366 15.8293 36.8271 15.8415C36.4744 15.8902 36.1216 16.2067 35.9635 16.6816C35.9027 16.8459 35.8722 17.0164 35.8783 17.1807Z" fill="#FF9933"/>
<path d="M30.4652 14.7278C30.4896 14.8313 30.5139 14.9348 30.5443 15.0443C30.6538 15.4583 30.7876 15.9088 30.9761 16.3653C30.9761 16.3653 30.9761 16.3653 30.9761 16.3714C31.116 16.7184 31.2863 17.0654 31.487 17.4002C32.0952 18.3864 32.7825 19.1351 33.409 19.6952C33.9016 20.1396 34.3639 20.4683 34.7166 20.6875C33.9442 20.0604 33.5002 18.9525 33.4941 17.7107C33.488 17.108 33.5854 16.4749 33.7982 15.8479C34.3882 14.1068 35.6715 12.9198 36.9853 12.7493C37.3806 12.6945 37.7698 12.7372 38.1469 12.8833C38.4024 12.9807 38.6335 13.1207 38.8464 13.2972C38.226 12.6093 37.4597 11.5562 36.8758 10.8378C36.6325 10.5396 36.4135 10.3995 36.2128 10.2413C36.0608 10.1256 35.9148 9.99777 35.7688 9.78471C35.5681 9.61426 35.337 9.48033 35.0937 9.38902C33.4576 8.76201 31.5114 10.0891 30.745 12.3536C30.4713 13.1633 30.3862 13.9851 30.4652 14.7278Z" fill="#CC6633"/>
<path d="M33.8529 37.3243C35.3065 37.7931 37.119 38.1827 39.2112 38.2192C39.6674 38.2253 40.1053 38.2131 40.525 38.1888C40.3912 33.7875 40.2452 29.3862 40.0931 24.9788C40.0384 23.4204 39.9837 21.8559 39.9289 20.2975L39.9046 19.5305C39.6796 19.7862 39.5153 20.0175 39.3937 20.188C39.3937 20.1941 39.3876 20.1941 39.3876 20.2001C38.3841 21.6307 36.9305 23.9501 35.4282 28.534L35.264 29.094C35.1362 29.5871 35.0693 30.4272 34.8625 31.3829C34.4003 33.4953 34.0779 35.6137 33.8529 37.3243Z" fill="#6D1212"/>
<path d="M39.8742 19.5062C39.8195 19.561 39.7647 19.6219 39.71 19.6827C39.4728 19.9567 39.1747 20.1697 38.8889 20.395C38.6943 20.5533 38.4875 20.7298 38.4206 20.9672C38.3841 21.095 38.3962 21.2351 38.4084 21.369C38.4145 21.4481 38.4267 21.5334 38.4692 21.6064C38.5483 21.7221 38.7064 21.7586 38.8463 21.7586C38.9923 21.7647 39.1443 21.7464 39.266 21.6734C39.418 21.5821 39.5032 21.4116 39.5762 21.2533C39.7526 20.8942 39.9289 20.535 40.0992 20.1697C40.2817 19.7862 40.6284 19.5671 40.9568 19.3114C41.2123 19.1105 41.486 18.934 41.7718 18.7879C42.0638 18.6357 42.4043 18.5748 42.6963 18.4287C44.0526 18.0696 45.9624 18.2339 47.0815 19.5366C47.2275 19.7071 47.6106 20.188 47.9695 21.6551C48.1884 22.5378 48.4135 23.8527 48.3648 25.5207C48.6324 27.0547 48.8818 28.5766 49.1068 30.0863C49.3197 29.4045 49.5204 28.6131 49.6603 27.7304C49.861 26.4338 50.153 24.4554 49.5143 22.1421C49.1251 20.7359 48.6507 19.0131 47.2335 18.0513C45.1656 16.6451 42.2766 17.4973 40.6284 18.8244C40.3668 19.0436 40.1114 19.2627 39.8742 19.5062Z" fill="#AE4924"/>
<path d="M22.376 42.5109C23.1119 43.3692 24.5047 44.7511 26.3172 45.2746C26.8099 45.4146 27.3329 45.4938 27.8864 45.4755C28.0445 45.4694 28.2027 45.4572 28.373 45.4329C28.1175 45.3294 27.9229 45.0859 27.8803 44.7815C27.0045 38.4262 26.7855 28.6557 32.3142 21.0828C32.6548 20.6141 33.0197 20.1514 33.4211 19.6949C32.7946 19.1409 32.1074 18.386 31.4992 17.3999C31.2924 17.0651 31.1221 16.7181 30.9883 16.3711C30.9883 16.3711 30.9822 16.3711 30.9883 16.365C30.7693 15.9876 30.6173 15.5432 30.5321 15.0623C30.0881 15.4153 29.6684 15.7806 29.2792 16.158C21.3907 23.6761 21.8104 36.679 22.376 42.5109Z" fill="#FF9933"/>
<path d="M49.6117 79.4073C49.6178 79.5778 49.6239 79.7543 49.6299 79.9308C49.8854 85.8175 49.6604 91.698 50.1834 97.6151C50.2382 98.2299 50.299 98.863 50.5848 99.4109C51.3086 100.817 53.1272 101.164 54.7024 101.292C57.6279 101.535 60.6081 101.602 63.4667 100.921C63.856 100.829 64.2696 100.701 64.5007 100.373C64.671 100.135 64.7075 99.8309 64.744 99.5448C64.8778 98.4369 64.9204 97.1098 64.0263 96.4463C63.1505 95.801 61.6908 96.0932 61.0947 95.1862C60.8089 94.754 60.8393 94.1939 60.8758 93.6765C61.1495 89.2995 60.5534 85.0322 60.9001 80.6674C60.9427 80.1317 60.9852 79.596 61.0278 79.0664C60.8271 79.0786 60.6142 79.0968 60.4135 79.109C58.8808 79.2125 57.3056 79.2916 55.6877 79.3464C55.5722 79.3525 55.4566 79.3525 55.341 79.3586C53.7293 79.4073 52.154 79.4256 50.6213 79.4256C50.4389 79.4256 50.2625 79.4256 50.0861 79.4256C49.9219 79.4073 49.7698 79.4073 49.6117 79.4073Z" fill="#463F54"/>
<path d="M7.29847 78.9142C4.87171 80.2169 2.79771 81.3309 2.35979 81.5683C1.59953 81.9823 0.808857 82.4327 0.358781 83.1754C-1.19824 85.7444 2.7308 88.5263 4.15402 90.0726C4.64667 90.6083 5.1454 91.144 5.74753 91.5518C7.31063 92.5989 9.34206 92.605 11.2093 92.3798C12.0364 92.2824 12.8697 92.1423 13.6239 91.7832C14.2564 91.4788 14.8707 90.87 14.7308 90.1822C14.4328 88.7333 11.5073 88.5751 10.8626 87.2906C10.3395 86.2435 14.7916 84.4721 15.6188 84.0459C17.115 83.2728 19.1221 82.7432 20.3993 81.6779C20.3507 81.5379 20.2777 81.41 20.1804 81.2944C19.2376 79.736 18.2949 78.0193 17.3948 76.1504C17.3765 76.12 17.3644 76.0896 17.3522 76.0591C17.0907 75.5234 16.8474 74.9938 16.6102 74.4642C16.5311 74.2876 16.452 74.1111 16.3791 73.9346C16.3973 74.0015 11.3552 76.7287 7.29847 78.9142Z" fill="#463F54"/>
<path d="M41.4373 64.6147L35.6411 83.8757L35.8904 84.0278L41.8144 64.8461" fill="#2A4448"/>
<path d="M45.409 51.4108C45.561 51.5082 45.7192 51.6117 45.8712 51.7152L46.6133 49.3167C46.4369 49.2619 46.2666 49.2071 46.0902 49.1523L45.409 51.4108Z" fill="#2A4448"/>
<path d="M40.9629 46.3155C41.0481 46.5103 41.1454 46.6869 41.267 46.8452C42.301 48.1966 44.1013 48.4644 45.6401 48.7871C47.2762 49.128 48.9244 49.4141 50.5727 49.6698C53.7962 50.1689 57.0562 50.6316 60.304 50.9055C61.8002 51.0273 63.8621 50.5342 64.671 49.1341C65.0846 48.4218 65.2062 47.5757 65.1758 46.7599C65.1576 46.1694 65.0663 45.5729 64.817 45.0372C64.0506 43.4057 62.0983 43.1561 60.5169 42.9857C57.2569 42.6326 54.0212 42.036 50.8464 41.2081C50.6152 41.1472 50.3659 41.0742 50.2078 40.8976C50.0314 40.6968 50.0131 40.4046 50.001 40.1306C49.8915 37.6956 49.8246 35.2789 49.4961 32.8621C49.3745 31.949 49.2407 31.0237 49.1008 30.0984C48.8758 28.5887 48.6264 27.0668 48.3588 25.5327C48.4135 23.8648 48.1824 22.5499 47.9635 21.6672C47.6046 20.194 47.2214 19.7192 47.0755 19.5487C45.9564 18.246 44.0466 18.0755 42.6903 18.4408C41.6441 18.7208 40.3608 19.3844 39.9837 20.4862C39.5215 21.862 39.7222 23.3291 39.8742 24.7353C40.0141 26.0806 40.154 27.4199 40.2027 28.7713C40.3 31.6933 40.5859 34.6945 40.5129 37.6104C40.4703 39.2662 40.4581 40.9159 40.5129 42.5717C40.5615 43.6492 40.4825 45.2137 40.9629 46.3155Z" fill="#992525"/>
<path d="M66.4105 39.6619L66.5686 41.9752L66.599 42.4865C66.7997 42.4378 67.0308 42.3952 67.2863 42.3952C67.56 42.3952 67.8641 42.4378 68.1803 42.5535C68.2533 42.5779 68.3202 42.6083 68.3871 42.6448L68.2777 39.5645C68.2594 39.0471 67.8458 38.6453 67.3593 38.6575L67.2559 38.6636C66.7632 38.6818 66.374 39.1384 66.4105 39.6619Z" fill="#2A4448"/>
<path d="M67.0613 49.2434L68.5088 81.6047L68.6 83.6684L68.9285 90.9977L69.4272 102.095L70.0233 115.5L70.9599 115.47L68.6122 49.0669C68.4723 49.146 68.375 49.1886 68.375 49.1886C67.9371 49.3591 67.5478 49.3165 67.2742 49.28C67.2072 49.2617 67.1343 49.2495 67.0613 49.2434Z" fill="#2A4448"/>
<path d="M53.4739 11.2271C53.7537 11.4645 54.0395 11.641 54.3132 11.7506C54.7754 11.9454 55.2134 11.9576 55.5114 11.7689C56.4419 11.1905 55.852 8.88946 55.8155 8.74336C55.7364 8.45725 55.6452 8.20157 55.5418 7.98242C55.3715 8.34159 55.1708 8.7251 54.9397 9.12688C54.7207 9.49822 54.2828 10.2165 53.4739 11.2271Z" fill="#2A3F44"/>
<path d="M48.298 16.6571C48.3101 16.8276 48.3284 17.0041 48.3527 17.1928C49.484 17.4789 50.2321 17.2476 50.5666 17.1076C51.7709 16.6084 52.4156 15.3909 53.6259 13.1264C53.8996 12.615 54.1246 12.1463 54.3071 11.7506C54.0334 11.641 53.7475 11.4645 53.4678 11.2271C53.1515 11.6167 52.7805 12.0489 52.3426 12.5237C50.2199 14.8309 48.7906 15.6405 48.298 16.6571Z" fill="#FFBB80"/>
<path d="M32.9893 43.0224C34.084 43.5885 35.4829 44.1486 37.1433 44.4773C38.4936 44.7452 39.71 44.7999 40.7196 44.7573C40.6527 42.5719 40.5858 40.3804 40.5189 38.1889C40.0992 38.2132 39.6613 38.2254 39.2052 38.2193C37.1129 38.1889 35.3005 37.7932 33.8468 37.3245C33.7313 38.2376 33.64 39.0351 33.5671 39.656C33.4758 40.4839 33.3542 41.6223 32.9893 43.0224Z" fill="#AE4924"/>
<path d="M27.8743 44.7876C27.9168 45.0919 28.1115 45.3354 28.3669 45.4389C28.4764 45.4815 28.5919 45.5059 28.7136 45.4937L32.2899 45.1893C32.3811 44.958 32.5149 44.5989 32.6609 44.1545C32.7886 43.7588 32.8981 43.3813 32.9893 43.0222C33.3542 41.6221 33.4759 40.4898 33.5732 39.6558C33.6462 39.0349 33.7374 38.2374 33.853 37.3243C34.078 35.6137 34.4004 33.4952 34.8565 31.3768C35.0633 30.421 35.1302 29.587 35.2579 29.0879L35.4221 28.5278C36.9244 23.9439 38.3781 21.6306 39.3816 20.194C39.2174 20.0357 39.0471 19.8713 38.8829 19.7131C37.9341 20.9428 36.5777 21.5211 35.3857 21.0645C35.1424 20.9732 34.9234 20.8454 34.7227 20.681C34.7227 20.681 34.7227 20.681 34.7166 20.681C34.3699 20.4557 33.9077 20.1331 33.409 19.6887C33.0136 20.1453 32.6487 20.6079 32.302 21.0767C26.7795 28.6617 26.9984 38.4322 27.8743 44.7876Z" fill="#CC6633"/>
<path d="M46.972 16.0362C46.1692 15.464 45.2873 14.8795 44.3202 14.3195C43.9066 14.076 43.493 13.8508 43.0916 13.6377" stroke="#020304" stroke-width="0.3367" stroke-miterlimit="10" stroke-linecap="round" stroke-linejoin="round"/>
<path d="M50.3415 40.9585C48.2919 41.5246 46.4186 42.7056 45.0136 44.3066" stroke="#6D1212" stroke-width="0.5" stroke-miterlimit="10" stroke-linecap="round" stroke-linejoin="round"/>
<path d="M48.2128 23.4022C48.0425 22.4525 47.4222 21.6246 46.6315 21.0707C45.8408 20.5167 44.8981 20.2245 43.9493 20.0845" stroke="#6D1212" stroke-width="0.5" stroke-miterlimit="10" stroke-linecap="round" stroke-linejoin="round"/>
<path d="M32.3446 52.8352C32.5027 55.9459 34.3395 58.7097 36.3162 61.1142" stroke="#FF4F00" stroke-width="0.5" stroke-miterlimit="10" stroke-linecap="round" stroke-linejoin="round"/>
</svg>
