<svg width="4289" height="322" viewBox="0 0 4289 322" fill="none" xmlns="http://www.w3.org/2000/svg">
<g clip-path="url(#clip0)">
<g clip-path="url(#clip1)">
<path d="M1788.15 16.4229C1788.43 16.2267 1788.72 16.0168 1789 15.7932C1787.81 16.7377 1783.97 16.4913 1782.49 16.5187C1776.62 16.6282 1769.85 15.305 1764.35 13.3019C1761.46 12.2479 1758.51 11.6957 1755.6 10.5505C1749.29 8.0637 1743.16 5.00657 1736.52 3.405C1727.18 1.15094 1717.18 1.61635 1708.1 4.72823C1701.07 7.13743 1694.55 11.1026 1687.23 12.4395C1673.53 14.9399 1659.54 7.89031 1645.75 9.81128C1637.61 10.9474 1630.29 15.1088 1622.61 17.9925C1610.35 22.6101 1596.87 21.9394 1584 24.0566C1588.3 24.0566 1592.58 24.5448 1596.87 24.8277C1601.1 25.106 1605.31 25.0787 1609.53 25.3479C1616.31 25.7813 1623.14 26.5068 1629.85 25.4665C1634.81 24.6954 1639.56 22.9752 1644.44 21.8253C1652.83 19.8496 1661.62 19.5713 1670.12 21.0131C1682.3 23.0801 1694.33 28.6514 1706.5 26.5251C1712.22 25.5258 1716.95 22.633 1722.29 20.6618C1727.32 18.8093 1732.43 16.8837 1737.73 15.8115C1742.76 14.7985 1747.95 14.4015 1753.05 15.0266C1759.21 15.7841 1765.1 18.0016 1771.22 19.0146C1777 19.9728 1783.39 19.6853 1788.15 16.4229Z" fill="#5FC4EF"/>
</g>
<g clip-path="url(#clip2)">
<path d="M1490.85 181.423C1490.57 181.227 1490.28 181.017 1490 180.793C1491.19 181.738 1495.03 181.491 1496.51 181.519C1502.38 181.628 1509.15 180.305 1514.65 178.302C1517.54 177.248 1520.49 176.696 1523.4 175.55C1529.71 173.064 1535.84 170.007 1542.48 168.405C1551.82 166.151 1561.82 166.616 1570.9 169.728C1577.93 172.137 1584.45 176.103 1591.77 177.439C1605.47 179.94 1619.46 172.89 1633.25 174.811C1641.39 175.947 1648.71 180.109 1656.39 182.993C1668.65 187.61 1682.13 186.939 1695 189.057C1690.7 189.057 1686.42 189.545 1682.13 189.828C1677.9 190.106 1673.69 190.079 1669.47 190.348C1662.69 190.781 1655.86 191.507 1649.15 190.467C1644.19 189.695 1639.44 187.975 1634.56 186.825C1626.17 184.85 1617.38 184.571 1608.88 186.013C1596.7 188.08 1584.67 193.651 1572.5 191.525C1566.78 190.526 1562.05 187.633 1556.71 185.662C1551.68 183.809 1546.57 181.884 1541.27 180.811C1536.24 179.799 1531.05 179.402 1525.95 180.027C1519.79 180.784 1513.9 183.002 1507.78 184.015C1502 184.973 1495.61 184.685 1490.85 181.423Z" fill="#5FC4EF"/>
</g>
<g clip-path="url(#clip3)">
<path d="M461.853 186.423C461.566 186.227 461.278 186.017 461.005 185.793C462.192 186.738 466.031 186.491 467.51 186.519C473.384 186.628 480.149 185.305 485.648 183.302C488.542 182.248 491.491 181.696 494.398 180.55C500.713 178.064 506.838 175.007 513.478 173.405C522.816 171.151 532.817 171.616 541.9 174.728C548.934 177.137 555.453 181.103 562.774 182.439C576.466 184.94 590.46 177.89 604.249 179.811C612.386 180.947 619.708 185.109 627.386 187.993C639.655 192.61 653.133 191.939 666 194.057C661.697 194.057 657.422 194.545 653.133 194.828C648.905 195.106 644.695 195.079 640.466 195.348C633.692 195.781 626.857 196.507 620.153 195.467C615.192 194.695 610.444 192.975 605.557 191.825C597.174 189.85 588.378 189.571 579.884 191.013C567.703 193.08 555.671 198.651 543.5 196.525C537.783 195.526 533.049 192.633 527.707 190.662C522.681 188.809 517.572 186.884 512.267 185.811C507.237 184.799 502.048 184.402 496.953 185.027C490.79 185.784 484.902 188.002 478.777 189.015C473 189.973 466.61 189.685 461.853 186.423Z" fill="#5FC4EF"/>
</g>
<g clip-path="url(#clip4)">
<path d="M518.338 10.961C518.561 10.8119 518.784 10.6524 518.996 10.4825C518.076 11.2003 515.098 11.0131 513.951 11.0339C509.394 11.1171 504.148 10.1114 499.882 8.58908C497.638 7.78802 495.351 7.36841 493.096 6.498C488.198 4.60806 483.448 2.28464 478.298 1.06745C471.055 -0.645638 463.298 -0.291924 456.253 2.07311C450.798 3.9041 445.741 6.9176 440.063 7.93366C429.443 9.83401 418.59 4.47628 407.895 5.93622C401.583 6.7997 395.905 9.96232 389.949 12.154C380.434 15.6634 369.98 15.1536 360 16.7626C363.337 16.7626 366.653 17.1337 369.98 17.3487C373.259 17.5602 376.525 17.5394 379.804 17.744C385.059 18.0735 390.359 18.6248 395.559 17.8342C399.407 17.2481 403.09 15.9408 406.88 15.0669C413.382 13.5653 420.204 13.3538 426.793 14.4496C436.24 16.0205 445.572 20.2547 455.012 18.6387C459.446 17.8793 463.118 15.6807 467.261 14.1826C471.159 12.7747 475.122 11.3113 479.237 10.4964C483.138 9.72651 487.163 9.42481 491.115 9.8999C495.894 10.4756 500.461 12.1609 505.212 12.9307C509.693 13.659 514.649 13.4405 518.338 10.961Z" fill="#5FC4EF"/>
</g>
<g clip-path="url(#clip5)">
<path d="M397.34 122.269C397.899 121.885 398.459 121.473 398.991 121.035C396.681 122.886 389.208 122.403 386.33 122.457C374.896 122.672 361.729 120.078 351.026 116.152C345.395 114.086 339.655 113.004 333.997 110.759C321.705 105.885 309.784 99.8933 296.861 96.7542C278.685 92.3363 259.22 93.2485 241.541 99.3478C227.85 104.07 215.162 111.841 200.912 114.462C174.263 119.363 147.027 105.545 120.188 109.311C104.35 111.537 90.1006 119.694 75.156 125.346C51.2772 134.396 25.043 133.082 0 137.231C8.37473 137.231 16.6953 138.188 25.043 138.743C33.2733 139.288 41.4676 139.235 49.6979 139.762C62.8827 140.612 76.1848 142.034 89.2342 139.995C98.8904 138.483 108.132 135.112 117.643 132.858C133.96 128.986 151.079 128.44 167.612 131.266C191.319 135.317 214.738 146.237 238.427 142.07C249.554 140.111 258.768 134.441 269.165 130.578C278.947 126.947 288.892 123.173 299.216 121.071C309.008 119.085 319.106 118.307 329.024 119.533C341.018 121.017 352.479 125.364 364.4 127.349C375.645 129.227 388.08 128.664 397.34 122.269Z" fill="#5FC4EF"/>
</g>
<g clip-path="url(#clip6)">
<path d="M2075.34 200.269C2075.9 199.885 2076.46 199.473 2076.99 199.035C2074.68 200.886 2067.21 200.403 2064.33 200.457C2052.9 200.672 2039.73 198.078 2029.03 194.152C2023.39 192.086 2017.65 191.004 2012 188.759C1999.71 183.885 1987.78 177.893 1974.86 174.754C1956.69 170.336 1937.22 171.248 1919.54 177.348C1905.85 182.07 1893.16 189.841 1878.91 192.462C1852.26 197.363 1825.03 183.545 1798.19 187.311C1782.35 189.537 1768.1 197.694 1753.16 203.346C1729.28 212.396 1703.04 211.082 1678 215.231C1686.37 215.231 1694.7 216.188 1703.04 216.743C1711.27 217.288 1719.47 217.235 1727.7 217.762C1740.88 218.612 1754.18 220.034 1767.23 217.995C1776.89 216.483 1786.13 213.112 1795.64 210.858C1811.96 206.986 1829.08 206.44 1845.61 209.266C1869.32 213.317 1892.74 224.237 1916.43 220.07C1927.55 218.111 1936.77 212.441 1947.16 208.578C1956.95 204.947 1966.89 201.173 1977.22 199.071C1987.01 197.085 1997.11 196.307 2007.02 197.533C2019.02 199.017 2030.48 203.364 2042.4 205.349C2053.64 207.227 2066.08 206.664 2075.34 200.269Z" fill="#5FC4EF"/>
</g>
<g clip-path="url(#clip7)">
<path d="M1239.34 249.269C1239.9 248.885 1240.46 248.473 1240.99 248.035C1238.68 249.886 1231.21 249.403 1228.33 249.457C1216.9 249.672 1203.73 247.078 1193.03 243.152C1187.39 241.086 1181.65 240.004 1176 237.759C1163.71 232.885 1151.78 226.893 1138.86 223.754C1120.69 219.336 1101.22 220.248 1083.54 226.348C1069.85 231.07 1057.16 238.841 1042.91 241.462C1016.26 246.363 989.027 232.545 962.188 236.311C946.35 238.537 932.101 246.694 917.156 252.346C893.277 261.396 867.043 260.082 842 264.231C850.375 264.231 858.695 265.188 867.043 265.743C875.273 266.288 883.468 266.235 891.698 266.762C904.883 267.612 918.185 269.034 931.234 266.995C940.89 265.483 950.132 262.112 959.643 259.858C975.96 255.986 993.079 255.44 1009.61 258.266C1033.32 262.317 1056.74 273.237 1080.43 269.07C1091.55 267.111 1100.77 261.441 1111.16 257.578C1120.95 253.947 1130.89 250.173 1141.22 248.071C1151.01 246.085 1161.11 245.307 1171.02 246.533C1183.02 248.017 1194.48 252.364 1206.4 254.349C1217.64 256.227 1230.08 255.664 1239.34 249.269Z" fill="#5FC4EF"/>
</g>
<path d="M285.338 313.963C285.561 313.813 285.784 313.654 285.996 313.484C285.076 314.202 282.098 314.015 280.951 314.035C276.394 314.119 271.148 313.113 266.882 311.591C264.638 310.789 262.351 310.37 260.096 309.499C255.198 307.61 250.448 305.286 245.298 304.069C238.055 302.356 230.298 302.71 223.253 305.075C217.798 306.906 212.741 309.919 207.063 310.935C196.443 312.835 185.59 307.478 174.895 308.938C168.583 309.801 162.905 312.964 156.949 315.155C147.434 318.665 136.98 318.155 127 319.764C130.337 319.764 133.653 320.135 136.98 320.35C140.259 320.562 143.525 320.541 146.804 320.745C152.059 321.075 157.359 321.626 162.559 320.836C166.407 320.25 170.09 318.942 173.88 318.068C180.382 316.567 187.204 316.355 193.793 317.451C203.24 319.022 212.572 323.256 222.012 321.64C226.446 320.881 230.118 318.682 234.261 317.184C238.159 315.776 242.122 314.313 246.237 313.498C250.138 312.728 254.163 312.426 258.115 312.901C262.894 313.477 267.461 315.162 272.212 315.932C276.693 316.66 281.649 316.442 285.338 313.963Z" fill="#5FC4EF"/>
<g clip-path="url(#clip8)">
<path d="M4000.15 16.4229C4000.43 16.2267 4000.72 16.0168 4001 15.7932C3999.81 16.7377 3995.97 16.4913 3994.49 16.5187C3988.62 16.6282 3981.85 15.305 3976.35 13.3019C3973.46 12.2479 3970.51 11.6957 3967.6 10.5505C3961.29 8.0637 3955.16 5.00657 3948.52 3.405C3939.18 1.15094 3929.18 1.61635 3920.1 4.72823C3913.07 7.13743 3906.55 11.1026 3899.23 12.4395C3885.53 14.9399 3871.54 7.89031 3857.75 9.81128C3849.61 10.9474 3842.29 15.1088 3834.61 17.9925C3822.35 22.6101 3808.87 21.9394 3796 24.0566C3800.3 24.0566 3804.58 24.5448 3808.87 24.8277C3813.1 25.106 3817.31 25.0787 3821.53 25.3479C3828.31 25.7813 3835.14 26.5068 3841.85 25.4665C3846.81 24.6954 3851.56 22.9752 3856.44 21.8253C3864.83 19.8496 3873.62 19.5713 3882.12 21.0131C3894.3 23.0801 3906.33 28.6514 3918.5 26.5251C3924.22 25.5258 3928.95 22.633 3934.29 20.6618C3939.32 18.8093 3944.43 16.8837 3949.73 15.8115C3954.76 14.7985 3959.95 14.4015 3965.05 15.0266C3971.21 15.7841 3977.1 18.0016 3983.22 19.0146C3989 19.9728 3995.39 19.6853 4000.15 16.4229Z" fill="#5FC4EF"/>
</g>
<g clip-path="url(#clip9)">
<path d="M3702.85 181.423C3702.57 181.227 3702.28 181.017 3702 180.793C3703.19 181.738 3707.03 181.491 3708.51 181.519C3714.38 181.628 3721.15 180.305 3726.65 178.302C3729.54 177.248 3732.49 176.696 3735.4 175.55C3741.71 173.064 3747.84 170.007 3754.48 168.405C3763.82 166.151 3773.82 166.616 3782.9 169.728C3789.93 172.137 3796.45 176.103 3803.77 177.439C3817.47 179.94 3831.46 172.89 3845.25 174.811C3853.39 175.947 3860.71 180.109 3868.39 182.993C3880.65 187.61 3894.13 186.939 3907 189.057C3902.7 189.057 3898.42 189.545 3894.13 189.828C3889.9 190.106 3885.69 190.079 3881.47 190.348C3874.69 190.781 3867.86 191.507 3861.15 190.467C3856.19 189.695 3851.44 187.975 3846.56 186.825C3838.17 184.85 3829.38 184.571 3820.88 186.013C3808.7 188.08 3796.67 193.651 3784.5 191.525C3778.78 190.526 3774.05 187.633 3768.71 185.662C3763.68 183.809 3758.57 181.884 3753.27 180.811C3748.24 179.799 3743.05 179.402 3737.95 180.027C3731.79 180.784 3725.9 183.002 3719.78 184.015C3714 184.973 3707.61 184.685 3702.85 181.423Z" fill="#5FC4EF"/>
</g>
<g clip-path="url(#clip10)">
<path d="M2673.85 186.423C2673.57 186.227 2673.28 186.017 2673 185.793C2674.19 186.738 2678.03 186.491 2679.51 186.519C2685.38 186.628 2692.15 185.305 2697.65 183.302C2700.54 182.248 2703.49 181.696 2706.4 180.55C2712.71 178.064 2718.84 175.007 2725.48 173.405C2734.82 171.151 2744.82 171.616 2753.9 174.728C2760.93 177.137 2767.45 181.103 2774.77 182.439C2788.47 184.94 2802.46 177.89 2816.25 179.811C2824.39 180.947 2831.71 185.109 2839.39 187.993C2851.65 192.61 2865.13 191.939 2878 194.057C2873.7 194.057 2869.42 194.545 2865.13 194.828C2860.9 195.106 2856.69 195.079 2852.47 195.348C2845.69 195.781 2838.86 196.507 2832.15 195.467C2827.19 194.695 2822.44 192.975 2817.56 191.825C2809.17 189.85 2800.38 189.571 2791.88 191.013C2779.7 193.08 2767.67 198.651 2755.5 196.525C2749.78 195.526 2745.05 192.633 2739.71 190.662C2734.68 188.809 2729.57 186.884 2724.27 185.811C2719.24 184.799 2714.05 184.402 2708.95 185.027C2702.79 185.784 2696.9 188.002 2690.78 189.015C2685 189.973 2678.61 189.685 2673.85 186.423Z" fill="#5FC4EF"/>
</g>
<g clip-path="url(#clip11)">
<path d="M2730.34 10.961C2730.56 10.8119 2730.78 10.6524 2731 10.4825C2730.08 11.2003 2727.1 11.0131 2725.95 11.0339C2721.39 11.1171 2716.15 10.1114 2711.88 8.58908C2709.64 7.78802 2707.35 7.36841 2705.1 6.498C2700.2 4.60806 2695.45 2.28464 2690.3 1.06745C2683.06 -0.645638 2675.3 -0.291924 2668.25 2.07311C2662.8 3.9041 2657.74 6.9176 2652.06 7.93366C2641.44 9.83401 2630.59 4.47628 2619.89 5.93622C2613.58 6.7997 2607.9 9.96232 2601.95 12.154C2592.43 15.6634 2581.98 15.1536 2572 16.7626C2575.34 16.7626 2578.65 17.1337 2581.98 17.3487C2585.26 17.5602 2588.52 17.5394 2591.8 17.744C2597.06 18.0735 2602.36 18.6248 2607.56 17.8342C2611.41 17.2481 2615.09 15.9408 2618.88 15.0669C2625.38 13.5653 2632.2 13.3538 2638.79 14.4496C2648.24 16.0205 2657.57 20.2547 2667.01 18.6387C2671.45 17.8793 2675.12 15.6807 2679.26 14.1826C2683.16 12.7747 2687.12 11.3113 2691.24 10.4964C2695.14 9.72651 2699.16 9.42481 2703.11 9.8999C2707.89 10.4756 2712.46 12.1609 2717.21 12.9307C2721.69 13.659 2726.65 13.4405 2730.34 10.961Z" fill="#5FC4EF"/>
</g>
<g clip-path="url(#clip12)">
<path d="M2609.34 122.269C2609.9 121.885 2610.46 121.473 2610.99 121.035C2608.68 122.886 2601.21 122.403 2598.33 122.457C2586.9 122.672 2573.73 120.078 2563.03 116.152C2557.39 114.086 2551.65 113.004 2546 110.759C2533.71 105.885 2521.78 99.8933 2508.86 96.7542C2490.69 92.3363 2471.22 93.2485 2453.54 99.3478C2439.85 104.07 2427.16 111.841 2412.91 114.462C2386.26 119.363 2359.03 105.545 2332.19 109.311C2316.35 111.537 2302.1 119.694 2287.16 125.346C2263.28 134.396 2237.04 133.082 2212 137.231C2220.37 137.231 2228.7 138.188 2237.04 138.743C2245.27 139.288 2253.47 139.235 2261.7 139.762C2274.88 140.612 2288.18 142.034 2301.23 139.995C2310.89 138.483 2320.13 135.112 2329.64 132.858C2345.96 128.986 2363.08 128.44 2379.61 131.266C2403.32 135.317 2426.74 146.237 2450.43 142.07C2461.55 140.111 2470.77 134.441 2481.16 130.578C2490.95 126.947 2500.89 123.173 2511.22 121.071C2521.01 119.085 2531.11 118.307 2541.02 119.533C2553.02 121.017 2564.48 125.364 2576.4 127.349C2587.64 129.227 2600.08 128.664 2609.34 122.269Z" fill="#5FC4EF"/>
</g>
<g clip-path="url(#clip13)">
<path d="M4287.34 200.269C4287.9 199.885 4288.46 199.473 4288.99 199.035C4286.68 200.886 4279.21 200.403 4276.33 200.457C4264.9 200.672 4251.73 198.078 4241.03 194.152C4235.39 192.086 4229.65 191.004 4224 188.759C4211.71 183.885 4199.78 177.893 4186.86 174.754C4168.69 170.336 4149.22 171.248 4131.54 177.348C4117.85 182.07 4105.16 189.841 4090.91 192.462C4064.26 197.363 4037.03 183.545 4010.19 187.311C3994.35 189.537 3980.1 197.694 3965.16 203.346C3941.28 212.396 3915.04 211.082 3890 215.231C3898.37 215.231 3906.7 216.188 3915.04 216.743C3923.27 217.288 3931.47 217.235 3939.7 217.762C3952.88 218.612 3966.18 220.034 3979.23 217.995C3988.89 216.483 3998.13 213.112 4007.64 210.858C4023.96 206.986 4041.08 206.44 4057.61 209.266C4081.32 213.317 4104.74 224.237 4128.43 220.07C4139.55 218.111 4148.77 212.441 4159.16 208.578C4168.95 204.947 4178.89 201.173 4189.22 199.071C4199.01 197.085 4209.11 196.307 4219.02 197.533C4231.02 199.017 4242.48 203.364 4254.4 205.349C4265.64 207.227 4278.08 206.664 4287.34 200.269Z" fill="#5FC4EF"/>
</g>
<g clip-path="url(#clip14)">
<path d="M3451.34 249.269C3451.9 248.885 3452.46 248.473 3452.99 248.035C3450.68 249.886 3443.21 249.403 3440.33 249.457C3428.9 249.672 3415.73 247.078 3405.03 243.152C3399.39 241.086 3393.65 240.004 3388 237.759C3375.71 232.885 3363.78 226.893 3350.86 223.754C3332.69 219.336 3313.22 220.248 3295.54 226.348C3281.85 231.07 3269.16 238.841 3254.91 241.462C3228.26 246.363 3201.03 232.545 3174.19 236.311C3158.35 238.537 3144.1 246.694 3129.16 252.346C3105.28 261.396 3079.04 260.082 3054 264.231C3062.37 264.231 3070.7 265.188 3079.04 265.743C3087.27 266.288 3095.47 266.235 3103.7 266.762C3116.88 267.612 3130.18 269.034 3143.23 266.995C3152.89 265.483 3162.13 262.112 3171.64 259.858C3187.96 255.986 3205.08 255.44 3221.61 258.266C3245.32 262.317 3268.74 273.237 3292.43 269.07C3303.55 267.111 3312.77 261.441 3323.16 257.578C3332.95 253.947 3342.89 250.173 3353.22 248.071C3363.01 246.085 3373.11 245.307 3383.02 246.533C3395.02 248.017 3406.48 252.364 3418.4 254.349C3429.64 256.227 3442.08 255.664 3451.34 249.269Z" fill="#5FC4EF"/>
</g>
<path d="M2497.34 313.963C2497.56 313.813 2497.78 313.654 2498 313.484C2497.08 314.202 2494.1 314.015 2492.95 314.035C2488.39 314.119 2483.15 313.113 2478.88 311.591C2476.64 310.789 2474.35 310.37 2472.1 309.499C2467.2 307.61 2462.45 305.286 2457.3 304.069C2450.06 302.356 2442.3 302.71 2435.25 305.075C2429.8 306.906 2424.74 309.919 2419.06 310.935C2408.44 312.835 2397.59 307.478 2386.89 308.938C2380.58 309.801 2374.9 312.964 2368.95 315.155C2359.43 318.665 2348.98 318.155 2339 319.764C2342.34 319.764 2345.65 320.135 2348.98 320.35C2352.26 320.562 2355.52 320.541 2358.8 320.745C2364.06 321.075 2369.36 321.626 2374.56 320.836C2378.41 320.25 2382.09 318.942 2385.88 318.068C2392.38 316.567 2399.2 316.355 2405.79 317.451C2415.24 319.022 2424.57 323.256 2434.01 321.64C2438.45 320.881 2442.12 318.682 2446.26 317.184C2450.16 315.776 2454.12 314.313 2458.24 313.498C2462.14 312.728 2466.16 312.426 2470.11 312.901C2474.89 313.477 2479.46 315.162 2484.21 315.932C2488.69 316.66 2493.65 316.442 2497.34 313.963Z" fill="#5FC4EF"/>
</g>
<defs>
<clipPath id="clip0">
<rect width="4289" height="322" fill="white"/>
</clipPath>
<clipPath id="clip1">
<rect width="205" height="25" fill="white" transform="translate(1584 2)"/>
</clipPath>
<clipPath id="clip2">
<rect width="205" height="25" fill="white" transform="matrix(-1 0 0 1 1695 167)"/>
</clipPath>
<clipPath id="clip3">
<rect width="205" height="25" fill="white" transform="matrix(-1 0 0 1 666 172)"/>
</clipPath>
<clipPath id="clip4">
<rect width="159" height="19" fill="white" transform="translate(360)"/>
</clipPath>
<clipPath id="clip5">
<rect width="399" height="49" fill="white" transform="translate(0 94)"/>
</clipPath>
<clipPath id="clip6">
<rect width="399" height="49" fill="white" transform="translate(1678 172)"/>
</clipPath>
<clipPath id="clip7">
<rect width="399" height="49" fill="white" transform="translate(842 221)"/>
</clipPath>
<clipPath id="clip8">
<rect width="205" height="25" fill="white" transform="translate(3796 2)"/>
</clipPath>
<clipPath id="clip9">
<rect width="205" height="25" fill="white" transform="matrix(-1 0 0 1 3907 167)"/>
</clipPath>
<clipPath id="clip10">
<rect width="205" height="25" fill="white" transform="matrix(-1 0 0 1 2878 172)"/>
</clipPath>
<clipPath id="clip11">
<rect width="159" height="19" fill="white" transform="translate(2572)"/>
</clipPath>
<clipPath id="clip12">
<rect width="399" height="49" fill="white" transform="translate(2212 94)"/>
</clipPath>
<clipPath id="clip13">
<rect width="399" height="49" fill="white" transform="translate(3890 172)"/>
</clipPath>
<clipPath id="clip14">
<rect width="399" height="49" fill="white" transform="translate(3054 221)"/>
</clipPath>
</defs>
</svg>
