<svg viewBox="0 0 637 220" fill="none" xmlns="http://www.w3.org/2000/svg" id="el_Md9MI9Ed9"><style>@-webkit-keyframes kf_el_j6i9UIq0uj_an_ihA3X4So-{0%{opacity: 1;}18.75%{opacity: 0;}37.50%{opacity: 1;}50%{opacity: 0;}62.50%{opacity: 1;}81.67%{opacity: 0;}100%{opacity: 1;}}@keyframes kf_el_j6i9UIq0uj_an_ihA3X4So-{0%{opacity: 1;}18.75%{opacity: 0;}37.50%{opacity: 1;}50%{opacity: 0;}62.50%{opacity: 1;}81.67%{opacity: 0;}100%{opacity: 1;}}@-webkit-keyframes kf_el_qVUz58Gucd_an_NdC5McKpP{0%{opacity: 1;}25%{opacity: 0;}50%{opacity: 1;}75%{opacity: 0;}100%{opacity: 1;}}@keyframes kf_el_qVUz58Gucd_an_NdC5McKpP{0%{opacity: 1;}25%{opacity: 0;}50%{opacity: 1;}75%{opacity: 0;}100%{opacity: 1;}}@-webkit-keyframes kf_el_SXWd6jXEup_an_QtHFZW-Mi{0%{opacity: 1;}25%{opacity: 0;}50%{opacity: 1;}75%{opacity: 0;}100%{opacity: 1;}}@keyframes kf_el_SXWd6jXEup_an_QtHFZW-Mi{0%{opacity: 1;}25%{opacity: 0;}50%{opacity: 1;}75%{opacity: 0;}100%{opacity: 1;}}@-webkit-keyframes kf_el_x7fhFyexYz_an_4EoJYh374{0%{opacity: 1;}10%{opacity: 0;}20%{opacity: 1;}30%{opacity: 0;}40%{opacity: 1;}50%{opacity: 0;}60%{opacity: 1;}70%{opacity: 0;}80%{opacity: 1;}90%{opacity: 0;}100%{opacity: 1;}}@keyframes kf_el_x7fhFyexYz_an_4EoJYh374{0%{opacity: 1;}10%{opacity: 0;}20%{opacity: 1;}30%{opacity: 0;}40%{opacity: 1;}50%{opacity: 0;}60%{opacity: 1;}70%{opacity: 0;}80%{opacity: 1;}90%{opacity: 0;}100%{opacity: 1;}}@-webkit-keyframes kf_el_3L2Lg-FqZE_an_HNHGfvHnJ{0%{opacity: 1;}18.75%{opacity: 0;}37.50%{opacity: 1;}56.25%{opacity: 0;}75%{opacity: 1;}87.50%{opacity: 0;}100%{opacity: 1;}}@keyframes kf_el_3L2Lg-FqZE_an_HNHGfvHnJ{0%{opacity: 1;}18.75%{opacity: 0;}37.50%{opacity: 1;}56.25%{opacity: 0;}75%{opacity: 1;}87.50%{opacity: 0;}100%{opacity: 1;}}@-webkit-keyframes kf_el__6MFzTgUU3_an_eXIC6DiJf{0%{opacity: 0;}6.25%{opacity: 1;}18.75%{opacity: 0;}37.50%{opacity: 1;}56.25%{opacity: 0;}75%{opacity: 1;}93.75%{opacity: 0;}100%{opacity: 0;}}@keyframes kf_el__6MFzTgUU3_an_eXIC6DiJf{0%{opacity: 0;}6.25%{opacity: 1;}18.75%{opacity: 0;}37.50%{opacity: 1;}56.25%{opacity: 0;}75%{opacity: 1;}93.75%{opacity: 0;}100%{opacity: 0;}}@-webkit-keyframes kf_el_seAfDfNwtK_an_F4WT8L3Fo{0%{opacity: 1;}12.50%{opacity: 0;}25%{opacity: 1;}37.50%{opacity: 0;}50%{opacity: 1;}62.50%{opacity: 0;}75%{opacity: 1;}87.50%{opacity: 0;}100%{opacity: 1;}}@keyframes kf_el_seAfDfNwtK_an_F4WT8L3Fo{0%{opacity: 1;}12.50%{opacity: 0;}25%{opacity: 1;}37.50%{opacity: 0;}50%{opacity: 1;}62.50%{opacity: 0;}75%{opacity: 1;}87.50%{opacity: 0;}100%{opacity: 1;}}#el_Md9MI9Ed9 *{-webkit-animation-duration: 8s;animation-duration: 8s;-webkit-animation-iteration-count: infinite;animation-iteration-count: infinite;-webkit-animation-timing-function: cubic-bezier(0, 0, 1, 1);animation-timing-function: cubic-bezier(0, 0, 1, 1);}#el_seAfDfNwtK{fill: #00B2FF;-webkit-animation-fill-mode: backwards;animation-fill-mode: backwards;opacity: 1;-webkit-animation-name: kf_el_seAfDfNwtK_an_F4WT8L3Fo;animation-name: kf_el_seAfDfNwtK_an_F4WT8L3Fo;-webkit-animation-timing-function: cubic-bezier(0, 0, 1, 1);animation-timing-function: cubic-bezier(0, 0, 1, 1);}#el__6MFzTgUU3{fill: #00B2FF;-webkit-animation-fill-mode: backwards;animation-fill-mode: backwards;opacity: 0;-webkit-animation-name: kf_el__6MFzTgUU3_an_eXIC6DiJf;animation-name: kf_el__6MFzTgUU3_an_eXIC6DiJf;-webkit-animation-timing-function: cubic-bezier(0, 0, 1, 1);animation-timing-function: cubic-bezier(0, 0, 1, 1);}#el_3L2Lg-FqZE{fill: #FFC800;-webkit-animation-fill-mode: backwards;animation-fill-mode: backwards;opacity: 1;-webkit-animation-name: kf_el_3L2Lg-FqZE_an_HNHGfvHnJ;animation-name: kf_el_3L2Lg-FqZE_an_HNHGfvHnJ;-webkit-animation-timing-function: cubic-bezier(0, 0, 1, 1);animation-timing-function: cubic-bezier(0, 0, 1, 1);}#el_x7fhFyexYz{fill: #FFC800;-webkit-animation-fill-mode: backwards;animation-fill-mode: backwards;opacity: 1;-webkit-animation-name: kf_el_x7fhFyexYz_an_4EoJYh374;animation-name: kf_el_x7fhFyexYz_an_4EoJYh374;-webkit-animation-timing-function: cubic-bezier(0, 0, 1, 1);animation-timing-function: cubic-bezier(0, 0, 1, 1);}#el_SXWd6jXEup{fill: #FFC800;-webkit-animation-fill-mode: backwards;animation-fill-mode: backwards;opacity: 1;-webkit-animation-name: kf_el_SXWd6jXEup_an_QtHFZW-Mi;animation-name: kf_el_SXWd6jXEup_an_QtHFZW-Mi;-webkit-animation-timing-function: cubic-bezier(0, 0, 1, 1);animation-timing-function: cubic-bezier(0, 0, 1, 1);}#el_qVUz58Gucd{fill: #FFC800;-webkit-animation-fill-mode: backwards;animation-fill-mode: backwards;opacity: 1;-webkit-animation-name: kf_el_qVUz58Gucd_an_NdC5McKpP;animation-name: kf_el_qVUz58Gucd_an_NdC5McKpP;-webkit-animation-timing-function: cubic-bezier(0, 0, 1, 1);animation-timing-function: cubic-bezier(0, 0, 1, 1);}#el_j6i9UIq0uj{fill: #FFC800;-webkit-animation-fill-mode: backwards;animation-fill-mode: backwards;opacity: 1;-webkit-animation-name: kf_el_j6i9UIq0uj_an_ihA3X4So-;animation-name: kf_el_j6i9UIq0uj_an_ihA3X4So-;-webkit-animation-timing-function: cubic-bezier(0, 0, 1, 1);animation-timing-function: cubic-bezier(0, 0, 1, 1);}</style>
<path d="M490.709 69.016C490.893 68.9012 491.067 68.7896 491.244 68.6846C491.359 68.6157 491.477 68.5567 491.598 68.5009C492.662 67.9988 493.515 67.254 494.148 66.263C494.365 65.925 494.535 65.5641 494.66 65.1801C494.916 64.3861 495.034 63.569 495.1 62.7454C495.191 61.5739 495.195 60.4025 495.034 59.2343C494.949 58.6273 494.857 58.0202 494.699 57.4263C494.591 57.0128 494.483 56.6027 494.391 56.1827C494.296 55.7397 494.138 55.3131 494.004 54.88C493.918 54.601 493.82 54.3254 493.777 54.0859C493.787 53.9776 493.83 53.9776 493.862 54.0531C494.128 54.6339 494.47 55.1818 494.686 55.7856C495.346 57.0949 495.999 58.4074 496.803 59.6346C497.475 60.6617 498.197 61.6494 499.08 62.5157C499.674 63.0965 500.327 63.6018 501.036 64.0349C501.518 64.3303 502.043 64.5239 502.588 64.665C502.794 64.7175 503.001 64.7667 503.211 64.8159C503.201 64.875 503.205 64.9275 503.185 64.9636C503.142 65.0292 503.09 65.0915 503.034 65.1473C502.42 65.7675 502.017 66.5091 501.728 67.3229C501.305 68.5173 501.131 69.7511 501.108 71.0144C501.091 72.0283 501.16 73.0357 501.275 74.0431C501.36 74.8109 501.492 75.5722 501.613 76.3368C501.705 76.9143 501.849 77.4852 501.971 78.0595C502 78.1907 502.036 78.3187 502.066 78.45C502.079 78.5025 502.082 78.555 502.089 78.6075C502.115 78.8601 502.141 79.1128 502.171 79.3983C502.017 79.1915 501.971 78.9783 501.895 78.7781C501.738 78.3515 501.593 77.9217 501.436 77.4951C501.288 77.0948 501.157 76.6879 500.937 76.3171C500.868 76.2022 500.826 76.0743 500.776 75.9496C500.356 74.9061 499.785 73.9447 499.129 73.0324C498.519 72.1858 497.853 71.3918 497.101 70.6699C496.888 70.4664 496.665 70.2761 496.438 70.0923C495.716 69.5115 494.893 69.1637 493.981 69.0029C493.183 68.8618 492.389 68.8717 491.595 69.0062C491.438 69.0325 491.28 69.0718 491.123 69.0882C490.985 69.1046 490.847 69.1178 490.709 69.016Z" id="el_seAfDfNwtK"/>
<path d="M77 209.016C77.1838 208.901 77.3577 208.79 77.5349 208.685C77.6497 208.616 77.7678 208.557 77.8892 208.501C78.9524 207.999 79.8056 207.254 80.4389 206.263C80.6554 205.925 80.8261 205.564 80.9508 205.18C81.2067 204.386 81.3248 203.569 81.3905 202.745C81.4823 201.574 81.4856 200.402 81.3248 199.234C81.2395 198.627 81.1476 198.02 80.9901 197.426C80.8818 197.013 80.7736 196.603 80.6817 196.183C80.5865 195.74 80.429 195.313 80.2945 194.88C80.2092 194.601 80.1107 194.325 80.0681 194.086C80.0779 193.978 80.1206 193.978 80.1534 194.053C80.4192 194.634 80.7604 195.182 80.977 195.786C81.6366 197.095 82.2896 198.407 83.0935 199.635C83.7662 200.662 84.4881 201.649 85.3707 202.516C85.9647 203.096 86.6177 203.602 87.3264 204.035C87.8088 204.33 88.3338 204.524 88.8785 204.665C89.0852 204.717 89.292 204.767 89.502 204.816C89.4921 204.875 89.4954 204.927 89.4757 204.964C89.4331 205.029 89.3806 205.092 89.3248 205.147C88.7112 205.768 88.3076 206.509 88.0188 207.323C87.5955 208.517 87.4216 209.751 87.3986 211.014C87.3822 212.028 87.4511 213.036 87.566 214.043C87.6513 214.811 87.7825 215.572 87.904 216.337C87.9958 216.914 88.1402 217.485 88.2616 218.059C88.2912 218.191 88.3272 218.319 88.3568 218.45C88.3699 218.502 88.3732 218.555 88.3798 218.607C88.406 218.86 88.4323 219.113 88.4618 219.398C88.3076 219.192 88.2616 218.978 88.1862 218.778C88.0286 218.352 87.8843 217.922 87.7268 217.495C87.5791 217.095 87.4478 216.688 87.228 216.317C87.1591 216.202 87.1164 216.074 87.0672 215.95C86.6472 214.906 86.0762 213.945 85.42 213.032C84.8096 212.186 84.1435 211.392 83.3921 210.67C83.1788 210.466 82.9557 210.276 82.7293 210.092C82.0074 209.512 81.1837 209.164 80.2715 209.003C79.4741 208.862 78.6801 208.872 77.886 209.006C77.7285 209.032 77.571 209.072 77.4135 209.088C77.2756 209.105 77.1378 209.118 77 209.016Z" id="el__6MFzTgUU3"/>
<path d="M460.577 162.589C460.524 162.671 460.491 162.787 460.418 162.821C460.205 162.928 459.983 163.039 459.756 163.087C458.408 163.358 457.065 163.628 455.712 163.87C454.122 164.155 452.595 164.686 451.034 165.092C450.749 165.165 450.483 165.319 450.217 165.45C449.981 165.561 449.884 165.793 449.826 166.025C449.783 166.199 449.783 166.383 449.773 166.561C449.754 166.861 449.744 167.16 449.734 167.46C449.671 169.258 449.381 171.021 449.067 172.79C448.913 173.674 448.729 174.549 448.546 175.428C448.526 175.525 448.41 175.602 448.328 175.684C448.241 175.771 448.014 175.622 447.937 175.414C447.893 175.303 447.864 175.187 447.821 175.076C447.009 172.829 446.192 170.582 445.376 168.335C445.236 167.943 445.115 167.537 444.941 167.16C444.878 167.016 444.704 166.866 444.554 166.827C442.587 166.31 440.659 165.682 438.756 164.967C437.867 164.633 436.963 164.305 436.17 163.759C436.074 163.691 436.064 163.541 436.166 163.454C436.296 163.343 436.465 163.256 436.629 163.203C439.017 162.435 441.418 161.7 443.834 161.029C444.177 160.932 444.525 160.835 444.868 160.734C445.105 160.661 445.293 160.526 445.361 160.27C445.438 159.98 445.53 159.695 445.593 159.405C446.009 157.477 446.415 155.549 446.82 153.621C447.091 152.336 447.347 151.045 447.627 149.765C447.676 149.538 447.801 149.32 447.898 149.108C447.922 149.059 447.985 149.021 448.038 149.001C448.062 148.992 448.13 149.035 448.144 149.069C448.55 150.137 448.7 151.263 448.961 152.369C449.232 153.534 449.43 154.713 449.667 155.882C449.947 157.288 450.227 158.69 450.522 160.096C450.585 160.405 450.768 160.647 451.092 160.719C452.02 160.942 452.948 161.178 453.885 161.357C456.108 161.773 458.34 162.174 460.577 162.589Z" id="el_3L2Lg-FqZE"/>
<path d="M298.484 99.5893C298.431 99.6714 298.397 99.7874 298.324 99.8212C298.112 99.9276 297.89 100.039 297.662 100.087C296.314 100.358 294.971 100.628 293.618 100.87C292.028 101.155 290.501 101.686 288.94 102.092C288.655 102.165 288.39 102.319 288.124 102.45C287.887 102.561 287.79 102.793 287.732 103.025C287.689 103.199 287.689 103.383 287.679 103.561C287.66 103.861 287.65 104.16 287.641 104.46C287.578 106.258 287.288 108.021 286.974 109.79C286.819 110.674 286.636 111.549 286.452 112.428C286.433 112.525 286.317 112.602 286.234 112.684C286.147 112.771 285.92 112.622 285.843 112.414C285.8 112.303 285.771 112.187 285.727 112.076C284.915 109.829 284.099 107.582 283.282 105.335C283.142 104.943 283.021 104.537 282.847 104.16C282.784 104.016 282.61 103.866 282.461 103.827C280.494 103.31 278.566 102.682 276.662 101.967C275.773 101.633 274.869 101.305 274.077 100.759C273.98 100.691 273.971 100.541 274.072 100.454C274.202 100.343 274.372 100.256 274.536 100.203C276.923 99.4347 279.324 98.7002 281.741 98.0285C282.084 97.9319 282.432 97.8352 282.775 97.7338C283.011 97.6613 283.2 97.526 283.268 97.2699C283.345 96.98 283.437 96.6949 283.499 96.4049C283.915 94.4769 284.321 92.5489 284.727 90.6209C284.997 89.3355 285.254 88.0454 285.534 86.7648C285.582 86.5377 285.708 86.3203 285.804 86.1077C285.829 86.0594 285.891 86.0207 285.945 86.0014C285.969 85.9917 286.036 86.0352 286.051 86.069C286.457 87.1369 286.607 88.2628 286.867 89.3694C287.138 90.5339 287.336 91.7129 287.573 92.8823C287.853 94.2885 288.133 95.6898 288.428 97.0959C288.491 97.4052 288.675 97.6468 288.998 97.7193C289.926 97.9415 290.854 98.1783 291.791 98.3571C294.014 98.7727 296.247 99.1737 298.484 99.5893Z" id="el_x7fhFyexYz"/>
<path d="M24.4839 183.589C24.4307 183.671 24.3969 183.787 24.3244 183.821C24.1118 183.928 23.8895 184.039 23.6624 184.087C22.3142 184.358 20.9709 184.628 19.6179 184.87C18.0282 185.155 16.5012 185.686 14.9404 186.092C14.6553 186.165 14.3896 186.319 14.1238 186.45C13.887 186.561 13.7904 186.793 13.7324 187.025C13.6889 187.199 13.6889 187.383 13.6792 187.561C13.6599 187.861 13.6502 188.16 13.6406 188.46C13.5778 190.258 13.2878 192.021 12.9738 193.79C12.8191 194.674 12.6355 195.549 12.4519 196.428C12.4326 196.525 12.3166 196.602 12.2344 196.684C12.1475 196.771 11.9203 196.622 11.843 196.414C11.7995 196.303 11.7706 196.187 11.7271 196.076C10.9153 193.829 10.0986 191.582 9.28201 189.335C9.14187 188.943 9.02107 188.537 8.84711 188.16C8.7843 188.016 8.61034 187.866 8.46055 187.827C6.49387 187.31 4.56585 186.682 2.662 185.967C1.77289 185.633 0.869278 185.305 0.0768093 184.759C-0.0198332 184.691 -0.0294975 184.541 0.0719772 184.454C0.202445 184.343 0.371569 184.256 0.535861 184.203C2.92293 183.435 5.3245 182.7 7.74056 182.029C8.08364 181.932 8.43155 181.835 8.77463 181.734C9.01141 181.661 9.19986 181.526 9.26751 181.27C9.34482 180.98 9.43663 180.695 9.49945 180.405C9.91502 178.477 10.3209 176.549 10.7268 174.621C10.9974 173.336 11.2535 172.045 11.5338 170.765C11.5821 170.538 11.7077 170.32 11.8044 170.108C11.8285 170.059 11.8914 170.021 11.9445 170.001C11.9687 169.992 12.0363 170.035 12.0508 170.069C12.4567 171.137 12.6065 172.263 12.8674 173.369C13.138 174.534 13.3362 175.713 13.5729 176.882C13.8532 178.288 14.1335 179.69 14.4282 181.096C14.491 181.405 14.6747 181.647 14.9984 181.719C15.9262 181.942 16.8539 182.178 17.7914 182.357C20.0142 182.773 22.2466 183.174 24.4839 183.589Z" id="el_SXWd6jXEup"/>
<path d="M636.484 13.5893C636.431 13.6714 636.397 13.7874 636.324 13.8212C636.112 13.9276 635.89 14.0387 635.662 14.087C634.314 14.3576 632.971 14.6282 631.618 14.8698C630.028 15.1549 628.501 15.6864 626.94 16.0923C626.655 16.1648 626.39 16.3195 626.124 16.4499C625.887 16.5611 625.79 16.793 625.732 17.0249C625.689 17.1989 625.689 17.3825 625.679 17.5613C625.66 17.8609 625.65 18.1605 625.641 18.4601C625.578 20.2576 625.288 22.0214 624.974 23.7899C624.819 24.6742 624.636 25.5488 624.452 26.4283C624.433 26.5249 624.317 26.6022 624.234 26.6844C624.147 26.7713 623.92 26.6215 623.843 26.4138C623.8 26.3026 623.771 26.1866 623.727 26.0755C622.915 23.8286 622.099 21.5816 621.282 19.3347C621.142 18.9433 621.021 18.5374 620.847 18.1605C620.784 18.0155 620.61 17.8657 620.461 17.8271C618.494 17.31 616.566 16.6819 614.662 15.9667C613.773 15.6333 612.869 15.3047 612.077 14.7587C611.98 14.691 611.971 14.5412 612.072 14.4543C612.202 14.3431 612.372 14.2561 612.536 14.203C614.923 13.4347 617.324 12.7002 619.741 12.0285C620.084 11.9319 620.432 11.8352 620.775 11.7338C621.011 11.6613 621.2 11.526 621.268 11.2699C621.345 10.98 621.437 10.6949 621.499 10.4049C621.915 8.47692 622.321 6.5489 622.727 4.62088C622.997 3.33553 623.254 2.04536 623.534 0.764846C623.582 0.537736 623.708 0.32029 623.804 0.107677C623.829 0.0593554 623.891 0.0206978 623.945 0.00136933C623.969 -0.00829492 624.036 0.0351939 624.051 0.0690188C624.457 1.13692 624.607 2.2628 624.867 3.36936C625.138 4.5339 625.336 5.71294 625.573 6.88231C625.853 8.28846 626.133 9.68978 626.428 11.0959C626.491 11.4052 626.675 11.6468 626.998 11.7193C627.926 11.9415 628.854 12.1783 629.791 12.3571C632.014 12.7727 634.247 13.1737 636.484 13.5893Z" id="el_qVUz58Gucd"/>
<path d="M78 52.5225C77.962 52.5813 77.9378 52.6643 77.8859 52.6885C77.7338 52.7645 77.5748 52.844 77.4123 52.8786C76.4478 53.0722 75.4868 53.2658 74.5188 53.4386C73.3815 53.6426 72.2891 54.0229 71.1725 54.3132C70.9685 54.3651 70.7784 54.4757 70.5883 54.5691C70.4189 54.6486 70.3497 54.8145 70.3082 54.9804C70.2771 55.1049 70.2771 55.2363 70.2702 55.3642C70.2564 55.5785 70.2495 55.7928 70.2426 56.0072C70.1976 57.2932 69.9902 58.555 69.7655 59.8202C69.6549 60.4528 69.5235 61.0785 69.3921 61.7077C69.3783 61.7769 69.2954 61.8322 69.2366 61.8909C69.1744 61.9532 69.0119 61.846 68.9566 61.6973C68.9255 61.6178 68.9047 61.5349 68.8736 61.4554C68.2928 59.8479 67.7086 58.2404 67.1244 56.6329C67.0241 56.3529 66.9377 56.0625 66.8132 55.7928C66.7683 55.6891 66.6439 55.582 66.5367 55.5543C65.1297 55.1844 63.7504 54.735 62.3883 54.2234C61.7522 53.9848 61.1058 53.7498 60.5388 53.3591C60.4697 53.3107 60.4628 53.2036 60.5354 53.1413C60.6287 53.0618 60.7497 52.9996 60.8672 52.9616C62.575 52.4119 64.2931 51.8864 66.0216 51.4059C66.267 51.3368 66.5159 51.2676 66.7614 51.1951C66.9308 51.1432 67.0656 51.0464 67.114 50.8632C67.1693 50.6558 67.235 50.4518 67.2799 50.2444C67.5772 48.8651 67.8676 47.4857 68.158 46.1064C68.3516 45.1868 68.5348 44.2638 68.7353 43.3477C68.7699 43.1852 68.8598 43.0297 68.9289 42.8776C68.9462 42.843 68.9911 42.8153 69.0292 42.8015C69.0465 42.7946 69.0949 42.8257 69.1052 42.8499C69.3956 43.6139 69.5028 44.4194 69.6894 45.211C69.883 46.0442 70.0248 46.8877 70.1942 47.7242C70.3947 48.7302 70.5952 49.7327 70.8061 50.7387C70.851 50.96 70.9824 51.1328 71.214 51.1847C71.8777 51.3437 72.5415 51.5131 73.2121 51.641C74.8023 51.9383 76.3994 52.2252 78 52.5225Z" id="el_j6i9UIq0uj"/>
</svg>