<svg width="800" height="676" viewBox="0 0 800 676" fill="none" xmlns="http://www.w3.org/2000/svg">
<path d="M518.314 534.141C518.314 534.141 548.096 616.23 562.104 621.872C576.112 627.514 645.843 616.127 647.575 615.236C649.307 614.344 648.004 604.638 648.004 604.638C648.004 604.638 587.994 602.666 584.719 599.871C581.461 597.075 568.191 555.508 568.516 553.587C568.842 551.666 579.112 536.644 579.112 536.644C579.112 536.644 610.386 544.927 615.65 546.11C620.914 547.293 672.162 539.251 673.482 536.404C674.802 533.557 668.579 526.304 668.579 526.304C668.579 526.304 620.382 524.572 616.593 522.72C612.804 520.868 571.5 498.42 569.854 497.271C568.208 496.122 559.138 484.359 559.138 484.359L518.314 534.141Z" fill="#D75216"/>
<path d="M360.796 454.623C360.796 454.623 355.121 445.637 353.355 445.431C351.589 445.226 345.725 445.603 345.16 445.98C344.594 446.375 340.616 455.412 342.348 458.07C344.079 460.728 353.698 464.638 353.698 464.638L360.796 454.623Z" fill="#F5B082"/>
<path d="M488.275 339.42C488.275 339.42 476.358 337.516 474.095 335.081C471.849 332.629 471.249 325.101 472.055 322.871C472.878 320.642 479.153 317.555 482.548 318.498C485.943 319.459 495.339 333.109 495.339 333.109L488.275 339.42Z" fill="#F5B082"/>
<path d="M558.246 486.056C558.246 486.056 561.452 499.038 553.497 508.675C545.524 518.313 522.034 539.422 516.668 538.119C511.284 536.816 508.575 523.663 507.152 522.891C505.729 522.102 476.084 502.605 462.247 485.216C431.66 487.771 422.109 491.355 407.724 488.783C393.356 486.211 354.521 466.301 353.681 464.655C352.841 463.009 360.796 454.64 360.796 454.64C360.796 454.64 411.633 468.462 416.023 467.21C420.412 465.958 447.056 442.962 447.056 442.962C447.056 442.962 442.496 439.43 440.592 435.177C438.689 430.941 442.341 423.927 442.341 423.927L481.691 405.167C481.691 405.167 497.636 394.998 500.054 383.148C499.745 376.135 487.949 342.832 488.052 340.294C488.154 337.756 493.418 333.04 495.339 333.109C497.259 333.195 522.343 372.105 522.566 381.296C522.789 390.471 517.696 432.279 517.696 432.279L558.246 486.056Z" fill="#992525"/>
<path d="M467.374 462.906C467.031 462.803 439.066 449.684 439.152 447.987C439.238 446.289 444.484 441.453 445.445 441.487C446.405 441.522 476.65 451.331 476.65 451.331L499.985 432.467C499.985 432.467 475.295 407.688 475.45 407.105C475.587 406.522 483.422 400.811 485.943 401.394C488.446 401.977 506.963 430.135 506.963 430.135C506.963 430.135 472.38 464.312 467.374 462.906Z" fill="#AD8971"/>
<path d="M440.661 430.032C440.661 430.032 429.722 421.647 430.391 408.271C431.059 394.895 452.629 399.182 452.629 399.182L440.661 430.032Z" fill="#F5B082"/>
<path d="M456.092 397.776C456.092 397.776 463.585 395.735 471.437 398.41C479.29 401.086 485.668 409.128 485.531 410.209C485.394 411.289 482.308 411.615 482.308 411.615C482.308 411.615 489.543 420.566 488.6 421.595C487.657 422.607 484.743 423.121 484.743 423.121C484.743 423.121 490.744 431.421 487.434 432.742C484.125 434.062 476.495 432.296 476.495 432.296C476.495 432.296 479.805 437.492 476.513 438.641C473.204 439.772 462.505 438.075 462.505 438.075C462.505 438.075 464.099 441.127 461.202 441.093C458.304 441.059 449.354 436.257 449.354 436.257C449.354 436.257 449.371 438.161 446.765 437.509C444.176 436.857 436.357 426.585 438.895 416.365C441.433 406.144 449.731 398.53 456.092 397.776Z" fill="#4C4A45"/>
<path d="M435.98 417.274C435.98 417.274 436.906 425.402 440.267 424.922C443.627 424.442 444.399 407.362 444.622 406.693C444.862 406.024 460.859 399.456 458.458 396.696C456.058 393.935 445.427 395.204 442.358 405.373C440.524 406.865 436.169 411.152 435.98 417.274Z" fill="#5A473D"/>
<path d="M442.221 406.985C442.221 406.985 439.941 420.532 437.232 419.434C434.523 418.337 436.186 409.917 440.421 406.402C441.981 404.841 442.341 406.333 442.221 406.985Z" fill="#B1DFF8"/>
<path d="M444.244 402.972C444.244 402.972 457.772 397.793 455.989 395.769C454.206 393.746 448.342 396.181 445.582 399.182C442.821 402.2 442.65 403.315 444.244 402.972Z" fill="#B1DFF8"/>
<path d="M471.54 476.11C471.54 476.11 461.887 485.25 462.196 486.468C462.505 487.685 468.986 492.693 469.449 493.156C469.912 493.619 480.576 488.303 480.576 488.303L471.54 476.11Z" fill="#AD8971"/>
<path d="M507.426 516.083C507.426 516.083 503.054 518.347 502.78 520.01C502.488 521.674 508.095 526.372 508.095 526.372L517.062 522.514L507.426 516.083Z" fill="#AD8971"/>
<path d="M504.083 425.179C504.083 425.179 461.133 453.114 463.122 466.404C465.111 479.694 510.067 531.328 524.846 528.31C539.626 525.292 560.526 496.825 559.103 483.004C557.68 469.199 528.43 423.104 504.083 425.179Z" fill="#CEB8AA"/>
<path d="M520.234 429.775C520.234 429.775 486.474 463.386 486.766 471.171C487.057 478.974 515.125 513.785 520.766 513.117C526.406 512.448 551.199 489.092 555.04 471.189C552.794 451.433 526.732 431.267 520.234 429.775Z" fill="#EBE3DD"/>
<path d="M545.593 453.2C545.593 453.2 528.498 484.478 508.301 494.768C518.88 477.928 545.593 453.2 545.593 453.2Z" fill="#CEB8AA"/>
<path d="M647.575 615.236C647.575 615.236 673.362 619.128 673.276 616.676C673.191 614.224 649.701 597.881 647.061 598.31C644.42 598.739 641.351 605.135 641.3 606.49C641.231 607.845 643.426 613.401 647.575 615.236Z" fill="#372C2C"/>
<path d="M694.657 535.084C693.954 535.221 672.951 540.829 664.412 533.849C655.891 526.87 665.955 522.685 668.39 522.308C670.824 521.931 692.394 528.482 694.383 529.888C696.372 531.294 698.498 534.312 694.657 535.084Z" fill="#372C2C"/>
<path d="M674.957 58.1505C674.957 58.1505 668.578 43.6943 669.693 41.9452C670.807 40.196 701.207 28.5008 702.321 28.415C703.436 28.3293 706.265 34.8628 697.503 41.8937C688.759 48.9246 688.467 55.561 688.467 55.561L674.957 58.1505Z" fill="#B8BEC0"/>
<path d="M617.776 185.203C617.776 185.203 622.457 173.08 646.409 157.937C659.783 149.483 673.671 136.725 675.591 134.53C677.511 132.318 673.516 60.9971 674.631 57.4302C675.728 53.8462 684.678 52.2171 688.656 54.395C693.097 56.8472 701.772 119.662 701.207 133.707C700.658 147.751 681.661 176.406 672.848 185.221C664.035 194.035 637.836 218.317 637.836 218.317L617.776 185.203Z" fill="#544033"/>
<path d="M432.791 214.081C432.791 214.081 428.042 225.125 426.104 227.063C424.167 228.984 418.492 232.036 415.148 229.841C411.805 227.646 411.53 220.975 416.143 216.174C418.715 213.516 425.796 208.937 425.796 208.937L432.791 214.081Z" fill="#FFA57D"/>
<path d="M493.555 315.035C493.555 315.035 481.673 313.131 479.016 313.731C476.358 314.331 470.734 317.504 470.803 321.5C470.872 325.512 476.358 329.319 482.874 327.982C486.491 327.227 494.155 323.695 494.155 323.695L493.555 315.035Z" fill="#FFA57D"/>
<path d="M760.462 137.291C760.462 137.291 763.154 121.72 765.057 120.88C766.96 120.039 798.731 127.139 799.726 127.688C800.72 128.236 799.434 135.233 788.255 136.245C777.076 137.256 773.167 142.607 773.167 142.607L760.462 137.291Z" fill="#B8BEC0"/>
<path d="M642.328 190.262C646.735 190.571 682.981 202.969 703.213 206.691C723.462 210.412 726.342 209.794 728.623 207.719C730.886 205.662 737.504 195.321 743.899 176.115C750.295 156.908 756.707 136.382 759.811 135.97C762.914 135.559 774.264 142.024 774.882 142.864C775.499 143.687 757.942 217.237 750.723 230.87C743.505 244.503 719.535 244.177 699.715 244.554C679.877 244.932 642.328 242.857 642.328 242.857L603.768 199.128C603.785 199.111 610.437 188.102 642.328 190.262Z" fill="#876751"/>
<path d="M596.875 211.835C596.875 211.835 521.04 245.961 518.759 244.469C517.456 243.628 513.753 239.787 510.838 236.58C508.575 234.128 506.758 232.087 506.758 232.087C506.758 232.087 487.983 206.262 483.251 203.81C478.484 201.306 432.02 221.147 430.168 219.895C428.316 218.643 423.361 209.794 424.784 207.514C425.984 205.662 456.589 189.714 475.227 184.192C479.307 182.991 482.788 182.237 485.291 182.288C488.034 182.34 490.949 183.266 493.915 184.706C506.192 190.914 519.737 206.862 525.395 211.046C528.138 213.035 539.54 213.601 552.468 213.55C572.82 213.464 596.875 211.835 596.875 211.835Z" fill="#F95623"/>
<path d="M510.272 215.333C505.283 217.871 501.219 221.781 498.425 226.634C497.722 227.869 498.733 228.984 499.814 229.069C499.539 229.567 499.248 230.047 499.008 230.561C498.15 232.482 500.997 234.18 501.871 232.225C503.14 229.378 505.06 227.011 507.666 225.314C509.449 224.165 507.786 221.301 506.003 222.45C505.832 222.57 505.677 222.707 505.506 222.827C507.375 220.975 509.518 219.398 511.936 218.163C513.839 217.22 512.176 214.373 510.272 215.333Z" fill="#0B2E35"/>
<path d="M647.866 243.457C646.701 245.446 638.402 248.464 627.617 251.808C625.851 252.357 624.103 252.923 622.285 253.472C609.169 257.364 593.772 261.686 582.696 265.338C580.278 266.179 578.101 266.916 576.249 267.653C571.054 269.608 567.899 271.323 567.95 272.609C568.036 276.125 568.499 285.865 567.539 294.594C566.836 301.041 565.31 306.923 562.344 309.341C561.092 310.404 558.177 311.605 554.285 312.908C536.488 318.927 497.585 326.627 494.207 326.301C490.075 325.89 487.623 315.12 488.223 313.457C488.823 311.828 545.421 297.183 543.809 291.987C543.072 289.758 537.225 281.235 530.916 272.369C528.824 269.454 526.698 266.522 524.709 263.795C518.588 255.358 513.393 248.361 513.393 248.121L510.838 236.58L510.787 236.529L510.084 233.322C510.084 233.322 514.027 231.419 520.423 228.4C528.258 224.731 539.849 219.312 552.451 213.516C584.616 198.768 623.794 181.482 626.212 183.523C628.303 185.324 635.11 199.745 640.58 214.081C645.689 227.269 649.667 240.353 647.866 243.457Z" fill="#F95623"/>
<path d="M467.717 256.198C467.717 256.198 470.357 265.853 475.964 269.351C481.571 272.866 491.069 274.033 497.362 272.678C506.312 270.74 512.004 266.573 515.433 263.898C521.743 258.976 513.513 243.028 513.513 243.028L467.717 256.198Z" fill="#FFA57D"/>
<path d="M492.887 273.227C491.909 271.134 495.51 269.968 500.962 268.202C506.398 266.453 510.255 266.281 510.855 267.499C511.25 268.322 511.575 270.311 504.289 272.318C497.019 274.358 494.104 275.833 492.887 273.227Z" fill="#0B2E35"/>
<path d="M640.614 214.099C638.128 218.883 632.778 224.782 623.897 230.39C626.28 237.369 627.532 244.469 627.6 251.808C625.886 252.34 624.103 252.906 622.285 253.472C622.439 246.458 621.565 239.616 619.645 232.911C613.507 236.306 605.997 239.53 596.875 242.222C590.223 244.211 584.513 245.72 579.387 246.921C581.016 252.991 582.13 259.113 582.696 265.338C580.313 266.161 578.135 266.916 576.249 267.653C575.923 261.103 574.826 254.655 573.008 248.378C556.291 251.791 548.027 250.916 540.895 248.944C538.94 248.378 537.123 247.624 535.374 246.801C531.842 254.963 530.316 263.623 530.916 272.386C528.841 269.471 526.715 266.573 524.743 263.829C524.949 256.867 526.989 250.042 529.561 243.337C525.601 240.353 522.754 236.82 521.691 233.562C521.126 231.882 520.731 230.15 520.474 228.469C518.948 218.283 522.326 208.011 526.424 200.929C531.19 192.663 554.543 180.659 573.351 175.943C592.126 171.193 621.274 172.839 628.08 177.795C634.887 182.751 641.505 200.106 642.328 207.548C642.5 209.228 641.968 211.509 640.614 214.099Z" fill="#0B2E35"/>
<path d="M495.013 225.279C495.63 225.279 503.071 226.72 504.1 225.279C505.129 223.839 502.334 215.882 505.557 212.058C508.781 208.234 509.107 202.146 510.701 199.454C512.278 196.796 516.496 195.424 521.04 199.145C525.584 202.866 527.744 209.794 525.481 213.704C523.2 217.631 519.6 217.323 519.171 222.073C518.76 226.823 521.812 228.778 517.902 231.779C514.01 234.78 515.159 240.353 515.468 243.028C515.776 245.72 511.335 249.184 508.026 250.676C504.734 252.185 495.013 225.279 495.013 225.279Z" fill="#2A3F44"/>
<path d="M472.158 230.578C452.389 247.898 467.717 270.586 476.015 273.227C481.022 274.839 487.469 274.427 488.052 271.152C488.635 267.876 494.481 264.309 500.911 261.206C503.826 259.799 508.095 255.752 510.684 253.763C513.256 251.774 512.278 247.35 510.684 242.737C507.238 232.79 491.927 213.276 472.158 230.578Z" fill="#F5AD33"/>
<path d="M548.919 209.126C553.805 213.961 559.755 217.94 566.442 219.518C575.477 221.627 584.942 219.175 593.686 216.054C599.104 214.133 604.419 211.955 609.632 209.52C615.547 206.759 621.891 202.969 623.434 196.624C625.08 189.816 620.313 183.008 614.638 178.893C608.637 174.554 601.642 172.171 594.269 171.862C587.274 171.553 580.295 172.719 573.54 174.486C567.488 176.063 561.264 177.795 555.4 179.819C550.891 181.379 532.51 187.193 537.225 194.961C540.277 199.985 544.752 205.027 548.919 209.126Z" fill="#3C585D"/>
<path d="M571.277 185.015C578.255 190.108 585.508 194.824 592.194 200.328C593.429 201.34 596.395 203.158 595.864 200.466C595.521 198.699 593.703 196.916 592.589 195.578C589.725 192.149 586.828 188.719 583.433 185.821C580.913 183.694 578.101 181.86 574.997 180.693C572.803 179.87 568.379 178.053 566.15 179.202C563.801 180.419 570.334 184.329 571.277 185.015Z" fill="#0B2E35"/>
<path d="M37.4633 533.163C37.4633 533.163 26.1472 522.137 24.1068 522.565C22.0665 522.994 0.514378 547.396 0.0171534 548.408C-0.462925 549.42 4.68078 554.359 14.3166 548.614C23.9525 542.869 30.2793 544.927 30.2793 544.927L37.4633 533.163Z" fill="#0B2E35"/>
<path d="M176.48 523.989C176.48 523.989 163.484 524.126 140.92 541.291C128.318 550.86 111.515 559.417 108.789 560.463C106.046 561.492 40.6353 532.82 36.8975 532.597C33.1597 532.374 28.4961 540.194 29.1648 544.687C29.9021 549.711 85.7112 579.79 99.0677 584.18C112.424 588.57 145.893 580.784 157.226 575.606C168.559 570.427 200.45 554.376 200.45 554.376L176.48 523.989Z" fill="#CF5511"/>
<path d="M268.193 360.718C268.193 360.718 280.212 360.118 282.698 358.986C285.184 357.854 290.019 353.584 289.128 349.692C288.236 345.799 282.081 343.192 275.977 345.85C272.582 347.325 265.827 352.367 265.827 352.367L268.193 360.718Z" fill="#FFA066"/>
<path d="M341.525 452.96C341.525 452.96 343.908 441.162 345.4 438.881C346.891 436.6 351.812 432.433 355.55 433.908C359.27 435.383 360.934 441.83 357.402 447.472C355.43 450.61 349.446 456.544 349.446 456.544L341.525 452.96Z" fill="#FFA066"/>
<path d="M81.7163 640.941C81.7163 640.941 66.1823 638.026 64.7421 639.518C63.2847 641.01 58.844 673.266 58.9983 674.381C59.1698 675.495 66.1652 676.747 71.0174 666.63C75.8696 656.512 82.265 654.711 82.265 654.711L81.7163 640.941Z" fill="#0B2E35"/>
<path d="M172.64 548.768C171.388 553.004 170.342 591.296 166.742 611.566C163.141 631.835 161.564 634.322 158.82 635.728C156.094 637.134 144.109 639.707 123.877 639.003C103.646 638.283 82.1792 637.117 80.7047 639.878C79.2302 642.639 81.3219 655.535 81.8877 656.409C82.4364 657.284 157.466 666.527 172.777 664.52C188.071 662.514 196.147 639.947 203.416 621.495C210.703 603.043 221.882 567.134 221.882 567.134L194.398 515.723C194.398 515.723 181.761 518.124 172.64 548.768Z" fill="#EA6E29"/>
<path d="M208.731 513.7C208.731 513.7 267.198 454.554 266.615 451.914C266.29 450.405 263.975 445.586 262.003 441.727C260.494 438.744 259.208 436.326 259.208 436.326C259.208 436.326 241.583 409.711 240.931 404.412C240.262 399.062 275.085 362.467 274.554 360.289C274.022 358.111 267.473 350.378 264.832 350.926C262.672 351.406 237.039 374.505 225.363 390.042C222.808 393.437 220.905 396.438 220.065 398.805C219.156 401.377 219.002 404.447 219.31 407.722C220.836 421.406 231.038 439.67 232.975 446.426C233.884 449.684 230.421 460.574 225.86 472.663C218.659 491.715 208.731 513.7 208.731 513.7Z" fill="#FF9933"/>
<path d="M242.286 433.771C246.418 429.981 251.493 427.529 257.014 426.62C258.42 426.397 259.105 427.734 258.814 428.78C259.363 428.695 259.911 428.592 260.494 428.557C262.603 428.437 263.186 431.696 261.06 431.816C257.957 432.004 255.059 432.982 252.556 434.834C250.858 436.103 248.749 433.548 250.464 432.279C250.635 432.159 250.807 432.073 250.978 431.953C248.595 433.067 246.366 434.508 244.36 436.343C242.8 437.783 240.708 435.211 242.286 433.771Z" fill="#0B2E35"/>
<path d="M220.528 572.536C222.808 572.142 228.518 565.419 235.427 556.468C236.559 555.01 237.708 553.553 238.856 552.061C247.086 541.12 256.516 528.207 263.82 519.119C265.449 517.146 266.907 515.363 268.244 513.888C271.879 509.704 274.588 507.355 275.788 507.852C279.063 509.172 288.013 513.014 296.517 515.14C302.793 516.735 308.845 517.369 312.137 515.432C313.577 514.626 315.72 512.311 318.292 509.121C330.157 494.545 350.972 460.797 351.846 457.504C352.892 453.491 343.685 447.438 341.902 447.404C340.17 447.404 306.668 495.316 302.364 491.99C300.547 490.515 294.58 482.061 288.493 473.058C286.487 470.074 284.498 467.056 282.629 464.243C276.868 455.566 272.119 448.244 271.896 448.158L261.969 441.727L261.934 441.676L259.174 439.91C259.174 439.91 256.019 442.945 250.961 447.884C244.789 453.937 235.667 462.906 225.826 472.698C200.776 497.683 170.874 528.344 171.954 531.328C172.914 533.918 184.042 545.339 195.546 555.473C206.125 564.836 216.996 573.136 220.528 572.536Z" fill="#FF9933"/>
<path d="M295.437 408.185C295.437 408.185 303.547 414.033 304.884 420.515C306.205 426.997 303.993 436.308 300.529 441.727C295.591 449.427 289.693 453.303 285.99 455.583C279.183 459.785 267.112 446.495 267.112 446.495L295.437 408.185Z" fill="#FFA066"/>
<path d="M302.587 437.715C300.958 436.068 298.609 439.035 295.06 443.528C291.511 448.004 290.002 451.571 290.945 452.548C291.579 453.217 293.328 454.194 297.752 448.089C302.193 441.967 304.593 439.755 302.587 437.715Z" fill="#0B2E35"/>
<path d="M195.564 555.473C200.913 554.822 208.303 551.872 216.67 545.493C222.362 550.157 228.586 553.827 235.444 556.451C236.542 555.027 237.69 553.553 238.856 552.044C232.238 549.746 226.134 546.522 220.528 542.372C225.86 537.81 231.484 531.894 237.21 524.297C241.394 518.758 244.823 513.94 247.721 509.55C252.847 513.202 258.18 516.392 263.82 519.084C265.432 517.146 266.907 515.363 268.244 513.854C262.226 511.264 256.568 507.972 251.321 504.079C260.357 489.606 262.432 481.563 263.066 474.172C263.22 472.149 263.152 470.177 262.98 468.256C271.862 467.793 280.503 469.405 288.51 473.023C286.521 470.057 284.532 467.056 282.646 464.243C276.045 461.997 268.947 461.534 261.763 461.602C260.357 456.852 258.042 452.943 255.351 450.816C253.962 449.701 252.487 448.724 251.013 447.884C242.011 442.893 231.192 442.465 223.134 443.837C213.738 445.414 194.329 463.112 183.322 479.077C172.297 495.008 163.673 522.908 165.936 531.002C168.199 539.114 182.138 551.375 188.825 554.753C190.351 555.542 192.666 555.833 195.564 555.473Z" fill="#992525"/>
<path d="M256.928 422.95C256.705 423.533 255.471 431.01 253.756 431.473C252.041 431.936 245.577 426.534 240.862 428.214C236.147 429.912 230.335 428.06 227.266 428.626C224.214 429.175 221.471 432.639 223.357 438.212C225.26 443.768 230.987 448.21 235.444 447.472C239.919 446.718 240.88 443.219 245.475 444.488C250.07 445.757 250.841 449.307 255.008 446.7C259.174 444.094 263.992 447.129 266.41 448.347C268.827 449.581 273.611 446.615 276.165 444.06C278.737 441.47 256.928 422.95 256.928 422.95Z" fill="#2A3F44"/>
<path d="M269.873 403.383C293.002 390.916 308.896 413.209 308.485 421.904C308.228 427.168 305.604 433.067 302.33 432.467C299.055 431.867 293.671 436.103 288.527 441.041C286.196 443.271 280.915 445.877 278.154 447.592C275.394 449.307 271.587 446.855 267.833 443.734C259.706 437.029 246.761 415.867 269.873 403.383Z" fill="#80ADC7"/>
<path d="M185.053 470.245C178.246 478.374 172.794 487.462 170.891 497.408C170.102 501.524 170.017 505.948 171.817 509.721C173.343 512.945 176.086 515.397 178.864 517.609C182.739 520.696 186.836 523.508 191.123 525.995C194.552 527.984 197.587 529.905 201.667 529.716C205.422 529.528 207.651 526.921 210.429 524.589C217.321 518.81 224.06 512.739 229.735 505.708C234.21 500.152 237.999 493.962 240.434 487.257C242.731 480.946 244.017 475.287 240.434 469.199C239.336 467.33 237.879 465.718 236.422 464.106C234.861 462.357 233.267 460.608 231.415 459.185C229.015 457.332 226.237 456.338 223.785 454.623C221.179 452.788 218.436 451.125 215.367 450.199C211.115 448.93 207.668 450.576 203.948 452.702C196.404 456.99 190.557 463.677 185.053 470.245Z" fill="#731C1C"/>
<path d="M220.888 502.467C217.819 497.614 213.172 493.996 208.577 490.532C201.616 485.285 194.483 478.922 186.802 474.807C189.494 481.083 196.232 487.051 201.445 491.286C207.274 496.019 213.841 499.826 220.888 502.467Z" fill="#992525"/>
<path d="M208.937 178.327C208.937 178.327 128.164 145.196 123.089 130.98C118.031 116.747 132.245 47.5356 133.222 45.8379C134.182 44.1573 143.835 45.8379 143.835 45.8379C143.835 45.8379 143.355 105.892 146.013 109.27C148.67 112.648 189.665 127.602 191.586 127.362C193.523 127.122 208.954 117.467 208.954 117.467C208.954 117.467 201.959 85.8795 200.999 80.5635C200.039 75.2646 210.155 24.368 213.052 23.1676C215.95 21.9672 222.945 28.4665 222.945 28.4665C222.945 28.4665 222.705 76.7051 224.385 80.5635C226.066 84.4219 246.812 126.624 247.892 128.322C248.972 130.003 260.34 139.571 260.34 139.571L208.937 178.327Z" fill="#992525"/>
<path d="M281.943 338.991C281.943 338.991 290.688 345.027 290.825 346.794C290.962 348.56 290.345 354.425 289.933 354.973C289.522 355.522 280.332 359.123 277.743 357.288C275.154 355.454 271.639 345.679 271.639 345.679L281.943 338.991Z" fill="#F5B082"/>
<path d="M402.255 216.294C402.255 216.294 403.661 228.28 406.01 230.63C408.359 232.979 415.868 233.888 418.132 233.168C420.395 232.448 423.738 226.291 422.932 222.862C422.109 219.432 408.856 209.469 408.856 209.469L402.255 216.294Z" fill="#F5B082"/>
<path d="M258.625 140.377C258.625 140.377 245.783 136.639 235.839 144.201C225.894 151.764 203.828 174.383 204.908 179.802C205.988 185.221 219.019 188.479 219.739 189.936C220.459 191.377 238.736 221.815 255.556 236.357C251.75 266.813 247.772 276.228 249.761 290.701C251.75 305.174 270.044 344.787 271.656 345.696C273.268 346.605 281.943 339.008 281.943 339.008C281.943 339.008 270.216 287.631 271.656 283.293C273.096 278.954 297.135 253.266 297.135 253.266C297.135 253.266 300.478 257.964 304.644 260.057C308.811 262.131 315.943 258.753 315.943 258.753L336.295 220.186C336.295 220.186 347.114 204.667 359.048 202.729C366.043 203.329 398.843 216.482 401.363 216.482C403.901 216.482 408.839 211.424 408.839 209.486C408.839 207.548 370.981 180.899 361.825 180.299C352.669 179.699 310.697 183.077 310.697 183.077L258.625 140.377Z" fill="#AD8971"/>
<path d="M278.034 232.156C278.12 232.516 290.088 260.983 291.785 260.983C293.483 260.983 298.54 255.924 298.54 254.946C298.54 253.986 289.985 223.359 289.985 223.359L309.788 200.809C309.788 200.809 333.535 226.497 334.118 226.377C334.718 226.257 340.736 218.66 340.256 216.122C339.776 213.584 312.411 193.932 312.411 193.932C312.411 193.932 276.817 227.08 278.034 232.156Z" fill="#826755"/>
<path d="M309.771 260.177C309.771 260.177 317.692 271.46 331.083 271.34C344.474 271.22 341.079 249.493 341.079 249.493L309.771 260.177Z" fill="#F5B082"/>
<path d="M342.622 246.081C342.622 246.081 344.971 238.69 342.622 230.733C340.273 222.776 332.489 216.088 331.409 216.174C330.329 216.259 329.866 219.346 329.866 219.346C329.866 219.346 321.207 211.749 320.161 212.658C319.098 213.567 318.464 216.465 318.464 216.465C318.464 216.465 310.422 210.137 308.965 213.396C307.525 216.654 308.965 224.336 308.965 224.336C308.965 224.336 303.907 220.804 302.638 224.062C301.37 227.32 302.638 238.072 302.638 238.072C302.638 238.072 299.655 236.357 299.569 239.255C299.483 242.154 303.907 251.294 303.907 251.294C303.907 251.294 302.004 251.208 302.553 253.832C303.101 256.455 313.046 264.687 323.35 262.56C333.672 260.4 341.628 252.408 342.622 246.081Z" fill="#F95623"/>
<path d="M322.339 265.39C322.339 265.39 314.263 264.138 314.88 260.794C315.498 257.45 332.592 257.381 333.26 257.193C333.946 256.987 341.165 241.262 343.805 243.783C346.463 246.303 344.765 256.85 334.478 259.508C332.9 261.274 328.46 265.458 322.339 265.39Z" fill="#5A473D"/>
<path d="M332.866 259.559C332.866 259.559 319.235 261.274 320.213 264.035C321.19 266.779 329.677 265.475 333.363 261.377C334.992 259.885 333.518 259.474 332.866 259.559Z" fill="#B1DFF8"/>
<path d="M336.947 257.707C336.947 257.707 342.673 244.4 344.611 246.269C346.566 248.121 343.891 253.9 340.77 256.524C337.667 259.165 336.535 259.302 336.947 257.707Z" fill="#B1DFF8"/>
<path d="M265.004 227.44C265.004 227.44 255.471 236.7 254.27 236.357C253.07 235.997 248.321 229.326 247.875 228.829C247.429 228.349 253.173 217.923 253.173 217.923L265.004 227.44Z" fill="#826755"/>
<path d="M226.546 189.936C226.546 189.936 224.111 194.206 222.431 194.429C220.751 194.652 216.293 188.856 216.293 188.856L220.511 180.059L226.546 189.936Z" fill="#826755"/>
<path d="M317.212 197.002C317.212 197.002 287.55 238.792 274.348 236.254C261.146 233.717 211.406 186.695 215.024 172.051C218.642 157.406 247.944 137.685 261.677 139.674C275.445 141.646 320.298 172.754 317.212 197.002Z" fill="#E7DBD3"/>
<path d="M313.286 180.676C313.286 180.676 278.326 213.053 270.559 212.435C262.775 211.835 229.135 182.34 230.044 176.732C230.952 171.125 255.299 147.305 273.319 144.201C292.985 147.254 312.068 174.126 313.286 180.676Z" fill="#C3B8B1"/>
<path d="M290.928 154.371C290.928 154.371 258.968 170.164 247.892 189.936C265.124 180.059 290.928 154.371 290.928 154.371Z" fill="#EBE7E5"/>
<path d="M133.222 45.8379C133.222 45.8379 130.393 19.9094 132.828 20.098C135.262 20.2866 150.642 44.4317 150.093 47.0554C149.545 49.6791 143.046 52.4743 141.692 52.4743C140.337 52.4743 134.885 50.0564 133.222 45.8379Z" fill="#2A3F44"/>
<path d="M215.213 2.05782C215.041 2.76091 208.577 23.5277 215.213 32.3249C221.848 41.122 226.426 31.2445 226.906 28.8266C227.386 26.4086 221.728 4.59579 220.39 2.53798C219.07 0.497307 216.156 -1.74914 215.213 2.05782Z" fill="#2A3F44"/>
</svg>
