<svg width="774" height="635" viewBox="0 0 774 635" fill="none" xmlns="http://www.w3.org/2000/svg">
<path d="M753.236 495.461C753.008 495.466 752.778 495.403 752.569 495.26L673.316 441.456C672.794 441.103 672.664 440.388 673.017 439.866C673.371 439.345 674.076 439.214 674.597 439.567L753.85 493.37C754.372 493.724 754.503 494.439 754.149 494.961C753.94 495.285 753.601 495.453 753.236 495.461Z" fill="#FFF6F1"/>
<path d="M50.3163 519.208C49.8826 519.218 49.4546 518.977 49.2624 518.559C48.9868 517.995 49.2336 517.304 49.7984 517.041L244.661 424.54C245.226 424.276 245.917 424.511 246.181 425.076C246.456 425.64 246.21 426.33 245.645 426.594L50.7821 519.106C50.635 519.166 50.476 519.204 50.3163 519.208Z" fill="#FFF6F1"/>
<path d="M362.618 44.3859L133.187 406.594L373.501 401.085L362.618 44.3859Z" fill="#F7E6CC"/>
<path d="M373.736 480.533C371.842 480.576 370.277 479.083 370.234 477.19L359.575 12.213C359.531 10.32 361.025 8.75694 362.92 8.71351C364.814 8.67008 366.378 10.1631 366.422 12.056L377.081 477.033C377.124 478.926 375.619 480.489 373.736 480.533Z" fill="#374244"/>
<path d="M371.993 404.541L128.267 410.129C126.373 410.172 124.808 408.679 124.765 406.786C124.722 404.893 126.216 403.33 128.11 403.287L371.836 397.699C373.731 397.656 375.295 399.149 375.338 401.042C375.382 402.935 373.876 404.498 371.993 404.541Z" fill="#374244"/>
<path d="M274.861 462.319L515.791 456.796L624.536 521.526L228.722 530.6L274.861 462.319Z" fill="#EFE5D0"/>
<path d="M312.98 504.413C305.824 504.577 299.894 498.917 299.73 491.767C299.566 484.617 305.231 478.691 312.386 478.527C319.542 478.363 325.472 484.023 325.636 491.173C325.811 498.323 320.135 504.249 312.98 504.413Z" fill="#8BCCCC"/>
<path d="M357.647 503.388C350.491 503.552 344.561 497.892 344.397 490.742C344.233 483.593 349.898 477.667 357.053 477.503C364.209 477.339 370.139 482.999 370.303 490.149C370.478 497.298 364.802 503.224 357.647 503.388Z" fill="#8BCCCC"/>
<path d="M509.552 499.906L410.906 502.167C403.751 502.332 397.821 496.672 397.657 489.522C397.493 482.372 403.158 476.446 410.313 476.282L508.958 474.021C516.114 473.857 522.044 479.517 522.208 486.666C522.372 493.816 516.707 499.742 509.552 499.906Z" fill="#8BCCCC"/>
<path d="M363.22 21.8502L705.365 461.841C705.365 461.841 480.245 474.68 221.046 435.841C221.046 435.841 392.679 347.113 389.856 223.958C385.944 53.3092 363.22 21.8502 363.22 21.8502Z" fill="#FFF9E9"/>
<path d="M619.418 475.925C617.282 475.936 615.618 475.946 613.605 475.093C611.829 474.343 610.103 473.335 608.162 473.099C606.385 472.873 607.144 473.767 605.594 474.62C603.909 475.555 603.221 476.624 602.389 478.32C601.034 481.085 597.122 483.449 596.167 486.378C595.561 488.249 594.811 490.119 594.256 492C593.753 493.675 593.887 495.474 594.215 497.191C594.79 500.202 596.701 502.843 598.939 504.868C600.716 506.471 602.75 507.767 604.824 508.969C605.738 509.493 606.663 509.997 607.597 510.49C608.326 510.87 608.809 511.436 609.446 511.98C610.781 513.111 612.322 513.974 613.934 514.632C616.152 515.526 618.514 516.03 620.887 516.4C624.574 516.976 628.939 517.438 632.492 516.02C634.423 515.485 636.374 514.375 638.089 513.347C639.959 512.217 641.088 510.984 641.643 508.815C642.444 505.711 642.454 502.412 641.653 499.308C641.15 497.324 640.318 495.433 639.815 493.449C639.414 491.856 639.219 490.16 639.599 488.547C639.825 487.57 640 487.241 639.702 486.234C639.445 485.361 639.127 484.508 638.777 483.665C638.017 481.825 637.247 479.975 636.148 478.32C635.06 476.655 633.612 475.175 631.794 474.353C629.637 473.377 627.788 473.747 625.693 474.569C623.824 475.309 621.657 475.782 619.654 475.946C619.593 475.925 619.5 475.925 619.418 475.925Z" fill="#6D1212"/>
<path d="M673.789 525.917H604.886C604.835 525.527 604.783 525.136 604.742 524.746C605.646 524.694 606.601 524.602 607.649 524.499C617.159 523.646 618.473 525.527 622.335 523.451C622.869 523.183 625.467 521.734 627.224 519C627.717 518.24 628.055 517.479 628.271 516.606C629.493 516.585 630.931 516.41 632.502 515.989C633.899 515.598 636.857 514.036 638.952 512.834C639.64 514.272 640.472 515.187 641.663 515.424C643.225 515.742 645.032 514.858 646.254 513.615C647.62 513.173 649.233 512.71 651.02 512.268C657.962 510.583 663.559 509.236 667.318 511.045C671.334 512.988 673.563 518.682 673.789 525.917Z" fill="#AD8971"/>
<path d="M667.749 526.524C667.462 526.524 667.205 526.318 667.154 526.031C666.692 523.584 665.634 520.439 663.22 519.329C662.05 518.815 660.93 518.949 658.897 519.185C657.603 519.329 654.029 519.669 649.89 520.069C644.806 520.552 639.034 521.097 635.83 521.447C635.501 521.477 635.193 521.241 635.152 520.902C635.111 520.563 635.357 520.265 635.696 520.224C638.921 519.874 644.683 519.329 649.777 518.846C653.905 518.456 657.479 518.117 658.712 517.973C660.93 517.716 662.234 517.562 663.713 518.209C666.014 519.257 667.606 521.878 668.345 525.794C668.407 526.123 668.191 526.442 667.862 526.503C667.832 526.524 667.791 526.524 667.749 526.524Z" fill="#876751"/>
<path d="M625.766 464.157C624.42 465.082 622.736 465.452 620.856 465.329C620.877 466.285 621.031 467.354 621.421 468.505C621.719 469.358 622.202 470.735 623.352 471.876C623.937 472.441 624.543 472.76 625.211 472.904C625.509 473.366 625.817 473.86 626.135 474.394C624.543 474.96 621.812 475.741 619.686 475.915C618.607 476.008 617.58 475.987 616.656 475.936C616.019 475.175 615.311 474.497 614.479 473.808C612.815 472.441 611.151 471.537 609.785 470.951C610.247 470.509 610.689 469.944 611.079 469.214C612.25 467.015 611.695 466.377 613.031 463.859C613.226 463.52 608.686 462.23 610.305 456.383C611.565 454.134 613.031 453.873 614.263 453.595C616.656 453.055 618.077 454.134 618.491 451.076C618.686 449.637 617.397 448.794 617.592 447.838C618.547 448.012 620.47 448.198 622.539 447.838C625.211 447.208 626.495 446.973 628.313 446.757C628.508 447.785 628.651 448.956 628.754 450.21C629.093 454.907 629.576 461.465 625.766 464.157Z" fill="#FFA57D"/>
<g clip-path="url(#clip0)">
<path d="M611.292 465.474C611.676 465.695 612.083 465.866 612.491 465.964C613.847 466.283 616.38 466.112 617.081 464.567C617.375 463.905 617.262 463.145 617.081 462.532C616.312 462.361 615.453 461.944 614.752 461.11C613.87 460.032 613.033 457.923 613.96 456.648C614.684 455.619 616.222 455.57 617.239 455.962C618.144 456.281 618.687 456.943 618.935 457.261L619.162 457.531C619.659 458.021 619.998 458.07 620.224 458.021C621.197 457.801 621.694 455.153 621.491 453.118C621.4 452.162 621.129 451.377 620.88 450.789C622.327 450.618 624.272 450.103 626.149 448.705C626.33 448.583 626.511 448.436 626.715 448.288C627.596 447.578 628.637 446.572 629.247 444.954C629.926 443.042 628.909 440.198 627.688 439.144C625.193 436.99 623.862 441.62 620.224 441.62C618.456 441.62 616.793 441.46 615.023 441.62C614.752 441.645 609.347 442.086 606.611 446.327C602.654 452.432 606.656 462.925 611.292 465.474Z" fill="#2A3F44"/>
</g>
<path d="M644.467 451.197C644.518 451.957 644.488 452.79 644.416 453.664C644.395 454.126 644.416 454.619 644.416 455.082C643.656 454.887 642.947 454.691 642.31 454.475C640.133 453.787 638.5 453.078 637.401 452.543C636.271 452.009 635.152 451.372 634.639 450.097C634.443 449.583 634.372 449.09 634.392 448.679C636.159 448.699 638.664 448.925 641.478 449.902C642.238 450.138 643.214 450.529 644.467 451.197Z" fill="#FFA57D"/>
<path d="M643.799 457.723C643.748 457.744 643.656 457.775 643.553 457.775C643.183 457.775 642.649 457.549 642.475 457.333C642.105 456.84 642.208 455.473 642.3 454.476C642.937 454.691 643.645 454.887 644.405 455.082C644.488 456.233 644.539 457.312 643.799 457.723Z" fill="#6D1212"/>
<path d="M656.853 475.258C656.535 475.33 656.196 475.402 655.847 475.453" stroke="#070707" stroke-width="0.5181" stroke-miterlimit="10"/>
<path d="M664.895 478.834C664.453 479.985 663.621 481.085 661.844 482.308C656.709 485.803 647.589 485.803 640.534 485.145C640.164 485.124 639.825 485.093 639.507 485.052C637.555 484.857 635.789 484.61 634.372 484.395C632.472 480.602 631.979 478.742 630.582 476.398C630.068 475.545 629.288 474.394 628.138 473.099C629.185 473.099 630.284 473.12 631.434 473.49C631.701 473.592 631.989 473.685 632.235 473.829C632.256 473.829 632.256 473.849 632.287 473.849C634.978 474.507 638.983 475.196 641.16 475.586C647.025 476.594 652.16 476.152 655.847 475.463C652.057 471.527 648.226 466.583 644.929 460.498C644.436 459.563 643.974 458.659 643.563 457.785C643.666 457.785 643.759 457.764 643.81 457.734C644.539 457.322 644.488 456.243 644.416 455.092C644.416 454.63 644.395 454.136 644.416 453.674C644.488 452.79 644.519 451.957 644.467 451.207C645.32 451.649 646.306 452.214 647.374 452.965C649.181 454.157 653.238 457.168 658.373 464.168C663.231 470.756 666.332 474.99 664.895 478.834Z" fill="#992525"/>
<path d="M626.762 521.91C626.443 521.91 626.176 521.663 626.156 521.344C626.125 521.005 626.382 520.717 626.721 520.686C630.223 520.409 633.612 519.309 636.529 517.511C638.285 516.431 639.887 515.095 641.284 513.543C641.51 513.297 641.9 513.276 642.146 513.502C642.393 513.728 642.414 514.119 642.188 514.366C640.709 516 639.024 517.408 637.165 518.549C634.084 520.44 630.51 521.601 626.813 521.899C626.793 521.91 626.782 521.91 626.762 521.91Z" fill="#876751"/>
<path d="M628.148 510.624C627.901 509.102 627.357 507.622 627.069 506.081C626.936 505.341 626.885 504.621 626.659 503.902C626.433 503.182 626.125 502.483 625.919 501.754C625.508 500.315 625.18 498.824 624.779 497.406C624.348 495.895 623.927 494.384 623.372 492.925C622.787 491.383 622.643 489.574 622.171 487.981C621.667 486.306 621.092 484.651 620.497 483.007C619.572 480.458 618.412 478.032 616.666 475.946C616.029 475.185 615.32 474.507 614.489 473.818C612.825 472.451 611.161 471.547 609.795 470.961C607.895 472.78 605.194 473.232 603.684 475.555C604.927 476.408 606.642 477.806 607.936 479.954C608.84 481.475 609.353 482.935 609.6 484.404C609.918 486.193 609.898 487.93 609.867 489.636C609.795 494.261 609.723 498.074 606.858 500.592C605.461 501.836 603.664 502.494 601.825 502.71C601.476 502.751 601.076 502.71 600.737 502.792C600.275 502.905 600.141 503.172 599.823 503.542C599.083 504.385 598.262 505.135 597.563 506.019C596.012 507.962 595.971 510.397 596.084 512.761C596.269 516.389 596.69 521.364 599.946 523.677C601.384 524.704 602.924 524.848 604.763 524.756C605.666 524.704 606.622 524.612 607.669 524.509C617.179 523.656 618.494 525.537 622.355 523.461C622.89 523.193 625.488 521.744 627.244 519.01C627.727 518.25 628.076 517.489 628.292 516.616C628.713 514.92 628.364 513.306 628.271 511.61C628.24 511.271 628.199 510.942 628.148 510.624Z" fill="#F95623"/>
<path d="M647.466 511.95C647.199 512.515 646.788 513.101 646.275 513.615C645.052 514.858 643.245 515.742 641.684 515.424C640.482 515.177 639.65 514.273 638.972 512.834C638.264 511.282 637.884 509.586 637.514 507.931C637.042 505.814 636.549 503.717 636.158 501.59C635.09 495.731 633.385 489.924 631.126 484.415C630.233 482.236 629.236 480.109 628.148 478.022C627.439 476.676 626.751 475.453 626.145 474.404C625.827 473.87 625.508 473.377 625.221 472.914C626.124 473.161 627.1 473.109 628.148 473.089C629.298 474.384 630.078 475.535 630.592 476.388C631.978 478.731 632.471 480.592 634.382 484.384C634.525 484.703 634.7 485.021 634.875 485.361C635.994 487.56 636.631 488.516 637.607 488.619C638.582 488.742 639.465 487.961 640.03 487.324C642.084 495.782 644.354 501.312 646.264 505.033C647.004 506.441 648.616 509.432 647.466 511.95Z" fill="#F95623"/>
<path d="M620.384 513.254V513.275C618.895 513.789 617.015 514.375 614.838 514.889C610.463 515.937 605.554 516.626 600.86 516.821H600.84C599.566 516.842 598.324 516.842 597.122 516.821C590.272 516.677 584.674 515.259 583.524 512.031C583.38 511.641 583.226 511.004 584.038 507.9C585.845 500.972 588.752 495.957 590.888 492.483C592.182 490.376 591.76 490.399 595.366 485.535C598.971 480.671 600.532 479.141 603.633 475.627C606.735 472.113 603.654 475.576 603.685 475.555C604.927 476.408 606.642 477.806 607.936 479.954C608.84 481.475 609.354 482.935 609.6 484.404C608.594 487.364 607.3 490.622 605.615 494.066C604.003 497.324 602.267 500.232 600.532 502.802C599.207 504.734 597.892 506.492 596.619 508.064C600.408 507.057 603.541 506.79 605.811 506.718C609.159 506.646 611.695 507.036 617.447 506.862C618.083 506.841 618.669 506.81 619.203 506.79C619.182 506.862 619.151 506.934 619.151 507.036C619.008 507.797 618.926 508.753 619.1 509.822C619.306 511.271 619.85 512.422 620.384 513.254Z" fill="#992525"/>
<path d="M628.076 510.634C627.809 511.045 627.491 511.436 627.121 511.734C626.802 511.981 626.217 512.412 623.968 512.854C623.064 513.029 621.863 513.194 620.425 513.245C620.404 513.266 620.404 513.266 620.373 513.266V513.245C619.839 512.412 619.295 511.261 619.079 509.822C618.905 508.743 618.977 507.798 619.131 507.037C619.521 506.965 619.963 506.862 620.445 506.739C620.466 506.739 620.497 506.739 620.497 506.739C620.836 506.646 621.205 506.544 621.575 506.42C623.362 505.855 623.875 505.413 625.046 505.393C625.293 505.372 626.145 505.341 626.977 505.619C627.542 505.814 628.127 506.133 628.497 506.698C629.226 507.798 628.887 509.391 628.076 510.634Z" fill="#FFA57D"/>
<path d="M616.646 484.117C616.43 484.487 616.06 484.754 615.639 484.847C615.341 484.898 615.054 484.847 614.787 484.724C614.304 483.059 613.513 481.034 612.096 479.019C611.757 478.557 610.627 477.036 608.727 475.453C607.649 474.6 606.622 473.942 605.77 473.449C606.375 473.058 606.992 472.76 607.628 472.421C608.481 472.914 609.487 473.551 610.514 474.405C612.425 475.967 613.544 477.488 613.862 477.95C615.434 480.15 616.235 482.349 616.646 484.117Z" fill="white"/>
<path d="M595.509 509.709C595.438 509.709 595.376 509.689 595.314 509.637C595.181 509.535 595.17 509.339 595.273 509.206L595.396 509.052C595.715 508.661 596.043 508.27 596.362 507.859C596.465 507.726 596.66 507.705 596.793 507.808C596.927 507.911 596.947 508.106 596.845 508.24C596.516 508.651 596.187 509.052 595.869 509.442L595.746 509.596C595.684 509.668 595.602 509.709 595.509 509.709ZM659.184 475.987C658.322 475.987 657.459 475.936 656.627 475.833C656.155 475.772 655.672 475.7 655.159 475.597C654.994 475.566 654.881 475.402 654.912 475.237C654.943 475.073 655.107 474.96 655.272 474.99C655.775 475.083 656.237 475.165 656.699 475.217C657.51 475.319 658.342 475.371 659.184 475.371C659.349 475.371 659.493 475.504 659.493 475.679C659.493 475.854 659.349 475.987 659.184 475.987Z" fill="#6D1212"/>
<path d="M634.115 488.763C633.406 489.914 631.773 490.602 630.572 491.075C628.949 491.712 627.213 492.062 625.467 492.062C624.636 492.062 623.876 491.959 623.167 491.846C621.801 491.599 620.538 491.332 619.85 489.996C619.531 489.369 619.603 488.752 620.199 488.321C620.702 487.961 621.657 488.423 622.212 488.516V488.536C623.187 488.732 624.358 488.855 625.632 488.834C627.08 488.814 628.528 488.578 629.925 488.166C630.479 488.002 631.024 487.807 631.558 487.581C632.071 487.365 632.636 486.83 633.201 486.789C634.248 486.728 634.557 488.053 634.115 488.763Z" fill="white"/>
<path d="M636.826 500.459C636.816 500.48 636.806 500.49 636.795 500.51C636.128 501.682 634.618 502.268 633.406 502.751C631.773 503.409 630.027 503.758 628.271 503.758C627.563 503.758 626.875 503.686 626.269 503.584C625.334 503.44 624.512 503.214 623.845 502.967C623.177 502.463 622.417 502.021 622.664 501.045C622.746 500.737 622.951 500.459 623.229 500.284C623.896 499.853 624.718 500.212 625.426 500.325C626.31 500.449 627.306 500.541 628.405 500.521C629.884 500.49 631.342 500.254 632.759 499.832C633.324 499.657 633.889 499.462 634.433 499.226C634.926 499.02 635.543 498.537 636.066 498.496C636.498 498.465 636.898 498.825 637.011 499.246C637.145 499.657 637.032 500.089 636.826 500.459Z" fill="white"/>
<path d="M649.257 466.858C648.956 467.116 648.674 467.384 648.428 467.659C647.585 468.638 646.741 469.608 645.898 470.587C645.472 471.082 645.037 471.595 644.811 472.299C644.333 473.8 644.978 475.537 645.67 476.9C646.752 479.009 648.064 481.02 649.781 481.987C652.101 483.294 656.549 481.161 658.515 479.178C660.626 477.051 663.665 477.205 666.121 476.31C667.1 475.953 667.913 475.263 668.853 474.832C669.949 474.331 671.83 474.763 672.689 473.635C673.213 472.943 673.008 471.699 672.625 470.841C671.8 468.978 670.376 467.781 668.948 466.826C664.4 463.781 659.137 462.448 654.298 464.18C652.802 464.708 650.728 465.631 649.257 466.858Z" fill="#876751"/>
<path d="M683.708 478.712C683.822 477.181 683.814 475.225 682.898 473.42C682.312 472.222 681.384 471.153 678.178 469.4C676.915 468.712 675.61 468.22 674.222 467.814C671.082 466.87 667.913 465.927 664.65 465.722C659.307 465.388 654.383 467.877 650.546 471.487C649.416 472.547 648.409 473.707 647.607 474.881C647.328 475.306 647.068 475.704 646.817 476.129C646.262 477.12 645.892 478.032 645.594 478.859C645.428 479.329 645.298 479.751 645.167 480.127C644.978 480.792 644.77 481.477 644.573 482.218C642.571 489.122 640.371 497.959 638.974 503.609C640.35 503.522 642.384 506.14 646.363 507.101C646.372 507.101 646.372 507.101 646.381 507.101C646.656 508.12 646.968 509.137 647.317 510.136C646.974 510.19 646.593 510.218 646.145 510.191C646.154 510.572 646.164 511.001 646.193 511.475C646.258 512.666 646.232 513.999 646.538 515.148C647.775 513.862 650.639 516.153 651.753 516.826C657.824 520.498 664.516 519.571 668.982 518.258L669.001 518.257C670.934 517.701 672.41 517.08 673.322 516.686C674.438 516.223 675.368 515.754 676.058 515.393C676.407 515.208 676.697 512.816 676.808 512.367C677.011 511.496 677.188 510.662 677.447 509.799C679.221 503.907 680.079 497.905 681.442 491.939C682.423 487.649 683.381 483.127 683.708 478.712Z" fill="#AD8971"/>
<path d="M694.212 451.991C695.144 452.426 696.011 452.881 697.014 453.166C697.164 454.029 697.283 454.753 697.389 455.337C697.886 458.326 698.269 461.224 698.339 464.26C698.401 467.408 698.325 470.559 698.108 473.704C698.066 474.302 698.015 474.918 698.131 475.511C698.257 476.151 698.547 476.583 699.049 476.962C699.579 477.36 699.849 477.745 700.151 478.353C700.445 478.962 700.702 479.617 700.764 480.287C700.776 480.436 700.612 482.21 700.358 482.094C701.299 482.539 702.585 482.584 703.554 482.217C706.222 481.205 706.778 477.428 707.174 474.82C707.713 471.108 707.051 468.226 706.214 464.602C705.45 461.339 704.409 458.559 703.068 454.918C702.78 454.133 702.502 453.347 702.167 452.582C701.843 451.825 702.069 451.149 702.061 450.357C702.039 449.435 701.795 448.528 701.616 447.628C701.438 446.738 701.092 445.888 700.609 445.117C699.952 444.088 698.953 443.133 697.798 442.693C696.84 442.333 695.789 442.413 694.777 442.511C693.829 442.607 692.377 442.613 692.144 443.829C692.095 444.11 692.167 444.416 692.349 444.635C692.55 444.882 692.765 444.896 693.037 444.983C693.318 445.079 693.414 445.216 693.652 445.425C694.26 445.952 694.603 446.699 694.899 447.428C694.928 447.502 694.958 447.585 694.979 447.659C695.252 448.622 695.543 449.547 695.531 450.209C695.509 451.299 694.524 450.986 693.705 451.005C693.584 451.008 693.445 451.03 693.392 451.133C693.356 451.209 693.386 451.311 693.435 451.384C693.58 451.651 693.892 451.839 694.212 451.991Z" fill="#FFA57D"/>
<path d="M654.507 454.206C654.775 454.153 655.054 454.118 655.371 454.148C656.919 454.253 658.281 455.191 659.829 455.267C662.112 455.392 664.029 453.698 666.122 452.793C669.394 451.376 673.481 451.767 676.193 449.441C677.024 448.732 677.646 447.824 678.382 447.024C679.335 445.968 680.479 445.085 681.394 443.983C682.309 442.881 682.994 441.486 682.812 440.074C679.896 440.393 677.416 443.058 674.519 442.622C673.725 442.5 672.972 442.145 672.169 442.051C671.077 441.927 669.996 442.306 668.982 442.739C664.805 444.521 661.097 447.262 656.95 449.118C655.494 449.766 653.949 450.184 652.503 450.86C651.287 451.428 649.152 452.53 649.441 454.182C649.473 454.368 649.543 454.552 649.676 454.68C649.838 454.825 650.062 454.876 650.277 454.899C651.192 455.018 652.12 454.903 652.999 454.659C653.545 454.498 654.006 454.301 654.507 454.206Z" fill="#F39800"/>
<path d="M660.94 452.958C660.85 454.283 661.737 455.241 662.071 455.588C662.31 455.834 662.566 456.042 662.849 456.204C663.085 456.347 663.32 456.454 663.554 456.523C664.39 456.83 665.171 456.765 665.561 456.738C665.752 457.777 665.951 459.533 666.199 459.779C667.475 461.045 668.91 459.866 672.318 460.301C673.953 460.515 674.38 460.868 674.966 460.436C676.156 459.551 676.039 456.917 675.994 455.753C675.919 454.115 675.596 453.405 675.228 451.559C675.209 451.541 675.209 451.541 675.208 451.513C675.135 451.161 675.07 450.78 674.985 450.326C674.676 448.609 675.086 446.196 673.605 444.962C673.121 444.554 672.529 444.298 671.955 444.05C670.47 443.422 668.836 442.845 667.282 443.253C666.671 443.416 666.063 443.71 665.54 444.057C665.311 444.202 664.315 445.008 664.348 445.258C664.483 446.262 664.573 447.34 664.637 448.504C664.705 449.844 664.677 451.093 664.629 452.249C663.857 451.037 662.729 450.588 661.956 450.988C661.322 451.328 660.979 452.231 660.94 452.958Z" fill="#FFA57D"/>
<path d="M674.994 450.335C675.079 450.78 675.143 451.161 675.217 451.523C675.217 451.551 675.217 451.551 675.237 451.569C675.934 452.764 676.379 453.881 676.65 454.751C676.822 454.123 676.961 453.29 676.884 452.36C676.826 451.467 676.515 449.667 675.862 449.598C675.563 449.558 675.263 449.863 674.994 450.335Z" fill="#EF8054"/>
<path d="M646.67 517.26C646.854 517.973 647.019 518.687 647.148 519.42C647.256 520.079 647.386 520.886 647.538 521.833C649.155 522.924 651.316 524.16 653.991 525.124C656.357 525.973 661.829 527.87 668.55 526.206C670.447 525.725 673.302 524.755 676.465 522.605C676.53 522.585 676.602 522.509 676.667 522.47L676.582 515.111C676.444 515.207 676.269 515.286 676.039 515.412C675.358 515.763 674.42 516.241 673.304 516.705C672.391 517.099 670.916 517.719 668.983 518.276L668.964 518.277C665.394 519.318 661.587 519.778 657.904 519.136C653.791 518.419 650.413 516.037 646.974 513.852C646.756 513.717 646.52 513.573 646.259 513.57C645.999 513.567 645.724 513.759 645.73 514.02C645.731 514.085 645.751 514.15 645.771 514.215C646.083 515.223 646.404 516.241 646.67 517.26Z" fill="#876751"/>
<path d="M660.44 458.793C660.555 459.769 660.751 461.395 660.592 462.982C661.338 463.45 662.187 463.905 663.136 464.303C663.907 464.63 664.649 464.893 665.342 465.082C663.553 462.598 663.515 458.107 663.554 456.532C663.319 456.453 663.084 456.356 662.848 456.213C662.272 457.074 661.679 457.218 661.513 457.259C661.077 457.353 660.59 457.224 660.127 456.909C660.251 457.437 660.368 458.077 660.44 458.793Z" fill="#EF8054"/>
<path d="M639.548 517.293C640.019 519.583 640.418 521.531 640.811 523.264C641.321 525.61 641.775 527.528 642.281 529.278C642.706 530.759 643.147 532.128 643.681 533.494C643.898 534.021 644.105 534.528 644.293 535.008L644.293 535.027C644.755 536.088 645.177 537.01 645.548 537.794C645.709 538.694 646.031 539.767 646.632 540.788C647.137 541.708 648.369 543.878 650.25 543.891C650.353 543.889 651.926 543.871 652.612 542.551C653.504 540.854 652.182 538.406 651.978 538.037C651.211 536.639 650.549 536.598 649.447 534.862C649.148 534.385 648.923 533.933 648.709 533.519C648.709 533.519 648.709 533.519 648.709 533.5C648.323 528.03 647.904 524.378 647.538 521.824C647.386 520.887 647.256 520.079 647.147 519.411C647.074 519.058 646.935 518.288 646.762 517.23C646.664 516.608 646.573 515.902 646.489 515.084C646.372 514.034 646.279 512.806 646.202 511.466C646.172 510.991 646.162 510.563 646.154 510.181C645.855 510.169 645.547 510.139 645.201 510.072C642.604 509.675 640.696 508.909 639.37 507.905C639.303 507.832 639.209 507.778 639.161 507.705C639.06 508.191 638.969 508.706 638.926 509.257C638.57 512.405 639.045 514.863 639.548 517.293Z" fill="#FFA57D"/>
<path d="M651.179 584.401C651.155 582.128 651.127 578.877 651.102 574.964C650.975 556.425 651.189 554.799 651.664 552.766C652.843 547.735 654.274 546.016 654.729 540.266C654.98 536.981 654.777 534.236 654.549 532.406M662.484 541.458C662.919 540.097 663.361 538.708 663.795 537.3C664.116 536.268 664.418 535.236 664.73 534.213L662.484 541.458ZM651.278 525.791C653.36 527.262 659.748 531.337 667.527 529.546C670.102 528.956 672.2 527.865 673.787 526.813L651.278 525.791Z" stroke="#6D1212" stroke-width="0.4681" stroke-miterlimit="10" stroke-linecap="round" stroke-linejoin="round"/>
<path d="M676.713 447.751L674.094 448.035L674.521 452.022L677.13 451.739L676.713 447.751Z" fill="#956134"/>
<path d="M674.529 452.022C675.022 451.974 675.326 451.035 675.208 449.938C675.09 448.842 674.595 447.986 674.103 448.044C673.611 448.093 673.306 449.032 673.425 450.128C673.534 451.225 674.028 452.071 674.529 452.022Z" fill="#956134"/>
<path d="M677.14 451.738C677.632 451.69 677.936 450.751 677.818 449.654C677.7 448.558 677.206 447.702 676.713 447.76C676.221 447.809 675.917 448.747 676.035 449.844C676.153 450.941 676.648 451.796 677.14 451.738Z" fill="#B28247"/>
<path d="M690.783 446.627L676.916 448.109L677.26 451.344L691.127 449.861L690.783 446.627Z" fill="#6A3906"/>
<path d="M677.271 451.344C677.67 451.297 677.913 450.546 677.818 449.654C677.723 448.762 677.317 448.072 676.917 448.119C676.518 448.165 676.275 448.916 676.37 449.808C676.464 450.701 676.871 451.39 677.271 451.344Z" fill="#6A3906"/>
<path d="M695.698 445.341L681.831 446.823L682.34 451.554L696.207 450.072L695.698 445.341Z" fill="#7F4F21"/>
<path d="M682.341 451.564C682.926 451.504 683.291 450.387 683.15 449.085C683.008 447.775 682.426 446.773 681.832 446.833C681.247 446.893 680.881 448.01 681.023 449.311C681.164 450.612 681.755 451.624 682.341 451.564Z" fill="#7F4F21"/>
<path d="M706.868 443.183L693.001 444.666L693.712 451.293L707.578 449.811L706.868 443.183Z" fill="#956134"/>
<path d="M693.711 451.303C694.529 451.219 695.042 449.66 694.842 447.829C694.642 445.998 693.818 444.582 693.001 444.676C692.183 444.769 691.67 446.318 691.87 448.149C692.061 449.98 692.884 451.387 693.711 451.303Z" fill="#956134"/>
<path d="M707.569 449.812C708.386 449.728 708.9 448.169 708.699 446.338C708.499 444.507 707.675 443.091 706.858 443.184C706.041 443.268 705.527 444.827 705.727 446.658C705.928 448.489 706.751 449.905 707.569 449.812Z" fill="#C9A063"/>
<path d="M707.55 449.019C708.172 448.949 708.555 447.766 708.412 446.381C708.259 444.987 707.638 443.911 707.016 443.981C706.394 444.052 706.011 445.234 706.155 446.619C706.298 448.004 706.928 449.08 707.55 449.019Z" fill="#B0F4D6"/>
<path d="M677.138 441.499C676.601 441.213 676.002 441.059 675.411 440.886C674.314 440.566 673.244 440.172 672.209 439.702C670.967 439.134 669.663 438.726 668.385 438.215C667.042 437.677 665.672 437.205 664.251 436.958C663.26 436.785 662.225 436.707 661.263 437.008C660.524 437.239 659.873 437.674 659.269 438.153C657.56 439.534 656.207 441.438 655.809 443.6C655.512 445.256 655.775 446.955 656.184 448.585C656.574 450.151 657.093 451.686 657.732 453.162C658.047 453.9 658.399 454.628 658.779 455.346C659.139 456.018 659.484 456.467 660.127 456.899C660.59 457.205 661.078 457.343 661.513 457.249C661.68 457.208 662.272 457.064 662.848 456.203C662.565 456.033 662.309 455.834 662.071 455.587C661.737 455.232 660.849 454.274 660.94 452.958C660.979 452.23 661.322 451.328 661.966 450.996C662.729 450.597 663.866 451.046 664.639 452.258C664.677 451.102 664.705 449.853 664.646 448.512C664.612 447.824 664.559 447.135 664.496 446.457C664.436 445.843 664.339 445.268 664.783 444.764C665.183 444.307 665.96 444.084 666.535 444.006C667.964 443.805 669.373 444.332 670.608 445.003C672.041 445.78 673.672 447.066 675.412 446.598C677.216 446.109 679.589 443.231 677.516 441.732C677.393 441.642 677.27 441.57 677.138 441.499Z" fill="#F95623"/>
<path d="M688.993 476.159C690.067 476.693 691.184 477.106 692.39 477.311C693.474 477.491 694.684 477.463 695.697 476.965C696.866 476.389 696.917 474.98 697.263 473.817C697.324 473.629 697.375 473.433 697.512 473.28C698.148 472.595 701.651 474.741 702.349 475.154C703.048 475.567 703.729 476.017 704.373 476.505C705.131 477.084 705.524 477.168 706.495 477.295C706.528 478.739 706.188 480.153 705.829 481.55C705.171 484.109 703.942 486.941 701.195 487.759C698.033 488.698 694.561 488.34 691.474 487.293C689.297 486.56 687.252 485.489 685.306 484.275C684.352 483.682 683.435 483.051 682.517 482.411C681.732 481.869 680.84 481.573 680.127 480.928C679.138 480.028 678.824 478.479 678.543 477.209C678.169 475.503 678.137 473.724 678.098 471.992C678.086 471.489 677.694 469.84 678.266 469.575C678.865 469.31 681.478 471.207 682.016 471.548C684.351 473.051 686.545 474.939 688.993 476.159Z" fill="#AD8971"/>
<path d="M676.858 506.058C676.688 507.161 676.52 508.339 676.925 509.382C677.499 510.851 679.045 511.663 680.466 512.348C681.323 512.757 682.495 513.112 683.102 512.381C683.346 512.086 683.412 511.675 683.468 511.292C684.081 507.169 684.694 503.045 685.298 498.923C685.628 496.679 685.858 494.913 684.776 492.832C683.89 491.137 682.461 489.707 681.998 487.808C681.619 486.279 681.955 484.687 682.115 483.128C682.542 479.009 681.691 474.789 679.8 471.105C678.991 469.531 677.743 467.09 676.222 466.091C674.757 465.137 672.086 464.797 670.379 465.069C669.999 465.134 669.61 465.236 669.318 465.485C669.026 465.734 668.887 466.194 669.081 466.525C669.217 466.754 669.471 466.888 669.716 467.004C671.946 468.043 674.176 469.073 676.407 470.112C677.8 470.76 678.001 471.398 678.239 472.846C678.488 474.369 678.681 475.902 678.81 477.445C679.34 483.527 678.987 489.647 678.297 495.71C677.902 499.167 677.394 502.616 676.858 506.058Z" fill="#E2AF45"/>
<path d="M659.346 466.319C661.281 467.868 665.293 471.093 665.558 471.282C665.909 471.554 670.591 469.043 670.591 469.043C670.591 469.043 674.345 470.363 675.87 470.692C675.472 469.983 675.028 469.304 674.521 468.682L673.294 467.136C672.89 466.977 672.457 466.81 672.017 466.68C672.017 466.68 672.017 466.68 671.998 466.681C669.4 467.039 667.737 467.207 666.229 466.021C665.897 465.759 665.601 465.439 665.342 465.082C664.648 464.883 663.907 464.63 663.136 464.303C662.187 463.906 661.338 463.45 660.592 462.982C660.47 464.15 660.152 465.313 659.492 466.157L659.346 466.319Z" fill="#876751"/>
<path d="M665.342 465.081C665.601 465.439 665.907 465.749 666.229 466.021C667.737 467.198 669.4 467.038 671.998 466.681C672.017 466.68 672.017 466.68 672.017 466.68C672.128 466.659 672.212 466.657 672.342 466.626C672.499 466.604 672.666 466.572 672.824 466.55C674.986 466.249 677.025 465.839 677.704 464.164C677.942 463.609 677.77 462.188 677.427 459.391C677.165 457.291 677.029 456.232 676.833 455.426C676.772 455.213 676.712 455 676.631 454.75C676.36 453.881 675.916 452.764 675.218 451.568C675.586 453.414 675.909 454.124 675.984 455.762C676.03 456.926 676.146 459.569 674.956 460.445C674.37 460.877 673.943 460.524 672.308 460.31C668.891 459.875 667.456 461.054 666.189 459.788C665.941 459.542 665.742 457.777 665.551 456.747C665.161 456.774 664.38 456.839 663.545 456.532C663.515 458.107 663.553 462.588 665.342 465.081Z" fill="#F95623"/>
<path d="M699.332 471.03C700.068 471.46 700.669 472.089 701.306 472.652C702.218 473.461 703.22 474.146 704.304 474.699C704.935 475.02 705.549 475.416 706.215 475.633C706.844 475.833 707.397 475.988 707.865 476.509C709.097 477.887 707.588 479.888 705.958 479.841C705.604 479.831 705.267 479.736 704.938 479.604C704.487 479.428 704.062 479.186 703.638 478.944C701.581 477.78 699.683 476.594 697.915 475.022C696.983 474.186 695.553 472.691 696.585 471.41C697.281 470.536 698.407 470.492 699.332 471.03Z" fill="#876751"/>
<path d="M666.976 495.336C666.174 493.64 665.17 491.697 664.802 489.87C664.413 487.931 664.624 485.728 664.56 483.754C664.44 479.75 663.993 475.679 661.847 472.234C661.306 471.371 660.773 470.489 660.122 469.702C659.624 469.099 658.938 468.798 658.715 468.001C658.614 467.65 658.603 467.175 658.734 466.827C658.857 466.507 659.182 466.435 659.486 466.316C659.492 466.185 659.396 466.057 659.283 465.994C659.17 465.922 659.03 465.907 658.899 465.891C657.611 465.753 656.383 466.201 655.319 466.905C654.136 467.687 652.914 468.405 651.799 469.306C651.497 469.555 650.936 470.239 651.656 470.39C652.012 470.466 652.271 469.985 652.556 469.857C654.17 469.168 656.357 470.767 657.315 471.938C659.011 474.014 660.067 476.626 660.194 479.316C660.404 483.616 658.213 487.962 654.637 490.354C654.344 490.548 654.031 490.741 653.814 491.016C653.516 491.386 653.396 491.874 653.286 492.333C652.089 497.401 650.715 502.427 649.162 507.391C649.067 507.692 648.953 508.02 648.677 508.166C648.245 508.4 647.734 508.039 647.248 507.976C645.997 507.799 645.977 510.194 645.996 511.033C646.004 511.386 646.05 511.749 646.243 512.042C646.445 512.327 646.765 512.487 647.076 512.638C649.241 513.67 651.486 514.541 653.792 515.224C655.639 515.778 657.739 516.41 659.659 516.515C660.023 516.534 660.405 516.535 660.736 516.369C661.132 516.174 661.393 515.786 661.617 515.408C663.528 512.261 664.967 508.827 665.9 505.265C666.354 503.522 666.695 501.744 666.895 499.941C667.058 498.521 667.602 496.673 666.976 495.336Z" fill="#E2AF45"/>
<path d="M637.745 505.686C637.772 506.03 637.891 506.363 638.227 506.803C638.429 507.077 638.725 507.387 639.151 507.713C639.209 507.777 639.294 507.84 639.369 507.894C640.696 508.908 642.594 509.675 645.183 510.081C645.529 510.139 645.855 510.168 646.144 510.19C649.183 510.353 649.595 508.433 649.488 507.793C649.446 507.58 649.212 507.529 648.791 507.473C648.268 507.383 647.429 507.328 646.362 507.082C642.374 506.13 640.34 503.502 638.973 503.599C638.778 503.603 638.584 503.664 638.419 503.798C637.907 504.22 637.694 505.072 637.745 505.686Z" fill="#876751"/>
<path d="M649.215 506.021C649.02 506.836 648.815 507.661 648.62 508.476C648.586 508.607 648.507 508.832 648.584 508.952C648.661 509.071 648.962 509.176 649.084 509.248C649.443 509.454 649.811 509.66 650.187 509.847C650.913 510.221 651.656 510.568 652.417 510.867C653.93 511.475 655.505 511.924 657.121 512.148C657.597 512.211 658.092 512.265 658.563 512.133C659.747 511.798 660.322 510.481 660.724 509.316C661.161 508.058 661.587 506.743 661.463 505.414C661.449 505.219 661.408 505.014 661.283 504.859C661.187 504.749 661.046 504.687 660.914 504.625C657.725 503.198 654.353 501.869 650.936 501.062C650.683 501.002 650.525 501.024 650.429 501.297C650.219 501.879 650.074 502.479 649.93 503.069C649.692 504.053 649.453 505.037 649.215 506.021Z" fill="#DB881D"/>
<path d="M650.476 501.333C650.4 501.68 650.334 502.035 650.258 502.382C650.175 502.803 650.178 502.961 650.564 503.13C650.959 503.307 651.345 503.503 651.74 503.68C652.531 504.035 653.339 504.352 654.156 504.65C655.789 505.246 657.467 505.729 659.161 506.128C659.348 506.171 659.536 506.213 659.723 506.255C660.631 506.458 661.565 506.604 662.473 506.416C663.844 506.133 663.643 503.845 663.368 502.827C663.317 502.632 663.238 502.429 663.095 502.293C662.933 502.129 662.708 502.059 662.493 501.999C660.42 501.357 658.348 500.724 656.267 500.082C654.729 499.605 653.288 498.874 651.802 498.256C651.614 498.177 651.5 498.067 651.363 498.201C651.254 498.306 651.187 498.643 651.144 498.793C651.013 499.178 650.892 499.563 650.789 499.956C650.679 500.406 650.577 500.865 650.476 501.333Z" fill="#E59933"/>
<path d="M654.148 502.684C654.204 502.273 654.71 502.01 655.141 502.149C655.873 502.384 655.876 503.334 655.24 503.619C654.65 503.875 654.067 503.217 654.148 502.684Z" fill="#876751"/>
<path d="M669.011 518.695C668.974 518.696 668.927 518.688 668.889 518.679C668.655 518.619 668.519 518.38 668.579 518.146C672.06 505.105 673.14 492.073 671.778 479.386C671.506 476.849 671.151 474.36 670.706 472.003C670.663 471.762 670.816 471.544 671.057 471.492C671.298 471.449 671.516 471.603 671.568 471.844C672.014 474.228 672.378 476.726 672.651 479.291C674.024 492.081 672.938 505.225 669.432 518.368C669.371 518.566 669.206 518.69 669.011 518.695ZM648.139 510.266C648.092 510.267 648.055 510.258 648.008 510.25C647.774 510.181 647.647 509.942 647.707 509.707C648.535 506.828 649.344 503.949 650.109 501.155C650.624 499.27 651.018 497.78 651.37 496.486C652.031 494.02 652.502 492.239 653.246 489.771C654.05 487.088 654.903 484.469 655.786 481.989C655.865 481.763 656.114 481.646 656.339 481.725C656.564 481.803 656.682 482.052 656.603 482.278C655.729 484.748 654.876 487.358 654.08 490.022C653.345 492.471 652.865 494.252 652.213 496.709C651.871 498.002 651.467 499.493 650.952 501.378C650.187 504.181 649.378 507.06 648.551 509.949C648.49 510.137 648.325 510.262 648.139 510.266Z" fill="#876751"/>
<path d="M651.524 453.65C652.17 452.983 652.768 452.279 653.236 451.98C655.136 450.762 657.743 451.998 659.848 451.204C661.74 450.499 662.688 448.409 664.241 447.106C665.438 446.11 667.028 445.598 668.585 445.711C669.863 445.803 671.252 446.284 672.345 445.625C673.107 445.17 673.524 444.256 674.296 443.81C675.316 443.228 676.647 443.644 677.771 443.535C679.23 443.389 680.643 442.891 681.862 442.062C682.522 441.618 683.16 441.017 683.301 440.231C683.671 438.135 681.008 438.522 679.924 439.134C679.593 439.319 679.291 439.568 678.95 439.734C677.57 440.446 676.272 440.289 675.094 439.254C674.229 438.491 673.639 437.508 672.856 436.678C671.101 434.817 668.649 433.886 666.089 433.879C663.575 433.881 660.996 434.695 658.876 436.039C656.554 437.517 654.689 439.787 654.212 442.556C654.162 442.827 654.132 443.108 654.119 443.387C654.058 444.358 654.183 445.333 654.149 446.303C654.119 447.031 653.997 447.779 653.658 448.429C653.336 449.033 652.765 449.279 652.186 449.609C650.936 450.327 649.573 450.974 648.659 452.131C648.306 452.587 648.021 453.134 648.025 453.711C648.019 454.289 648.359 454.887 648.903 455.07C649.729 455.349 650.669 454.536 651.524 453.65Z" fill="#F8B62D"/>
<path d="M697.687 482.156C697.631 482.157 697.585 482.14 697.537 482.104C696.008 480.778 694.814 479.073 694.1 477.17C694.06 477.059 694.113 476.927 694.224 476.887C694.335 476.847 694.466 476.9 694.506 477.011C695.2 478.84 696.345 480.482 697.818 481.771C697.913 481.853 697.916 481.983 697.844 482.078C697.808 482.135 697.743 482.155 697.687 482.156Z" fill="#876751"/>
<path d="M683.008 483.554C682.999 483.554 682.999 483.554 682.99 483.554C682.869 483.548 682.782 483.447 682.789 483.326C682.946 480.835 682.433 478.349 681.311 476.12C681.253 476.01 681.296 475.878 681.407 475.829C681.517 475.78 681.648 475.814 681.698 475.925C682.849 478.219 683.383 480.787 683.218 483.354C683.211 483.466 683.12 483.551 683.008 483.554Z" fill="#876751"/>
<path d="M683.95 479.927C683.829 479.93 683.734 479.839 683.731 479.718C683.68 477.893 683.323 476.112 682.66 474.413C682.62 474.302 682.673 474.17 682.784 474.13C682.894 474.091 683.017 474.144 683.066 474.254C683.748 476 684.116 477.836 684.159 479.708C684.162 479.829 684.071 479.924 683.95 479.927Z" fill="#876751"/>
<path d="M753.772 518.86C757.41 509.238 760.684 498.633 763.407 486.921C763.407 486.921 488.283 533.423 13.7279 509.515C13.7279 509.515 14.306 522.281 17.1149 539.718C92.0822 543.556 228.746 548.603 383.732 545.05C536.197 541.566 675.128 527.965 753.772 518.86Z" fill="#FFC062"/>
<path d="M383.733 545.061C228.746 548.614 92.0826 543.567 17.1154 539.729C21.375 566.158 30.7676 603.319 51.1097 623.036L674.998 607.98C674.998 607.98 725.674 593.15 753.783 518.871C675.128 527.965 536.197 541.566 383.733 545.061Z" fill="#F89929"/>
<g clip-path="url(#clip1)" filter="url(#filter0_d)">
<path d="M652.374 527.581C653.642 523.49 656.448 520.3 659.96 518.451L656.469 511.823C651.261 514.566 647.1 519.296 645.219 525.363C643.365 531.344 644.076 537.508 646.726 542.672L653.352 539.181C651.596 535.713 651.132 531.585 652.374 527.581Z" fill="#FE3D4B"/>
<path d="M682.003 536.764C680.736 540.855 677.929 544.045 674.417 545.894L677.908 552.521C683.115 549.777 687.277 545.047 689.157 538.98C691.064 532.829 690.258 526.485 687.42 521.233L680.793 524.724C682.738 528.28 683.298 532.588 682.003 536.764Z" fill="#FE3D4B"/>
<path d="M674.417 545.894C670.904 547.745 666.687 548.255 662.597 546.987C658.42 545.693 655.184 542.795 653.353 539.18L646.727 542.671C649.452 547.982 654.228 552.234 660.38 554.141C666.447 556.022 672.702 555.265 677.91 552.522L674.417 545.894Z" fill="#FEFFE3"/>
<path d="M671.78 517.358C675.786 518.599 678.926 521.316 680.792 524.726L687.418 521.235C684.66 516.129 679.979 512.057 673.998 510.203C667.931 508.322 661.676 509.079 656.468 511.822L659.959 518.449C663.471 516.6 667.688 516.089 671.78 517.358Z" fill="#FEFFE3"/>
</g>
<path d="M30.4892 607.99C8.10434 611.434 31.664 630.469 1.58138 634.16L761.598 616.737C765.328 595.645 787.507 547.125 753.953 547.894C712.011 548.855 726.652 592.031 654.389 593.688C582.127 595.344 553.037 575.006 491.387 576.419C429.736 577.832 491.425 608.677 463.127 609.325C434.828 609.974 296.112 592.899 259.223 593.744C222.334 594.59 239.265 614.457 217.536 614.955C195.807 615.454 110.727 595.648 30.4892 607.99Z" fill="#418BCE"/>
<defs>
<filter id="filter0_d" x="638.409" y="503.394" width="57.5565" height="59.5565" filterUnits="userSpaceOnUse" color-interpolation-filters="sRGB">
<feFlood flood-opacity="0" result="BackgroundImageFix"/>
<feColorMatrix in="SourceAlpha" type="matrix" values="0 0 0 0 0 0 0 0 0 0 0 0 0 0 0 0 0 0 127 0"/>
<feOffset dy="2"/>
<feColorMatrix type="matrix" values="0 0 0 0 0 0 0 0 0 0 0 0 0 0 0 0 0 0 0.15 0"/>
<feBlend mode="normal" in2="BackgroundImageFix" result="effect1_dropShadow"/>
<feBlend mode="normal" in="SourceGraphic" in2="effect1_dropShadow" result="shape"/>
</filter>
<clipPath id="clip0">
<rect width="26.8062" height="27.7058" fill="white" transform="matrix(-1 0 0 1 630.725 438.393)"/>
</clipPath>
<clipPath id="clip1">
<rect width="46" height="46" fill="white" transform="translate(652.028 503.394) rotate(17.2211)"/>
</clipPath>
</defs>
</svg>
