<svg width="4107" height="3253" viewBox="0 0 4107 3253" fill="none" xmlns="http://www.w3.org/2000/svg">
<path d="M4050.24 2641.76C4048.99 2641.76 4047.74 2641.39 4046.61 2640.57L3619.49 2336.08C3616.68 2334.08 3616.06 2330.15 3618.06 2327.34C3620.06 2324.52 3623.93 2323.9 3626.74 2325.9L4053.87 2630.39C4056.68 2632.39 4057.3 2636.33 4055.3 2639.14C4054.12 2640.89 4052.24 2641.76 4050.24 2641.76Z" fill="#FFF6F1"/>
<path d="M1435.51 2400.29H2755.19L3342.4 2768.3H1174.35L1435.51 2400.29Z" fill="#EFE5D0"/>
<path d="M2715.62 2635.51H2175.3C2136.1 2635.51 2104.35 2603.78 2104.35 2564.62C2104.35 2525.46 2136.1 2493.73 2175.3 2493.73H2715.62C2754.81 2493.73 2786.57 2525.46 2786.57 2564.62C2786.57 2603.78 2754.81 2635.51 2715.62 2635.51Z" fill="#8BCCCC"/>
<path d="M1974.52 0L3792.39 2451.69C3792.39 2451.69 2558.35 2493.73 1144.22 2248.57C1144.22 2248.57 2094.97 1784.37 2094.97 1109.8C2094.97 175.076 1974.52 0 1974.52 0Z" fill="#FFF9E9"/>
<path d="M3246.15 2480.67C3234.28 2480.73 3225.03 2480.78 3213.84 2476.04C3203.97 2471.87 3194.38 2466.27 3183.59 2464.96C3173.71 2463.7 3177.93 2468.67 3169.31 2473.41C3159.95 2478.61 3156.12 2484.55 3151.5 2493.98C3143.96 2509.35 3122.22 2522.49 3116.91 2538.77C3113.54 2549.17 3109.38 2559.56 3106.29 2570.02C3103.5 2579.33 3104.24 2589.33 3106.07 2598.87C3109.26 2615.61 3119.88 2630.29 3132.32 2641.54C3142.2 2650.46 3153.5 2657.65 3165.04 2664.34C3170.12 2667.25 3175.25 2670.05 3180.45 2672.79C3184.5 2674.91 3187.18 2678.05 3190.72 2681.08C3198.14 2687.36 3206.71 2692.16 3215.67 2695.82C3228 2700.79 3241.13 2703.59 3254.32 2705.64C3274.81 2708.84 3299.07 2711.41 3318.82 2703.53C3329.56 2700.56 3340.4 2694.39 3349.94 2688.68C3360.33 2682.39 3366.61 2675.54 3369.69 2663.48C3374.14 2646.23 3374.2 2627.89 3369.74 2610.64C3366.95 2599.61 3362.32 2589.1 3359.53 2578.07C3357.3 2569.22 3356.22 2559.79 3358.33 2550.82C3359.58 2545.4 3360.55 2543.57 3358.9 2537.97C3357.47 2533.11 3355.7 2528.37 3353.76 2523.69C3349.54 2513.46 3345.25 2503.18 3339.15 2493.98C3333.1 2484.72 3325.05 2476.5 3314.94 2471.93C3302.95 2466.5 3292.68 2468.56 3281.03 2473.13C3270.64 2477.24 3258.6 2479.87 3247.47 2480.78C3247.12 2480.67 3246.61 2480.67 3246.15 2480.67Z" fill="#6D1212"/>
<path d="M3548.37 2758.54H3165.38C3165.09 2756.37 3164.81 2754.2 3164.58 2752.03C3169.6 2751.75 3174.91 2751.23 3180.73 2750.66C3233.6 2745.92 3240.9 2756.37 3262.37 2744.83C3265.34 2743.35 3279.78 2735.29 3289.54 2720.1C3292.28 2715.87 3294.16 2711.64 3295.36 2706.79C3302.16 2706.67 3310.15 2705.7 3318.88 2703.36C3326.65 2701.19 3343.09 2692.5 3354.73 2685.82C3358.56 2693.82 3363.18 2698.9 3369.8 2700.22C3378.48 2701.99 3388.53 2697.07 3395.32 2690.16C3402.91 2687.7 3411.87 2685.13 3421.81 2682.68C3460.4 2673.31 3491.51 2665.82 3512.4 2675.88C3534.72 2686.68 3547.11 2718.33 3548.37 2758.54Z" fill="#AD8971"/>
<path d="M3514.8 2761.92C3513.2 2761.92 3511.77 2760.77 3511.49 2759.17C3508.92 2745.58 3503.04 2728.1 3489.63 2721.93C3483.12 2719.07 3476.9 2719.81 3465.59 2721.13C3458.4 2721.93 3438.53 2723.81 3415.53 2726.04C3387.27 2728.72 3355.19 2731.75 3337.38 2733.69C3335.55 2733.87 3333.84 2732.55 3333.61 2730.67C3333.38 2728.78 3334.75 2727.12 3336.64 2726.9C3354.56 2724.95 3386.59 2721.93 3414.9 2719.24C3437.85 2717.07 3457.71 2715.18 3464.56 2714.38C3476.9 2712.96 3484.15 2712.1 3492.37 2715.7C3505.15 2721.53 3514 2736.09 3518.11 2757.86C3518.45 2759.69 3517.25 2761.46 3515.43 2761.8C3515.26 2761.92 3515.03 2761.92 3514.8 2761.92Z" fill="#876751"/>
<path d="M3281.43 2415.26C3273.95 2420.4 3264.59 2422.46 3254.15 2421.77C3254.26 2427.08 3255.12 2433.02 3257.29 2439.42C3258.94 2444.16 3261.62 2451.82 3268.02 2458.16C3271.27 2461.3 3274.64 2463.07 3278.35 2463.87C3280.01 2466.45 3281.72 2469.19 3283.49 2472.16C3274.64 2475.3 3259.45 2479.64 3247.64 2480.61C3241.64 2481.13 3235.94 2481.01 3230.8 2480.73C3227.26 2476.5 3223.32 2472.73 3218.7 2468.9C3209.45 2461.3 3200.2 2456.28 3192.61 2453.02C3195.18 2450.56 3197.63 2447.42 3199.8 2443.36C3206.31 2431.14 3203.23 2427.6 3210.65 2413.6C3211.73 2411.72 3186.5 2404.55 3195.5 2372.05C3202.5 2359.55 3210.65 2358.09 3217.5 2356.55C3230.8 2353.55 3238.69 2359.55 3241 2342.55C3242.08 2334.55 3234.92 2329.86 3236 2324.55C3241.31 2325.52 3252 2326.55 3263.5 2324.55C3278.35 2321.05 3285.49 2319.74 3295.59 2318.54C3296.67 2324.25 3297.47 2330.76 3298.04 2337.73C3299.93 2363.84 3302.61 2400.29 3281.43 2415.26Z" fill="#FFA57D"/>
<g clip-path="url(#clip0)">
<path d="M3200.99 2422.58C3203.12 2423.8 3205.39 2424.76 3207.65 2425.3C3215.19 2427.07 3229.27 2426.12 3233.17 2417.54C3234.8 2413.86 3234.17 2409.63 3233.17 2406.23C3228.89 2405.27 3224.12 2402.95 3220.22 2398.32C3215.32 2392.33 3210.67 2380.61 3215.82 2373.52C3219.84 2367.8 3228.39 2367.52 3234.05 2369.7C3239.07 2371.48 3242.09 2375.16 3243.47 2376.93L3244.73 2378.43C3247.5 2381.15 3249.38 2381.42 3250.64 2381.15C3256.04 2379.93 3258.81 2365.21 3257.68 2353.9C3257.17 2348.58 3255.67 2344.22 3254.28 2340.95C3262.33 2340 3273.14 2337.14 3283.57 2329.37C3284.58 2328.69 3285.58 2327.87 3286.71 2327.05C3291.61 2323.1 3297.4 2317.51 3300.79 2308.52C3304.56 2297.89 3298.91 2282.08 3292.12 2276.22C3278.26 2264.25 3270.86 2289.99 3250.64 2289.99C3240.81 2289.99 3231.56 2289.1 3221.73 2289.99C3220.22 2290.12 3190.18 2292.58 3174.97 2316.15C3152.97 2350.08 3175.22 2408.41 3200.99 2422.58Z" fill="#2A3F44"/>
</g>
<path d="M3385.39 2343.22C3385.67 2347.44 3385.5 2352.07 3385.1 2356.93C3384.99 2359.5 3385.1 2362.24 3385.1 2364.81C3380.88 2363.73 3376.94 2362.64 3373.4 2361.44C3361.3 2357.61 3352.22 2353.67 3346.11 2350.7C3339.83 2347.73 3333.61 2344.19 3330.76 2337.1C3329.67 2334.25 3329.27 2331.5 3329.39 2329.22C3339.2 2329.33 3353.13 2330.59 3368.78 2336.02C3373 2337.33 3378.42 2339.5 3385.39 2343.22Z" fill="#FFA57D"/>
<path d="M3381.68 2379.49C3381.39 2379.61 3380.88 2379.78 3380.31 2379.78C3378.25 2379.78 3375.28 2378.52 3374.31 2377.32C3372.26 2374.58 3372.83 2366.98 3373.34 2361.44C3376.88 2362.64 3380.82 2363.73 3385.04 2364.81C3385.5 2371.21 3385.79 2377.21 3381.68 2379.49Z" fill="#6D1212"/>
<path d="M3454.23 2476.96C3452.46 2477.36 3450.58 2477.76 3448.64 2478.04" stroke="#070707" stroke-width="0.5181" stroke-miterlimit="10"/>
<path d="M3498.93 2496.84C3496.48 2503.23 3491.85 2509.35 3481.98 2516.15C3453.43 2535.57 3402.74 2535.57 3363.52 2531.91C3361.47 2531.8 3359.58 2531.63 3357.81 2531.4C3346.97 2530.31 3337.15 2528.94 3329.27 2527.74C3318.71 2506.66 3315.97 2496.32 3308.21 2483.3C3305.35 2478.55 3301.01 2472.16 3294.62 2464.96C3300.44 2464.96 3306.55 2465.07 3312.94 2467.13C3314.43 2467.7 3316.03 2468.21 3317.4 2469.01C3317.51 2469.01 3317.51 2469.13 3317.68 2469.13C3332.64 2472.78 3354.9 2476.61 3367 2478.78C3399.6 2484.38 3428.14 2481.93 3448.64 2478.1C3427.57 2456.22 3406.28 2428.74 3387.96 2394.92C3385.22 2389.72 3382.65 2384.69 3380.36 2379.84C3380.93 2379.84 3381.45 2379.72 3381.73 2379.55C3385.79 2377.27 3385.5 2371.27 3385.1 2364.87C3385.1 2362.3 3384.99 2359.56 3385.1 2356.98C3385.5 2352.07 3385.67 2347.44 3385.39 2343.27C3390.12 2345.73 3395.6 2348.87 3401.54 2353.04C3411.59 2359.67 3434.14 2376.41 3462.68 2415.31C3489.68 2451.93 3506.92 2475.47 3498.93 2496.84Z" fill="#992525"/>
<path d="M3286.97 2736.26C3285.2 2736.26 3283.72 2734.89 3283.6 2733.12C3283.43 2731.24 3284.86 2729.64 3286.74 2729.47C3306.21 2727.92 3325.05 2721.81 3341.26 2711.81C3351.02 2705.81 3359.93 2698.39 3367.69 2689.76C3368.95 2688.39 3371.12 2688.28 3372.49 2689.53C3373.86 2690.79 3373.97 2692.96 3372.71 2694.33C3364.49 2703.41 3355.13 2711.24 3344.8 2717.58C3327.67 2728.09 3307.81 2734.55 3287.26 2736.21C3287.14 2736.26 3287.09 2736.26 3286.97 2736.26Z" fill="#876751"/>
<path d="M3294.68 2673.54C3293.31 2665.08 3290.28 2656.86 3288.68 2648.29C3287.94 2644.17 3287.66 2640.17 3286.4 2636.17C3285.14 2632.18 3283.43 2628.29 3282.29 2624.23C3280.01 2616.24 3278.18 2607.95 3275.95 2600.07C3273.56 2591.67 3271.21 2583.27 3268.13 2575.16C3264.88 2566.59 3264.08 2556.54 3261.45 2547.68C3258.66 2538.37 3255.46 2529.17 3252.15 2520.03C3247.01 2505.86 3240.56 2492.38 3230.85 2480.78C3227.32 2476.56 3223.38 2472.79 3218.75 2468.96C3209.5 2461.36 3200.26 2456.33 3192.66 2453.08C3182.1 2463.19 3167.09 2465.7 3158.7 2478.61C3165.61 2483.35 3175.14 2491.12 3182.33 2503.06C3187.36 2511.52 3190.21 2519.63 3191.58 2527.8C3193.35 2537.74 3193.24 2547.4 3193.06 2556.88C3192.66 2582.59 3192.26 2603.78 3176.34 2617.78C3168.57 2624.69 3158.58 2628.35 3148.37 2629.55C3146.43 2629.78 3144.2 2629.55 3142.31 2630C3139.75 2630.63 3139 2632.12 3137.23 2634.18C3133.12 2638.86 3128.56 2643.03 3124.68 2647.94C3116.06 2658.74 3115.83 2672.28 3116.46 2685.42C3117.48 2705.59 3119.82 2733.24 3137.92 2746.09C3145.91 2751.8 3154.47 2752.6 3164.69 2752.09C3169.72 2751.8 3175.03 2751.29 3180.85 2750.72C3233.71 2745.98 3241.02 2756.43 3262.48 2744.89C3265.45 2743.41 3279.89 2735.35 3289.65 2720.15C3292.34 2715.93 3294.28 2711.7 3295.48 2706.84C3297.82 2697.42 3295.88 2688.45 3295.36 2679.02C3295.19 2677.14 3294.96 2675.31 3294.68 2673.54Z" fill="#F95623"/>
<path d="M3402.06 2680.91C3400.57 2684.05 3398.29 2687.3 3395.43 2690.16C3388.64 2697.07 3378.59 2701.99 3369.92 2700.22C3363.24 2698.84 3358.61 2693.82 3354.85 2685.82C3350.91 2677.19 3348.79 2667.77 3346.74 2658.57C3344.11 2646.8 3341.37 2635.15 3339.2 2623.32C3333.27 2590.76 3323.79 2558.48 3311.23 2527.86C3306.27 2515.75 3300.73 2503.92 3294.68 2492.32C3290.74 2484.84 3286.91 2478.04 3283.54 2472.21C3281.78 2469.24 3280.01 2466.5 3278.41 2463.93C3283.43 2465.3 3288.85 2465.02 3294.68 2464.9C3301.07 2472.1 3305.41 2478.5 3308.26 2483.24C3315.97 2496.26 3318.71 2506.61 3329.33 2527.69C3330.13 2529.46 3331.1 2531.23 3332.07 2533.11C3338.29 2545.34 3341.83 2550.65 3347.25 2551.22C3352.68 2551.91 3357.59 2547.57 3360.72 2544.02C3372.14 2591.04 3384.76 2621.78 3395.38 2642.46C3399.49 2650.28 3408.45 2666.91 3402.06 2680.91Z" fill="#F95623"/>
<path d="M3251.52 2688.16V2688.28C3243.24 2691.13 3232.8 2694.39 3220.69 2697.24C3196.38 2703.07 3169.09 2706.9 3143 2707.98H3142.89C3135.81 2708.1 3128.9 2708.1 3122.22 2707.98C3084.14 2707.19 3053.03 2699.3 3046.64 2681.36C3045.84 2679.19 3044.98 2675.65 3049.49 2658.4C3059.54 2619.89 3075.7 2592.01 3087.57 2572.7C3094.76 2560.99 3092.42 2561.12 3112.46 2534.08C3132.5 2507.05 3141.17 2498.55 3158.41 2479.01C3175.65 2459.48 3158.53 2478.73 3158.7 2478.61C3165.61 2483.35 3175.14 2491.12 3182.33 2503.06C3187.36 2511.52 3190.21 2519.63 3191.58 2527.8C3185.99 2544.25 3178.79 2562.36 3169.43 2581.5C3160.47 2599.61 3150.82 2615.78 3141.17 2630.06C3133.81 2640.8 3126.5 2650.57 3119.42 2659.31C3140.49 2653.71 3157.9 2652.23 3170.52 2651.83C3189.13 2651.43 3203.23 2653.6 3235.19 2652.63C3238.73 2652.51 3241.99 2652.34 3244.96 2652.23C3244.84 2652.63 3244.67 2653.03 3244.67 2653.6C3243.87 2657.83 3243.41 2663.14 3244.38 2669.08C3245.53 2677.14 3248.55 2683.53 3251.52 2688.16Z" fill="#992525"/>
<path d="M3294.28 2673.6C3292.79 2675.88 3291.02 2678.05 3288.97 2679.71C3287.2 2681.08 3283.95 2683.48 3271.44 2685.94C3266.42 2686.91 3259.74 2687.82 3251.75 2688.11C3251.63 2688.22 3251.63 2688.22 3251.46 2688.22V2688.11C3248.5 2683.48 3245.47 2677.08 3244.27 2669.08C3243.3 2663.08 3243.7 2657.83 3244.56 2653.6C3246.73 2653.2 3249.18 2652.63 3251.86 2651.94C3251.98 2651.94 3252.15 2651.94 3252.15 2651.94C3254.03 2651.43 3256.09 2650.86 3258.14 2650.17C3268.08 2647.03 3270.93 2644.57 3277.44 2644.46C3278.81 2644.35 3283.55 2644.17 3288.17 2645.72C3291.31 2646.8 3294.56 2648.57 3296.62 2651.71C3300.67 2657.83 3298.79 2666.68 3294.28 2673.6Z" fill="#FFA57D"/>
<path d="M3230.74 2526.2C3229.54 2528.26 3227.49 2529.74 3225.15 2530.26C3223.49 2530.54 3221.89 2530.26 3220.41 2529.57C3217.73 2520.32 3213.33 2509.06 3205.45 2497.86C3203.57 2495.29 3197.29 2486.84 3186.73 2478.04C3180.73 2473.3 3175.03 2469.64 3170.29 2466.9C3173.66 2464.73 3177.08 2463.07 3180.62 2461.19C3185.36 2463.93 3190.95 2467.47 3196.66 2472.21C3207.28 2480.9 3213.5 2489.35 3215.27 2491.92C3224 2504.15 3228.46 2516.37 3230.74 2526.2Z" fill="white"/>
<path d="M3113.26 2668.45C3112.86 2668.45 3112.52 2668.34 3112.17 2668.05C3111.43 2667.48 3111.37 2666.4 3111.95 2665.65L3112.63 2664.8C3114.4 2662.63 3116.23 2660.45 3118 2658.17C3118.57 2657.43 3119.65 2657.31 3120.39 2657.88C3121.14 2658.45 3121.25 2659.54 3120.68 2660.28C3118.85 2662.57 3117.03 2664.8 3115.26 2666.97L3114.57 2667.82C3114.23 2668.22 3113.77 2668.45 3113.26 2668.45ZM3467.19 2481.01C3462.4 2481.01 3457.6 2480.73 3452.98 2480.16C3450.35 2479.81 3447.67 2479.41 3444.81 2478.84C3443.9 2478.67 3443.27 2477.76 3443.44 2476.84C3443.61 2475.93 3444.53 2475.3 3445.44 2475.47C3448.24 2475.98 3450.81 2476.44 3453.38 2476.73C3457.89 2477.3 3462.51 2477.58 3467.19 2477.58C3468.1 2477.58 3468.9 2478.33 3468.9 2479.3C3468.9 2480.27 3468.1 2481.01 3467.19 2481.01Z" fill="#6D1212"/>
<path d="M3327.84 2552.02C3323.9 2558.42 3314.83 2562.25 3308.15 2564.88C3299.13 2568.42 3289.48 2570.36 3279.78 2570.36C3275.15 2570.36 3270.93 2569.79 3266.99 2569.16C3259.4 2567.79 3252.38 2566.31 3248.55 2558.88C3246.78 2555.39 3247.18 2551.97 3250.49 2549.57C3253.29 2547.57 3258.6 2550.14 3261.68 2550.65V2550.77C3267.1 2551.85 3273.61 2552.54 3280.69 2552.42C3288.74 2552.31 3296.79 2550.99 3304.55 2548.71C3307.64 2547.8 3310.66 2546.71 3313.63 2545.45C3316.48 2544.25 3319.62 2541.28 3322.76 2541.05C3328.59 2540.71 3330.3 2548.08 3327.84 2552.02Z" fill="white"/>
<path d="M3342.92 2617.04C3342.86 2617.15 3342.8 2617.21 3342.74 2617.32C3339.03 2623.83 3330.64 2627.09 3323.91 2629.77C3314.83 2633.43 3305.12 2635.37 3295.36 2635.37C3291.42 2635.37 3287.6 2634.97 3284.23 2634.4C3279.04 2633.6 3274.47 2632.35 3270.76 2630.97C3267.05 2628.18 3262.82 2625.72 3264.19 2620.29C3264.65 2618.58 3265.79 2617.04 3267.33 2616.06C3271.04 2613.66 3275.61 2615.66 3279.55 2616.29C3284.46 2616.98 3290 2617.49 3296.1 2617.38C3304.33 2617.21 3312.43 2615.89 3320.31 2613.55C3323.45 2612.58 3326.59 2611.49 3329.61 2610.18C3332.35 2609.04 3335.78 2606.35 3338.69 2606.12C3341.09 2605.95 3343.31 2607.95 3343.94 2610.29C3344.68 2612.58 3344.06 2614.98 3342.92 2617.04Z" fill="white"/>
<g clip-path="url(#clip1)">
<path d="M3424.28 2440.74C3422.74 2442.51 3421.36 2444.33 3420.2 2446.21C3416.16 2452.72 3412.07 2459.18 3408.04 2465.69C3406 2468.95 3403.9 2472.37 3403.23 2476.68C3401.8 2485.89 3407.16 2495.5 3412.46 2502.78C3420.69 2514.15 3430.25 2524.75 3441.24 2528.83C3456.05 2534.35 3480.19 2517.85 3489.92 2504.44C3500.36 2490.03 3518.37 2488.21 3531.9 2480.76C3537.32 2477.78 3541.46 2472.98 3546.6 2469.61C3552.56 2465.69 3564 2466.52 3567.98 2459.07C3570.41 2454.54 3568.09 2447.48 3565.05 2442.73C3558.48 2432.58 3549.03 2426.84 3539.86 2422.59C3510.41 2408.84 3478.37 2405.86 3451.52 2420.38C3443.12 2424.85 3431.8 2432.19 3424.28 2440.74Z" fill="#876751"/>
<path d="M3617.42 2710.92C3618.64 2710.25 3619.19 2709.04 3620.24 2708.32C3621.57 2707.44 3623.11 2707.38 3624.33 2706.17C3625.6 2704.9 3626.37 2703.3 3627.15 2701.75C3630.63 2694.58 3635.49 2685.8 3636.59 2677.85C3637.59 2670.57 3638.36 2662.79 3638.69 2655.39C3639.02 2646.84 3638.36 2638.23 3637.7 2629.67C3637.09 2621.56 3636.43 2612.34 3633.78 2604.67C3631.12 2597.05 3624.38 2592.08 3619.63 2585.9C3617.26 2582.81 3616.1 2579.39 3614.16 2576.13C3611.79 2572.16 3609.47 2568.3 3608.2 2563.77C3605.66 2554.83 3607.31 2545.34 3607.92 2536.01C3609.58 2511.5 3603.72 2486.72 3591.73 2465.3C3586.6 2456.14 3578.75 2441.9 3569.47 2436.33C3560.57 2430.97 3544.66 2429.54 3534.61 2431.47C3532.34 2431.91 3530.08 2432.57 3528.42 2434.18C3526.76 2435.78 3525.99 2438.43 3527.21 2440.36C3528.03 2441.74 3529.64 2442.4 3531.07 2443.06C3544.5 2448.75 3557.92 2454.43 3571.4 2460.12C3579.74 2463.65 3581.13 2467.46 3582.84 2475.96C3584.66 2484.95 3586.04 2493.95 3587.15 2503.06C3591.51 2538.99 3590.68 2575.31 3587.81 2611.29C3586.15 2631.88 3583.89 2652.41 3581.4 2672.89C3580.63 2679.51 3579.86 2686.46 3582.51 2692.54C3586.21 2701.09 3595.55 2705.62 3604.11 2709.37C3607.92 2711.03 3613.39 2713.01 3617.42 2710.92Z" fill="#E2AF45"/>
<path d="M3611.46 2512.55C3607.31 2482.47 3587.53 2456.31 3557.65 2446.65C3539.14 2440.63 3520.47 2434.62 3501.13 2432.96C3469.47 2430.26 3439.92 2444.33 3416.66 2465.19C3409.81 2471.32 3403.68 2478.05 3398.76 2484.9C3397.05 2487.38 3395.44 2489.7 3393.9 2492.18C3390.47 2497.98 3388.15 2503.33 3386.27 2508.19C3385.22 2510.95 3384.39 2513.43 3383.57 2515.64C3382.35 2519.5 3380.97 2523.53 3379.75 2527.89C3366.94 2568.52 3352.68 2620.56 3343.62 2653.84C3351.8 2653.51 3363.51 2669.3 3387.1 2675.59C3388.59 2681.66 3390.31 2687.73 3392.24 2693.69C3390.2 2693.97 3387.93 2694.08 3385.28 2693.86C3385.28 2696.12 3385.28 2698.66 3385.39 2701.48C3385.61 2708.54 3385.28 2716.43 3386.94 2723.28C3394.45 2715.83 3411.13 2729.79 3417.65 2733.93C3453.18 2756.5 3493.01 2751.92 3519.8 2744.75C3531.35 2741.71 3540.19 2738.24 3545.66 2736.03C3555.49 2732.22 3567.7 2728.58 3573.56 2719.41C3593.94 2687.73 3600.24 2649.32 3605.66 2612.06C3610.24 2580.71 3614.55 2549.03 3612.01 2517.46C3611.84 2515.81 3611.68 2514.15 3611.46 2512.55Z" fill="#AD8971"/>
<path d="M3634.99 2359.77C3635.1 2359.94 3635.21 2360.11 3635.32 2360.27C3635.71 2360.77 3636.26 2361.1 3636.81 2361.37C3641.35 2363.86 3646.15 2366.45 3650.96 2368.44C3652.89 2401.45 3653.33 2434.12 3649.41 2467.02C3647.97 2479.05 3646.04 2491.08 3646.1 2503.22C3646.15 2510.62 3646.98 2518.18 3650.24 2524.8C3653.5 2531.43 3659.52 2537.06 3666.81 2538.27C3678.8 2540.26 3685.98 2530.38 3690.13 2520.55C3696.37 2505.82 3693.83 2487.66 3693.22 2472.04C3692.56 2454.6 3691.07 2437.21 3688.75 2419.94C3686.98 2406.63 3684.66 2393.44 3681.9 2380.31C3680.74 2374.84 3678.42 2369.27 3679.02 2363.86C3679.63 2358.78 3682.72 2354.37 3682.89 2349.07C3683.11 2341.23 3682.56 2333.28 3680.29 2325.72C3678.42 2319.32 3674.88 2313.14 3669.52 2309.05C3664.6 2305.3 3656.59 2304.19 3650.57 2303.7C3646.48 2303.37 3642.45 2304.3 3638.75 2306.02C3636.1 2307.23 3631.24 2309.49 3629.96 2312.25C3628.53 2315.4 3630.52 2316.34 3632.95 2317.5C3634.55 2318.21 3634.99 2319.15 3636.26 2320.48C3639.47 2324.01 3640.96 2328.65 3642.23 2333.12C3642.34 2333.56 3642.51 2334.11 3642.56 2334.55C3643.5 2340.4 3644.6 2346.09 3644.05 2349.95C3643.28 2355.36 3638.47 2353.87 3634.44 2354.53C3634.83 2356.3 3634.22 2358.28 3634.99 2359.77Z" fill="#FFA57D"/>
<path d="M3445.39 2352.38C3447.04 2352.27 3448.7 2352.32 3450.53 2352.71C3459.53 2354.64 3466.77 2361.21 3475.83 2362.97C3489.14 2365.57 3501.79 2357.23 3514.89 2353.65C3535.33 2348.02 3558.97 2353.7 3576.87 2342.33C3582.34 2338.85 3586.76 2334.05 3591.73 2329.97C3598.25 2324.56 3605.66 2320.31 3611.95 2314.62C3618.25 2308.94 3623.45 2301.32 3623.5 2292.88C3606.1 2292.33 3589.3 2305.9 3572.67 2300.94C3568.09 2299.56 3563.95 2296.85 3559.3 2295.64C3553.01 2293.98 3546.32 2295.36 3540.02 2297.02C3514 2304.03 3489.92 2317.05 3464.01 2324.45C3454.89 2327.04 3445.5 2328.2 3436.44 2330.96C3428.81 2333.28 3415.33 2337.97 3415.72 2347.91C3415.78 2349.01 3416 2350.17 3416.71 2351C3417.54 2351.99 3418.81 2352.43 3420.03 2352.76C3425.28 2354.2 3430.86 2354.31 3436.27 2353.65C3439.48 2353.32 3442.35 2352.54 3445.39 2352.38Z" fill="#F39800"/>
<path d="M3472.29 2356.79C3471.46 2364.63 3477.1 2370.43 3479.25 2372.52C3480.74 2374.01 3482.4 2375.28 3484.17 2376.28C3485.66 2377.16 3487.21 2377.82 3488.75 2378.26C3494.78 2380.42 3499.47 2380.36 3502.01 2387.32C3503.4 2391.12 3503.84 2395.26 3505.88 2398.74C3508.09 2402.49 3512.01 2404.98 3516.16 2406.41C3520.3 2407.79 3524.66 2408.23 3529.03 2408.62C3540.41 2409.67 3556.04 2411.32 3564.17 2401.61C3570.13 2394.55 3570.02 2384.22 3569.8 2375.45C3569.58 2365.73 3567.59 2361.48 3565.44 2350.5C3565.27 2350.39 3565.27 2350.39 3565.27 2350.23C3564.83 2348.13 3564.44 2345.87 3564 2343.16C3562.23 2332.95 3565.27 2318.71 3555.82 2311.2C3552.73 2308.72 3548.97 2307.12 3545.22 2305.57C3535.66 2301.66 3525.16 2298.01 3514.94 2300.22C3510.96 2301.1 3506.99 2302.76 3503.51 2304.75C3502.01 2305.57 3495.44 2310.21 3495.61 2311.7C3496.32 2317.66 3496.77 2324.06 3496.99 2330.96C3497.21 2338.91 3496.82 2346.31 3496.38 2353.15C3491.57 2345.87 3484.22 2343.05 3479.2 2345.31C3475 2347.25 3472.68 2352.54 3472.29 2356.79Z" fill="#FFA57D"/>
<path d="M3505.22 2429.26C3506.76 2431.36 3508.48 2433.29 3510.47 2434.89C3519.25 2442.07 3529.14 2441.35 3544.72 2439.59C3545.38 2439.48 3545.88 2439.48 3546.65 2439.31C3547.59 2439.2 3548.59 2439.03 3549.53 2438.92C3565.33 2437.1 3582.23 2433.29 3582.34 2414.36C3582.45 2397.69 3580.57 2381.03 3575.44 2365.07C3574.05 2360.82 3572.95 2353.32 3569.69 2350.12C3566.76 2347.25 3566.1 2349.62 3566.26 2352.71C3566.65 2360.33 3569.58 2367.61 3569.8 2375.4C3569.91 2381.47 3569.91 2387.7 3568.42 2393.61C3566.65 2400.62 3563.72 2404.32 3556.1 2402.88C3547.32 2401.23 3538.14 2401.45 3529.42 2403.54C3526.93 2404.15 3524.44 2404.92 3521.9 2404.92C3510.85 2404.98 3508.75 2392.78 3503.78 2385.39C3502.18 2383.01 3499.91 2379.65 3497.1 2378.6C3494.06 2377.44 3490.08 2377.6 3486.82 2376.94C3486.49 2376.89 3486.05 2376.83 3485.83 2377.11C3485.66 2377.33 3485.72 2377.6 3485.77 2377.82C3486.54 2382.46 3487.82 2386.93 3489.09 2391.4C3490.3 2395.65 3491.9 2399.74 3493.45 2403.88C3496.54 2411.93 3499.8 2421.87 3505.22 2429.26Z" fill="#F95623"/>
<path d="M3387.43 2735.81C3388.43 2740.06 3389.31 2744.31 3389.97 2748.67C3390.53 2752.59 3391.19 2757.39 3391.96 2763.02C3401.41 2769.7 3414.06 2777.31 3429.81 2783.38C3443.73 2788.74 3475.94 2800.72 3516.05 2791.77C3535.55 2787.41 3551.57 2778.31 3567.48 2766.55C3571.51 2763.57 3572.84 2760.87 3572.73 2755.95C3572.45 2744.36 3573.01 2732.33 3571.46 2720.85C3554.83 2730.62 3538.59 2739.78 3519.69 2744.8C3498.37 2750.49 3475.72 2752.7 3453.95 2748.39C3429.64 2743.59 3409.92 2729.02 3389.81 2715.61C3388.54 2714.78 3387.16 2713.9 3385.61 2713.84C3384.06 2713.79 3382.41 2714.89 3382.41 2716.43C3382.41 2716.82 3382.52 2717.21 3382.63 2717.59C3384.23 2723.67 3385.94 2729.68 3387.43 2735.81Z" fill="#876751"/>
<path d="M3476.93 2391.35C3477.1 2392.17 3477.21 2393 3477.32 2393.88C3477.93 2401.28 3478.37 2408.73 3477.43 2416.13C3481.79 2419 3486.77 2421.81 3492.35 2424.3C3495.94 2425.9 3502.01 2429.59 3505.94 2428.6C3502.18 2420.76 3499.14 2412.59 3496.88 2404.21C3494.67 2396.04 3493.01 2387.87 3489.36 2380.2C3488.98 2379.37 3488.53 2378.54 3487.93 2377.82C3486.99 2376.83 3485.66 2376.22 3484.45 2375.67C3481.19 2374.29 3477.54 2371.75 3473.95 2371.59C3473.56 2371.59 3473.12 2371.59 3472.79 2371.75C3472.07 2372.19 3472.02 2373.19 3472.13 2374.01C3472.68 2380.2 3475.77 2385.49 3476.93 2391.35Z" fill="#EF8054"/>
<path d="M3469.53 2435.78C3480.8 2445.21 3504.17 2464.86 3505.72 2466.02C3507.76 2467.68 3535.88 2453.44 3535.88 2453.44C3535.88 2453.44 3557.98 2461.77 3566.98 2463.92C3564.72 2459.68 3562.18 2455.59 3559.25 2451.84L3552.18 2442.51C3549.8 2441.52 3547.26 2440.47 3544.66 2439.64C3544.66 2439.64 3544.66 2439.64 3544.55 2439.64C3529.08 2441.41 3519.2 2442.18 3510.41 2434.95C3508.48 2433.35 3506.77 2431.42 3505.27 2429.26C3501.19 2427.99 3496.82 2426.39 3492.29 2424.35C3486.71 2421.87 3481.74 2419.05 3477.37 2416.18C3476.49 2423.08 3474.45 2429.93 3470.41 2434.84L3469.53 2435.78Z" fill="#876751"/>
<path d="M3345.17 2735.03C3347.66 2748.67 3349.76 2760.26 3351.85 2770.58C3354.56 2784.54 3356.99 2795.97 3359.75 2806.4C3362.08 2815.23 3364.51 2823.4 3367.49 2831.57C3368.7 2834.71 3369.86 2837.75 3370.91 2840.62V2840.73C3373.51 2847.08 3375.89 2852.6 3377.99 2857.29C3378.81 2862.64 3380.58 2869.04 3384.01 2875.17C3386.88 2880.69 3393.9 2893.71 3405.06 2894.05C3405.66 2894.05 3415 2894.16 3419.25 2886.43C3424.78 2876.49 3417.27 2861.81 3416.11 2859.61C3411.74 2851.22 3407.82 2850.88 3401.52 2840.45C3399.81 2837.58 3398.54 2834.88 3397.32 2832.4C3397.32 2832.4 3397.32 2832.4 3397.32 2832.28C3395.78 2799.83 3393.79 2778.14 3391.96 2762.96C3391.19 2757.39 3390.53 2752.59 3389.97 2748.61C3389.59 2746.51 3388.87 2741.93 3387.99 2735.64C3387.43 2732 3386.99 2727.75 3386.6 2722.89C3386.05 2716.65 3385.67 2709.37 3385.39 2701.42C3385.28 2698.61 3385.28 2696.07 3385.28 2693.8C3383.51 2693.69 3381.69 2693.47 3379.64 2693.03C3364.29 2690.33 3353.07 2685.53 3345.34 2679.4C3344.95 2678.96 3344.4 2678.63 3344.12 2678.18C3343.46 2681.05 3342.85 2684.09 3342.52 2687.35C3340.03 2705.89 3342.46 2720.57 3345.17 2735.03Z" fill="#FFA57D"/>
<path d="M3561.68 2291.17C3558.97 2289.4 3555.88 2288.41 3552.9 2287.3C3547.32 2285.26 3541.85 2282.78 3536.54 2279.85C3530.19 2276.32 3523.56 2273.73 3517.04 2270.53C3510.19 2267.16 3503.17 2264.18 3495.88 2262.52C3490.8 2261.36 3485.44 2260.76 3480.47 2262.41C3476.66 2263.68 3473.23 2266.17 3470.08 2268.93C3461.13 2276.87 3453.9 2287.97 3451.63 2300.72C3449.86 2310.49 3451.08 2320.59 3452.96 2330.3C3454.78 2339.63 3457.27 2348.79 3460.41 2357.62C3461.96 2362.04 3463.67 2366.4 3465.55 2370.7C3467.32 2374.73 3469.03 2377.44 3472.29 2380.09C3474.61 2381.96 3477.15 2382.84 3479.36 2382.35C3480.19 2382.13 3483.29 2381.35 3486.38 2376.33C3484.94 2375.28 3483.67 2374.07 3482.46 2372.58C3480.8 2370.43 3476.33 2364.63 3476.93 2356.85C3477.21 2352.54 3479.09 2347.24 3482.46 2345.37C3486.44 2343.11 3492.24 2345.92 3496.05 2353.21C3496.38 2346.36 3496.71 2338.97 3496.49 2331.02C3496.32 2323.9 3494.23 2318.49 3500.58 2313.85C3505.27 2310.43 3511.3 2308.83 3517.04 2309.66C3529.47 2311.48 3538.48 2322.3 3551.63 2322.13C3556.82 2322.08 3562.01 2319.59 3565.27 2315.51C3570.8 2308.72 3570.35 2298.4 3563.56 2292.55C3562.9 2292.05 3562.29 2291.55 3561.68 2291.17Z" fill="#F95623"/>
<path d="M3632.23 2491.8C3637.04 2495.88 3642.23 2502.39 3648.14 2501.57C3649.96 2501.29 3651.23 2499.3 3653.39 2499.19C3656.76 2498.97 3661.62 2502.01 3664.55 2503.44C3672.34 2507.25 3679.52 2512.22 3686.59 2517.07C3689.35 2518.95 3692.28 2521.05 3693.55 2524.14C3694.27 2525.91 3694.38 2527.78 3694.49 2529.66C3695.26 2549.69 3694.71 2583.14 3667.7 2582.48C3658.58 2582.26 3649.96 2578.34 3641.9 2574.03C3626.37 2565.76 3611.68 2555.88 3598.2 2544.62C3586.87 2535.18 3572.12 2523.7 3564.99 2510.73C3561.73 2504.77 3558.59 2498.47 3558.48 2491.69C3558.31 2481.64 3564 2472.37 3564.77 2462.43C3565.49 2453.38 3569.14 2452.06 3576.26 2457.13C3586.98 2464.86 3599.97 2469.22 3611.24 2476.56C3618.14 2481.09 3624.88 2485.84 3631.34 2490.91C3631.62 2491.3 3631.9 2491.58 3632.23 2491.8Z" fill="#AD8971"/>
<path d="M3656.04 2486.28C3657.53 2486.89 3658.97 2487.44 3660.35 2488.49C3666.7 2492.02 3673.94 2493.62 3681.12 2494.28C3686.54 2494.78 3692.45 2492.85 3697.47 2495.66C3702.83 2498.7 3703 2507.91 3703 2513.38C3703 2517.24 3702.56 2523.42 3698.47 2524.8C3691.84 2527.01 3686.65 2527.51 3679.85 2525.85C3673.11 2524.2 3666.59 2521.77 3660.4 2518.62C3654.38 2515.53 3644.88 2510.89 3641.68 2504.49C3640.63 2502.34 3640.68 2499.86 3640.79 2497.48C3640.96 2493.07 3640.41 2485.62 3642.67 2481.7C3646.21 2475.52 3652.84 2485.01 3656.04 2486.28Z" fill="#876751"/>
<path d="M3510.85 2608.64C3506.32 2598.49 3500.63 2586.84 3498.7 2575.97C3496.66 2564.43 3498.2 2551.41 3498.09 2539.71C3497.93 2515.97 3495.83 2491.8 3483.56 2471.1C3480.47 2465.91 3477.43 2460.61 3473.67 2455.87C3470.8 2452.22 3466.77 2450.35 3465.55 2445.6C3465 2443.5 3465 2440.69 3465.83 2438.65C3466.6 2436.77 3468.54 2436.38 3470.36 2435.72C3470.41 2434.95 3469.86 2434.18 3469.2 2433.79C3468.54 2433.4 3467.71 2433.24 3466.93 2433.13C3459.31 2432.13 3451.96 2434.62 3445.55 2438.65C3438.43 2443.12 3431.08 2447.2 3424.34 2452.39C3422.52 2453.82 3419.09 2457.8 3423.34 2458.79C3425.44 2459.29 3427.05 2456.47 3428.76 2455.76C3438.43 2451.89 3451.19 2461.66 3456.71 2468.73C3466.49 2481.26 3472.4 2496.88 3472.79 2512.83C3473.45 2538.33 3459.86 2563.77 3438.32 2577.46C3436.55 2578.56 3434.67 2579.67 3433.34 2581.27C3431.52 2583.42 3430.75 2586.29 3430.03 2588.99C3422.24 2618.85 3413.4 2648.44 3403.51 2677.63C3402.9 2679.4 3402.18 2681.33 3400.53 2682.16C3397.93 2683.48 3394.95 2681.28 3392.07 2680.84C3384.67 2679.62 3384.23 2693.81 3384.23 2698.77C3384.23 2700.87 3384.45 2703.02 3385.56 2704.79C3386.72 2706.5 3388.59 2707.49 3390.42 2708.43C3403.12 2714.83 3416.33 2720.3 3429.92 2724.66C3440.8 2728.19 3453.18 2732.22 3464.56 2733.1C3466.71 2733.27 3468.98 2733.32 3470.97 2732.39C3473.34 2731.28 3474.94 2729.02 3476.32 2726.81C3488.09 2708.43 3497.1 2688.29 3503.12 2667.31C3506.05 2657.05 3508.31 2646.56 3509.75 2635.91C3510.91 2627.52 3514.44 2616.65 3510.85 2608.64Z" fill="#E2AF45"/>
<path d="M3336 2666.04C3336.11 2668.08 3336.77 2670.07 3338.71 2672.72C3339.87 2674.38 3341.58 2676.25 3344.07 2678.24C3344.4 2678.63 3344.89 2679.01 3345.34 2679.34C3353.07 2685.53 3364.23 2690.33 3379.53 2693.09C3381.58 2693.47 3383.51 2693.69 3385.22 2693.86C3403.23 2695.24 3405.94 2683.93 3405.39 2680.12C3405.17 2678.85 3403.79 2678.52 3401.3 2678.13C3398.21 2677.52 3393.23 2677.08 3386.94 2675.48C3363.4 2669.3 3351.69 2653.46 3343.57 2653.84C3342.41 2653.84 3341.25 2654.18 3340.25 2654.95C3337.22 2657.32 3335.83 2662.34 3336 2666.04Z" fill="#876751"/>
<path d="M3404.06 2669.58C3402.79 2674.38 3401.47 2679.18 3400.2 2684.04C3399.97 2684.81 3399.48 2686.13 3399.92 2686.85C3400.36 2687.57 3402.13 2688.23 3402.85 2688.67C3404.95 2689.94 3407.1 2691.21 3409.31 2692.37C3413.57 2694.69 3417.93 2696.84 3422.4 2698.72C3431.3 2702.53 3440.58 2705.4 3450.14 2706.94C3452.96 2707.38 3455.88 2707.77 3458.7 2707.05C3465.77 2705.23 3469.36 2697.5 3471.91 2690.66C3474.67 2683.26 3477.37 2675.54 3476.82 2667.64C3476.77 2666.49 3476.55 2665.27 3475.83 2664.33C3475.28 2663.67 3474.45 2663.28 3473.67 2662.9C3454.94 2654.01 3435.11 2645.68 3414.95 2640.43C3413.45 2640.05 3412.52 2640.16 3411.91 2641.76C3410.58 2645.18 3409.64 2648.71 3408.7 2652.19C3407.16 2657.99 3405.61 2663.78 3404.06 2669.58Z" fill="#DB881D"/>
<path d="M3412.18 2641.92C3411.69 2643.97 3411.24 2646.06 3410.75 2648.11C3410.19 2650.59 3410.19 2651.53 3412.46 2652.58C3414.78 2653.68 3417.05 2654.9 3419.37 2656C3424.01 2658.21 3428.76 2660.19 3433.56 2662.07C3443.18 2665.82 3453.07 2668.91 3463.07 2671.51C3464.17 2671.78 3465.28 2672.06 3466.38 2672.34C3471.74 2673.66 3477.26 2674.65 3482.68 2673.66C3490.85 2672.17 3489.97 2658.59 3488.48 2652.52C3488.2 2651.36 3487.76 2650.15 3486.93 2649.32C3485.99 2648.33 3484.67 2647.89 3483.4 2647.5C3471.19 2643.42 3458.98 2639.39 3446.71 2635.3C3437.65 2632.27 3429.2 2627.74 3420.47 2623.88C3419.37 2623.38 3418.7 2622.72 3417.87 2623.49C3417.21 2624.1 3416.77 2626.08 3416.49 2626.97C3415.66 2629.23 3414.89 2631.49 3414.23 2633.81C3413.51 2636.52 3412.85 2639.22 3412.18 2641.92Z" fill="#E59933"/>
<path d="M3433.73 2650.43C3434.12 2648 3437.16 2646.51 3439.7 2647.39C3444.01 2648.88 3443.9 2654.51 3440.08 2656.11C3436.55 2657.54 3433.23 2653.63 3433.73 2650.43Z" fill="#876751"/>
<path d="M3519.8 2747.29C3519.58 2747.29 3519.31 2747.23 3519.08 2747.18C3517.7 2746.79 3516.93 2745.36 3517.32 2743.98C3539.75 2667.2 3547.92 2590.15 3541.57 2514.81C3540.3 2499.74 3538.53 2484.95 3536.21 2470.93C3535.99 2469.5 3536.93 2468.23 3538.37 2467.95C3539.8 2467.73 3541.07 2468.67 3541.35 2470.11C3543.67 2484.29 3545.49 2499.14 3546.76 2514.37C3553.17 2590.32 3544.94 2668.03 3522.34 2745.41C3521.96 2746.57 3520.91 2747.29 3519.8 2747.29ZM3397.05 2694.58C3396.77 2694.58 3396.55 2694.52 3396.27 2694.47C3394.89 2694.03 3394.17 2692.59 3394.56 2691.21C3399.86 2674.27 3405.06 2657.32 3409.97 2640.87C3413.29 2629.78 3415.83 2621 3418.09 2613.39C3422.35 2598.87 3425.39 2588.39 3430.14 2573.87C3435.28 2558.08 3440.69 2542.68 3446.27 2528.11C3446.77 2526.79 3448.26 2526.13 3449.59 2526.62C3450.91 2527.12 3451.57 2528.61 3451.08 2529.94C3445.55 2544.45 3440.14 2559.79 3435.06 2575.47C3430.36 2589.88 3427.27 2600.36 3423.07 2614.82C3420.86 2622.44 3418.26 2631.22 3414.95 2642.31C3410.03 2658.81 3404.84 2675.76 3399.53 2692.76C3399.15 2693.86 3398.15 2694.58 3397.05 2694.58Z" fill="#876751"/>
<path d="M3428.32 2346.64C3432.68 2343.27 3436.77 2339.63 3439.75 2338.25C3451.91 2332.67 3466.21 2342.06 3479.25 2339.19C3490.96 2336.59 3498.26 2325.11 3508.48 2318.82C3516.32 2313.96 3526.1 2312.25 3535.16 2314.24C3542.56 2315.84 3550.35 2319.81 3557.32 2316.83C3562.18 2314.79 3565.38 2309.77 3570.3 2307.84C3576.76 2305.24 3584.28 2308.83 3590.96 2309.11C3599.63 2309.49 3608.42 2307.67 3616.21 2303.86C3620.46 2301.77 3624.72 2298.79 3626.15 2294.32C3630.07 2282.34 3614.11 2282.39 3607.2 2285.1C3605.1 2285.93 3603.17 2287.08 3601.02 2287.86C3592.34 2290.89 3584.83 2288.91 3578.75 2281.84C3574.33 2276.65 3571.68 2270.36 3567.76 2264.84C3558.92 2252.37 3545.27 2244.86 3530.24 2242.71C3515.44 2240.61 3499.64 2243.26 3486.1 2249.39C3471.24 2256.12 3458.42 2267.93 3453.29 2283.77C3452.79 2285.32 3452.35 2286.92 3452.02 2288.58C3450.86 2294.2 3450.8 2300.06 3449.75 2305.74C3448.98 2309.99 3447.65 2314.3 3445.06 2317.77C3442.68 2321.03 3439.09 2322.02 3435.44 2323.51C3427.49 2326.71 3418.92 2329.36 3412.63 2335.38C3410.14 2337.75 3408.1 2340.73 3407.6 2344.1C3407.1 2347.47 3408.54 2351.27 3411.63 2352.82C3416.38 2355.14 3422.57 2351.16 3428.32 2346.64Z" fill="#F8B62D"/>
<path d="M3565.33 2328.75L3549.86 2331.02L3551.85 2354.69L3567.48 2354.53L3565.33 2328.75Z" fill="#956134"/>
<path d="M3551.85 2354.75C3555.93 2354.75 3558.97 2349.4 3558.59 2342.83C3558.2 2336.26 3554.55 2330.96 3550.47 2330.96C3546.38 2330.96 3543.34 2336.32 3543.73 2342.89C3544.11 2349.4 3547.76 2354.75 3551.85 2354.75Z" fill="#956134"/>
<path d="M3567.32 2354.37C3571.74 2354.37 3575 2348.63 3574.61 2341.51C3574.22 2334.44 3570.3 2328.7 3565.82 2328.7C3561.4 2328.7 3558.15 2334.44 3558.53 2341.56C3558.97 2348.63 3562.9 2354.37 3567.32 2354.37Z" fill="#B28247"/>
<path d="M3596.76 2328.2L3566.6 2331.85L3568.2 2351.05L3598.92 2349.51L3596.76 2328.2Z" fill="#6A3906"/>
<path d="M3568.36 2351.05C3571.35 2350.83 3573.34 2346.42 3572.78 2341.12C3572.23 2335.82 3569.36 2331.68 3566.32 2331.9C3563.34 2332.12 3561.35 2336.54 3561.9 2341.84C3562.51 2347.14 3565.38 2351.22 3568.36 2351.05Z" fill="#6A3906"/>
<path d="M3626.54 2320.86L3600.96 2324.06L3603.34 2352.16L3629.69 2351.05L3626.54 2320.86Z" fill="#7F4F21"/>
<path d="M3603.56 2352.21C3607.81 2351.94 3610.63 2345.37 3609.8 2337.64C3609.03 2329.86 3604.94 2323.84 3600.68 2324.12C3596.43 2324.4 3593.61 2330.96 3594.44 2338.69C3595.21 2346.42 3599.3 2352.49 3603.56 2352.21Z" fill="#7F4F21"/>
<path d="M3676.92 2309.88L3633.5 2315.34L3636.81 2354.7L3680.57 2352.82L3676.92 2309.88Z" fill="#956134"/>
<path d="M3637.59 2354.7C3644.83 2354.31 3649.58 2345.15 3648.25 2334.27C3646.92 2323.4 3639.96 2314.9 3632.73 2315.34C3625.49 2315.78 3620.74 2324.89 3622.06 2335.76C3623.39 2346.64 3630.41 2355.08 3637.59 2354.7Z" fill="#956134"/>
<path d="M3678.69 2352.82C3687.2 2353.48 3694.05 2344.38 3693.99 2332.51C3693.94 2320.64 3686.98 2310.49 3678.47 2309.82C3669.96 2309.16 3663.11 2318.27 3663.17 2330.14C3663.22 2342 3670.18 2352.16 3678.69 2352.82Z" fill="#C9A063"/>
<path d="M3679.3 2347.74C3685.76 2348.24 3690.96 2341.34 3690.9 2332.29C3690.85 2323.29 3685.54 2315.56 3679.08 2315.07C3672.61 2314.57 3667.42 2321.47 3667.48 2330.47C3667.53 2339.52 3672.83 2347.25 3679.3 2347.74Z" fill="#B0F4D6"/>
<path d="M3609.97 2550.58C3609.25 2550.58 3608.64 2549.97 3608.58 2549.25C3607.64 2526.35 3602.23 2503.22 3592.84 2482.3C3592.51 2481.59 3592.84 2480.81 3593.56 2480.48C3594.28 2480.21 3595.05 2480.48 3595.38 2481.2C3604.88 2502.45 3610.46 2525.91 3611.4 2549.14C3611.4 2549.92 3610.79 2550.52 3609.97 2550.58C3610.02 2550.58 3610.02 2550.58 3609.97 2550.58Z" fill="#876751"/>
<path d="M3658.75 2551.07C3658.42 2551.07 3658.14 2550.96 3657.86 2550.74C3647.15 2541.86 3640.24 2528.78 3639.03 2514.87C3638.97 2514.09 3639.52 2513.43 3640.3 2513.38C3641.12 2513.27 3641.73 2513.87 3641.79 2514.65C3643 2527.78 3649.52 2540.2 3659.69 2548.65C3660.3 2549.14 3660.35 2550.03 3659.85 2550.58C3659.52 2550.91 3659.13 2551.07 3658.75 2551.07Z" fill="#876751"/>
<path d="M3614.44 2624.76C3611.4 2620.78 3607.92 2615.32 3607.64 2610.19C3607.31 2603.01 3607.87 2595.67 3607.75 2588.44C3607.75 2579.67 3607.87 2570.23 3605.38 2561.78C3602.78 2553.01 3599.19 2544.51 3596.76 2535.68C3593.94 2525.3 3592.78 2514.54 3591.62 2503.83C3590.35 2492.18 3589.8 2480.1 3584.05 2469.61C3580.24 2462.6 3574.61 2455.54 3568.97 2449.8C3567.81 2448.58 3566.54 2447.37 3566.04 2445.82C3563.67 2438.98 3573.06 2442.23 3575.6 2444.06C3591.57 2455.81 3597.7 2478.77 3602.12 2497.15C3604.88 2508.8 3608.8 2520.22 3611.84 2531.92C3612.67 2535.12 3613.44 2538.33 3614.11 2541.53C3619.3 2566.97 3627.04 2594.46 3619.96 2620.34C3619.58 2621.83 3619.08 2623.32 3618.2 2624.54C3617.64 2625.31 3616.7 2626.03 3615.77 2625.75C3615.16 2625.64 3614.77 2625.2 3614.44 2624.76Z" fill="#E2AF45"/>
</g>
<path d="M4050.24 2769.93C4071.37 2717.71 4090.62 2660.06 4107 2596.29C4107 2596.29 2594.98 2816.34 0 2625.9C0 2625.9 1.56271 2695.85 14.752 2791.67C424.683 2822.08 1172.22 2866.87 2021.15 2866.87C2856.27 2866.93 3618.56 2809.9 4050.24 2769.93Z" fill="#FFC062"/>
<path d="M2021.15 2866.93C1172.22 2866.93 424.684 2822.15 14.7529 2791.73C34.7557 2936.95 81.5121 3141.57 190.402 3252.06L3607.81 3247.94C3607.81 3247.94 3887.1 3173.11 4050.31 2769.99C3618.56 2809.9 2856.27 2866.93 2021.15 2866.93Z" fill="#F89929"/>
<g clip-path="url(#clip2)" filter="url(#filter0_d)">
<path d="M3402.45 2826.24C3411.84 2795.93 3432.64 2772.29 3458.66 2758.6L3432.79 2709.49C3394.21 2729.82 3363.38 2764.86 3349.45 2809.81C3335.71 2854.11 3340.98 2899.78 3360.61 2938.04L3409.7 2912.18C3396.69 2886.48 3393.26 2855.9 3402.45 2826.24Z" fill="#FE3D4B"/>
<path d="M3621.96 2894.27C3612.57 2924.58 3591.78 2948.22 3565.76 2961.91L3591.62 3011.01C3630.2 2990.68 3661.03 2955.64 3674.96 2910.69C3689.09 2865.12 3683.12 2818.12 3662.09 2779.21L3613 2805.07C3627.4 2831.42 3631.55 2863.33 3621.96 2894.27Z" fill="#FE3D4B"/>
<path d="M3565.76 2961.91C3539.74 2975.62 3508.49 2979.4 3478.19 2970.01C3447.25 2960.42 3423.27 2938.95 3409.71 2912.17L3360.62 2938.03C3380.8 2977.37 3416.19 3008.88 3461.77 3023.01C3506.72 3036.94 3553.05 3031.33 3591.63 3011.01L3565.76 2961.91Z" fill="#FEFFE3"/>
<path d="M3546.23 2750.5C3575.9 2759.7 3599.17 2779.83 3612.99 2805.09L3662.08 2779.23C3641.65 2741.4 3606.96 2711.23 3562.65 2697.5C3517.71 2683.56 3471.37 2689.17 3432.79 2709.49L3458.65 2758.59C3484.67 2744.89 3515.91 2741.1 3546.23 2750.5Z" fill="#FEFFE3"/>
</g>
<defs>
<filter id="filter0_d" x="3289" y="2647.05" width="436.406" height="436.406" filterUnits="userSpaceOnUse" color-interpolation-filters="sRGB">
<feFlood flood-opacity="0" result="BackgroundImageFix"/>
<feColorMatrix in="SourceAlpha" type="matrix" values="0 0 0 0 0 0 0 0 0 0 0 0 0 0 0 0 0 0 127 0"/>
<feOffset dx="-10" dy="10"/>
<feColorMatrix type="matrix" values="0 0 0 0 0 0 0 0 0 0 0 0 0 0 0 0 0 0 0.15 0"/>
<feBlend mode="normal" in2="BackgroundImageFix" result="effect1_dropShadow"/>
<feBlend mode="normal" in="SourceGraphic" in2="effect1_dropShadow" result="shape"/>
</filter>
<clipPath id="clip0">
<rect width="149" height="154" fill="white" transform="matrix(-1 0 0 1 3309 2272.05)"/>
</clipPath>
<clipPath id="clip1">
<rect width="367" height="652" fill="white" transform="translate(3336 2242.05)"/>
</clipPath>
<clipPath id="clip2">
<rect width="340.789" height="340.789" fill="white" transform="translate(3399.89 2647.05) rotate(17.2211)"/>
</clipPath>
</defs>
</svg>
