<svg width="4107" height="3253" viewBox="0 0 4107 3253" fill="none" xmlns="http://www.w3.org/2000/svg">
<path d="M4050.24 2641.76C4048.99 2641.76 4047.74 2641.39 4046.61 2640.57L3619.49 2336.08C3616.68 2334.08 3616.06 2330.15 3618.06 2327.34C3620.06 2324.52 3623.93 2323.9 3626.74 2325.9L4053.87 2630.39C4056.68 2632.39 4057.3 2636.33 4055.3 2639.14C4054.12 2640.89 4052.24 2641.76 4050.24 2641.76Z" fill="#FFF6F1"/>
<path d="M1435.51 2400.29H2755.19L3342.4 2768.3H1174.35L1435.51 2400.29Z" fill="#EFE5D0"/>
<path d="M2715.62 2635.51H2175.3C2136.1 2635.51 2104.35 2603.78 2104.35 2564.62C2104.35 2525.46 2136.1 2493.73 2175.3 2493.73H2715.62C2754.81 2493.73 2786.57 2525.46 2786.57 2564.62C2786.57 2603.78 2754.81 2635.51 2715.62 2635.51Z" fill="#8BCCCC"/>
<path d="M1974.52 0L3792.39 2451.69C3792.39 2451.69 2558.35 2493.73 1144.22 2248.57C1144.22 2248.57 2094.97 1784.37 2094.97 1109.8C2094.97 175.076 1974.52 0 1974.52 0Z" fill="#FFF9E9"/>
<path d="M3246.15 2480.67C3234.28 2480.73 3225.03 2480.78 3213.84 2476.04C3203.97 2471.87 3194.38 2466.27 3183.59 2464.96C3173.71 2463.7 3177.93 2468.67 3169.31 2473.41C3159.95 2478.61 3156.12 2484.55 3151.5 2493.98C3143.96 2509.35 3122.22 2522.49 3116.91 2538.77C3113.54 2549.17 3109.38 2559.56 3106.29 2570.02C3103.5 2579.33 3104.24 2589.33 3106.07 2598.87C3109.26 2615.61 3119.88 2630.29 3132.32 2641.54C3142.2 2650.46 3153.5 2657.65 3165.04 2664.34C3170.12 2667.25 3175.25 2670.05 3180.45 2672.79C3184.5 2674.91 3187.18 2678.05 3190.72 2681.08C3198.14 2687.36 3206.71 2692.16 3215.67 2695.82C3228 2700.79 3241.13 2703.59 3254.32 2705.64C3274.81 2708.84 3299.07 2711.41 3318.82 2703.53C3329.56 2700.56 3340.4 2694.39 3349.94 2688.68C3360.33 2682.39 3366.61 2675.54 3369.69 2663.48C3374.14 2646.23 3374.2 2627.89 3369.74 2610.64C3366.95 2599.61 3362.32 2589.1 3359.53 2578.07C3357.3 2569.22 3356.22 2559.79 3358.33 2550.82C3359.58 2545.4 3360.55 2543.57 3358.9 2537.97C3357.47 2533.11 3355.7 2528.37 3353.76 2523.69C3349.54 2513.46 3345.25 2503.18 3339.15 2493.98C3333.1 2484.72 3325.05 2476.5 3314.94 2471.93C3302.95 2466.5 3292.68 2468.56 3281.03 2473.13C3270.64 2477.24 3258.6 2479.87 3247.47 2480.78C3247.12 2480.67 3246.61 2480.67 3246.15 2480.67Z" fill="#6D1212"/>
<path d="M3548.37 2758.54H3165.38C3165.09 2756.37 3164.81 2754.2 3164.58 2752.03C3169.6 2751.75 3174.91 2751.23 3180.73 2750.66C3233.6 2745.92 3240.9 2756.37 3262.37 2744.83C3265.34 2743.35 3279.78 2735.29 3289.54 2720.1C3292.28 2715.87 3294.16 2711.64 3295.36 2706.79C3302.16 2706.67 3310.15 2705.7 3318.88 2703.36C3326.65 2701.19 3343.09 2692.5 3354.73 2685.82C3358.56 2693.82 3363.18 2698.9 3369.8 2700.22C3378.48 2701.99 3388.53 2697.07 3395.32 2690.16C3402.91 2687.7 3411.87 2685.13 3421.81 2682.68C3460.4 2673.31 3491.51 2665.82 3512.4 2675.88C3534.72 2686.68 3547.11 2718.33 3548.37 2758.54Z" fill="#AD8971"/>
<path d="M3514.8 2761.92C3513.2 2761.92 3511.77 2760.77 3511.49 2759.17C3508.92 2745.58 3503.04 2728.1 3489.63 2721.93C3483.12 2719.07 3476.9 2719.81 3465.59 2721.13C3458.4 2721.93 3438.53 2723.81 3415.53 2726.04C3387.27 2728.72 3355.19 2731.75 3337.38 2733.69C3335.55 2733.87 3333.84 2732.55 3333.61 2730.67C3333.38 2728.78 3334.75 2727.12 3336.64 2726.9C3354.56 2724.95 3386.59 2721.93 3414.9 2719.24C3437.85 2717.07 3457.71 2715.18 3464.56 2714.38C3476.9 2712.96 3484.15 2712.1 3492.37 2715.7C3505.15 2721.53 3514 2736.09 3518.11 2757.86C3518.45 2759.69 3517.25 2761.46 3515.43 2761.8C3515.26 2761.92 3515.03 2761.92 3514.8 2761.92Z" fill="#876751"/>
<path d="M3281.43 2415.26C3273.95 2420.4 3264.59 2422.46 3254.15 2421.77C3254.26 2427.08 3255.12 2433.02 3257.29 2439.42C3258.94 2444.16 3261.62 2451.82 3268.02 2458.16C3271.27 2461.3 3274.64 2463.07 3278.35 2463.87C3280.01 2466.45 3281.72 2469.19 3283.49 2472.16C3274.64 2475.3 3259.45 2479.64 3247.64 2480.61C3241.64 2481.13 3235.94 2481.01 3230.8 2480.73C3227.26 2476.5 3223.32 2472.73 3218.7 2468.9C3209.45 2461.3 3200.2 2456.28 3192.61 2453.02C3195.18 2450.56 3197.63 2447.42 3199.8 2443.36C3206.31 2431.14 3203.23 2427.6 3210.65 2413.6C3211.73 2411.72 3186.5 2404.55 3195.5 2372.05C3202.5 2359.55 3210.65 2358.09 3217.5 2356.55C3230.8 2353.55 3238.69 2359.55 3241 2342.55C3242.08 2334.55 3234.92 2329.86 3236 2324.55C3241.31 2325.52 3252 2326.55 3263.5 2324.55C3278.35 2321.05 3285.49 2319.74 3295.59 2318.54C3296.67 2324.25 3297.47 2330.76 3298.04 2337.73C3299.93 2363.84 3302.61 2400.29 3281.43 2415.26Z" fill="#FFA57D"/>
<g clip-path="url(#clip0)">
<path d="M3200.99 2422.58C3203.12 2423.8 3205.39 2424.76 3207.65 2425.3C3215.19 2427.07 3229.27 2426.12 3233.17 2417.54C3234.8 2413.86 3234.17 2409.63 3233.17 2406.23C3228.89 2405.27 3224.12 2402.95 3220.22 2398.32C3215.32 2392.33 3210.67 2380.61 3215.82 2373.52C3219.84 2367.8 3228.39 2367.52 3234.05 2369.7C3239.07 2371.48 3242.09 2375.16 3243.47 2376.93L3244.73 2378.43C3247.5 2381.15 3249.38 2381.42 3250.64 2381.15C3256.04 2379.93 3258.81 2365.21 3257.68 2353.9C3257.17 2348.58 3255.67 2344.22 3254.28 2340.95C3262.33 2340 3273.14 2337.14 3283.57 2329.37C3284.58 2328.69 3285.58 2327.87 3286.71 2327.05C3291.61 2323.1 3297.4 2317.51 3300.79 2308.52C3304.56 2297.89 3298.91 2282.08 3292.12 2276.22C3278.26 2264.25 3270.86 2289.99 3250.64 2289.99C3240.81 2289.99 3231.56 2289.1 3221.73 2289.99C3220.22 2290.12 3190.18 2292.58 3174.97 2316.15C3152.97 2350.08 3175.22 2408.41 3200.99 2422.58Z" fill="#2A3F44"/>
</g>
<path d="M3385.39 2343.22C3385.67 2347.44 3385.5 2352.07 3385.1 2356.93C3384.99 2359.5 3385.1 2362.24 3385.1 2364.81C3380.88 2363.73 3376.94 2362.64 3373.4 2361.44C3361.3 2357.61 3352.22 2353.67 3346.11 2350.7C3339.83 2347.73 3333.61 2344.19 3330.76 2337.1C3329.67 2334.25 3329.27 2331.5 3329.39 2329.22C3339.2 2329.33 3353.13 2330.59 3368.78 2336.02C3373 2337.33 3378.42 2339.5 3385.39 2343.22Z" fill="#FFA57D"/>
<path d="M3381.68 2379.49C3381.39 2379.61 3380.88 2379.78 3380.31 2379.78C3378.25 2379.78 3375.28 2378.52 3374.31 2377.32C3372.26 2374.58 3372.83 2366.98 3373.34 2361.44C3376.88 2362.64 3380.82 2363.73 3385.04 2364.81C3385.5 2371.21 3385.79 2377.21 3381.68 2379.49Z" fill="#6D1212"/>
<path d="M3454.23 2476.96C3452.46 2477.36 3450.58 2477.76 3448.64 2478.04" stroke="#070707" stroke-width="0.5181" stroke-miterlimit="10"/>
<path d="M3498.93 2496.84C3496.48 2503.23 3491.85 2509.35 3481.98 2516.15C3453.43 2535.57 3402.74 2535.57 3363.52 2531.91C3361.47 2531.8 3359.58 2531.63 3357.81 2531.4C3346.97 2530.31 3337.15 2528.94 3329.27 2527.74C3318.71 2506.66 3315.97 2496.32 3308.21 2483.3C3305.35 2478.55 3301.01 2472.16 3294.62 2464.96C3300.44 2464.96 3306.55 2465.07 3312.94 2467.13C3314.43 2467.7 3316.03 2468.21 3317.4 2469.01C3317.51 2469.01 3317.51 2469.13 3317.68 2469.13C3332.64 2472.78 3354.9 2476.61 3367 2478.78C3399.6 2484.38 3428.14 2481.93 3448.64 2478.1C3427.57 2456.22 3406.28 2428.74 3387.96 2394.92C3385.22 2389.72 3382.65 2384.69 3380.36 2379.84C3380.93 2379.84 3381.45 2379.72 3381.73 2379.55C3385.79 2377.26 3385.5 2371.27 3385.1 2364.87C3385.1 2362.3 3384.99 2359.55 3385.1 2356.98C3385.5 2352.07 3385.67 2347.44 3385.39 2343.27C3390.12 2345.73 3395.6 2348.87 3401.54 2353.04C3411.59 2359.67 3434.14 2376.41 3462.68 2415.31C3489.68 2451.93 3506.92 2475.47 3498.93 2496.84Z" fill="#992525"/>
<path d="M3286.97 2736.26C3285.2 2736.26 3283.72 2734.89 3283.6 2733.12C3283.43 2731.24 3284.86 2729.64 3286.74 2729.47C3306.21 2727.92 3325.05 2721.81 3341.26 2711.81C3351.02 2705.81 3359.93 2698.39 3367.69 2689.76C3368.95 2688.39 3371.12 2688.28 3372.49 2689.53C3373.86 2690.79 3373.97 2692.96 3372.71 2694.33C3364.49 2703.42 3355.13 2711.24 3344.8 2717.58C3327.67 2728.1 3307.81 2734.55 3287.26 2736.21C3287.14 2736.26 3287.09 2736.26 3286.97 2736.26Z" fill="#876751"/>
<path d="M3294.68 2673.54C3293.31 2665.08 3290.28 2656.86 3288.68 2648.29C3287.94 2644.17 3287.66 2640.17 3286.4 2636.17C3285.14 2632.18 3283.43 2628.29 3282.29 2624.23C3280.01 2616.24 3278.18 2607.95 3275.95 2600.07C3273.56 2591.67 3271.21 2583.27 3268.13 2575.16C3264.88 2566.59 3264.08 2556.54 3261.45 2547.68C3258.66 2538.37 3255.46 2529.17 3252.15 2520.03C3247.01 2505.86 3240.56 2492.38 3230.85 2480.78C3227.32 2476.56 3223.38 2472.79 3218.75 2468.96C3209.5 2461.36 3200.26 2456.33 3192.66 2453.08C3182.1 2463.19 3167.09 2465.7 3158.7 2478.61C3165.61 2483.35 3175.14 2491.12 3182.33 2503.06C3187.36 2511.52 3190.21 2519.63 3191.58 2527.8C3193.35 2537.74 3193.24 2547.4 3193.06 2556.88C3192.66 2582.59 3192.26 2603.78 3176.34 2617.78C3168.57 2624.69 3158.58 2628.35 3148.37 2629.55C3146.43 2629.78 3144.2 2629.55 3142.31 2630C3139.75 2630.63 3139 2632.12 3137.23 2634.18C3133.12 2638.86 3128.56 2643.03 3124.68 2647.94C3116.06 2658.74 3115.83 2672.28 3116.46 2685.42C3117.48 2705.59 3119.82 2733.24 3137.92 2746.09C3145.91 2751.8 3154.47 2752.6 3164.69 2752.09C3169.72 2751.8 3175.03 2751.29 3180.85 2750.72C3233.71 2745.98 3241.02 2756.43 3262.48 2744.89C3265.45 2743.41 3279.89 2735.35 3289.65 2720.15C3292.34 2715.93 3294.28 2711.7 3295.48 2706.84C3297.82 2697.42 3295.88 2688.45 3295.36 2679.02C3295.19 2677.14 3294.96 2675.31 3294.68 2673.54Z" fill="#F95623"/>
<path d="M3402.06 2680.91C3400.57 2684.05 3398.29 2687.3 3395.43 2690.16C3388.64 2697.07 3378.59 2701.99 3369.92 2700.22C3363.24 2698.84 3358.61 2693.82 3354.85 2685.82C3350.91 2677.19 3348.79 2667.77 3346.74 2658.57C3344.11 2646.8 3341.37 2635.15 3339.2 2623.32C3333.27 2590.76 3323.79 2558.48 3311.23 2527.86C3306.27 2515.75 3300.73 2503.92 3294.68 2492.32C3290.74 2484.84 3286.91 2478.04 3283.54 2472.21C3281.78 2469.24 3280.01 2466.5 3278.41 2463.93C3283.43 2465.3 3288.85 2465.02 3294.68 2464.9C3301.07 2472.1 3305.41 2478.5 3308.26 2483.24C3315.97 2496.27 3318.71 2506.61 3329.33 2527.69C3330.13 2529.46 3331.1 2531.23 3332.07 2533.11C3338.29 2545.34 3341.83 2550.65 3347.25 2551.22C3352.68 2551.91 3357.59 2547.57 3360.72 2544.03C3372.14 2591.04 3384.76 2621.78 3395.38 2642.46C3399.49 2650.28 3408.45 2666.91 3402.06 2680.91Z" fill="#F95623"/>
<path d="M3251.52 2688.16V2688.27C3243.24 2691.13 3232.8 2694.39 3220.69 2697.24C3196.38 2703.07 3169.09 2706.9 3143 2707.98H3142.89C3135.81 2708.1 3128.9 2708.1 3122.22 2707.98C3084.14 2707.18 3053.03 2699.3 3046.64 2681.36C3045.84 2679.19 3044.98 2675.65 3049.49 2658.4C3059.54 2619.89 3075.7 2592.01 3087.57 2572.7C3094.76 2560.99 3092.42 2561.12 3112.46 2534.08C3132.5 2507.05 3141.17 2498.55 3158.41 2479.01C3175.65 2459.48 3158.53 2478.73 3158.7 2478.61C3165.61 2483.35 3175.14 2491.12 3182.33 2503.06C3187.36 2511.52 3190.21 2519.63 3191.58 2527.8C3185.99 2544.25 3178.79 2562.36 3169.43 2581.5C3160.47 2599.61 3150.82 2615.78 3141.17 2630.06C3133.81 2640.8 3126.5 2650.57 3119.42 2659.31C3140.49 2653.71 3157.9 2652.23 3170.52 2651.83C3189.13 2651.43 3203.23 2653.6 3235.19 2652.63C3238.73 2652.51 3241.99 2652.34 3244.96 2652.23C3244.84 2652.63 3244.67 2653.03 3244.67 2653.6C3243.87 2657.83 3243.41 2663.14 3244.38 2669.08C3245.53 2677.13 3248.55 2683.53 3251.52 2688.16Z" fill="#992525"/>
<path d="M3294.28 2673.59C3292.79 2675.88 3291.02 2678.05 3288.97 2679.71C3287.2 2681.08 3283.95 2683.48 3271.44 2685.93C3266.42 2686.91 3259.74 2687.82 3251.75 2688.11C3251.63 2688.22 3251.63 2688.22 3251.46 2688.22V2688.11C3248.5 2683.48 3245.47 2677.08 3244.27 2669.08C3243.3 2663.08 3243.7 2657.83 3244.56 2653.6C3246.73 2653.2 3249.18 2652.63 3251.86 2651.94C3251.98 2651.94 3252.15 2651.94 3252.15 2651.94C3254.03 2651.43 3256.09 2650.86 3258.14 2650.17C3268.08 2647.03 3270.93 2644.57 3277.44 2644.46C3278.81 2644.34 3283.55 2644.17 3288.17 2645.72C3291.31 2646.8 3294.56 2648.57 3296.62 2651.71C3300.67 2657.83 3298.79 2666.68 3294.28 2673.59Z" fill="#FFA57D"/>
<path d="M3230.74 2526.2C3229.54 2528.26 3227.49 2529.74 3225.15 2530.26C3223.49 2530.54 3221.89 2530.26 3220.41 2529.57C3217.73 2520.32 3213.33 2509.06 3205.45 2497.86C3203.57 2495.29 3197.29 2486.84 3186.73 2478.04C3180.73 2473.3 3175.03 2469.64 3170.29 2466.9C3173.66 2464.73 3177.08 2463.07 3180.62 2461.19C3185.36 2463.93 3190.95 2467.47 3196.66 2472.21C3207.28 2480.9 3213.5 2489.35 3215.27 2491.92C3224 2504.15 3228.46 2516.37 3230.74 2526.2Z" fill="white"/>
<path d="M3113.26 2668.45C3112.86 2668.45 3112.52 2668.34 3112.17 2668.05C3111.43 2667.48 3111.37 2666.4 3111.95 2665.65L3112.63 2664.8C3114.4 2662.62 3116.23 2660.45 3118 2658.17C3118.57 2657.43 3119.65 2657.31 3120.39 2657.88C3121.14 2658.45 3121.25 2659.54 3120.68 2660.28C3118.85 2662.57 3117.03 2664.8 3115.26 2666.97L3114.57 2667.82C3114.23 2668.22 3113.77 2668.45 3113.26 2668.45ZM3467.19 2481.01C3462.4 2481.01 3457.6 2480.73 3452.98 2480.15C3450.35 2479.81 3447.67 2479.41 3444.81 2478.84C3443.9 2478.67 3443.27 2477.76 3443.44 2476.84C3443.61 2475.93 3444.53 2475.3 3445.44 2475.47C3448.24 2475.98 3450.81 2476.44 3453.38 2476.73C3457.89 2477.3 3462.51 2477.58 3467.19 2477.58C3468.1 2477.58 3468.9 2478.33 3468.9 2479.3C3468.9 2480.27 3468.1 2481.01 3467.19 2481.01Z" fill="#6D1212"/>
<path d="M3327.84 2552.02C3323.9 2558.42 3314.83 2562.25 3308.15 2564.88C3299.13 2568.42 3289.48 2570.36 3279.78 2570.36C3275.15 2570.36 3270.93 2569.79 3266.99 2569.16C3259.4 2567.79 3252.38 2566.31 3248.55 2558.88C3246.78 2555.39 3247.18 2551.97 3250.49 2549.57C3253.29 2547.57 3258.6 2550.14 3261.68 2550.65V2550.77C3267.1 2551.85 3273.61 2552.54 3280.69 2552.42C3288.74 2552.31 3296.79 2550.99 3304.55 2548.71C3307.64 2547.8 3310.66 2546.71 3313.63 2545.45C3316.48 2544.25 3319.62 2541.28 3322.76 2541.05C3328.59 2540.71 3330.3 2548.08 3327.84 2552.02Z" fill="white"/>
<path d="M3342.92 2617.04C3342.86 2617.15 3342.8 2617.21 3342.74 2617.32C3339.03 2623.83 3330.64 2627.09 3323.91 2629.77C3314.83 2633.43 3305.12 2635.37 3295.36 2635.37C3291.42 2635.37 3287.6 2634.97 3284.23 2634.4C3279.04 2633.6 3274.47 2632.35 3270.76 2630.97C3267.05 2628.18 3262.82 2625.72 3264.19 2620.29C3264.65 2618.58 3265.79 2617.04 3267.33 2616.06C3271.04 2613.66 3275.61 2615.66 3279.55 2616.29C3284.46 2616.98 3290 2617.49 3296.1 2617.38C3304.33 2617.21 3312.43 2615.89 3320.31 2613.55C3323.45 2612.58 3326.59 2611.49 3329.61 2610.18C3332.35 2609.04 3335.78 2606.35 3338.69 2606.12C3341.09 2605.95 3343.31 2607.95 3343.94 2610.29C3344.68 2612.58 3344.06 2614.98 3342.92 2617.04Z" fill="white"/>
<g clip-path="url(#clip1)">
<path d="M3454.01 2433.82C3456.58 2428.31 3462.31 2425.03 3467.77 2422.42C3496.57 2408.68 3529.16 2402.33 3560.85 2406.39C3567.37 2407.23 3574.22 2408.73 3578.79 2413.46C3585.7 2420.64 3584.25 2432.99 3577.96 2440.67C3571.66 2448.34 3561.8 2452.13 3552.11 2454.41C3539.24 2457.41 3525.98 2458.3 3512.84 2459.14C3505.21 2459.64 3497.52 2460.14 3489.89 2459.3C3479.64 2458.19 3446.38 2450.4 3454.01 2433.82Z" fill="#876751"/>
<path d="M3613.55 2510.71C3612.21 2493.91 3606.92 2477.11 3601.3 2461.25C3594.89 2443.17 3568.15 2433.43 3551.05 2430.1C3539.97 2427.93 3527.99 2428.59 3516.68 2429.1C3504.87 2429.6 3493.12 2431.1 3481.59 2433.77C3458.64 2439.11 3436.75 2449.35 3419.37 2465.37C3412.57 2471.66 3406.5 2478.5 3401.6 2485.45C3399.87 2487.96 3398.31 2490.35 3396.81 2492.85C3393.47 2498.75 3391.18 2504.2 3389.34 2509.1C3388.34 2511.88 3387.5 2514.44 3386.72 2516.67C3385.56 2520.62 3384.27 2524.73 3383.1 2529.13C3377.26 2548.55 3371.85 2568.13 3366.56 2587.77C3363.89 2597.73 3361.21 2607.69 3358.65 2617.65C3356.2 2626.99 3352.86 2636.56 3353.41 2646.41C3353.69 2650.69 3354.58 2657.26 3357.7 2660.54C3359.99 2662.93 3364 2664.32 3366.84 2666.16C3370.52 2668.5 3374.3 2670.72 3378.26 2672.61C3379.93 2673.39 3392.52 2677.07 3392.74 2677.9C3394.36 2684.02 3396.19 2690.08 3398.2 2696.09C3396.14 2696.43 3393.86 2696.54 3391.18 2696.37C3391.24 2698.65 3391.24 2701.21 3391.4 2704.05C3391.74 2711.17 3391.57 2719.13 3393.24 2725.97C3400.71 2718.35 3417.75 2732.2 3424.32 2736.26C3453.9 2754.46 3489.28 2754.9 3522.25 2747.5C3538.91 2743.77 3555.12 2738.21 3570.94 2731.87C3583.25 2726.97 3603.69 2721.46 3611.21 2709.72C3613.55 2706 3613.88 2701.38 3614.05 2697.04C3616 2656.42 3616.56 2615.7 3615.83 2575.08C3615.44 2554.78 3614.78 2534.41 3613.72 2514.11C3613.72 2512.94 3613.61 2511.83 3613.55 2510.71Z" fill="#AD8971"/>
<path d="M3436.58 2343.97C3438.2 2344.19 3439.87 2344.64 3441.54 2345.42C3450 2349.42 3455.63 2358.21 3464.15 2362.05C3476.69 2367.73 3491.06 2361.11 3504.76 2359.83C3526.21 2357.82 3548.27 2369.01 3568.43 2360.1C3574.56 2357.38 3580.02 2352.98 3585.87 2349.42C3593.5 2344.8 3601.8 2341.63 3609.26 2336.63C3616.73 2331.62 3623.58 2324.27 3625.58 2314.93C3608.54 2310.7 3588.87 2322.33 3573.61 2313.31C3569.38 2310.81 3565.92 2306.97 3561.63 2304.69C3555.79 2301.58 3548.88 2301.69 3542.31 2302.24C3515.07 2304.64 3488.38 2314.04 3461.15 2316.93C3451.56 2317.93 3442.04 2317.26 3432.46 2318.43C3424.44 2319.43 3410.06 2321.88 3408.17 2332.9C3407.95 2334.12 3407.95 2335.46 3408.45 2336.51C3409.01 2337.79 3410.18 2338.57 3411.35 2339.19C3416.25 2341.86 3421.65 2343.14 3427.17 2343.52C3430.51 2343.8 3433.52 2343.52 3436.58 2343.97Z" fill="#F39800"/>
<path d="M3467.94 2361.78C3470.11 2370.01 3472.56 2378.13 3475.02 2386.31C3478.47 2397.72 3482.42 2409.9 3491.78 2417.3C3495.96 2420.64 3501.03 2422.75 3506.15 2424.37C3518.3 2428.09 3531.83 2428.71 3543.53 2423.75C3557.46 2417.8 3564.14 2404.67 3565.81 2390.26C3566.82 2381.8 3567.32 2372.85 3567.71 2364.28C3568.1 2354.71 3567.48 2345.08 3565.87 2335.63C3564.98 2330.34 3563.7 2325 3561.02 2320.33C3557.18 2313.59 3549.55 2309.53 3542.64 2306.53C3533.78 2302.69 3524.03 2299.18 3514.73 2301.52C3511.11 2302.41 3508.33 2304.47 3504.98 2305.86C3501.7 2307.25 3499.08 2306.64 3495.46 2306.58C3487.49 2306.47 3479.53 2307.98 3472.17 2311.04C3470.06 2311.93 3467.89 2312.98 3466.33 2314.65C3464.49 2316.6 3463.6 2319.21 3463.09 2321.83C3461.59 2329.06 3462.43 2336.57 3463.82 2343.8C3464.99 2349.87 3466.38 2355.82 3467.94 2361.78Z" fill="#FFA57D"/>
<path d="M3560.52 2344.14C3560.97 2346.81 3561.36 2349.09 3561.8 2351.2C3561.8 2351.37 3561.8 2351.37 3561.91 2351.48C3566.03 2358.66 3568.6 2365.34 3570.21 2370.57C3571.27 2366.84 3572.16 2361.89 3571.72 2356.27C3571.44 2350.93 3569.65 2340.19 3565.76 2339.74C3564.03 2339.52 3562.19 2341.36 3560.52 2344.14Z" fill="#EF8054"/>
<path d="M3398.09 2738.04C3399.2 2742.27 3400.15 2746.55 3400.82 2750.95C3401.43 2754.9 3402.21 2759.74 3403.05 2765.36C3412.63 2771.98 3425.55 2779.44 3441.48 2785.33C3460.92 2792.45 3481.09 2796.85 3501.86 2796.13C3516.29 2795.63 3530.33 2792.12 3544.59 2790.17C3560.02 2788.06 3575.45 2785.56 3590.6 2781.72C3596.67 2780.21 3602.91 2778.32 3607.48 2774.04C3614.44 2767.53 3616.22 2757.01 3616.56 2747.95C3616.84 2741.55 3618.34 2724.3 3609.76 2722.35C3607.2 2721.8 3604.53 2722.46 3601.96 2723.19C3577.4 2730.09 3553.11 2738.26 3527.88 2742.16C3504.54 2745.78 3483.32 2744.44 3459.92 2740.99C3449.56 2739.49 3437.47 2738.26 3427.61 2734.54C3417.92 2730.92 3408.84 2723.13 3400.21 2717.57C3398.92 2716.73 3397.48 2715.9 3395.97 2715.9C3394.47 2715.9 3392.74 2717.01 3392.74 2718.57C3392.74 2718.96 3392.85 2719.35 3392.96 2719.74C3394.69 2725.86 3396.53 2731.92 3398.09 2738.04Z" fill="#876751"/>
<path d="M3477.13 2434.38C3477.13 2434.44 3477.13 2434.49 3477.19 2434.55C3477.35 2435.49 3477.91 2436.33 3478.41 2437.11C3485.26 2447.84 3492.45 2458.42 3499.86 2468.76C3507.1 2462.53 3514.95 2457.08 3523.25 2452.41C3524.31 2451.79 3525.48 2451.18 3526.71 2451.18C3527.82 2451.13 3528.82 2451.57 3529.83 2451.96C3539.69 2455.97 3549.44 2460.36 3558.96 2465.15C3561.91 2454.02 3564.48 2442.84 3566.59 2431.54C3554.89 2430.43 3543.14 2429.32 3531.44 2428.2C3520.25 2427.15 3509.55 2426.98 3499.19 2422.47C3494.29 2420.36 3488.66 2415.69 3483.7 2414.63C3481.64 2419.86 3479.58 2425.14 3477.74 2430.49C3477.35 2431.82 3476.91 2433.1 3477.13 2434.38Z" fill="#876751"/>
<path d="M3454.01 2354.1C3452.62 2359.72 3454.63 2365.84 3458.19 2370.4C3461.76 2374.96 3466.77 2378.24 3471.95 2380.8C3473.4 2381.53 3474.9 2382.19 3476.46 2382.25C3478.08 2382.3 3479.81 2381.64 3480.53 2380.25C3481.25 2378.91 3480.92 2377.3 3480.53 2375.8C3478.64 2368.45 3475.79 2358.38 3470.56 2352.65C3466.1 2347.75 3455.96 2346.2 3454.01 2354.1Z" fill="#FFA57D"/>
<path d="M3579.18 2362.17C3578.4 2365.39 3577.18 2368.56 3575.11 2371.18C3573.05 2373.79 3570.1 2375.8 3566.81 2376.35C3566.03 2376.46 3565.14 2376.52 3564.48 2376.13C3560.8 2374.02 3561.24 2362.28 3560.97 2358.38C3560.69 2354.6 3560.58 2351.04 3563.14 2347.92C3565.76 2344.75 3573.33 2339.97 3577.01 2343.19C3581.35 2347.03 3580.3 2357.38 3579.18 2362.17Z" fill="#FFA57D"/>
<path d="M3565.76 2295.18C3562.41 2293.9 3559.07 2292.67 3556.68 2290.45C3549.71 2283.88 3542.19 2278.38 3532.72 2275.98C3524.76 2273.92 3516.35 2274.2 3508.16 2275.32C3496.4 2276.87 3484.93 2280.16 3474.07 2284.94C3466.94 2288.11 3449.39 2294.73 3447.78 2303.02C3445.88 2312.87 3447.39 2323.05 3449.78 2332.84C3450.62 2336.24 3451.4 2339.35 3453.51 2342.25C3456.58 2346.36 3460.03 2349.98 3463.43 2353.76C3466.32 2356.93 3467.66 2361 3470.34 2364.44C3472.79 2367.56 3475.63 2370.4 3477.74 2373.68C3478.41 2374.68 3479.03 2375.79 3479.97 2376.57C3480.92 2377.35 3482.31 2377.69 3483.37 2377.07C3484.71 2376.24 3484.82 2374.35 3484.65 2372.79C3484.09 2366.34 3482.48 2359.94 3479.97 2353.93C3477.52 2348.03 3468.55 2340.19 3472.12 2333.4C3473.62 2330.56 3476.35 2328.67 3479.14 2327.11C3487.16 2322.55 3496.24 2319.82 3505.43 2319.21C3519.02 2318.32 3532.56 2321.94 3546.2 2322.16C3549.88 2322.22 3553.67 2322.05 3557.07 2323.5C3567.93 2328 3561.02 2341.58 3558.29 2348.98C3556.9 2352.76 3556.23 2356.88 3556.45 2360.94C3556.51 2362.55 3556.73 2364.17 3557.57 2365.56C3558.35 2366.95 3559.85 2368.06 3561.47 2367.95C3563.36 2367.84 3564.86 2366.22 3565.98 2364.67C3571.94 2356.38 3572.89 2349.09 3574.06 2339.35C3575.28 2328.95 3577.45 2318.66 3577.12 2308.14C3577.06 2306.25 3576.95 2304.3 3576.17 2302.63C3574.28 2298.57 3570.05 2296.85 3565.76 2295.18Z" fill="#F95623"/>
<path d="M3423.32 2331.95C3435.8 2325.22 3448.11 2321.55 3462.37 2325C3466.38 2325.95 3470.39 2327.45 3474.51 2327.17C3478.08 2326.95 3481.48 2325.39 3484.6 2323.72C3491.06 2320.27 3497.13 2316.15 3503.81 2313.2C3510.5 2310.31 3518.13 2308.64 3525.15 2310.59C3532.22 2312.54 3538.13 2317.88 3545.37 2319.27C3555.06 2321.1 3564.2 2315.71 3573.78 2316.04C3578.9 2316.21 3581.41 2318.99 3585.87 2320.49C3591.55 2322.44 3596.73 2321.61 3602.52 2321.83C3607.59 2321.99 3612.21 2322.05 3617.23 2320.55C3621.79 2319.21 3626.53 2316.93 3628.7 2312.7C3634.55 2301.47 3618.73 2298.85 3611.38 2300.41C3609.15 2300.91 3607.03 2301.74 3604.75 2302.13C3595.61 2303.69 3588.48 2300.52 3583.64 2292.45C3580.24 2286.55 3578.62 2279.88 3575.67 2273.76C3568.93 2259.85 3556.62 2250.17 3542.03 2245.55C3527.66 2240.99 3511.5 2241.04 3497.02 2244.88C3481.03 2249.11 3466.33 2258.74 3458.64 2273.65C3457.86 2275.15 3457.19 2276.65 3456.58 2278.21C3454.46 2283.66 3453.46 2289.39 3451.51 2294.9C3450.06 2298.96 3448 2303.02 3444.88 2306.08C3441.98 2308.92 3438.25 2309.31 3434.35 2310.14C3425.94 2311.98 3416.97 2313.2 3409.67 2318.21C3406.83 2320.16 3404.27 2322.77 3403.21 2326.06C3402.15 2329.34 3402.99 2333.34 3405.78 2335.4C3410.01 2338.41 3416.86 2335.46 3423.32 2331.95Z" fill="#F8B62D"/>
<path d="M3485.71 2431.6C3487.05 2433.71 3488.72 2435.55 3490.56 2437.16C3497.41 2442.95 3509.11 2443.78 3517.68 2444.12C3529.55 2444.56 3541.47 2443 3552.78 2439.44C3555.23 2438.66 3557.68 2437.77 3559.68 2436.16C3567.15 2430.1 3566.54 2417.75 3566.26 2409.18C3566.04 2393.15 3567.15 2377.24 3567.2 2361.22C3567.2 2358.16 3566.98 2354.6 3564.48 2352.93C3562.47 2351.59 3559.57 2352.04 3557.68 2353.65C3555.84 2355.27 3554.95 2357.71 3554.73 2360.16C3554.5 2362.61 3554.95 2365 3555.28 2367.45C3557.07 2379.19 3560.8 2392.71 3550.22 2401.61C3546.15 2405 3541.69 2405.12 3536.57 2404.45C3533.73 2404.06 3530.89 2403.34 3528.05 2403.06C3519.19 2402.11 3505.32 2409.07 3498.02 2403.11C3494.85 2400.5 3493.95 2397.16 3493.56 2393.15C3493.17 2388.7 3492.73 2386.14 3490.5 2382.42C3488.16 2378.47 3486.77 2374.07 3484.32 2370.12C3483.48 2368.79 3482.54 2367.39 3481.03 2367C3479.58 2366.62 3478.08 2367.23 3476.74 2367.84C3476.35 2368.01 3475.96 2368.23 3475.74 2368.51C3475.07 2369.34 3475.41 2370.57 3475.79 2371.62C3477.8 2377.08 3480.03 2383.53 3479.86 2389.43C3479.75 2394.1 3479.19 2398.72 3479.25 2403.45C3479.42 2412.85 3480.47 2423.42 3485.71 2431.6Z" fill="#F95623"/>
<path d="M3528.32 2475.27C3529.88 2563.12 3534.67 2657.65 3524.98 2769.87" stroke="#876751" stroke-width="0.8" stroke-miterlimit="10" stroke-linecap="round" stroke-linejoin="round"/>
<path d="M3461.92 2479.33C3461.48 2489.29 3462.48 2499.31 3461.7 2509.16C3460.87 2519.56 3460.37 2529.96 3461.03 2540.37C3462.31 2560.45 3468.61 2579.87 3483.93 2593.56C3488.27 2597.45 3493.12 2601.01 3495.74 2606.41C3497.58 2610.19 3498.13 2614.59 3498.63 2618.81C3502.76 2652.86 3505.88 2687.69 3499.47 2721.3C3498.97 2723.91 3498.41 2726.53 3497.13 2728.75C3494.68 2733.04 3490.11 2735.15 3485.71 2736.71C3457.47 2746.44 3431.79 2736.26 3405.94 2724.86C3401.26 2722.91 3396.36 2720.52 3393.58 2716.18C3390.74 2711.73 3390.68 2706.16 3390.68 2700.88C3390.85 2678.4 3391.29 2655.09 3401.1 2634.89C3405.61 2625.55 3412.01 2617.15 3416.25 2607.63C3419.7 2599.84 3420.65 2592.11 3421.71 2583.76C3422.6 2576.7 3427.17 2571.19 3430.67 2565.07C3435.86 2555.95 3436.97 2544.82 3437.19 2534.08C3437.42 2522.79 3437.36 2510.88 3434.13 2500.09C3431.96 2492.8 3430.51 2484.68 3431.18 2477C3431.73 2470.27 3430.51 2463.59 3431.9 2456.75C3432.29 2454.74 3432.85 2452.68 3433.96 2450.9C3435.24 2448.85 3437.25 2447.29 3439.31 2445.9C3444.38 2442.45 3449.89 2439.89 3455.52 2437.5C3458.47 2436.27 3465.82 2432.49 3468.83 2435.66C3470 2436.88 3469.78 2438.89 3469.28 2440.5C3465.49 2452.07 3462.7 2466.26 3462.09 2478.44C3461.92 2478.78 3461.92 2479.06 3461.92 2479.33Z" fill="#E2AF45"/>
<path d="M3413.35 2704.27C3418.59 2706 3423.88 2707.39 3429.28 2708.45C3438.86 2710.28 3448.17 2712.78 3457.97 2711.56C3459.97 2711.34 3461.98 2710.95 3463.71 2709.56C3468.05 2706.05 3468.83 2697.76 3469.05 2690.47C3469.33 2682.63 3469.44 2674.56 3467.44 2667.11C3467.16 2665.99 3466.77 2664.88 3466.05 2664.21C3465.55 2663.71 3464.88 2663.55 3464.26 2663.38C3454.68 2660.76 3444.99 2658.48 3435.08 2657.2C3430.51 2656.59 3425.55 2656.87 3421.09 2655.92C3417.36 2655.15 3414.41 2654.81 3410.51 2655.59C3409.01 2655.92 3407.45 2656.31 3406.16 2657.2C3404.44 2658.32 3403.27 2660.1 3402.27 2661.93C3396.7 2671.89 3394.58 2683.8 3396.42 2695.09C3396.53 2695.87 3396.7 2696.65 3397.14 2697.26C3397.59 2697.82 3398.25 2698.15 3398.87 2698.49C3403.6 2700.66 3408.45 2702.6 3413.35 2704.27Z" fill="#DB881D"/>
<path d="M3409.84 2660.37C3410.4 2662.66 3411.29 2664.94 3413.02 2666.49C3416.53 2669.61 3422.26 2668.89 3426.55 2670.06C3430.12 2671 3433.74 2671.84 3437.36 2672.45C3444.6 2673.67 3451.9 2674.23 3459.14 2674.28C3459.92 2674.28 3460.75 2674.28 3461.53 2674.28C3465.38 2674.23 3469.33 2673.84 3472.73 2671.56C3477.91 2668.11 3474.35 2655.26 3472.06 2649.75C3471.62 2648.69 3471.06 2647.63 3470.33 2647.02C3469.5 2646.3 3468.5 2646.19 3467.55 2646.13C3458.47 2645.24 3449.45 2644.3 3440.37 2643.41C3435.46 2642.9 3430.73 2641.57 3425.94 2640.29C3421.93 2639.23 3418.98 2637.34 3414.69 2637.51C3413.68 2637.56 3412.63 2637.62 3411.9 2638.29C3411.46 2638.73 3411.18 2639.34 3410.95 2639.9C3408.67 2646.19 3408.17 2653.14 3409.51 2659.71C3409.73 2659.87 3409.78 2660.1 3409.84 2660.37Z" fill="#E59933"/>
<path d="M3434.96 2661.1C3434.74 2658.65 3436.41 2656.48 3438.31 2656.7C3441.48 2657.09 3442.65 2662.55 3440.42 2664.99C3438.36 2667.27 3435.3 2664.33 3434.96 2661.1Z" fill="#876751"/>
<path d="M3588.99 2481.56C3589.43 2491.3 3588.6 2501.03 3589.32 2510.66C3590.1 2520.78 3590.6 2530.91 3590.1 2541.09C3589.1 2560.67 3583.69 2579.76 3570.21 2593.56C3566.43 2597.45 3562.19 2601.07 3559.91 2606.41C3558.29 2610.13 3557.85 2614.42 3557.4 2618.59C3553.95 2651.86 3551.44 2685.91 3557.23 2718.51C3557.68 2721.02 3558.18 2723.58 3559.35 2725.75C3561.52 2729.86 3565.53 2731.87 3569.43 2733.2C3584.08 2738.38 3599.4 2736.71 3613.83 2731.53C3623.97 2727.92 3643.07 2722.85 3645.8 2711.34C3646.75 2707.39 3646.47 2703.33 3646.19 2699.32C3644.08 2670.39 3640.51 2641.51 3635.5 2612.92C3633.94 2603.96 3632.21 2595 3629.04 2586.49C3625.69 2577.48 3620.79 2569.13 3616.73 2560.45C3612.66 2551.72 3611.27 2543.93 3611.1 2534.36C3610.88 2523.34 3610.82 2511.77 3613.61 2501.09C3615.5 2493.91 3616.67 2485.95 3616.11 2478.5C3615.56 2471.93 3616.61 2465.43 3615.39 2458.8C3615 2456.86 3614.55 2454.85 3613.55 2453.19C3612.38 2451.18 3610.6 2449.74 3608.82 2448.46C3604.36 2445.23 3599.46 2442.84 3594.5 2440.67C3591.88 2439.5 3585.36 2436.05 3582.8 2439.22C3581.8 2440.44 3581.97 2442.39 3582.47 2443.95C3585.87 2455.19 3588.37 2468.93 3589.04 2480.78C3588.93 2481 3588.93 2481.28 3588.99 2481.56Z" fill="#E2AF45"/>
<path d="M3635.11 2696.98C3630.37 2698.93 3625.7 2700.77 3620.79 2702.16C3612.16 2704.66 3603.8 2707.72 3594.72 2707.22C3592.89 2707.11 3590.99 2706.89 3589.32 2705.66C3585.09 2702.55 3583.92 2694.48 3583.25 2687.47C3582.53 2679.85 3581.86 2671.95 3583.25 2664.55C3583.47 2663.43 3583.75 2662.32 3584.31 2661.6C3584.75 2661.04 3585.31 2660.82 3585.87 2660.65C3594.45 2657.42 3603.19 2654.53 3612.16 2652.58C3620.85 2650.69 3629.32 2650.03 3637.73 2646.58C3639.51 2645.85 3641.63 2645.13 3643.13 2646.41C3643.74 2646.91 3644.08 2647.69 3644.36 2648.41C3645.69 2651.75 3646.42 2654.98 3646.75 2658.54C3647.31 2664.38 3647.2 2670.17 3647.59 2675.95C3647.92 2680.74 3648.81 2685.24 3646.08 2689.64C3643.69 2693.53 3639.45 2695.2 3635.61 2696.82C3635.44 2696.82 3635.28 2696.87 3635.11 2696.98Z" fill="#DB881D"/>
<path d="M3636.33 2659.37C3634.44 2660.09 3632.6 2660.71 3630.76 2661.37C3624.3 2663.77 3617.73 2665.83 3611.1 2667.55C3604.53 2669.27 3597.95 2670.33 3591.33 2670.89C3590.6 2670.94 3589.88 2671 3589.15 2671.05C3586.81 2671.22 3578.57 2672.84 3578.35 2668.77C3578.01 2662.1 3578.51 2655.37 3579.8 2648.86C3580.19 2646.91 3580.8 2644.79 3582.41 2643.9C3583.08 2643.51 3583.81 2643.4 3584.53 2643.29C3591.83 2642.01 3599.12 2640.79 3606.48 2639.45C3616.62 2637.56 3625.75 2632.78 3635.78 2630.89C3640.96 2629.94 3642.46 2631.89 3644.24 2636.23C3646.19 2640.96 3647.75 2645.85 3648.92 2650.86C3649.09 2651.58 3649.2 2652.36 3648.87 2653.03C3648.65 2653.36 3648.37 2653.59 3648.03 2653.81C3644.52 2656.14 3640.4 2657.81 3636.33 2659.37Z" fill="#E59933"/>
<path d="M3621.52 2654.64C3621.57 2652.25 3619.9 2650.25 3618.18 2650.58C3615.28 2651.19 3614.56 2656.59 3616.78 2658.82C3618.79 2660.87 3621.46 2657.76 3621.52 2654.64Z" fill="#876751"/>
<path d="M3356.98 2734.65C3359.71 2748.34 3361.99 2760.02 3364.22 2770.37C3367.12 2784.44 3369.79 2795.91 3372.74 2806.36C3375.19 2815.21 3377.81 2823.45 3380.93 2831.57C3382.21 2834.74 3383.44 2837.74 3384.5 2840.8C3387.17 2847.2 3389.68 2852.71 3391.85 2857.38C3392.8 2862.78 3394.63 2869.18 3398.14 2875.35C3401.1 2880.86 3408.39 2893.88 3419.64 2894.1C3420.26 2894.1 3429.67 2894.1 3433.85 2886.2C3439.25 2876.08 3431.45 2861.44 3430.28 2859.22C3425.72 2850.82 3421.76 2850.54 3415.3 2840.14C3413.52 2837.24 3412.24 2834.57 3410.96 2832.01C3408.95 2799.35 3406.61 2777.49 3404.55 2762.19C3401.32 2740.88 3400.04 2719.35 3398.14 2697.87C3397.7 2692.81 3394.86 2692.42 3390.51 2691.81C3385.72 2691.14 3380.93 2689.97 3376.31 2688.53C3370.12 2686.64 3360.82 2683.74 3356.37 2678.68C3355.98 2678.23 3355.42 2677.9 3355.08 2677.46C3354.47 2680.4 3353.91 2683.46 3353.58 2686.69C3351.41 2705.39 3354.08 2720.13 3356.98 2734.65Z" fill="#FFA57D"/>
<path d="M3382.83 2525.23C3380.26 2533.47 3378.37 2541.93 3376.48 2550.38C3373.86 2562.29 3372.02 2574.86 3368.34 2586.43C3361.6 2607.58 3354.58 2628.38 3352.91 2650.58C3352.8 2652.25 3352.69 2653.98 3353.3 2655.53C3353.8 2656.76 3354.7 2657.82 3355.64 2658.76C3362.66 2665.77 3371.96 2670.11 3381.6 2672.62C3387.67 2674.17 3393.85 2675.06 3400.09 2675.73C3403.49 2676.06 3412.79 2678.68 3415.69 2676.57C3416.64 2675.9 3417.03 2674.73 3417.36 2673.62C3426.66 2642.52 3417.75 2608.69 3426.72 2577.48C3428.22 2572.25 3429.56 2566.52 3431.79 2561.57C3433.63 2557.56 3436.47 2554.05 3438.25 2549.94C3443.77 2537.36 3440.76 2523.79 3442.15 2510.66C3443.65 2496.3 3444.99 2481.89 3444.82 2467.48C3444.77 2462.48 3444.71 2457.41 3443.38 2452.52C3441.93 2447.12 3439.03 2448.79 3434.85 2451.24C3426.94 2455.75 3420.82 2462.7 3414.8 2469.38C3407.45 2477.5 3400.98 2486.46 3395.58 2495.97C3390.35 2505.21 3386 2515.05 3382.83 2525.23Z" fill="#AD8971"/>
<path d="M3344.06 2665.21C3344.22 2667.5 3344.95 2669.72 3347.12 2672.67C3348.46 2674.51 3350.35 2676.56 3353.08 2678.79C3353.41 2679.18 3354.03 2679.62 3354.53 2680.01C3363.11 2686.86 3375.42 2692.03 3392.29 2694.87C3394.58 2695.26 3396.7 2695.48 3398.59 2695.59C3418.42 2696.87 3421.15 2684.08 3420.48 2679.85C3420.2 2678.46 3418.7 2678.07 3415.97 2677.68C3412.57 2677.01 3407.11 2676.68 3400.15 2674.95C3374.25 2668.39 3361.1 2650.75 3352.19 2651.31C3350.91 2651.31 3349.63 2651.75 3348.57 2652.58C3345.23 2655.42 3343.72 2661.1 3344.06 2665.21Z" fill="#876751"/>
<path d="M3660.4 2481.61C3665.86 2486.07 3671.09 2490.91 3676.44 2496.08C3679.84 2499.36 3683.18 2502.64 3686.08 2506.37C3702.9 2528.07 3706.02 2566.79 3678.78 2581.93C3662.85 2590.77 3641.12 2586.15 3630.32 2571.74C3624.58 2564.07 3620.46 2555.5 3615.11 2547.6C3610.37 2540.59 3610.26 2532.74 3610.1 2524.4C3609.82 2508.82 3609.48 2493.24 3610.04 2477.66C3610.26 2471.15 3610.65 2464.53 3613.1 2458.53C3616 2451.46 3625.41 2459.47 3629.54 2461.47C3641.18 2467.26 3651.04 2473.94 3660.4 2481.61Z" fill="#AD8971"/>
<path d="M3614.27 2504.26C3615.95 2495.86 3620.07 2487.62 3627.59 2484.4C3637.45 2480.17 3649.59 2479.17 3660.12 2480.89C3675.72 2483.51 3687.97 2494.86 3689.64 2510.6C3690.92 2522.9 3691.2 2537.2 3681.95 2545.37C3673.54 2552.83 3663.52 2555.72 3652.38 2555.78C3648.59 2555.78 3644.74 2555.67 3641.07 2554.83C3632.66 2552.89 3627.03 2547.54 3622.41 2540.59C3617.23 2532.86 3613.83 2523.79 3613.49 2514.5C3613.33 2511.33 3613.61 2507.82 3614.27 2504.26Z" fill="#876751"/>
<path d="M3670.37 2486.96C3669.64 2484.4 3668.86 2481.78 3668.14 2479.17C3663.68 2463.09 3657.28 2447.51 3649.09 2432.99C3638.78 2414.68 3625.08 2397.72 3612.16 2381.08C3609.09 2377.13 3606.09 2373.12 3602.85 2369.34C3599.62 2365.61 3599.74 2361.33 3598.23 2356.88C3596.45 2351.65 3593.44 2346.92 3590.77 2342.13C3588.15 2337.41 3584.64 2333.12 3580.52 2329.62C3574.95 2324.89 3567.54 2321.27 3560.13 2320.88C3554.06 2320.55 3548.15 2322.88 3542.53 2325.28C3537.29 2327.5 3528.99 2330.17 3529.88 2337.52C3530.11 2339.24 3531.05 2340.8 3532.5 2341.75C3534.06 2342.8 3535.34 2342.47 3537.07 2342.47C3538.85 2342.47 3539.63 2343.14 3541.36 2343.86C3545.76 2345.75 3549.04 2349.42 3552.11 2352.98C3552.44 2353.32 3552.78 2353.76 3553 2354.15C3556.29 2359.16 3559.63 2363.89 3560.74 2367.67C3562.58 2373.9 3556.4 2373.9 3551.77 2375.46C3551.11 2375.68 3550.33 2376.07 3550.21 2376.74C3550.16 2377.24 3550.49 2377.74 3550.88 2378.08C3552.39 2379.47 3554.45 2379.97 3556.56 2380.25C3562.69 2381.02 3568.49 2382.08 3574.67 2381.91C3577.06 2386.53 3579.07 2390.48 3580.68 2393.6C3588.87 2409.73 3596.28 2425.53 3602.07 2442.72C3609.2 2463.87 3617.17 2484.73 3623.13 2506.32C3625.47 2514.77 3627.7 2523.51 3632.88 2530.63C3638.06 2537.75 3646.92 2542.93 3655.49 2540.98C3664.3 2538.98 3671.43 2532.02 3673.54 2523.29C3676.83 2510.16 3673.88 2498.92 3670.37 2486.96Z" fill="#FFA57D"/>
<path d="M3543.7 2381.8C3559.29 2381.8 3571.94 2369.18 3571.94 2353.6C3571.94 2338.02 3559.29 2325.39 3543.7 2325.39C3528.1 2325.39 3515.46 2338.02 3515.46 2353.6C3515.46 2369.18 3528.1 2381.8 3543.7 2381.8Z" fill="#C9A063"/>
<path d="M3543.7 2372.79C3554.31 2372.79 3562.92 2364.2 3562.92 2353.6C3562.92 2343 3554.31 2334.4 3543.7 2334.4C3533.08 2334.4 3524.48 2343 3524.48 2353.6C3524.48 2364.2 3533.08 2372.79 3543.7 2372.79Z" fill="#B0F4D6"/>
</g>
<path d="M4050.24 2769.93C4071.37 2717.71 4090.62 2660.06 4107 2596.29C4107 2596.29 2594.98 2816.34 0 2625.9C0 2625.9 1.56271 2695.85 14.752 2791.67C424.683 2822.08 1172.22 2866.87 2021.15 2866.87C2856.27 2866.93 3618.56 2809.9 4050.24 2769.93Z" fill="#FFC062"/>
<path d="M2021.15 2866.93C1172.22 2866.93 424.684 2822.15 14.7529 2791.73C34.7557 2936.95 81.5121 3141.57 190.402 3252.06L3607.81 3247.94C3607.81 3247.94 3887.1 3173.11 4050.31 2769.99C3618.56 2809.9 2856.27 2866.93 2021.15 2866.93Z" fill="#F89929"/>
<g clip-path="url(#clip2)" filter="url(#filter0_d)">
<path d="M3402.45 2826.24C3411.84 2795.93 3432.64 2772.29 3458.66 2758.6L3432.79 2709.49C3394.21 2729.82 3363.38 2764.86 3349.45 2809.81C3335.71 2854.11 3340.98 2899.78 3360.61 2938.04L3409.7 2912.18C3396.69 2886.48 3393.26 2855.9 3402.45 2826.24Z" fill="#FE3D4B"/>
<path d="M3621.96 2894.27C3612.57 2924.58 3591.78 2948.22 3565.76 2961.91L3591.62 3011.01C3630.2 2990.68 3661.03 2955.64 3674.96 2910.69C3689.09 2865.12 3683.12 2818.12 3662.09 2779.21L3613 2805.07C3627.4 2831.42 3631.55 2863.33 3621.96 2894.27Z" fill="#FE3D4B"/>
<path d="M3565.76 2961.91C3539.74 2975.62 3508.49 2979.4 3478.19 2970.01C3447.25 2960.42 3423.27 2938.95 3409.71 2912.17L3360.62 2938.03C3380.8 2977.37 3416.19 3008.88 3461.77 3023.01C3506.72 3036.94 3553.05 3031.33 3591.63 3011.01L3565.76 2961.91Z" fill="#FEFFE3"/>
<path d="M3546.23 2750.5C3575.9 2759.7 3599.17 2779.83 3612.99 2805.09L3662.08 2779.23C3641.65 2741.4 3606.96 2711.23 3562.65 2697.5C3517.71 2683.56 3471.37 2689.17 3432.79 2709.49L3458.65 2758.59C3484.67 2744.89 3515.91 2741.1 3546.23 2750.5Z" fill="#FEFFE3"/>
</g>
<defs>
<filter id="filter0_d" x="3289" y="2647.05" width="436.406" height="436.406" filterUnits="userSpaceOnUse" color-interpolation-filters="sRGB">
<feFlood flood-opacity="0" result="BackgroundImageFix"/>
<feColorMatrix in="SourceAlpha" type="matrix" values="0 0 0 0 0 0 0 0 0 0 0 0 0 0 0 0 0 0 127 0"/>
<feOffset dx="-10" dy="10"/>
<feColorMatrix type="matrix" values="0 0 0 0 0 0 0 0 0 0 0 0 0 0 0 0 0 0 0.15 0"/>
<feBlend mode="normal" in2="BackgroundImageFix" result="effect1_dropShadow"/>
<feBlend mode="normal" in="SourceGraphic" in2="effect1_dropShadow" result="shape"/>
</filter>
<clipPath id="clip0">
<rect width="149" height="154" fill="white" transform="matrix(-1 0 0 1 3309 2272.05)"/>
</clipPath>
<clipPath id="clip1">
<rect width="355" height="652" fill="white" transform="translate(3344 2242.05)"/>
</clipPath>
<clipPath id="clip2">
<rect width="340.789" height="340.789" fill="white" transform="translate(3399.89 2647.05) rotate(17.2211)"/>
</clipPath>
</defs>
</svg>
