<svg width="92" height="94" viewBox="0 0 92 94" fill="none" xmlns="http://www.w3.org/2000/svg">
<path d="M1.35938 88V76.2188H2.44531V80.9609C2.90365 80.3984 3.41667 79.9792 3.98438 79.7031C4.55208 79.4219 5.17448 79.2812 5.85156 79.2812C7.05469 79.2812 8.08073 79.7188 8.92969 80.5938C9.78385 81.4635 10.2109 82.5208 10.2109 83.7656C10.2109 84.9948 9.78125 86.0443 8.92188 86.9141C8.0625 87.7839 7.02865 88.2188 5.82031 88.2188C5.1276 88.2188 4.5 88.0703 3.9375 87.7734C3.375 87.4766 2.8776 87.0312 2.44531 86.4375V88H1.35938ZM5.73438 87.1641C6.34375 87.1641 6.90625 87.0156 7.42188 86.7188C7.9375 86.4167 8.34635 85.9948 8.64844 85.4531C8.95573 84.9115 9.10938 84.3385 9.10938 83.7344C9.10938 83.1302 8.95573 82.5547 8.64844 82.0078C8.34115 81.4609 7.92708 81.0365 7.40625 80.7344C6.89062 80.4271 6.33854 80.2734 5.75 80.2734C5.15104 80.2734 4.58073 80.4271 4.03906 80.7344C3.5026 81.0365 3.08854 81.4453 2.79688 81.9609C2.51042 82.4766 2.36719 83.0573 2.36719 83.7031C2.36719 84.6875 2.6901 85.5104 3.33594 86.1719C3.98698 86.8333 4.78646 87.1641 5.73438 87.1641ZM20.6797 79.5V88H19.6016V86.5391C19.1432 87.0964 18.6276 87.5156 18.0547 87.7969C17.487 88.0781 16.8646 88.2188 16.1875 88.2188C14.9844 88.2188 13.9557 87.7839 13.1016 86.9141C12.2526 86.0391 11.8281 84.9766 11.8281 83.7266C11.8281 82.5026 12.2578 81.4557 13.1172 80.5859C13.9766 79.7161 15.0104 79.2812 16.2188 79.2812C16.9167 79.2812 17.5469 79.4297 18.1094 79.7266C18.6771 80.0234 19.1745 80.4688 19.6016 81.0625V79.5H20.6797ZM16.3047 80.3359C15.6953 80.3359 15.1328 80.487 14.6172 80.7891C14.1016 81.0859 13.6901 81.5052 13.3828 82.0469C13.0807 82.5885 12.9297 83.1615 12.9297 83.7656C12.9297 84.3646 13.0833 84.9375 13.3906 85.4844C13.6979 86.0312 14.1094 86.4583 14.625 86.7656C15.1458 87.0677 15.7031 87.2188 16.2969 87.2188C16.8958 87.2188 17.4635 87.0677 18 86.7656C18.5365 86.4635 18.9479 86.0547 19.2344 85.5391C19.526 85.0234 19.6719 84.4427 19.6719 83.7969C19.6719 82.8125 19.3464 81.9896 18.6953 81.3281C18.0495 80.6667 17.2526 80.3359 16.3047 80.3359ZM31.3984 81.2656L30.5312 81.8047C29.7812 80.8099 28.7578 80.3125 27.4609 80.3125C26.4245 80.3125 25.5625 80.6458 24.875 81.3125C24.1927 81.9792 23.8516 82.7891 23.8516 83.7422C23.8516 84.362 24.0078 84.9453 24.3203 85.4922C24.638 86.0391 25.0703 86.4635 25.6172 86.7656C26.1693 87.0677 26.7865 87.2188 27.4688 87.2188C28.7188 87.2188 29.7396 86.7214 30.5312 85.7266L31.3984 86.2969C30.9922 86.9062 30.4453 87.3802 29.7578 87.7188C29.0755 88.0521 28.2969 88.2188 27.4219 88.2188C26.0781 88.2188 24.9635 87.7917 24.0781 86.9375C23.1927 86.0833 22.75 85.0443 22.75 83.8203C22.75 82.9974 22.9557 82.2344 23.3672 81.5312C23.7839 80.8229 24.3542 80.2708 25.0781 79.875C25.8021 79.4792 26.612 79.2812 27.5078 79.2812C28.0703 79.2812 28.612 79.3672 29.1328 79.5391C29.6589 79.7109 30.1042 79.9349 30.4688 80.2109C30.8333 80.487 31.1432 80.8385 31.3984 81.2656ZM33.5 76.2188H34.6016V82.9219L38.5312 79.5H40.1406L35.4766 83.5547L40.4141 88H38.8672L34.6016 84.1797V88H33.5V76.2188ZM46.9297 76.3438H48.0312V79.5H49.7656V80.4375H48.0312V88H46.9297V80.4375H45.4375V79.5H46.9297V76.3438ZM55.4219 79.2812C56.7292 79.2812 57.8125 79.7552 58.6719 80.7031C59.4531 81.5677 59.8438 82.5911 59.8438 83.7734C59.8438 84.9609 59.4297 86 58.6016 86.8906C57.7786 87.776 56.7188 88.2188 55.4219 88.2188C54.1198 88.2188 53.0547 87.776 52.2266 86.8906C51.4036 86 50.9922 84.9609 50.9922 83.7734C50.9922 82.5964 51.3828 81.5755 52.1641 80.7109C53.0234 79.7578 54.1094 79.2812 55.4219 79.2812ZM55.4219 80.3516C54.5156 80.3516 53.737 80.6875 53.0859 81.3594C52.4349 82.0312 52.1094 82.8438 52.1094 83.7969C52.1094 84.4115 52.2578 84.9844 52.5547 85.5156C52.8516 86.0469 53.2526 86.4583 53.7578 86.75C54.263 87.0365 54.8177 87.1797 55.4219 87.1797C56.026 87.1797 56.5807 87.0365 57.0859 86.75C57.5911 86.4583 57.9922 86.0469 58.2891 85.5156C58.5859 84.9844 58.7344 84.4115 58.7344 83.7969C58.7344 82.8438 58.4062 82.0312 57.75 81.3594C57.099 80.6875 56.3229 80.3516 55.4219 80.3516ZM67.2734 76.3438H68.375V79.5H70.1094V80.4375H68.375V88H67.2734V80.4375H65.7812V79.5H67.2734V76.3438ZM75.7656 79.2812C77.0729 79.2812 78.1562 79.7552 79.0156 80.7031C79.7969 81.5677 80.1875 82.5911 80.1875 83.7734C80.1875 84.9609 79.7734 86 78.9453 86.8906C78.1224 87.776 77.0625 88.2188 75.7656 88.2188C74.4635 88.2188 73.3984 87.776 72.5703 86.8906C71.7474 86 71.3359 84.9609 71.3359 83.7734C71.3359 82.5964 71.7266 81.5755 72.5078 80.7109C73.3672 79.7578 74.4531 79.2812 75.7656 79.2812ZM75.7656 80.3516C74.8594 80.3516 74.0807 80.6875 73.4297 81.3594C72.7786 82.0312 72.4531 82.8438 72.4531 83.7969C72.4531 84.4115 72.6016 84.9844 72.8984 85.5156C73.1953 86.0469 73.5964 86.4583 74.1016 86.75C74.6068 87.0365 75.1615 87.1797 75.7656 87.1797C76.3698 87.1797 76.9245 87.0365 77.4297 86.75C77.9349 86.4583 78.3359 86.0469 78.6328 85.5156C78.9297 84.9844 79.0781 84.4115 79.0781 83.7969C79.0781 82.8438 78.75 82.0312 78.0938 81.3594C77.4427 80.6875 76.6667 80.3516 75.7656 80.3516ZM82.2422 79.5H83.3281V81.0625C83.7604 80.4688 84.2578 80.0234 84.8203 79.7266C85.3828 79.4297 86.0104 79.2812 86.7031 79.2812C87.9115 79.2812 88.9453 79.7161 89.8047 80.5859C90.6641 81.4557 91.0938 82.5026 91.0938 83.7266C91.0938 84.9766 90.6667 86.0391 89.8125 86.9141C88.9635 87.7839 87.9375 88.2188 86.7344 88.2188C86.0573 88.2188 85.4349 88.0781 84.8672 87.7969C84.2995 87.5156 83.7865 87.0964 83.3281 86.5391V91.1094H82.2422V79.5ZM86.6172 80.3359C85.6693 80.3359 84.8698 80.6667 84.2188 81.3281C83.5729 81.9896 83.25 82.8125 83.25 83.7969C83.25 84.4427 83.3932 85.0234 83.6797 85.5391C83.9714 86.0547 84.3854 86.4635 84.9219 86.7656C85.4635 87.0677 86.0339 87.2188 86.6328 87.2188C87.2214 87.2188 87.7734 87.0677 88.2891 86.7656C88.8099 86.4583 89.224 86.0312 89.5312 85.4844C89.8385 84.9375 89.9922 84.3646 89.9922 83.7656C89.9922 83.1615 89.8385 82.5885 89.5312 82.0469C89.2292 81.5052 88.8203 81.0859 88.3047 80.7891C87.7891 80.487 87.2266 80.3359 86.6172 80.3359Z" fill="black"/>
<circle cx="46" cy="30" r="29" stroke="black" stroke-width="2"/>
<line x1="46.1429" y1="17.1428" x2="46.1429" y2="59.1428" stroke="black" stroke-width="2"/>
<path d="M27.1429 36L46 17.1428L64.8571 36" stroke="black" stroke-width="2"/>
</svg>
