<svg width="444" height="100" viewBox="0 0 444 100" fill="none" xmlns="http://www.w3.org/2000/svg">
<g clip-path="url(#clip0)">
<g clip-path="url(#clip1)">
<path d="M401.597 84.0564C402.925 84.0564 404 83.1618 404 82.0504V72.0091C404 70.8988 402.925 70 401.597 70C400.275 70 399.2 70.8988 399.2 72.0091V82.0504C399.2 83.1576 400.275 84.0564 401.597 84.0564Z" fill="black"/>
<path d="M394.402 84.1018C395.726 84.1018 396.8 83.203 396.8 82.0916V62.0102C396.8 60.8999 395.726 60 394.402 60C393.075 60 392 60.8999 392 62.0102V82.0916C392 83.203 393.075 84.1018 394.402 84.1018Z" fill="black"/>
<path d="M387.199 84.0567C388.526 84.0567 389.6 83.1588 389.6 82.0527V67.007C389.6 65.8979 388.526 65 387.199 65C385.873 65 384.8 65.8979 384.8 67.007V82.0527C384.8 83.1588 385.873 84.0567 387.199 84.0567Z" fill="black"/>
<path d="M379.998 84.1141C381.326 84.1141 382.4 83.2155 382.4 82.1056V57.0096C382.4 55.8997 381.326 55 379.998 55C378.676 55 377.6 55.8997 377.6 57.0096V82.1054C377.6 83.2154 378.676 84.1141 379.998 84.1141Z" fill="black"/>
<path d="M372.797 84.1525C374.126 84.1525 375.2 83.2528 375.2 82.1429V47.0096C375.2 45.8987 374.126 45 372.797 45C371.475 45 370.4 45.8986 370.4 47.0096V82.143C370.4 83.2528 371.476 84.1525 372.797 84.1525Z" fill="black"/>
<path d="M365.602 84.0955C366.926 84.0955 368 83.1969 368 82.0858V62.0097C368 60.8997 366.926 60 365.602 60C364.276 60 363.2 60.8997 363.2 62.0097V82.0858C363.2 83.1969 364.276 84.0955 365.602 84.0955Z" fill="black"/>
<path d="M358.4 84.0245C359.727 84.0245 360.8 83.1258 360.8 82.0211V77.0076C360.8 75.8978 359.727 75 358.4 75C357.074 75 356 75.8976 356 77.0076V82.0211C356 83.1258 357.074 84.0245 358.4 84.0245Z" fill="black"/>
</g>
<line x1="8" y1="75.5" x2="284" y2="75.5" stroke="black"/>
<circle cx="54" cy="76" r="6.5" transform="rotate(-90 54 76)" fill="white" stroke="black" stroke-width="3"/>
<circle cx="100" cy="76" r="6.5" transform="rotate(-90 100 76)" fill="white" stroke="black" stroke-width="3"/>
<circle cx="8" cy="76" r="6.5" transform="rotate(-90 8 76)" fill="white" stroke="black" stroke-width="3"/>
<circle cx="192" cy="76" r="8" transform="rotate(-90 192 76)" fill="black"/>
<circle cx="146" cy="76" r="8" transform="rotate(-90 146 76)" fill="black"/>
<circle cx="238" cy="76" r="6.5" transform="rotate(-90 238 76)" fill="white" stroke="black" stroke-width="3"/>
<circle cx="284" cy="76" r="6.5" transform="rotate(-90 284 76)" fill="white" stroke="black" stroke-width="3"/>
<g filter="url(#filter0_d)">
<circle cx="146" cy="76" r="20" transform="rotate(-90 146 76)" fill="white"/>
</g>
<circle cx="146" cy="76" r="5" transform="rotate(-90 146 76)" fill="#FF8900"/>
</g>
<defs>
<filter id="filter0_d" x="116" y="46" width="60" height="60" filterUnits="userSpaceOnUse" color-interpolation-filters="sRGB">
<feFlood flood-opacity="0" result="BackgroundImageFix"/>
<feColorMatrix in="SourceAlpha" type="matrix" values="0 0 0 0 0 0 0 0 0 0 0 0 0 0 0 0 0 0 127 0"/>
<feOffset/>
<feGaussianBlur stdDeviation="5"/>
<feColorMatrix type="matrix" values="0 0 0 0 0 0 0 0 0 0 0 0 0 0 0 0 0 0 0.15 0"/>
<feBlend mode="normal" in2="BackgroundImageFix" result="effect1_dropShadow"/>
<feBlend mode="normal" in="SourceGraphic" in2="effect1_dropShadow" result="shape"/>
</filter>
<clipPath id="clip0">
<rect width="444" height="100" fill="white"/>
</clipPath>
<clipPath id="clip1">
<rect width="48" height="39.1525" fill="white" transform="translate(356 45)"/>
</clipPath>
</defs>
</svg>
