<svg xmlns="http://www.w3.org/2000/svg" viewBox="0 0 2400 2400"><defs><style>.cls-1{fill:#fff;}</style></defs><title>Asset 1</title><g id="Layer_2" data-name="Layer 2"><g id="_1" data-name="1"><path class="cls-1" d="M1250,2400H250C112.16,2400,0,2287.84,0,2150V250C0,112.16,112.16,0,250,0H1250c137.84,0,250,112.16,250,250V2150C1500,2287.84,1387.84,2400,1250,2400ZM250,100c-82.71,0-150,67.29-150,150V2150c0,82.71,67.29,150,150,150H1250c82.71,0,150-67.29,150-150V250c0-82.71-67.29-150-150-150Z"/><path class="cls-1" d="M2150,2400H1650a50,50,0,0,1,0-100h500c82.71,0,150-67.29,150-150V1150c0-82.71-67.29-150-150-150H1650a50,50,0,0,1,0-100h500c137.84,0,250,112.16,250,250V2150C2400,2287.84,2287.84,2400,2150,2400Z"/><path class="cls-1" d="M1700,300a50,50,0,0,0,20,40l200,150a50,50,0,1,0,60-80L1833.36,300,1980,190a50,50,0,1,0-60-80L1720,260A50,50,0,0,0,1700,300Z"/><path class="cls-1" d="M1725,300a50,50,0,0,0,50,50h125c165.43,0,300,134.57,300,300a50,50,0,1,0,100,0c0-220.56-179.44-400-400-400H1775A50,50,0,0,0,1725,300Z"/><path class="cls-1" d="M950,300H550c-82.71,0-150-67.29-150-150a50,50,0,0,0-50-50H250A50,50,0,0,1,250,0H350c82.71,0,150,67.29,150,150a50,50,0,0,0,50,50H950a50,50,0,0,0,50-50c0-82.71,67.29-150,150-150h100a50,50,0,0,1,0,100H1150a50,50,0,0,0-50,50C1100,232.71,1032.71,300,950,300Z"/><path class="cls-1" d="M2350,2200a50,50,0,0,1-50-50V2050a50,50,0,0,0-50-50c-82.71,0-150-67.29-150-150V1450c0-82.71,67.29-150,150-150a50,50,0,0,0,50-50V1150a50,50,0,0,1,100,0v100c0,82.71-67.29,150-150,150a50,50,0,0,0-50,50v400a50,50,0,0,0,50,50c82.71,0,150,67.29,150,150v100A50,50,0,0,1,2350,2200Z"/></g></g></svg>