<svg width="39" height="94" viewBox="0 0 39 94" fill="none" xmlns="http://www.w3.org/2000/svg">
<path d="M5.85156 80.4297L5.14844 81.1562C4.5651 80.5885 3.99479 80.3047 3.4375 80.3047C3.08333 80.3047 2.77865 80.4219 2.52344 80.6562C2.27344 80.8906 2.14844 81.1641 2.14844 81.4766C2.14844 81.7526 2.2526 82.0156 2.46094 82.2656C2.66927 82.5208 3.10677 82.8203 3.77344 83.1641C4.58594 83.5859 5.13802 83.9922 5.42969 84.3828C5.71615 84.7786 5.85938 85.224 5.85938 85.7188C5.85938 86.4167 5.61458 87.0078 5.125 87.4922C4.63542 87.9766 4.02344 88.2188 3.28906 88.2188C2.79948 88.2188 2.33073 88.112 1.88281 87.8984C1.4401 87.6849 1.07292 87.3906 0.78125 87.0156L1.46875 86.2344C2.02604 86.8646 2.61719 87.1797 3.24219 87.1797C3.67969 87.1797 4.05208 87.0391 4.35938 86.7578C4.66667 86.4766 4.82031 86.1458 4.82031 85.7656C4.82031 85.4531 4.71875 85.1745 4.51562 84.9297C4.3125 84.6901 3.85417 84.388 3.14062 84.0234C2.375 83.6276 1.85417 83.237 1.57812 82.8516C1.30208 82.4661 1.16406 82.026 1.16406 81.5312C1.16406 80.8854 1.38281 80.349 1.82031 79.9219C2.26302 79.4948 2.82031 79.2812 3.49219 79.2812C4.27344 79.2812 5.0599 79.6641 5.85156 80.4297ZM16.0469 81.2656L15.1797 81.8047C14.4297 80.8099 13.4062 80.3125 12.1094 80.3125C11.0729 80.3125 10.2109 80.6458 9.52344 81.3125C8.84115 81.9792 8.5 82.7891 8.5 83.7422C8.5 84.362 8.65625 84.9453 8.96875 85.4922C9.28646 86.0391 9.71875 86.4635 10.2656 86.7656C10.8177 87.0677 11.4349 87.2188 12.1172 87.2188C13.3672 87.2188 14.388 86.7214 15.1797 85.7266L16.0469 86.2969C15.6406 86.9062 15.0938 87.3802 14.4062 87.7188C13.724 88.0521 12.9453 88.2188 12.0703 88.2188C10.7266 88.2188 9.61198 87.7917 8.72656 86.9375C7.84115 86.0833 7.39844 85.0443 7.39844 83.8203C7.39844 82.9974 7.60417 82.2344 8.01562 81.5312C8.43229 80.8229 9.0026 80.2708 9.72656 79.875C10.4505 79.4792 11.2604 79.2812 12.1562 79.2812C12.7188 79.2812 13.2604 79.3672 13.7812 79.5391C14.3073 79.7109 14.7526 79.9349 15.1172 80.2109C15.4818 80.487 15.7917 80.8385 16.0469 81.2656ZM17.7422 79.5H18.8594V80.7422C19.1927 80.2526 19.5443 79.888 19.9141 79.6484C20.2839 79.4036 20.6693 79.2812 21.0703 79.2812C21.3724 79.2812 21.6953 79.3776 22.0391 79.5703L21.4688 80.4922C21.2396 80.3932 21.0469 80.3438 20.8906 80.3438C20.526 80.3438 20.1745 80.4948 19.8359 80.7969C19.4974 81.0938 19.2396 81.5573 19.0625 82.1875C18.9271 82.6719 18.8594 83.651 18.8594 85.125V88H17.7422V79.5ZM26.9922 79.2812C28.2995 79.2812 29.3828 79.7552 30.2422 80.7031C31.0234 81.5677 31.4141 82.5911 31.4141 83.7734C31.4141 84.9609 31 86 30.1719 86.8906C29.349 87.776 28.2891 88.2188 26.9922 88.2188C25.6901 88.2188 24.625 87.776 23.7969 86.8906C22.974 86 22.5625 84.9609 22.5625 83.7734C22.5625 82.5964 22.9531 81.5755 23.7344 80.7109C24.5938 79.7578 25.6797 79.2812 26.9922 79.2812ZM26.9922 80.3516C26.0859 80.3516 25.3073 80.6875 24.6562 81.3594C24.0052 82.0312 23.6797 82.8438 23.6797 83.7969C23.6797 84.4115 23.8281 84.9844 24.125 85.5156C24.4219 86.0469 24.8229 86.4583 25.3281 86.75C25.8333 87.0365 26.388 87.1797 26.9922 87.1797C27.5964 87.1797 28.151 87.0365 28.6562 86.75C29.1615 86.4583 29.5625 86.0469 29.8594 85.5156C30.1562 84.9844 30.3047 84.4115 30.3047 83.7969C30.3047 82.8438 29.9766 82.0312 29.3203 81.3594C28.6693 80.6875 27.8932 80.3516 26.9922 80.3516ZM33.2891 76.2188H34.3828V88H33.2891V76.2188ZM36.4922 76.2188H37.5859V88H36.4922V76.2188Z" fill="black"/>
<line x1="18.5" y1="60" x2="18.5" y2="2.18557e-08" stroke="black"/>
<path fill-rule="evenodd" clip-rule="evenodd" d="M18.5 18C17.1193 18 16 16.8807 16 15.5L16 2.5C16 1.11929 17.1193 -1.69631e-07 18.5 -1.09278e-07C19.8807 -4.89256e-08 21 1.11929 21 2.5L21 15.5C21 16.8807 19.8807 18 18.5 18Z" fill="black"/>
</svg>
