<svg width="48" height="40" viewBox="0 0 48 40" fill="none" xmlns="http://www.w3.org/2000/svg">
<g clip-path="url(#clip0)">
<path d="M45.5969 39.0564C46.9255 39.0564 48 38.1618 48 37.0504V27.0091C48 25.8988 46.9255 25 45.5969 25C44.2745 25 43.2 25.8988 43.2 27.0091V37.0504C43.2 38.1576 44.2745 39.0564 45.5969 39.0564Z" fill="black"/>
<path d="M38.4019 39.1018C39.7255 39.1018 40.8 38.203 40.8 37.0916V17.0102C40.8 15.8999 39.7255 15 38.4019 15C37.0746 15 36 15.8999 36 17.0102V37.0916C36 38.203 37.0746 39.1018 38.4019 39.1018Z" fill="black"/>
<path d="M31.1993 39.0567C32.5264 39.0567 33.6 38.1588 33.6 37.0527V22.007C33.6 20.8979 32.5264 20 31.1993 20C29.8734 20 28.8 20.8979 28.8 22.007V37.0527C28.8 38.1588 29.8734 39.0567 31.1993 39.0567Z" fill="black"/>
<path d="M23.9975 39.1141C25.3258 39.1141 26.4 38.2155 26.4 37.1056V12.0096C26.4 10.8997 25.3258 10 23.9975 10C22.6755 10 21.6 10.8997 21.6 12.0096V37.1054C21.6 38.2154 22.6755 39.1141 23.9975 39.1141Z" fill="black"/>
<path d="M16.7975 39.1525C18.1257 39.1525 19.2 38.2528 19.2 37.1429V2.00965C19.2 0.898721 18.1257 0 16.7975 0C15.4755 0 14.4 0.89856 14.4 2.00965V37.143C14.4 38.2528 15.4756 39.1525 16.7975 39.1525Z" fill="black"/>
<path d="M9.6025 39.0955C10.9258 39.0955 12 38.1969 12 37.0858V17.0097C12 15.8997 10.9258 15 9.6025 15C8.2755 15 7.2 15.8997 7.2 17.0097V37.0858C7.2 38.1969 8.2755 39.0955 9.6025 39.0955Z" fill="black"/>
<path d="M2.40005 39.0245C3.72679 39.0245 4.80005 38.1258 4.80005 37.0211V32.0076C4.80005 30.8978 3.72695 30 2.40005 30C1.07444 30 4.86374e-05 30.8976 4.86374e-05 32.0076V37.0211C4.86374e-05 38.1258 1.07444 39.0245 2.40005 39.0245Z" fill="black"/>
</g>
<defs>
<clipPath id="clip0">
<rect width="48" height="39.1525" fill="white"/>
</clipPath>
</defs>
</svg>
