<svg width="41" height="40" viewBox="0 0 41 40" fill="none" xmlns="http://www.w3.org/2000/svg">
<path d="M20.1271 0C9.01205 0 0 8.95108 0 20C0 31.0442 9.01205 40 20.1271 40C31.2445 40 40.2554 31.0442 40.2554 20C40.2554 8.95108 31.2445 0 20.1271 0ZM20.1271 37.9998C10.1233 37.9998 2.01188 29.9389 2.01188 20C2.01188 10.0564 10.1233 2.00024 20.1271 2.00024C30.1333 2.00024 38.2423 10.0564 38.2423 20C38.2435 29.94 30.1333 37.9998 20.1271 37.9998Z" fill="black"/>
<path d="M26.9143 25.2494H26.9072C26.8527 26.2865 25.8148 27.2954 24.3604 27.6835C23.9758 27.787 23.5852 27.834 23.2065 27.834C21.9295 27.834 20.9544 27.2602 20.7141 26.3818C20.5567 25.795 20.7414 25.16 21.2431 24.5944C21.7106 24.0628 22.41 23.6536 23.2136 23.4408C23.5982 23.3397 23.9888 23.2844 24.3675 23.2844C24.8136 23.2844 25.2326 23.3585 25.5959 23.4949V13.0374L17.5981 15.1729V27.3143H17.5922C17.5377 28.3455 16.4998 29.3545 15.0442 29.7437C14.6595 29.846 14.269 29.9013 13.8903 29.9013C12.6133 29.9013 11.6382 29.3274 11.3991 28.442C11.0831 27.2743 12.2086 25.9584 13.8986 25.501C14.2832 25.3999 14.6738 25.3505 15.0525 25.3505C15.4986 25.3505 15.9176 25.4187 16.288 25.5551V14.0064C16.288 13.2021 16.8987 12.4107 17.6821 12.199L25.3782 10.1459C25.5012 10.1188 25.6255 10.0977 25.7486 10.0977C26.4291 10.0977 26.9167 10.6092 26.9167 11.3194V25.2494H26.9143Z" fill="black"/>
</svg>
