<svg width="41" height="40" viewBox="0 0 41 40" fill="none" xmlns="http://www.w3.org/2000/svg">
<path d="M20.1283 0C9.01205 0 0 8.95108 0 20C0 31.0442 9.01205 40 20.1271 40C31.2446 40 40.2554 31.0442 40.2554 20C40.2566 8.95108 31.2457 0 20.1283 0ZM20.1283 37.9998C10.1245 37.9998 2.01306 29.9389 2.01306 20C2.01306 10.0564 10.1245 2.00024 20.1283 2.00024C30.1333 2.00024 38.2435 10.0564 38.2435 20C38.2435 29.9389 30.1333 37.9998 20.1283 37.9998Z" fill="black"/>
<path d="M20.6266 27.4247C18.4987 27.4247 16.6347 26.0394 15.5755 23.9592H12.5684C11.792 23.9592 11.1624 23.3337 11.1624 22.5623V17.4376C11.1624 16.6662 11.792 16.0406 12.5684 16.0406H15.5767C16.6359 13.9604 18.4999 12.5752 20.6278 12.5752V27.4247H20.6266Z" fill="black"/>
<path d="M27.1048 20.2626L28.4267 21.5761C28.5723 21.7207 28.5723 21.9547 28.4267 22.1005L27.7214 22.8014C27.5758 22.946 27.3403 22.946 27.1935 22.8014L25.8716 21.4867C25.7261 21.3421 25.4894 21.3421 25.3438 21.4867L24.0207 22.8014C23.8763 22.946 23.6396 22.946 23.494 22.8014L22.7887 22.1005C22.6431 21.9559 22.6431 21.7207 22.7887 21.5761L24.1106 20.2626C24.2562 20.1179 24.2562 19.8827 24.1106 19.7381L22.7887 18.4234C22.6431 18.2788 22.6419 18.046 22.7887 17.9001L23.4929 17.2005C23.6396 17.0547 23.8751 17.0558 24.0207 17.1993L25.3438 18.514C25.4894 18.6586 25.7261 18.6586 25.8704 18.514L27.1935 17.1993C27.3379 17.0547 27.5758 17.0547 27.7214 17.1993L28.4267 17.9001C28.5723 18.0448 28.5711 18.28 28.4267 18.4234L27.1036 19.7381C26.9592 19.8827 26.9592 20.1179 27.1048 20.2626Z" fill="black"/>
</svg>
