<svg width="192" height="24" viewBox="0 0 192 24" fill="none" xmlns="http://www.w3.org/2000/svg">
<path d="M115.565 19.3788H107.212L111.889 13.0096L116.934 6.14489C117.524 5.33802 117.353 4.20714 116.546 3.6131C116.245 3.39391 115.899 3.28273 115.553 3.26685H103.723C102.789 3.26685 102.037 4.02289 102.037 4.95365C102.037 5.88441 102.792 6.64045 103.723 6.64045H112.076L107.399 13.0128L102.351 19.8807C101.76 20.6876 101.932 21.8185 102.738 22.4125C103.04 22.6349 103.386 22.7429 103.732 22.7588H115.565C116.496 22.7588 117.251 22.0028 117.251 21.072C117.251 20.1349 116.496 19.3788 115.565 19.3788Z" fill="white"/>
<path d="M190.314 19.382H182.901V4.82339C182.901 3.82274 182.091 3.0127 181.091 3.0127C180.091 3.0127 179.281 3.82274 179.281 4.82339V20.9481C179.281 20.9703 179.287 20.9894 179.287 21.0084C179.287 21.0307 179.281 21.0497 179.281 21.0688C179.281 21.9996 180.037 22.7556 180.97 22.7556H190.314C191.248 22.7556 192 21.9996 192 21.0688C192 20.138 191.244 19.382 190.314 19.382Z" fill="white"/>
<path d="M173.302 19.3788H165.768V14.4741H170.778C171.709 14.4741 172.464 13.718 172.464 12.7873C172.464 11.8533 171.709 11.1005 170.778 11.1005H165.768V6.64363H173.302C174.233 6.64363 174.988 5.88758 174.988 4.95682C174.988 4.02606 174.233 3.27002 173.302 3.27002H163.838C162.908 3.27002 162.152 4.02606 162.152 4.95682V21.0688C162.152 22.0028 162.908 22.7556 163.838 22.7556H173.302C174.233 22.7556 174.988 21.9996 174.988 21.0688C174.992 20.1349 174.236 19.3788 173.302 19.3788Z" fill="white"/>
<path d="M152.005 14.2676L149.642 17.0789L154.084 22.3649C154.443 22.7905 154.954 23.0097 155.469 23.0097C155.878 23.0097 156.294 22.87 156.631 22.5841C157.396 21.9392 157.494 20.7988 156.853 20.0332L152.005 14.2676Z" fill="white"/>
<path d="M156.853 5.97653C157.494 5.21095 157.396 4.07053 156.634 3.42567C156.294 3.13977 155.881 3 155.472 3C154.957 3 154.443 3.21919 154.087 3.64486L149.646 8.93081L152.008 11.7422L156.853 5.97653Z" fill="white"/>
<path d="M144.388 5.20778C144.382 5.20142 144.378 5.19189 144.372 5.18236L143.08 3.64486C142.721 3.21919 142.21 3 141.696 3C141.286 3 140.87 3.13977 140.533 3.42567C139.768 4.06736 139.67 5.21095 140.311 5.97653L146.22 13.0065L140.311 20.0364C139.67 20.802 139.768 21.9424 140.533 22.5873C140.873 22.8732 141.286 23.0129 141.696 23.0129C142.21 23.0129 142.724 22.7937 143.08 22.3681L144.372 20.8306C144.378 20.821 144.382 20.8147 144.388 20.8051L150.941 13.0065L144.388 5.20778Z" fill="white"/>
<path d="M136.133 3.31145C135.304 2.75236 134.18 2.97472 133.621 3.80383L130.307 8.73717L128.497 11.431L126.687 8.73717L123.373 3.80383C122.817 2.97472 121.693 2.75236 120.861 3.31145C120.032 3.87054 119.81 4.99508 120.369 5.82418L126.687 15.2271V19.9412V21.2087C126.687 22.2094 127.497 23.0194 128.497 23.0194C129.497 23.0194 130.307 22.2094 130.307 21.2087V19.9412V15.2239L136.625 5.82101C137.181 4.9919 136.962 3.86736 136.133 3.31145Z" fill="white"/>
<path d="M21.1582 12.6504C21.1582 14.5189 20.6888 16.2643 19.75 17.8867C18.8203 19.5 17.5443 20.776 15.9219 21.7148C14.2995 22.6445 12.554 23.1094 10.6855 23.1094C8.81706 23.1094 7.07161 22.6445 5.44922 21.7148C3.82682 20.776 2.54622 19.5 1.60742 17.8867C0.677734 16.2643 0.212891 14.5189 0.212891 12.6504C0.212891 10.791 0.677734 9.05469 1.60742 7.44141C2.54622 5.82812 3.82227 4.55664 5.43555 3.62695C7.05794 2.68815 8.80794 2.21875 10.6855 2.21875C12.5632 2.21875 14.3086 2.68815 15.9219 3.62695C17.5443 4.55664 18.8203 5.82812 19.75 7.44141C20.6888 9.05469 21.1582 10.791 21.1582 12.6504ZM18.998 12.6914C18.998 10.3854 18.1868 8.42578 16.5645 6.8125C14.9512 5.1901 12.9961 4.37891 10.6992 4.37891C9.20443 4.37891 7.8099 4.74805 6.51562 5.48633C5.23047 6.22461 4.21875 7.23633 3.48047 8.52148C2.74219 9.79753 2.37305 11.1693 2.37305 12.6367C2.37305 14.1042 2.74219 15.4759 3.48047 16.752C4.21875 18.0189 5.23047 19.0215 6.51562 19.7598C7.8099 20.498 9.19531 20.8672 10.6719 20.8672C12.1576 20.8672 13.5475 20.498 14.8418 19.7598C16.1361 19.0215 17.1523 18.0234 17.8906 16.7656C18.6289 15.4987 18.998 14.1406 18.998 12.6914ZM13.7207 14.5781H16.127C15.972 15.7721 15.4342 16.7565 14.5137 17.5312C13.5931 18.306 12.4629 18.6934 11.123 18.6934C9.40951 18.6934 8.0013 18.1191 6.89844 16.9707C5.80469 15.8132 5.25781 14.3138 5.25781 12.4727C5.25781 10.6862 5.80013 9.23698 6.88477 8.125C7.9694 7.01302 9.35482 6.45703 11.041 6.45703C12.3991 6.45703 13.5156 6.79883 14.3906 7.48242C15.2656 8.16602 15.8444 9.15951 16.127 10.4629H13.7207C13.5658 9.78841 13.2559 9.26888 12.791 8.9043C12.3262 8.53971 11.752 8.35742 11.0684 8.35742C10.0566 8.35742 9.22266 8.72656 8.56641 9.46484C7.91016 10.194 7.58203 11.1875 7.58203 12.4453C7.58203 13.7396 7.92839 14.7878 8.62109 15.5898C9.32292 16.3828 10.1569 16.7793 11.123 16.7793C11.8066 16.7793 12.39 16.5742 12.873 16.1641C13.3561 15.7539 13.6387 15.2253 13.7207 14.5781ZM33.7773 9.36914H30.0449C30.1452 7.19987 30.8242 5.49544 32.082 4.25586C33.349 3.00716 34.9714 2.38281 36.9492 2.38281C38.1706 2.38281 39.2461 2.64258 40.1758 3.16211C41.1146 3.67253 41.862 4.41536 42.418 5.39062C42.9831 6.35677 43.2656 7.34115 43.2656 8.34375C43.2656 9.53776 42.9238 10.8229 42.2402 12.1992C41.5658 13.5755 40.3262 15.2025 38.5215 17.0801L36.2656 19.459H43.4297V23H29.498V21.168L35.7188 14.8242C37.2227 13.3021 38.2207 12.0807 38.7129 11.1602C39.2142 10.2305 39.4648 9.39193 39.4648 8.64453C39.4648 7.86979 39.2051 7.23177 38.6855 6.73047C38.1751 6.22005 37.5143 5.96484 36.7031 5.96484C35.8828 5.96484 35.1992 6.27018 34.6523 6.88086C34.1055 7.49154 33.8138 8.32096 33.7773 9.36914ZM52.3711 2.38281C53.8385 2.38281 55.1009 2.74284 56.1582 3.46289C57.2246 4.18294 58.0449 5.28581 58.6191 6.77148C59.2025 8.24805 59.4941 10.3079 59.4941 12.9512C59.4941 15.6217 59.1979 17.6999 58.6055 19.1855C58.0221 20.6712 57.2337 21.765 56.2402 22.4668C55.2467 23.1595 53.9935 23.5059 52.4805 23.5059C50.9674 23.5059 49.696 23.1549 48.666 22.4531C47.6361 21.7513 46.8294 20.6849 46.2461 19.2539C45.6628 17.8229 45.3711 15.7858 45.3711 13.1426C45.3711 9.45117 45.9408 6.77604 47.0801 5.11719C48.347 3.29427 50.1107 2.38281 52.3711 2.38281ZM52.4668 6.01953C51.8197 6.01953 51.2454 6.22917 50.7441 6.64844C50.2428 7.05859 49.86 7.76953 49.5957 8.78125C49.3314 9.79297 49.1992 11.2741 49.1992 13.2246C49.1992 15.7676 49.5 17.5267 50.1016 18.502C50.7122 19.4681 51.5007 19.9512 52.4668 19.9512C53.3965 19.9512 54.1348 19.4909 54.6816 18.5703C55.347 17.4583 55.6797 15.599 55.6797 12.9922C55.6797 10.349 55.3789 8.52604 54.7773 7.52344C54.1849 6.52083 53.4147 6.01953 52.4668 6.01953ZM64.8945 2.88867H70.623V23H66.8223V6.48438H62.6797L64.8945 2.88867ZM83.543 23.5059L80.2891 21.8926L83.8027 15.0566C82.0983 15.0566 80.6491 14.446 79.4551 13.2246C78.2611 12.0033 77.6641 10.4857 77.6641 8.67188C77.6641 6.91276 78.2747 5.42708 79.4961 4.21484C80.7266 2.99349 82.2077 2.38281 83.9395 2.38281C85.7533 2.38281 87.2617 3.01628 88.4648 4.2832C89.6771 5.54102 90.2832 6.99023 90.2832 8.63086C90.2832 9.25065 90.1875 9.875 89.9961 10.5039C89.8138 11.1237 89.3854 12.0853 88.7109 13.3887L83.543 23.5059ZM84.0215 11.4336C84.7324 11.4336 85.3294 11.1738 85.8125 10.6543C86.2956 10.1348 86.5371 9.49219 86.5371 8.72656C86.5371 7.94271 86.2819 7.28646 85.7715 6.75781C85.2702 6.22917 84.6823 5.96484 84.0078 5.96484C83.2969 5.96484 82.6862 6.22917 82.1758 6.75781C81.6654 7.27734 81.4102 7.92904 81.4102 8.71289C81.4102 9.48763 81.6562 10.1348 82.1484 10.6543C82.6497 11.1738 83.2741 11.4336 84.0215 11.4336Z" fill="white"/>
</svg>
