<svg version="1.1" id="el_-L2JAu_ss" xmlns="http://www.w3.org/2000/svg" xmlns:xlink="http://www.w3.org/1999/xlink" x="0px" y="0px" viewBox="0 0 1790 724" style="enable-background:new 0 0 1790 724;" xml:space="preserve"><style>@-webkit-keyframes kf_el_47rkVuxojV_an_D_Hzow4G0{0%{opacity: 1;}31.25%{opacity: 0;}50%{opacity: 1;}68.75%{opacity: 0;}87.50%{opacity: 1;}100%{opacity: 1;}}@keyframes kf_el_47rkVuxojV_an_D_Hzow4G0{0%{opacity: 1;}31.25%{opacity: 0;}50%{opacity: 1;}68.75%{opacity: 0;}87.50%{opacity: 1;}100%{opacity: 1;}}@-webkit-keyframes kf_el_ZHX-0cuoNY_an_hB7UjxJQy{0%{opacity: 0;}31.25%{opacity: 1;}43.75%{opacity: 0;}56.25%{opacity: 1;}68.75%{opacity: 0;}87.50%{opacity: 1;}100%{opacity: 0;}}@keyframes kf_el_ZHX-0cuoNY_an_hB7UjxJQy{0%{opacity: 0;}31.25%{opacity: 1;}43.75%{opacity: 0;}56.25%{opacity: 1;}68.75%{opacity: 0;}87.50%{opacity: 1;}100%{opacity: 0;}}@-webkit-keyframes kf_el_af6OjZTs08a_an_l4RiNHErE{0%{opacity: 0;}25%{opacity: 1;}50%{opacity: 0;}75%{opacity: 1;}100%{opacity: 0;}}@keyframes kf_el_af6OjZTs08a_an_l4RiNHErE{0%{opacity: 0;}25%{opacity: 1;}50%{opacity: 0;}75%{opacity: 1;}100%{opacity: 0;}}@-webkit-keyframes kf_el_DlCo-5whhfh_an__Rolpr230{0%{opacity: 1;}12.50%{opacity: 0;}31.25%{opacity: 1;}43.75%{opacity: 0;}62.50%{opacity: 1;}81.25%{opacity: 0;}100%{opacity: 1;}}@keyframes kf_el_DlCo-5whhfh_an__Rolpr230{0%{opacity: 1;}12.50%{opacity: 0;}31.25%{opacity: 1;}43.75%{opacity: 0;}62.50%{opacity: 1;}81.25%{opacity: 0;}100%{opacity: 1;}}@-webkit-keyframes kf_el_TwPMJ4aXBo_an_fQwnS8gLy{12.50%{opacity: 0;}25%{opacity: 1;}37.50%{opacity: 0;}50%{opacity: 1;}62.50%{opacity: 0;}75%{opacity: 1;}87.50%{opacity: 0;}0%{opacity: 0;}100%{opacity: 0;}}@keyframes kf_el_TwPMJ4aXBo_an_fQwnS8gLy{12.50%{opacity: 0;}25%{opacity: 1;}37.50%{opacity: 0;}50%{opacity: 1;}62.50%{opacity: 0;}75%{opacity: 1;}87.50%{opacity: 0;}0%{opacity: 0;}100%{opacity: 0;}}@-webkit-keyframes kf_el_q0Qtac05vr_an_qbNaW3yw5{0%{opacity: 1;}18.75%{opacity: 0;}37.50%{opacity: 1;}56.25%{opacity: 0;}75%{opacity: 1;}93.75%{opacity: 0;}100%{opacity: 1;}}@keyframes kf_el_q0Qtac05vr_an_qbNaW3yw5{0%{opacity: 1;}18.75%{opacity: 0;}37.50%{opacity: 1;}56.25%{opacity: 0;}75%{opacity: 1;}93.75%{opacity: 0;}100%{opacity: 1;}}@-webkit-keyframes kf_el_JH2f2lQbL7_an_fIJqgA9Ej{6.25%{opacity: 0;}12.50%{opacity: 1;}18.75%{opacity: 0;}25%{opacity: 1;}31.25%{opacity: 0;}43.75%{opacity: 1;}56.25%{opacity: 0;}68.75%{opacity: 1;}81.25%{opacity: 0;}0%{opacity: 0;}100%{opacity: 0;}}@keyframes kf_el_JH2f2lQbL7_an_fIJqgA9Ej{6.25%{opacity: 0;}12.50%{opacity: 1;}18.75%{opacity: 0;}25%{opacity: 1;}31.25%{opacity: 0;}43.75%{opacity: 1;}56.25%{opacity: 0;}68.75%{opacity: 1;}81.25%{opacity: 0;}0%{opacity: 0;}100%{opacity: 0;}}#el_-L2JAu_ss *{-webkit-animation-duration: 8s;animation-duration: 8s;-webkit-animation-iteration-count: infinite;animation-iteration-count: infinite;-webkit-animation-timing-function: cubic-bezier(0, 0, 1, 1);animation-timing-function: cubic-bezier(0, 0, 1, 1);}#el_iaEj4fz4Xw{fill: #FFC800;}#el_4d1bf3vEbv{fill: #FFC800;}#el_4M-OaGG0zZ{fill: #FFC800;}#el_p2O_ca9K3q{fill: #FFC800;}#el_ie0bVDkvHX{fill: #FFC800;}#el_fM4Cm6J8xR{fill: #FFC800;}#el_QLVgIZLWED{fill: #FFC800;}#el_IBw3rrt4By{fill: #FFC800;}#el_oFc8DbAau2{fill: #FFC800;}#el_itsGS0oTfB{fill: #FFC800;}#el_GzH_aXoo809{fill: #FFC800;}#el_HGCm8-qcXRR{fill: #FFC800;}#el_m8Y4UuBnGt8{fill: #FFC800;}#el_jWc5KrvXpO6{fill: #FFC800;}#el_JH2f2lQbL7{-webkit-animation-fill-mode: backwards;animation-fill-mode: backwards;opacity: 0;-webkit-animation-name: kf_el_JH2f2lQbL7_an_fIJqgA9Ej;animation-name: kf_el_JH2f2lQbL7_an_fIJqgA9Ej;-webkit-animation-timing-function: cubic-bezier(0, 0, 1, 1);animation-timing-function: cubic-bezier(0, 0, 1, 1);}#el_q0Qtac05vr{-webkit-animation-fill-mode: backwards;animation-fill-mode: backwards;opacity: 1;-webkit-animation-name: kf_el_q0Qtac05vr_an_qbNaW3yw5;animation-name: kf_el_q0Qtac05vr_an_qbNaW3yw5;-webkit-animation-timing-function: cubic-bezier(0, 0, 1, 1);animation-timing-function: cubic-bezier(0, 0, 1, 1);}#el_TwPMJ4aXBo{-webkit-animation-fill-mode: backwards;animation-fill-mode: backwards;opacity: 0;-webkit-animation-name: kf_el_TwPMJ4aXBo_an_fQwnS8gLy;animation-name: kf_el_TwPMJ4aXBo_an_fQwnS8gLy;-webkit-animation-timing-function: cubic-bezier(0, 0, 1, 1);animation-timing-function: cubic-bezier(0, 0, 1, 1);}#el_DlCo-5whhfh{-webkit-animation-fill-mode: backwards;animation-fill-mode: backwards;opacity: 1;-webkit-animation-name: kf_el_DlCo-5whhfh_an__Rolpr230;animation-name: kf_el_DlCo-5whhfh_an__Rolpr230;-webkit-animation-timing-function: cubic-bezier(0, 0, 1, 1);animation-timing-function: cubic-bezier(0, 0, 1, 1);}#el_af6OjZTs08a{-webkit-animation-fill-mode: backwards;animation-fill-mode: backwards;opacity: 0;-webkit-animation-name: kf_el_af6OjZTs08a_an_l4RiNHErE;animation-name: kf_el_af6OjZTs08a_an_l4RiNHErE;-webkit-animation-timing-function: cubic-bezier(0, 0, 1, 1);animation-timing-function: cubic-bezier(0, 0, 1, 1);}#el_ZHX-0cuoNY{-webkit-animation-fill-mode: backwards;animation-fill-mode: backwards;opacity: 0;-webkit-animation-name: kf_el_ZHX-0cuoNY_an_hB7UjxJQy;animation-name: kf_el_ZHX-0cuoNY_an_hB7UjxJQy;-webkit-animation-timing-function: cubic-bezier(0, 0, 1, 1);animation-timing-function: cubic-bezier(0, 0, 1, 1);}#el_47rkVuxojV{-webkit-animation-fill-mode: backwards;animation-fill-mode: backwards;opacity: 1;-webkit-animation-name: kf_el_47rkVuxojV_an_D_Hzow4G0;animation-name: kf_el_47rkVuxojV_an_D_Hzow4G0;-webkit-animation-timing-function: cubic-bezier(0, 0, 1, 1);animation-timing-function: cubic-bezier(0, 0, 1, 1);}</style>

<g id="el_ZHX-0cuoNY">
	<path d="M56.8,705.5l-22.6,10.1c2.5,1.4,9.1,3.6,15.5,1.1C56.2,714.1,57.1,708.1,56.8,705.5z" id="el_iaEj4fz4Xw"/>
	<path d="M4.6,698l21,17.3c-3.1,0.9-10.7,1.4-16.8-3.2C2.7,707.5,3.4,700.8,4.6,698z" id="el_4d1bf3vEbv"/>
</g>
<g id="el_47rkVuxojV">
	<path d="M1690.9,673.2l32.7,27.8c-4.8,1.2-16.9,1.6-26.4-5.8C1687.7,687.8,1689.1,677.4,1690.9,673.2z" id="el_4M-OaGG0zZ"/>
	<path d="M1781.6,686.1l-43.4,18.5c4.7,2.9,17.1,7.6,29.5,2.9C1780.2,702.9,1782.2,691.3,1781.6,686.1z" id="el_p2O_ca9K3q"/>
</g>
<g id="el_JH2f2lQbL7">
	<path d="M103,429.3l-15.9,7.1c1.8,1,6.4,2.6,10.9,0.8C102.6,435.3,103.3,431.1,103,429.3z" id="el_ie0bVDkvHX"/>
	<path d="M66.2,424L81,436.2c-2.2,0.6-7.5,1-11.8-2.2C64.9,430.7,65.4,426,66.2,424z" id="el_fM4Cm6J8xR"/>
</g>
<g id="el_q0Qtac05vr">
	<path d="M528,437.3l-15.9,7.1c1.8,1,6.4,2.6,10.9,0.8C527.6,443.3,528.3,439.1,528,437.3z" id="el_QLVgIZLWED"/>
	<path d="M491.2,432l14.8,12.2c-2.2,0.6-7.5,1-11.8-2.2C489.9,438.7,490.4,434,491.2,432z" id="el_IBw3rrt4By"/>
</g>
<g id="el_TwPMJ4aXBo">
	<path d="M807.5,309.3l18.4,15.6c-2.7,0.7-9.5,0.9-14.8-3.3C805.7,317.5,806.4,311.7,807.5,309.3z" id="el_oFc8DbAau2"/>
	<path d="M858.5,316.6L834.1,327c2.6,1.6,9.6,4.3,16.6,1.6S858.8,319.5,858.5,316.6z" id="el_itsGS0oTfB"/>
</g>
<g id="el_DlCo-5whhfh">
	<path d="M1298.2,176.3l8.2,7.6c-1.2,0.5-4.3,1-6.7-1C1297.4,181,1297.7,177.7,1298.2,176.3z" id="el_GzH_aXoo809"/>
	<path d="M1321.1,177.5l-11,7.1c1.2,0.8,4.3,1.8,7.4,0C1320.7,182.7,1321.2,179,1321.1,177.5z" id="el_HGCm8-qcXRR"/>
</g>
<g id="el_af6OjZTs08a">
	<path d="M1461.3,22.2l23.9,3.6c-2,2-7.6,5.8-14.3,5.1C1464.1,30.2,1461.7,24.8,1461.3,22.2z" id="el_m8Y4UuBnGt8"/>
	<path d="M1508.4,1.5l-15.2,21.7c3.1,0,10.4-1.5,15-7.4C1512.7,9.9,1510.2,3.8,1508.4,1.5z" id="el_jWc5KrvXpO6"/>
</g>
</svg>