<svg width="66" height="119" viewBox="0 0 66 119" fill="none" xmlns="http://www.w3.org/2000/svg">
<path d="M9.54805 57.4017C9.19824 57.4378 8.8603 57.4679 8.52828 57.504C7.95318 57.8171 7.24764 58.1543 6.41167 58.4614C6.21009 58.5336 6.03222 58.5999 5.86622 58.6601C5.51048 58.7865 5.23182 58.8648 4.97095 58.8949C4.82866 58.913 4.69823 58.913 4.55594 58.9009C2.64684 58.7504 1.57964 56.5226 1.50849 56.3721C1.39585 56.1252 0.405725 53.9998 1.4077 52.7594C2.00652 52.0128 3.03814 51.9526 4.27728 51.8803C5.30297 51.8201 6.17452 51.9586 6.80298 52.1152C7.09349 51.9827 7.38401 51.8502 7.68045 51.7178C8.20219 52.0008 8.552 52.3319 8.7773 52.5969C10.1291 54.1623 9.80299 56.3721 9.54805 57.4017Z" fill="#D9331E"/>
<path d="M32.8841 20.2034C32.1904 21.2933 31.1529 21.793 30.4473 21.5401C29.5936 21.233 29.3446 19.8362 29.2794 19.493C29.226 19.1799 29.2082 18.8848 29.2201 18.6319C29.226 18.5356 29.2319 18.4453 29.2438 18.361C29.1074 18.3188 28.977 18.2707 28.8406 18.2044C28.7457 18.1563 28.6627 18.1081 28.5797 18.0539C27.6845 17.4638 27.4236 16.4342 27.3347 16.073C26.9493 14.5737 27.5955 13.1949 28.2181 11.8582C28.473 11.3043 28.7398 10.8527 28.9533 10.5155C29.3801 10.4673 29.7596 10.5516 30.0145 10.6118C30.2813 10.672 31.2122 10.9129 31.8703 11.8221C32.3446 12.4844 32.4335 13.1648 32.4572 13.4719C32.2675 14.0378 32.1549 14.5255 32.0778 14.8928C31.7398 16.5125 31.7754 17.8853 32.0778 19.0715C32.2616 19.8 32.4276 19.9987 32.6114 20.1011C32.6885 20.1553 32.7833 20.1854 32.8841 20.2034Z" fill="#FFBB80"/>
<path d="M28.5797 18.0539C28.4493 18.373 28.307 18.7403 28.1706 19.1557C27.9513 19.2521 27.7319 19.3243 27.5303 19.3906C26.6825 19.6495 26.0066 19.6374 25.6627 19.2882C25.1943 18.8065 25.4256 17.801 25.6864 16.657C26.0837 14.9169 27.1272 12.9962 27.1865 12.8878C27.2398 12.7854 27.3821 12.5325 27.5185 12.1652C27.6845 11.7016 27.7378 11.3343 27.7734 11.0875C27.9038 10.961 28.0699 10.8286 28.2774 10.7262C28.5027 10.6118 28.7339 10.5516 28.9473 10.5215C28.7339 10.8647 28.4671 11.3163 28.2122 11.8642C27.5896 13.2009 26.9493 14.5797 27.3287 16.079C27.4295 16.4342 27.6904 17.4638 28.5797 18.0539Z" fill="#501A19"/>
<path d="M37.1588 13.6764C37.1529 13.7005 37.1529 13.7246 37.147 13.7547L37.141 13.7848C37.1292 13.851 37.1233 13.9233 37.1173 13.9895C37.0936 14.1942 37.064 14.4471 37.0225 14.7301C36.9572 15.1516 36.8624 15.6393 36.7201 16.1511C36.7142 16.1752 36.7082 16.2053 36.6964 16.2294C36.3406 17.4697 35.7062 18.8244 34.562 19.5831C34.2596 19.7878 33.5007 20.2936 32.89 20.1973C32.7892 20.1792 32.6944 20.1491 32.6055 20.1009C32.4217 19.9986 32.2556 19.7999 32.0718 19.0713C31.7695 17.8852 31.7339 16.5184 32.0718 14.8927C32.1489 14.5254 32.2675 14.0377 32.4513 13.4717C32.4335 13.1646 32.3446 12.4842 31.8643 11.8219C31.2062 10.9067 30.2754 10.6719 30.0086 10.6117C29.7596 10.5515 29.3801 10.4611 28.9473 10.5153C28.7339 10.5394 28.5086 10.5996 28.2774 10.7201C28.0699 10.8224 27.9038 10.9549 27.7734 11.0813C27.7793 11.0211 27.7912 10.9669 27.7971 10.9248C27.8742 10.4672 28.1351 9.82291 28.9651 9.06425L28.971 9.03415C29.5402 8.90168 30.3821 8.77524 31.39 8.9077C32.7477 9.08834 33.6786 9.6483 34.058 9.8771C35.8248 10.9549 36.726 12.6227 37.1588 13.6764Z" fill="#FF7900"/>
<path d="M37.5086 12.1168C37.4908 12.1951 37.4731 12.2794 37.4553 12.3697C37.3663 12.7611 37.2893 13.0982 37.224 13.3632C37.2003 13.4655 37.1766 13.5739 37.1588 13.6763C36.7319 12.6226 35.8308 10.9547 34.0639 9.87696C33.6845 9.64815 32.7537 9.09422 31.396 8.90756C30.394 8.7751 29.5461 8.89552 28.977 9.034L29.0481 8.75703C29.0956 8.60049 29.1667 8.41383 29.2675 8.21513C29.8663 8.06461 30.7201 7.91408 31.7398 7.99235C32.5047 8.04654 33.9809 8.17299 35.3979 9.2327C36.6074 10.1359 37.2122 11.322 37.5086 12.1168Z" fill="white"/>
<path d="M37.8051 10.5875C37.7873 10.7861 37.7399 11.0511 37.6509 11.4605C37.6094 11.6472 37.562 11.8639 37.5027 12.1168C37.2063 11.322 36.6015 10.1419 35.392 9.23271C33.9809 8.17299 32.4987 8.04655 31.7339 7.99236C30.7141 7.92011 29.8544 8.06461 29.2616 8.21514C29.4098 7.91409 29.6232 7.57691 29.9315 7.25779C31.1588 5.99336 32.8841 6.09572 33.388 6.12582C33.5659 6.13787 35.0778 6.24022 36.2754 7.11328C36.7082 7.42036 37.0995 7.82979 37.3723 8.37169C37.894 9.38323 37.811 10.5092 37.8051 10.5875Z" fill="#FF7900"/>
<path d="M36.9039 19.7879C35.3861 22.6057 32.896 23.9424 31.8584 24.4964C31.6272 24.6228 30.8624 25.0202 29.7952 25.2851C28.6509 25.5681 28.0699 25.7126 27.6608 25.4236C26.7892 24.8095 27.2813 22.6539 27.6608 20.9861C27.8149 20.3057 27.9987 19.6855 28.1766 19.1496C28.313 18.7402 28.4553 18.3669 28.5857 18.0478C28.6687 18.102 28.7517 18.1501 28.8466 18.1983C28.9829 18.2645 29.1134 18.3187 29.2497 18.3548C29.2379 18.4391 29.2319 18.5295 29.226 18.6258C29.2141 18.8847 29.226 19.1737 29.2853 19.4868C29.3446 19.83 29.5936 21.2209 30.4533 21.534C31.1529 21.7869 32.1964 21.2871 32.8901 20.1973C33.5007 20.2936 34.2596 19.7879 34.562 19.5831C35.7063 18.8245 36.3407 17.4697 36.6964 16.2294C36.7023 16.2053 36.7142 16.1752 36.7201 16.1511C36.8031 16.2174 36.8861 16.2896 36.9691 16.3739C37.1707 16.5786 37.3664 16.8375 37.479 17.1687C37.5857 17.4818 37.7517 18.2103 36.9039 19.7879Z" fill="#AB1708"/>
<path d="M38.8308 20.2693C38.5462 21.7806 37.5145 22.3948 36.5304 23.605C34.7576 25.7787 35.6766 26.7541 34.1588 28.0787C33.145 28.9578 31.39 29.6984 29.7892 29.1083C29.0303 28.8253 28.4789 28.3135 28.0698 27.7355C27.637 27.1214 27.3702 26.4349 27.1864 25.881C27.1153 25.6582 27.056 25.4595 27.0086 25.2909C26.7358 24.3396 26.6706 23.4244 26.7299 22.5875C26.8189 21.2749 27.1983 20.1489 27.5303 19.3903C27.7319 19.3301 27.9453 19.2518 28.1706 19.1554C27.9868 19.6973 27.809 20.3115 27.6548 20.9919C27.2754 22.6597 26.7833 24.8093 27.6548 25.4294C28.0639 25.7184 28.6449 25.58 29.7892 25.2909C30.8623 25.026 31.6212 24.6226 31.8525 24.5022C32.896 23.9422 35.3801 22.6055 36.8979 19.7937C37.7458 18.2162 37.5857 17.4876 37.473 17.1805C37.3545 16.8494 37.1647 16.5905 36.9632 16.3857L37.058 16.4279C37.39 16.5965 37.6628 16.8674 37.8466 17.1926L38.7893 18.8664L38.8604 18.9929C38.9019 19.2939 38.9316 19.7455 38.8308 20.2693Z" fill="#D9331E"/>
<path d="M39.0501 26.5797C39.0027 28.4221 39.4889 29.825 39.6608 30.2947C40.3545 32.2335 41.0719 34.1903 41.7596 36.0448C41.1015 35.3644 40.0936 34.2144 39.2102 32.7031C39.1035 32.5165 38.9968 32.3298 38.896 32.1371C38.0007 30.4392 37.3189 28.3559 37.4256 26.0137C37.4849 24.7372 37.6509 21.0643 40.141 19.5109C40.5501 19.258 40.9474 19.1015 41.2972 19.0051C41.8189 19.1858 42.4474 19.4868 43.1529 19.9805C42.732 20.0528 42.2873 20.1913 41.8426 20.4381C39.1746 21.9013 39.0738 25.833 39.0501 26.5797Z" fill="white"/>
<path d="M34.722 53.4878C34.7576 53.4698 34.7932 53.4517 34.8347 53.4336C35.8367 52.964 36.8149 52.8857 37.5501 52.9158" fill="#FF910E"/>
<path d="M34.722 53.4878C34.7576 53.4698 34.7932 53.4517 34.8347 53.4336C35.8367 52.964 36.8149 52.8857 37.5501 52.9158" stroke="black" stroke-width="0.2428" stroke-miterlimit="10"/>
<path d="M27.1924 25.8812C27.0975 26.1943 26.9789 26.5917 26.8485 27.0433C26.303 28.8978 26.0303 29.8251 25.8999 30.379C25.5204 31.9746 25.3426 33.6364 25.2714 34.9189C25.224 35.7739 25.224 36.4603 25.2418 36.8457C25.2477 36.9962 25.2773 37.4899 25.1943 38.1342C25.1943 38.1342 25.1113 38.7242 24.9394 39.2661C24.6133 40.2957 24.0441 40.7955 23.5165 41.5903C23.0422 42.3128 22.058 43.8 22.5026 45.0464C22.9414 46.2807 24.5659 46.648 24.7912 46.6962C25.058 46.7564 25.3189 46.7805 25.5619 46.7805L25.1766 49.1588L25.0936 49.6826C25.0224 49.797 24.9275 49.9596 24.8149 50.1523C24.4177 50.8507 23.4453 52.5788 23.3564 53.8793C23.054 54.1864 22.7101 54.4814 22.3188 54.7584C20.801 55.8362 19.3129 56.0951 18.1864 56.2697C15.3583 56.7213 12.6785 57.0585 10.301 57.3174C11.2081 55.2762 11.0362 53.1628 9.88599 51.9707C9.69627 51.772 9.34646 51.4649 8.78322 51.2301C10.3544 50.5497 11.9967 49.8874 13.7101 49.2551C14.9967 48.7795 16.2595 48.3399 17.4927 47.9365C18.0916 45.1608 18.7141 42.9089 19.1943 41.2772C20.0007 38.5677 20.4631 37.4899 21.2279 34.4673C21.7912 32.2215 22.0758 31.0955 22.2951 30.0298C22.7694 27.7297 22.8584 26.682 23.641 25.1527C24.7141 23.0573 25.722 22.7141 26.1548 22.6238C26.3623 22.5757 26.5639 22.5696 26.7418 22.5757C26.6884 23.4126 26.7477 24.3338 27.0204 25.2791C27.0619 25.4537 27.1153 25.6585 27.1924 25.8812Z" fill="#463F54"/>
<path d="M28.0698 27.7298C27.9572 28.0309 27.8386 28.338 27.72 28.639C27.1746 30.06 26.6232 31.4749 26.0718 32.8779C25.9947 33.0766 25.9117 33.2813 25.8347 33.48C25.6449 33.9617 25.4552 34.4433 25.2596 34.919C25.3307 33.6365 25.5086 31.9747 25.888 30.3791C26.0185 29.8191 26.2912 28.8919 26.8366 27.0434C26.9671 26.5918 27.0857 26.1944 27.1805 25.8813C27.3702 26.4293 27.637 27.1217 28.0698 27.7298Z" fill="white"/>
<path d="M39.2102 32.709C37.2122 33.2811 35.4395 33.5761 34.0225 33.7266C30.7497 34.0819 28.2537 33.8169 27.471 33.7266C26.8248 33.6483 26.2734 33.564 25.8406 33.4858C25.9177 33.2871 26.0007 33.0824 26.0778 32.8837C26.9612 33.0101 27.892 33.1064 28.8703 33.1606C32.7537 33.3714 36.1568 32.8536 38.9019 32.1431C39.0027 32.3297 39.1035 32.5224 39.2102 32.709Z" fill="white"/>
<path d="M41.3031 19.0051C40.9533 19.1014 40.5501 19.2579 40.147 19.5108C37.6509 21.0643 37.4849 24.7311 37.4316 26.0136C37.3248 28.3558 38.0067 30.4451 38.9019 32.1371C36.1628 32.8476 32.7537 33.3714 28.8702 33.1546C27.892 33.1004 26.9611 33.0041 26.0777 32.8777C26.6291 31.4747 27.1805 30.0598 27.726 28.6388C27.8445 28.3378 27.9572 28.0307 28.0758 27.7296C28.4849 28.3076 29.0363 28.8255 29.7952 29.1024C31.3959 29.6925 33.1509 28.9519 34.1647 28.0728C35.6825 26.7542 34.7636 25.7728 36.5363 23.5992C37.5205 22.3889 38.558 21.7748 38.8367 20.2635C38.9375 19.7396 38.9078 19.2881 38.8723 18.993L38.8011 18.8666C39.0561 18.8064 39.3762 18.7462 39.7438 18.7341C39.9395 18.7281 40.4968 18.7281 41.3031 19.0051Z" fill="#262032"/>
<path d="M44.7537 44.0226C42.8446 45.1245 41.1549 45.7206 39.9513 46.0638C36.0798 47.1656 32.724 46.9007 30.2635 46.6839C29.143 46.5816 28.1825 46.4431 27.4295 46.3167C26.9434 46.5635 26.2912 46.7923 25.5501 46.7863C25.3011 46.7863 25.0461 46.7562 24.7793 46.702C24.554 46.6538 22.9355 46.2865 22.4908 45.0522C22.0461 43.8059 23.0303 42.3187 23.5046 41.5961C24.0264 40.8013 24.6015 40.3076 24.9276 39.272C25.0995 38.7241 25.1825 38.14 25.1825 38.14C25.2714 37.4897 25.2418 37.002 25.2299 36.8515C25.2122 36.4661 25.2121 35.7797 25.2596 34.9247C25.4493 34.4491 25.645 33.9674 25.8347 33.4857C26.2675 33.564 26.8248 33.6483 27.4651 33.7266C28.2477 33.8169 30.7438 34.0818 34.0165 33.7266C35.4335 33.576 37.2063 33.281 39.2043 32.709C40.0818 34.2203 41.0956 35.3703 41.7537 36.0507C42.9217 39.1937 44.0008 42.0417 44.7537 44.0226Z" fill="#262032"/>
<path d="M44.9256 55.6614C44.7122 55.7818 44.4988 55.8962 44.2853 55.9986C44.226 54.0116 43.3664 52.2715 41.9138 51.3925C41.2794 51.0131 40.6391 50.8566 40.1055 50.8024C40.5086 50.4471 40.9177 50.0738 41.3268 49.6885C41.9968 49.6885 42.4652 49.8631 42.7142 49.9775C44.3209 50.7361 45.2695 53.0001 44.9256 55.6614Z" fill="#000B22"/>
<path d="M45.2695 45.3834C44.9079 45.835 44.5284 46.2926 44.1312 46.7502C43.3545 47.6473 42.566 48.4782 41.7834 49.2429C38.0541 49.9413 33.5126 50.3086 28.4374 49.6885C27.2991 49.55 26.2082 49.3693 25.1706 49.1586L25.556 46.7803C26.2971 46.7803 26.9493 46.5575 27.4355 46.3106C28.1884 46.4431 29.1548 46.5816 30.2695 46.6779C32.73 46.8947 36.0798 47.1596 39.9573 46.0577C41.1608 45.7145 42.8506 45.1185 44.7597 44.0166C44.9494 44.5404 45.1272 44.998 45.2695 45.3834Z" fill="white"/>
<path d="M41.7834 49.2488C41.6292 49.3994 41.481 49.5439 41.3268 49.6884C40.9178 50.0798 40.5146 50.447 40.1055 50.8023C39.726 51.1334 39.3525 51.4526 38.979 51.7596C38.9019 51.7717 38.813 51.7837 38.7241 51.7958C38.0185 51.8801 37.645 51.8199 37.2241 51.8199C36.7675 51.8199 35.5284 51.8319 34.9889 52.5966C34.894 52.7351 34.7339 53.012 34.728 53.4877C34.4019 53.6442 34.2003 53.7526 34.0284 53.9754C33.6549 54.4631 33.643 55.1917 33.8387 55.9082C30.6964 55.8299 27.9039 55.7215 25.4612 55.6252C25.141 55.6131 24.7141 55.5891 24.3228 55.4686C24.0204 55.3723 23.7418 55.2097 23.5639 54.9388C23.3742 54.6558 23.3208 54.2945 23.3505 53.8851C23.4394 52.5785 24.4177 50.8565 24.809 50.158C24.9216 49.9593 25.0165 49.8028 25.0876 49.6884L25.1706 49.1646C26.2082 49.3753 27.2991 49.5559 28.4375 49.6944C33.5126 50.3146 38.0541 49.9413 41.7834 49.2488Z" fill="#262032"/>
<path d="M44.2853 56.3959C44.1667 56.4501 44.0482 56.5043 43.9296 56.5585C43.0343 56.9438 42.1924 57.1967 41.4395 57.3653C41.3683 57.4677 41.2853 57.5821 41.1845 57.6905C40.224 58.7923 38.8723 58.991 38.3624 59.0332C38.1667 59.0512 35.9197 59.1897 34.6035 57.4857C34.2714 57.0522 33.9809 56.4862 33.8268 55.9142C33.6311 55.1977 33.643 54.4692 34.0165 53.9815C34.1884 53.7587 34.39 53.6443 34.7161 53.4938C34.728 53.0181 34.8821 52.7411 34.977 52.6026C35.5165 51.838 36.7556 51.8319 37.2122 51.8259C37.6331 51.8259 38.0066 51.8861 38.7122 51.8018C38.8011 51.7898 38.89 51.7777 38.9671 51.7657C39.3406 51.4646 39.7142 51.1455 40.0936 50.8083C40.6272 50.8625 41.2675 51.0191 41.9019 51.3984C43.3545 52.2775 44.2142 54.0176 44.2735 56.0046C44.2913 56.131 44.2913 56.2635 44.2853 56.3959Z" fill="#D9331E"/>
<path d="M50.3209 91.1198L38.4513 59.0274C39.0146 58.9732 40.2715 58.7384 41.1845 57.6967C41.2853 57.5883 41.3683 57.4739 41.4395 57.3716C42.1924 57.203 43.0343 56.9501 43.9296 56.5648C44.0541 56.5106 44.1727 56.4624 44.2853 56.4022C44.481 56.3119 44.6707 56.2216 44.8486 56.1252C44.8782 55.9747 44.9019 55.8242 44.9197 55.6676C45.9158 55.1197 46.9593 54.4453 47.9909 53.6084C48.0858 54.8909 48.1747 56.1794 48.2636 57.4679C48.3288 58.3771 48.3881 59.2923 48.4534 60.2075C49.153 70.4976 49.7755 80.8057 50.3209 91.1198Z" fill="#0D294C"/>
<path d="M51.0027 104.758C49.4672 104.944 47.8249 105.083 46.0818 105.155C44.5818 105.215 43.1529 105.221 41.807 105.185C41.3861 103.361 40.9474 101.313 40.5264 99.0676C39.7497 94.9431 39.3525 91.8603 39.1035 89.9878C38.3802 84.4725 37.3663 77.0484 35.8545 66.4633L34.2299 67.0835C33.9335 69.3475 33.6311 71.6174 33.3169 73.8934C31.8169 84.7133 30.1153 95.2924 28.2358 105.619C26.641 105.811 24.637 105.877 22.3781 105.504C21.4888 105.36 20.6706 105.161 19.9236 104.944C20.1074 90.7705 21.2042 75.9105 23.5283 60.4844C23.7773 58.8045 24.0441 57.1307 24.3228 55.4749C24.7082 55.6013 25.141 55.6194 25.4611 55.6314C27.9038 55.7338 30.6963 55.8361 33.8386 55.9144C33.9928 56.4864 34.2774 57.0584 34.6153 57.4859C35.4394 58.5577 36.6371 58.9009 37.4553 59.0032L50.398 92.4926C50.6055 96.5809 50.8071 100.669 51.0027 104.758Z" fill="#0D294C"/>
<path d="M28.6746 105.552L26.6351 116.366C22.3544 115.921 21.1746 114.909 20.9315 114.03C20.7536 113.398 21.0382 112.759 20.8307 110.49C20.7714 109.851 20.6884 109.237 20.22 108.749C20.1133 108.641 20.0066 108.551 19.888 108.478C19.7694 108.4 19.6449 108.334 19.5204 108.286V104.818C19.6508 104.86 19.7813 104.902 19.9117 104.938C20.6528 105.155 21.4769 105.353 22.3663 105.498C24.6252 105.871 26.6351 105.805 28.224 105.612C28.3841 105.594 28.5323 105.576 28.6746 105.552Z" fill="#642B28"/>
<path d="M26.6351 115.83L26.22 118.034H13.5678C13.3544 118.058 12.4236 118.142 12.2813 117.793C12.216 117.637 12.2872 117.336 13.1291 116.625C15.2338 114.837 16.8761 114.927 18.6844 113.356C18.9038 113.169 19.2003 112.886 19.5323 112.489V107.75C19.6509 107.798 19.7754 107.858 19.8999 107.943C20.0125 108.015 20.1252 108.105 20.2319 108.214C20.6943 108.701 20.7833 109.315 20.8426 109.954C21.056 112.23 20.7714 112.862 20.9433 113.494C21.1805 114.373 22.3603 115.385 26.6351 115.83Z" fill="#501A19"/>
<path d="M51.6016 114.524C51.5482 114.524 51.4949 114.524 51.4356 114.524C50.736 114.506 49.645 114.319 48.8624 113.464C48.6786 113.259 48.0027 112.525 47.9494 111.501C47.9197 110.959 48.0857 110.688 47.9019 110.189C47.7656 109.827 47.4039 109.231 46.8881 109.231C46.3664 109.237 46.0403 109.845 46.0225 109.875C45.732 110.435 46.0344 110.833 46.0462 111.603C46.0699 112.633 45.5719 113.885 44.6233 114.439C44.4632 114.53 44.1786 114.674 43.7695 114.728L41.2142 105.161C41.4158 105.167 41.6114 105.173 41.813 105.179C43.1589 105.215 44.5877 105.209 46.0877 105.149C47.8308 105.077 49.4731 104.938 51.0087 104.751C51.1569 104.733 51.3111 104.715 51.4593 104.697L51.6016 114.524Z" fill="#642B28"/>
<path d="M51.6193 115.975C51.3288 115.559 50.9553 115.18 50.481 114.903C48.649 113.831 45.9869 113.958 44.564 115.547C44.398 115.734 44.2616 115.951 44.149 116.192L43.7577 114.729C44.1727 114.668 44.4573 114.53 44.6114 114.439C45.56 113.88 46.0521 112.633 46.0343 111.604C46.0166 110.833 45.7201 110.435 46.0106 109.876C46.0284 109.845 46.3545 109.237 46.8762 109.231C47.3921 109.225 47.7597 109.827 47.8901 110.189C48.0798 110.688 47.9138 110.959 47.9375 111.501C47.9909 112.519 48.6668 113.259 48.8506 113.464C49.6332 114.319 50.7241 114.506 51.4237 114.524C51.483 114.524 51.5363 114.524 51.5897 114.524L51.6193 115.975Z" fill="#501A19"/>
<path d="M10.2891 57.3234C10.0401 57.3475 9.79111 57.3776 9.54802 57.4017C9.80297 56.3721 10.1291 54.1623 8.77134 52.5969C8.54604 52.3379 8.19624 52.0008 7.6745 51.7178C8.03616 51.5552 8.39782 51.3987 8.77134 51.2361C9.33459 51.4709 9.67846 51.778 9.87412 51.9767C11.0243 53.1689 11.2022 55.2823 10.2891 57.3234Z" fill="#000B22"/>
<path d="M59.0364 2.89277C59.0364 2.95298 59.0245 3.01921 59.0126 3.07942C59.0008 3.13361 58.9771 3.18178 58.9533 3.23597C58.9296 3.28414 58.8941 3.33231 58.8585 3.36843C58.6332 3.60928 58.3901 3.82604 58.0166 4.14515C56.3565 5.56011 54.6371 6.22845 53.3328 6.55359C53.0601 6.61982 52.7755 6.63789 52.4968 6.60778C52.3367 6.58972 52.1767 6.55359 52.0225 6.4994L52.0047 6.49338C51.981 6.48134 51.9573 6.47532 51.9336 6.4693C48.5956 5.60226 44.8782 4.88575 40.8051 4.48836C39.5482 4.36793 38.3209 4.27762 37.1292 4.22945C36.981 4.21741 36.8387 4.13311 36.8149 3.95248C36.809 3.89829 36.809 3.83808 36.8268 3.77185L36.9039 3.56111C36.9217 3.54907 36.9335 3.53702 36.9572 3.51896C36.8742 3.65745 36.9632 3.85012 37.1292 3.85012C38.2972 3.89829 39.5007 3.97656 40.7399 4.09096C44.7359 4.45223 48.394 5.10251 51.6727 5.89127C51.6964 5.89729 51.7261 5.90331 51.7438 5.90933L51.7557 5.91536C52.1767 6.0418 52.6154 6.06588 53.0482 5.96955C54.3288 5.67451 56.0186 5.0724 57.649 3.78389C58.0166 3.49488 58.2537 3.29618 58.479 3.07942C58.5976 2.96502 58.6569 2.80847 58.6569 2.65192C58.6569 2.50742 58.6035 2.36291 58.4909 2.24851C58.4257 2.17626 58.3427 2.12809 58.2537 2.104C58.3427 2.12809 58.4316 2.15819 58.5205 2.18228C58.6213 2.21238 58.7933 2.37495 58.8703 2.45925C58.9771 2.56763 59.0364 2.73622 59.0364 2.89277Z" fill="white"/>
<path d="M58.6569 2.64574C58.6569 2.80229 58.5977 2.95282 58.4791 3.07324C58.2538 3.29 58.0166 3.48267 57.649 3.77771C56.0186 5.0602 54.3229 5.66231 53.0482 5.96336C52.6213 6.0597 52.1767 6.04164 51.7557 5.90917L51.7439 5.90315C51.7202 5.89713 51.6964 5.89111 51.6668 5.88509C48.3881 5.09633 44.73 4.44605 40.7339 4.08478C39.4948 3.9764 38.2972 3.89813 37.1232 3.84394C36.9513 3.83792 36.8624 3.64524 36.9454 3.51278C37.8229 2.81433 38.9493 2.46511 40.1233 1.7486C41.0007 1.21272 41.8367 0.773181 42.6193 0.399873C42.815 0.309557 43.0166 0.261388 43.23 0.255367C43.5739 0.243325 43.9296 0.237303 44.2794 0.231282H44.315C45.0857 0.225261 45.8743 0.231282 46.6865 0.267408C51.0443 0.44202 54.8506 1.10434 58.1471 2.05567C58.1648 2.0617 58.1826 2.0617 58.2004 2.06772C58.2182 2.07374 58.236 2.07976 58.2538 2.08578C58.3427 2.10986 58.4257 2.16405 58.4909 2.23631C58.6036 2.35673 58.6569 2.50124 58.6569 2.64574Z" fill="#0D294C"/>
<path d="M58.9415 34.7744C58.906 35.8281 58.8763 36.8517 58.8407 37.8512C55.9712 38.2908 53.8842 38.5978 53.3269 38.6761C53.2202 38.6881 53.0008 38.7243 52.7162 38.6761C52.6451 38.6641 52.5798 38.652 52.5205 38.634C52.4909 28.9099 52.5028 22.7684 52.5324 19.1316C52.7281 19.1196 52.9237 19.0774 53.1075 19.0052L55.8585 17.9033V32.6129C55.8644 33.6485 57.1688 34.5215 58.9415 34.7744Z" fill="#022C4C"/>
<path d="M58.6866 42.8064C58.5383 47.4487 58.4138 51.266 58.319 54.0959C58.2893 54.9449 57.8447 55.7277 57.1332 56.1732L54.0028 58.1481C53.9968 58.1542 53.9909 58.1542 53.9909 58.1602L53.3862 58.5395C53.0482 58.7502 52.6095 58.5094 52.6095 58.1C52.5917 54.5174 52.5739 51.2118 52.562 48.1591C52.5858 48.0929 52.6035 48.0207 52.6095 47.9544L52.8941 45.9313C52.9119 45.8169 52.9059 45.6965 52.8881 45.5821C52.8288 45.263 52.7103 44.6308 52.5383 43.7758V43.6192L58.6866 42.8064Z" fill="#022C4C"/>
<path d="M52.5383 43.6134V43.764C52.5324 43.7158 52.5205 43.6676 52.5087 43.6134C52.2241 42.1864 51.8091 40.1754 51.2873 37.9536C51.4593 38.0861 51.6194 38.1824 51.7498 38.2607C52.0225 38.4233 52.2478 38.5557 52.5206 38.628C52.5265 40.1995 52.5324 41.8613 52.5383 43.6134Z" fill="#C8D0D8"/>
<path d="M58.8467 37.8511C58.7933 39.5912 58.7399 41.247 58.6866 42.8064L52.5443 43.6193C52.5383 41.8611 52.5324 40.2053 52.5265 38.6398C52.5858 38.6579 52.651 38.676 52.7221 38.682C53.0067 38.7302 53.2261 38.694 53.3328 38.682C53.8842 38.5977 55.9712 38.2906 58.8467 37.8511Z" fill="white"/>
<path d="M63.0443 10.1058C63.0443 10.4852 61.989 10.7922 60.6905 10.7922C60.151 10.7922 59.653 10.7381 59.2558 10.6477C58.6925 10.5213 58.3309 10.3286 58.3309 10.1058C58.3309 9.88306 58.6925 9.69038 59.2498 9.56394C59.6471 9.47362 60.1451 9.41943 60.6846 9.41943C61.9949 9.41943 63.0443 9.72651 63.0443 10.1058Z" fill="#000B22"/>
<path d="M53.9909 58.1604C53.6945 58.3892 53.3684 58.6722 52.6569 58.7745C51.8328 58.895 50.5759 58.618 49.8703 58.329C49.4494 58.1604 48.8861 57.8894 48.2577 57.4559C48.1687 56.1674 48.0798 54.8849 47.9849 53.5964C49.1411 52.6571 50.2735 51.5251 51.2873 50.1463C51.7379 49.5382 52.1292 48.93 52.4731 48.334C52.5087 48.2798 52.5324 48.2135 52.5561 48.1533C52.568 51.206 52.5858 54.5116 52.6035 58.0942C52.6035 58.4976 53.0423 58.7444 53.3802 58.5337L53.9909 58.1604Z" fill="#000B22"/>
<path d="M60.6905 7.96851C60.1866 7.96851 59.7063 8.00463 59.2498 8.07086C59.1727 8.08291 59.1016 8.08893 59.0305 8.10699C57.1806 8.42009 55.8644 9.23896 55.8644 10.2084C55.8644 11.2139 57.2933 12.0629 59.2617 12.3398C59.7123 12.4061 60.1925 12.4422 60.6965 12.4422C63.2696 12.4422 65.3744 11.5089 65.5167 10.3348L65.5226 10.2084C65.5166 8.97403 63.3585 7.96851 60.6905 7.96851ZM60.6905 10.7864C60.151 10.7864 59.653 10.7322 59.2558 10.6479C58.6925 10.5215 58.3309 10.3228 58.3309 10.106C58.3309 9.88924 58.6925 9.69054 59.2558 9.5641C59.653 9.47378 60.151 9.41959 60.6905 9.41959C61.9949 9.41959 63.0502 9.72667 63.0502 10.1C63.0502 10.4793 61.9949 10.7864 60.6905 10.7864Z" fill="#AB1708"/>
<path d="M64.5147 26.6279L64.4257 28.0429C63.8091 28.7473 62.8309 29.5963 61.4554 30.0058C60.6135 30.2526 59.8131 30.2767 59.0601 30.2105C58.4198 30.1503 57.815 30.0238 57.2577 29.9034C56.7241 29.789 56.2557 29.6505 55.8644 29.5241V28.1332C56.2142 28.3199 56.6174 28.5065 57.0917 28.6691C57.4889 28.8015 58.2004 29.0364 59.0897 29.1026C59.6826 29.1508 60.3467 29.1207 61.0581 28.946C62.7716 28.5065 63.904 27.3926 64.5147 26.6279Z" fill="#AB1708"/>
<path d="M65.2143 15.2239L65.1016 17.0904C64.651 17.6143 63.9692 18.2284 63.0147 18.6499C62.2854 18.969 61.568 19.0352 60.1332 19.1677C59.8012 19.1978 59.4988 19.2159 59.2261 19.2279C57.5423 19.2881 56.7893 19.0352 56.5107 18.9269C56.2676 18.8305 56.0482 18.7342 55.8644 18.6318V17.1627C56.5403 17.4457 57.1273 17.5841 57.566 17.6564C58.1648 17.7588 58.6925 17.7708 59.2439 17.7407C59.7064 17.7166 60.1747 17.6564 60.7202 17.5902C61.9356 17.4396 62.5463 17.3614 63.157 17.0724C63.5839 16.8676 64.4376 16.3799 65.2143 15.2239Z" fill="#AB1708"/>
<path d="M52.6154 15.1818C52.6095 15.2902 52.6035 15.4166 52.6035 15.5611C52.3308 15.5732 52.064 15.5431 51.7972 15.4648L37.6568 11.4608C37.7458 11.0513 37.7932 10.7864 37.811 10.5877C37.8169 10.5094 37.894 9.3835 37.3782 8.36594C37.1055 7.82404 36.7142 7.42062 36.2814 7.10753C36.3466 6.43316 36.4355 5.73472 36.5541 5.01219C36.5837 4.80145 36.726 4.28363 36.809 3.94043C36.8327 4.12106 36.975 4.20536 37.1233 4.2174C38.315 4.27159 39.5422 4.35589 40.7992 4.47631C44.8664 4.8737 48.5897 5.59021 51.9276 6.45725C51.9514 6.46327 51.981 6.46929 51.9988 6.48133L52.0166 6.48735C52.1707 6.54154 52.3308 6.57767 52.4909 6.59573C52.5561 7.37848 52.6272 8.46227 52.6688 9.76283C52.7577 12.6289 52.6391 14.7483 52.6154 15.1818Z" fill="#000B22"/>
<path d="M65.0957 17.0962L64.5147 26.6336C63.904 27.3983 62.7716 28.5062 61.0463 28.9397C60.3407 29.1143 59.6708 29.1444 59.0779 29.0962C58.1885 29.03 57.483 28.7952 57.0799 28.6627C56.6115 28.5062 56.2024 28.3135 55.8526 28.1268V18.6316C56.0423 18.7339 56.2557 18.8363 56.4988 18.9266C56.7775 19.035 57.5304 19.2879 59.2142 19.2277C59.4929 19.2156 59.7953 19.1976 60.1214 19.1674C61.5561 19.035 62.2735 18.9748 63.0028 18.6496C63.9633 18.2342 64.6451 17.62 65.0957 17.0962Z" fill="#D9331E"/>
<path d="M64.4257 28.0427L64.1471 32.6127C64.1471 33.8471 62.2913 34.8466 60.0028 34.8466C59.6352 34.8466 59.2795 34.8225 58.9415 34.7743C57.1688 34.5214 55.8585 33.6484 55.8585 32.6127V29.5179C56.2498 29.6504 56.7182 29.7888 57.2518 29.8972C57.8091 30.0176 58.4138 30.1441 59.0542 30.2043C59.8071 30.2766 60.6075 30.2464 61.4494 29.9996C62.8368 29.5962 63.8151 28.7412 64.4257 28.0427Z" fill="#D9331E"/>
<path d="M52.6688 118.413C52.6688 118.727 52.4198 118.979 52.1115 118.979H44.1608C43.8525 118.979 43.6035 118.727 43.6035 118.413V118.179C43.6628 117.805 43.7992 116.92 44.1549 116.192C44.2676 115.957 44.4039 115.734 44.5699 115.547C45.9929 113.958 48.6549 113.831 50.4869 114.903C50.9612 115.18 51.3348 115.566 51.6253 115.975C52.2893 116.926 52.5443 118.028 52.6688 118.413Z" fill="#501A19"/>
<path d="M52.8941 45.9312L52.6095 47.9543C52.5976 48.0266 52.5858 48.0928 52.562 48.159C52.5383 48.2192 52.5146 48.2795 52.479 48.3397C52.1352 48.9358 51.7439 49.5439 51.2933 50.152C50.2794 51.5308 49.147 52.6628 47.9909 53.6021C46.9652 54.433 45.9217 55.1134 44.9197 55.6613C45.2636 53 44.315 50.7361 42.7082 49.9774C42.4592 49.857 41.9968 49.6824 41.3209 49.6884C41.475 49.5439 41.6233 49.3994 41.7774 49.2489C42.56 48.4842 43.3486 47.6533 44.1252 46.7561C44.5225 46.2985 44.9019 45.8409 45.2636 45.3893C45.1154 45.004 44.9434 44.5464 44.7478 44.0286C43.9948 42.0476 42.9158 39.1996 41.7537 36.0506C41.0659 34.1961 40.3545 32.2393 39.6549 30.3005C39.4889 29.8308 38.9968 28.4279 39.0442 26.5854C39.062 25.8388 39.1628 21.9071 41.8367 20.4439C42.2814 20.2031 42.726 20.0646 43.147 19.9863C43.4909 20.2272 43.8466 20.5102 44.226 20.8534C46.2952 22.738 47.2616 24.8694 47.4929 25.3933C48.9573 28.7109 50.2972 33.7265 51.2814 37.9533C51.7972 40.1811 52.2182 42.1861 52.5028 43.6131C52.5146 43.6613 52.5265 43.7155 52.5324 43.7636V43.7697C52.7043 44.6247 52.8229 45.2569 52.8822 45.576C52.9118 45.6964 52.9118 45.8108 52.8941 45.9312Z" fill="#463F54"/>
<path d="M52.5206 38.634C52.2478 38.5617 52.0225 38.4293 51.7498 38.2667C51.6194 38.1884 51.4652 38.0861 51.2874 37.9596C50.3032 33.7268 48.9632 28.7172 47.4988 25.3996C47.2676 24.8758 46.3012 22.7443 44.232 20.8597C43.8585 20.5165 43.4968 20.2335 43.1529 19.9927C42.4474 19.4989 41.8189 19.1979 41.2972 19.0172C40.4909 18.7343 39.9336 18.7403 39.732 18.7463C39.3644 18.7583 39.0442 18.8125 38.7893 18.8788L37.8466 17.2049C37.6628 16.8737 37.3901 16.6088 37.058 16.4402L36.9632 16.3921C36.8802 16.3078 36.7972 16.2355 36.7142 16.1693C36.8565 15.6575 36.9513 15.1698 37.0165 14.7483L51.9395 19.0775C52.1352 19.1317 52.3368 19.1557 52.5383 19.1497C52.5028 22.7744 52.4909 28.9099 52.5206 38.634Z" fill="#000B22"/>
<path d="M65.5107 10.3347L65.2143 15.2238C64.4435 16.3739 63.5838 16.8616 63.151 17.0663C62.5403 17.3493 61.9297 17.4275 60.7142 17.5841C60.1747 17.6503 59.7004 17.7105 59.2379 17.7346C58.6925 17.7647 58.1648 17.7527 57.5601 17.6503C57.1213 17.5781 56.5344 17.4396 55.8585 17.1566V10.2083C55.8585 11.2138 57.2873 12.0627 59.2557 12.3397C59.7063 12.406 60.1866 12.4421 60.6905 12.4421C63.2637 12.4421 65.3684 11.5088 65.5107 10.3347Z" fill="#D9331E"/>
<path d="M55.8644 14.4412V17.9093L53.1134 19.0112C52.9296 19.0834 52.734 19.1256 52.5383 19.1376C52.5561 17.4336 52.5739 16.2776 52.6035 15.5611C52.8644 15.549 53.1253 15.4949 53.3743 15.3985L55.8644 14.4412Z" fill="white"/>
<path d="M52.5976 15.555C52.5739 16.2715 52.5502 17.4276 52.5324 19.1316C52.3308 19.1436 52.1292 19.1195 51.9336 19.0593L37.0106 14.7301C37.0521 14.4472 37.0818 14.1943 37.1055 13.9896C37.1114 13.9233 37.1173 13.8511 37.1292 13.7848L37.1351 13.7547C37.141 13.7306 37.141 13.7066 37.147 13.6765C37.1648 13.5681 37.1885 13.4657 37.2122 13.3634C37.2774 13.0984 37.3545 12.7613 37.4434 12.3699C37.4612 12.2796 37.4849 12.2013 37.4968 12.117C37.5561 11.8641 37.6035 11.6473 37.645 11.4607L51.7854 15.4647C52.0581 15.543 52.3308 15.5731 52.5976 15.555Z" fill="#C8D0D8"/>
<path d="M30.1628 65.1207C30.2635 65.1207 34.224 67.0836 34.224 67.0836L35.8486 66.4634L38.8248 63.3806" stroke="#020304" stroke-width="0.3878" stroke-miterlimit="10" stroke-linecap="round" stroke-linejoin="round"/>
<path d="M43.0995 58.5518C43.0343 59.19 43.0106 60.2979 43.5086 61.5081C44.5521 64.0611 47.0126 64.9401 47.4395 65.0847" stroke="#020304" stroke-width="0.3878" stroke-miterlimit="10" stroke-linecap="round" stroke-linejoin="round"/>
<path d="M43.8466 57.793C43.7992 58.3288 43.811 59.0574 44.0482 59.8582C44.7122 62.0981 46.6035 63.1758 47.0956 63.4347" stroke="#020304" stroke-width="0.3878" stroke-miterlimit="10" stroke-linecap="round" stroke-linejoin="round"/>
<path d="M36.6667 52.94C36.1983 52.9881 35.6766 53.0905 35.1489 53.3012L33.9632 50.2184C33.7971 49.7909 34.0106 49.3032 34.4434 49.1467L34.639 49.0744C35.0778 48.9179 35.5521 49.1587 35.6885 49.6103C35.9612 50.5436 36.4058 52.0488 36.6667 52.94Z" fill="#463F54"/>
<path d="M60.4771 118.594L50.3921 92.4928L37.4493 59.0034C37.9355 59.0636 38.2912 59.0395 38.3624 59.0335C38.3861 59.0335 38.4157 59.0275 38.4454 59.0275L50.315 91.1199L60.4771 118.594Z" fill="#463F54"/>
<path d="M17.3623 117.155L4.9769 58.8947C5.23777 58.8646 5.51643 58.7864 5.87216 58.6599L17.3623 117.155Z" fill="#463F54"/>
<path d="M5.11326 52.8978C4.47294 53.0904 4.01642 53.3674 3.70812 53.6143L3.34052 51.9585L2.80693 49.55C2.70614 49.0984 2.99072 48.6529 3.43539 48.5626L3.63697 48.5204C4.09349 48.4301 4.53223 48.7432 4.59745 49.2068C4.69824 49.9354 4.84646 51.0011 4.97097 51.8742C5.02433 52.2716 5.07769 52.6268 5.11326 52.8978Z" fill="#463F54"/>
<path d="M45.2695 45.3835C45.4711 45.2028 45.981 44.8657 46.3427 44.7272C47.5106 44.2756 48.6075 44.8175 48.8565 44.9439" stroke="#020304" stroke-width="0.3878" stroke-miterlimit="10" stroke-linecap="round" stroke-linejoin="round"/>
<path d="M17.4927 47.9184C17.8485 47.8582 18.4532 47.8582 18.7022 47.9063C20.6647 48.2616 21.5066 50.8266 21.5837 51.0734" stroke="#020304" stroke-width="0.3878" stroke-miterlimit="10" stroke-linecap="round" stroke-linejoin="round"/>
<path d="M8.54605 55.7819C7.79309 55.8783 7.21798 55.794 6.84447 55.7037C5.91956 55.4869 5.75948 55.1317 5.11916 55.1859C4.43734 55.2461 4.25354 55.6736 3.61915 55.5712C3.55394 55.5592 2.93734 55.4568 2.8069 55.0534C2.67646 54.662 3.08555 54.2165 3.31678 53.9696C3.63101 53.6264 4.36619 52.9701 5.80691 52.7292L8.54605 55.7819Z" fill="#D9331E"/>
<path d="M5.80692 52.7354C4.37213 52.9702 3.63101 53.6325 3.31678 53.9757C3.09148 54.2226 2.68239 54.6681 2.8069 55.0595C2.93734 55.4629 3.55394 55.5653 3.61916 55.5773C4.25355 55.6736 4.43141 55.2461 5.11916 55.192C5.75948 55.1378 5.91956 55.487 6.84447 55.7098C7.21799 55.8001 7.79309 55.8844 8.54606 55.788" stroke="#020304" stroke-width="0.3878" stroke-miterlimit="10" stroke-linecap="round" stroke-linejoin="round"/>
<path d="M59.0304 8.10698C57.1806 8.42008 55.8644 9.23895 55.8644 10.2083V14.4412L53.3743 15.3985C53.1253 15.4949 52.8644 15.5491 52.6035 15.5611C52.6095 15.4166 52.6154 15.2901 52.6154 15.1818C52.6391 14.7543 52.7577 12.6288 52.6688 9.76278C52.6273 8.46825 52.5561 7.37843 52.4909 6.59569C52.7695 6.62579 53.0541 6.61375 53.3269 6.5415C54.6312 6.21636 56.3506 5.55404 58.0107 4.13306C58.3901 3.81394 58.6273 3.59718 58.8526 3.35634C58.8941 3.31419 58.9237 3.27205 58.9474 3.22388L59.0304 8.10698Z" fill="#022C4C"/>
</svg>
