<svg width="103" height="119" viewBox="0 0 103 119" fill="none" xmlns="http://www.w3.org/2000/svg">
<path d="M25.573 75.0386C25.5669 75.3795 25.5791 75.7082 25.6095 76.0187C25.7615 77.6806 26.315 79.1537 27.0753 80.426C28.2065 82.3375 29.794 83.8168 31.132 84.8395C31.5639 84.669 32.0139 84.4864 32.4762 84.2794C32.908 84.0907 33.3459 83.8837 33.7899 83.6585C35.1462 82.9828 36.3444 82.2706 37.3844 81.5827L37.8832 81.2905C41.3682 77.1936 44.9141 72.7192 48.4417 67.8431C49.573 66.2786 50.6617 64.7324 51.7078 63.1983C54.8583 68.9084 57.0966 74.5577 58.6901 79.8416C59.572 82.7758 60.241 85.6187 59.4503 88.6807C59.3773 88.9729 59.2922 89.2712 59.3652 89.5634C59.4625 89.9591 59.8274 90.2209 60.1741 90.4339C61.4939 91.2436 62.9536 91.8341 64.4681 92.175C65.5872 92.4245 66.8279 92.5098 67.8011 91.9071C68.6465 91.3836 69.1209 90.4339 69.5223 89.5269C70.1427 88.1328 70.6961 86.7144 71.1888 85.2717C71.6206 83.9933 72.4417 82.7393 72.3262 81.3574C71.7423 74.3446 69.9602 65.8708 65.3865 57.5309C64.9729 56.776 64.5471 56.0516 64.1153 55.3454C63.6591 55.4672 63.1178 55.5402 62.5583 55.6194C58.6475 56.1368 56.6951 56.3925 55.6855 56.289C53.9034 56.1064 52.389 55.662 51.1847 55.1933C50.4792 55.8081 49.7859 56.1368 49.4453 56.289C47.0672 57.3665 43.8619 57.1534 41.8305 55.4185C40.6809 54.9558 39.4584 54.3532 38.2299 53.574C37.4757 54.9132 36.7154 56.2829 35.9673 57.6831C33.2243 62.8087 30.8218 67.8005 28.7235 72.5975L27.5801 74.369L26.1994 74.7951C25.9987 74.8742 25.7859 74.9534 25.573 75.0386Z" fill="#992525"/>
<path d="M60.0281 0.66763C60.0403 0.685893 60.0464 0.710243 60.0525 0.728506C60.2167 1.15463 60.4113 1.69642 60.5877 2.33561C60.7033 2.73739 60.7458 2.96263 61.1351 5.00195C61.3784 6.28641 61.6764 7.57697 61.646 8.89187C61.6156 10.0607 61.2993 11.2112 61.1837 12.38C61.1351 12.8853 60.9405 13.5793 61.3601 13.9628C61.4331 14.0297 61.5183 14.0845 61.6095 14.1393C61.7555 14.2306 61.9136 14.3098 62.09 14.3402C62.1386 14.3463 62.1934 14.3524 62.242 14.3341C62.4184 14.2793 62.4671 14.0297 62.534 13.8836C62.6191 13.7071 62.7104 13.5306 62.7894 13.354C63.0084 12.8792 63.0935 12.5079 63.1787 12.0817C63.2091 11.9417 63.2395 11.7956 63.276 11.6373C63.5558 10.3285 63.7139 10.3955 63.8295 9.62846C63.9329 8.93448 63.872 8.44139 63.7443 7.47348C63.5618 6.06726 63.422 5.00803 63.3064 4.24101C63.1969 3.48615 63.1179 3.00524 63.0449 2.74348C62.9415 2.35387 62.8016 1.87905 62.613 1.33117C62.4853 0.953744 62.3272 0.54588 62.1447 0.113666C61.9014 0.0954035 61.6095 0.0954035 61.2811 0.156279C60.7337 0.259767 60.314 0.478917 60.0281 0.66763Z" fill="#876751"/>
<path d="M57.7899 16.0323C57.7838 16.5133 57.7717 17.0794 57.7595 17.7369C57.7473 18.3517 57.7291 18.9544 57.7048 19.5935C58.2704 18.9178 58.9881 18.2239 59.87 17.609C60.7641 16.9881 61.6217 16.5985 62.3333 16.3428L62.6921 16.1845C63.1726 16.0202 64.0058 15.7949 64.8756 15.8436C64.3647 15.2775 63.866 14.9366 63.428 14.7174C62.5644 14.5713 61.3419 14.5226 59.9673 14.9549C59.1037 15.2166 58.386 15.6062 57.7899 16.0323Z" fill="#663300"/>
<path d="M53.1979 7.60731C53.2405 7.73514 53.2709 7.83254 53.2831 7.86907L53.2162 8.73958C53.5994 9.03179 53.9947 9.33616 54.4144 9.65271C55.497 10.4745 56.4397 11.2659 57.0662 12.313C57.3034 12.7086 57.498 13.1469 57.6318 13.634C57.7109 13.9262 57.7534 14.2792 57.7717 14.7541C57.7839 15.1071 57.7899 15.5211 57.7839 16.0203C58.3799 15.6002 59.0976 15.2045 59.9552 14.9428C61.3297 14.5166 62.5522 14.5653 63.4159 14.7054C63.3125 14.6567 63.2213 14.614 63.1239 14.5775C62.8442 14.4679 62.5644 14.3949 62.3029 14.3279C61.8528 14.2062 61.4635 14.0905 61.2385 13.7983C61.1959 13.7435 61.1594 13.6827 61.129 13.6157C61.129 13.4574 61.0925 13.293 61.0986 13.1287C61.1168 12.8182 61.1655 12.526 61.2263 12.2216C61.3784 11.5094 61.5 10.7972 61.6034 10.0728C61.7068 9.32399 61.7311 8.52043 61.6399 7.76558C61.5243 6.84028 61.2932 5.93932 61.1168 5.02011C60.7276 2.98079 60.685 2.75555 60.5695 2.35377C60.3931 1.7085 60.1984 1.16671 60.0342 0.746669C59.9917 0.752756 59.9491 0.758844 59.9004 0.764931C59.7788 0.777106 59.6511 0.783194 59.5233 0.777106C58.9212 0.764931 58.6475 0.576218 58.2035 0.47273C57.1148 0.229229 56.1173 0.740581 55.6186 0.996257C55.3023 1.16062 54.3231 1.7085 53.6298 2.81643C52.4742 4.71573 52.9607 6.84636 53.1979 7.60731Z" fill="#AD8971"/>
<path d="M62.6191 1.37379C62.7469 1.84253 62.9111 2.30518 63.0388 2.78001C63.1118 3.04177 63.1909 3.52269 63.3003 4.27754C64.091 3.9549 64.8452 3.69314 65.2284 2.84697C65.5933 2.04951 65.5142 0.351089 64.3465 0.302389C64.0484 0.290214 63.7443 0.405876 63.5132 0.600677C63.2152 0.856353 62.9719 1.19117 62.6191 1.37379Z" fill="#F95623"/>
<path d="M63.8234 9.66494C63.7078 10.432 63.5497 10.3711 63.2699 11.6738C63.2334 11.8321 63.203 11.9782 63.1726 12.1182C63.4889 12.1182 63.8477 12.0512 64.1701 11.826C64.4316 11.6434 64.7479 11.2903 65.0337 9.93887C65.2223 9.02575 65.5811 7.22384 65.0094 4.88015C64.8695 4.28966 64.6992 3.79048 64.5472 3.40088C64.1701 3.83918 63.7018 4.10703 63.3003 4.27139C63.4098 5.03842 63.5497 6.09765 63.7382 7.50387C63.866 8.47787 63.9268 8.97096 63.8234 9.66494Z" fill="#FFBB80"/>
<path d="M57.7048 19.5875C57.6744 20.3485 57.6318 21.1399 57.5406 22.053C57.3095 24.4515 56.9445 26.2412 56.7803 27.063C56.7013 27.4587 56.3911 29.0049 56.0018 31.0503C55.8923 31.653 55.7646 32.3044 55.649 32.9801C55.3085 34.8672 54.9496 36.9613 54.6577 38.8789C54.5178 39.8286 54.384 40.7052 54.2623 41.5209C55.497 41.4904 56.9385 41.2956 58.5016 40.7721C59.3409 40.486 60.0951 40.1512 60.7459 39.7981C61.0986 41.6244 61.494 43.3289 61.9136 44.8934C62.017 45.2891 62.1265 45.6726 62.2299 46.0561C62.2846 46.2387 62.3515 46.4031 62.4489 46.5553C62.5887 46.7805 62.7651 46.9814 62.9902 47.1336L63.1544 47.2492C63.3308 47.371 63.5193 47.4623 63.7261 47.5171C66.6333 48.3085 72.0343 49.2094 77.3561 46.4944C78.1711 46.0804 78.9131 45.6178 79.5882 45.1247L79.8254 44.9238C80.3972 43.8889 80.829 42.9088 81.1635 42.0201C81.6744 40.6747 81.9542 39.5303 82.1123 38.6902C82.3556 37.3935 82.4955 35.963 81.8873 34.6237C81.7413 34.2889 81.5832 34.0576 81.4494 33.8932C81.2851 33.6862 81.1453 33.5888 81.0783 33.5462C80.2694 33.0227 79.2537 33.3453 78.0555 33.7471C76.8452 34.155 76.906 34.3498 75.2456 35.0072C74.3515 35.3603 74.1569 35.3725 72.7641 35.8899C72.1437 36.1152 71.6085 36.3282 71.1706 36.5048C71.0794 36.3708 70.982 36.2674 70.8665 36.2004C70.7996 36.1578 70.7388 36.1273 70.6779 36.0969C70.4286 35.9752 70.2035 35.9447 70.0515 35.9325C69.8934 35.9265 69.8021 35.9508 69.8021 35.9508C69.7109 35.9752 69.6257 36.0056 69.5528 36.0421C69.4798 36.0786 69.4189 36.1152 69.3642 36.1578C69.2851 35.6708 69.1452 35.0925 68.8655 34.4898C68.8046 34.362 68.7499 34.2463 68.683 34.1245C68.5492 33.875 68.4093 33.6558 68.2755 33.4671C68.3363 29.8146 68.3546 24.9933 68.166 20.8111C68.0991 19.5084 67.9775 17.3899 66.5482 16.3733C66.0312 16.0081 65.4473 15.8559 64.8756 15.8255C64.0059 15.7768 63.1726 16.0081 62.6921 16.1664L62.3333 16.3246C61.6156 16.5803 60.758 16.9699 59.87 17.5908C58.9881 18.2178 58.2765 18.9118 57.7048 19.5875Z" fill="#AD8971"/>
<path d="M68.1478 38.5743C68.1782 37.6611 68.2329 35.8105 68.2755 33.479" stroke="#876751" stroke-width="0.5" stroke-miterlimit="10"/>
<path d="M67.8497 42.1481C68.3059 41.5272 69.4676 39.7557 69.4615 37.3877C69.4615 37.132 69.4554 36.7059 69.3703 36.1763" stroke="#876751" stroke-width="0.5" stroke-miterlimit="10"/>
<path d="M71.4564 41.0642C71.797 38.9823 71.6754 37.2656 71.1827 36.5168" stroke="#876751" stroke-width="0.5" stroke-miterlimit="10"/>
<path d="M60.7519 39.8041C60.3079 37.503 59.943 34.995 59.7119 32.3104C59.3652 28.25 59.3834 24.561 59.5842 21.3711" stroke="#876751" stroke-width="0.5" stroke-miterlimit="10"/>
<path d="M51.1909 55.1934C52.3951 55.6621 53.9096 56.1065 55.6916 56.2892C56.7012 56.3926 58.6536 56.137 62.5644 55.6195C63.1239 55.5465 63.6653 55.4734 64.1214 55.3456C64.7114 55.1812 65.1554 54.9377 65.3135 54.5177C65.4838 54.055 65.2284 53.5924 64.7783 52.6671C64.3769 51.8453 64.0423 50.9747 63.6653 50.1347C63.5315 49.8425 63.3976 49.5503 63.2456 49.2642C62.9172 48.631 62.6009 47.7666 62.461 46.5552C62.3698 46.403 62.2968 46.2326 62.242 46.056C62.1326 45.6786 62.0292 45.289 61.9258 44.8933C61.4939 45.222 61.0256 45.5386 60.5086 45.8308C60.0525 46.0926 59.5902 46.3239 59.1341 46.5187C57.0662 47.3953 55.0469 47.6205 53.3926 47.584C53.3439 47.9249 53.3074 48.2171 53.2831 48.4728C53.2466 48.7771 53.2223 49.0146 53.2101 49.2033C53.198 49.3433 53.198 49.4468 53.198 49.5198C53.2284 50.4025 53.3378 52.2105 52.2978 53.8907C51.9694 54.4264 51.5801 54.8586 51.1909 55.1934Z" fill="#AD8971"/>
<path d="M54.2745 41.5211C53.867 44.2605 53.5751 46.2633 53.3987 47.5904C55.4119 47.633 57.9785 47.2921 60.5087 45.8372C61.0196 45.545 61.494 45.2223 61.9258 44.8936C61.5061 43.3291 61.1108 41.6246 60.758 39.7983C60.1012 40.1514 59.3531 40.4862 58.5137 40.7723C56.9506 41.302 55.5031 41.4907 54.2745 41.5211Z" fill="#663300"/>
<path d="M34.386 14.8273C34.757 15.3143 35.1523 15.7952 35.572 16.2761C37.8285 18.8633 40.2552 20.8053 42.5543 22.2663C42.5543 22.2054 42.5542 22.1445 42.5603 22.0836C43.4726 20.4461 46.9881 14.596 53.6054 12.8184C54.8462 12.4836 56.02 12.3436 57.0783 12.3132C56.4519 11.26 55.5031 10.4687 54.4204 9.65292C54.0008 9.33637 53.6054 9.032 53.2223 8.7398C49.0986 5.60472 46.903 4.01588 45.2425 3.99762C41.0398 3.955 36.6546 8.42933 34.386 14.8273Z" fill="#DC9900"/>
<path d="M34.3739 14.8637L34.2218 16.5195C34.1853 17.0369 34.1245 17.737 34.0515 18.577C34.5807 19.1371 35.1524 19.6972 35.7667 20.2572C38.09 22.3696 40.4256 23.8671 42.4752 24.9263C42.5117 24.0741 42.536 23.1853 42.5482 22.26C40.2492 20.799 37.8224 18.8571 35.566 16.2699C35.1463 15.789 34.751 15.308 34.3799 14.821C34.3799 14.8393 34.3799 14.8515 34.3739 14.8637Z" fill="white"/>
<path d="M34.0514 18.583C33.9845 19.3744 33.8994 20.2936 33.8021 21.3102C32.9871 29.5832 32.5857 33.7227 31.8132 37.6248C31.0469 41.4721 30.5117 42.8296 31.0712 45.082C31.4057 46.4152 31.9774 47.4866 32.6343 48.3875C32.9019 48.7649 33.1878 49.1119 33.4737 49.4407C33.7717 49.7876 34.0758 50.1042 34.3677 50.4086C35.6024 51.7052 36.9222 52.7462 38.2359 53.5802C39.4645 54.3594 40.687 54.962 41.8366 55.4247C41.7088 55.3151 41.5872 55.2055 41.4655 55.0838C41.058 54.6637 39.7261 53.154 39.8477 46.5795C39.9329 42.2635 40.5715 39.5789 41.2101 36.0481C41.3257 35.4272 41.4351 34.7758 41.5507 34.0879C41.5507 34.0636 41.5568 34.0453 41.5629 34.021C41.9156 31.8051 42.311 28.7248 42.4752 24.9384C40.4255 23.8792 38.09 22.3816 35.7666 20.2693C35.1462 19.7031 34.5745 19.137 34.0514 18.583Z" fill="#DC9900"/>
<path d="M42.5543 22.0837C42.5543 22.1445 42.5543 22.2054 42.5482 22.2663C42.536 23.1855 42.5117 24.0804 42.4752 24.9326C42.3049 28.7191 41.9156 31.8054 41.5629 34.0152C41.5629 34.0396 41.5568 34.0578 41.5507 34.0822C44.5066 33.9483 47.9917 33.4978 51.8112 32.4325C53.3074 32.0185 54.7124 31.5437 56.0079 31.0445C56.3911 29.0052 56.7013 27.459 56.7803 27.0572C56.9445 26.2354 57.3095 24.4456 57.5406 22.0471C57.6257 21.1279 57.6744 20.3366 57.7048 19.5817C57.7291 18.9486 57.7474 18.3459 57.7595 17.725C57.7717 17.0676 57.79 16.5075 57.79 16.0205C57.8021 14.8456 57.7717 14.1334 57.6379 13.6281C57.5041 13.1411 57.3095 12.7028 57.0723 12.301C56.014 12.3254 54.8401 12.4715 53.5994 12.8063C46.982 14.596 43.4666 20.4522 42.5543 22.0837Z" fill="#CC6600"/>
<path d="M41.5507 34.0819C41.4412 34.7698 41.3256 35.4211 41.2101 36.042C44.1417 35.8959 47.5963 35.4455 51.3611 34.3984C52.8938 33.9723 54.3292 33.4853 55.649 32.9739C55.7707 32.2982 55.8923 31.6469 56.0018 31.0442C54.7063 31.5434 53.3013 32.0121 51.8051 32.4321C47.9977 33.4975 44.5066 33.9479 41.5507 34.0819Z" fill="#FFFF99"/>
<path d="M49.354 59.2173C50.1508 60.4896 50.9353 61.8167 51.7078 63.2107" stroke="#662525" stroke-width="0.5" stroke-miterlimit="10" stroke-linecap="round" stroke-linejoin="round"/>
<path d="M41.2101 36.0422C40.5654 39.573 39.9268 42.2576 39.8477 46.5736C39.7261 53.1482 41.0581 54.6518 41.4656 55.0779C41.5872 55.1997 41.7089 55.3153 41.8366 55.4188C43.868 57.1538 47.0733 57.3607 49.4514 56.2893C49.792 56.1371 50.4914 55.8084 51.1909 55.1936C51.5801 54.8527 51.9694 54.4265 52.3039 53.8908C53.3378 52.2168 53.2344 50.4027 53.204 49.52C53.1979 49.2704 53.2648 48.6434 53.4047 47.5903C53.5811 46.2632 53.8731 44.2604 54.2806 41.521C54.4022 40.7053 54.536 39.8226 54.6759 38.879C54.9618 36.9554 55.3206 34.8673 55.6673 32.9741C54.3475 33.4855 52.9121 33.9664 51.3794 34.3986C47.5963 35.4457 44.1478 35.8961 41.2101 36.0422Z" fill="#CC6600"/>
<path d="M81.3945 33.7838C81.5283 33.9482 81.6865 34.1795 81.8324 34.5143C82.4407 35.8597 82.3068 37.2841 82.0575 38.5808C81.8933 39.4209 81.6196 40.5653 81.1087 41.9106C81.5283 41.868 82.0453 41.7524 82.5988 41.4663C82.9637 41.2715 83.2678 41.0462 83.4989 40.8332C83.6267 40.474 83.7361 40.127 83.8335 39.78C84.618 37.0345 84.5147 34.7274 83.3469 33.7047C83.2313 33.6012 83.0975 33.5038 82.9455 33.4246C82.9029 33.4003 82.8664 33.382 82.8238 33.3638C82.8178 33.3881 82.8117 33.4125 82.8056 33.4429C82.5745 33.4733 82.3251 33.522 82.0636 33.5829C81.8264 33.6377 81.6074 33.7047 81.3945 33.7838Z" fill="#876751"/>
<path d="M82.8908 33.4852C82.9334 33.5034 82.9759 33.5217 83.0124 33.5461C83.1645 33.6252 83.2983 33.7226 83.4138 33.8261C84.5816 34.8488 84.685 37.156 83.9004 39.9014C84.9283 39.8466 85.9075 39.5849 86.7651 39.1283C87.6105 38.6839 88.3404 38.0569 88.8817 37.2838C89.0033 37.1073 89.1128 36.9307 89.2162 36.742C90.3718 34.6053 90.165 31.6468 88.9607 30.551C88.8391 30.4414 88.1579 29.8205 87.6044 30.0396C87.5071 30.0762 87.4402 30.137 87.3794 30.204C87.2212 30.3866 87.1422 30.6423 86.7712 30.898C86.4306 31.1354 85.8284 31.3789 85.4331 31.1354C85.1533 30.9649 85.1837 30.6727 84.9465 30.618C84.6789 30.551 84.4113 30.8736 84.1254 31.1415C83.6085 31.6041 83.3895 32.1459 83.1645 32.6816C83.0793 32.8947 82.9759 33.1625 82.8908 33.4852Z" fill="#FF7900"/>
<path d="M83.201 23.4713L84.9465 30.618C85.1837 30.6789 85.1533 30.9711 85.4331 31.1354C85.8284 31.3729 86.4245 31.1294 86.7712 30.898C87.1422 30.6424 87.2213 30.3806 87.3794 30.2041L85.6277 22.7651C85.5122 22.2659 85.1351 21.9189 84.7033 21.8215C84.4417 21.7607 84.1498 21.7911 83.8822 21.9311C83.3409 22.2172 83.0489 22.8625 83.201 23.4713Z" fill="#2A4448"/>
<path d="M86.7712 39.1287L101.642 118.023L102.098 118.126L88.8877 37.2842C88.3404 38.0634 87.6166 38.6843 86.7712 39.1287Z" fill="#2A4448"/>
<path d="M0.946533 86.4771L1.24456 86.8484L33.4737 49.4345C33.1878 49.1119 32.9019 48.7649 32.6343 48.3813L0.946533 86.4771Z" fill="#2A4448"/>
<path d="M68.6282 91.2438C68.5431 91.1951 68.4458 91.1464 68.3485 91.0916C67.5882 90.6655 66.8097 90.2698 66.0129 89.9046C64.4255 89.1801 62.7772 88.5957 61.0864 88.1574C60.539 88.0174 59.9734 87.8896 59.4138 87.9626C59.1949 87.9931 58.9698 88.06 58.8056 88.2061C58.6657 88.3279 58.5745 88.5044 58.4894 88.6688C57.2121 91.1282 55.9288 93.551 54.7975 96.0712C53.8426 98.2018 52.9607 100.375 52.2734 102.609C51.9328 103.705 51.6409 104.819 51.4159 105.951C51.3186 106.444 51.1118 107.071 51.1482 107.571C51.2395 108.965 53.0945 110.109 54.1042 110.827C55.3388 111.71 56.689 112.38 58.167 112.733C60.0768 113.195 63.276 113.902 65.1128 113.159C66.7914 112.483 67.6551 111.016 66.9192 109.293C66.8036 109.019 66.6759 108.733 66.4448 108.545C66.1406 108.295 65.7149 108.265 65.3196 108.246C64.5411 108.21 63.7625 108.173 62.984 108.131C62.3454 108.1 61.573 107.984 61.3115 107.4C60.8188 106.304 62.4671 104.435 62.9901 103.595C63.799 102.305 64.6201 101.026 65.429 99.7359C66.8705 97.4287 68.3424 95.1094 69.3702 92.577C69.6987 91.7734 69.3338 91.6152 68.6282 91.2438Z" fill="#0D294C"/>
<path d="M15.1361 89.4968C15.4158 89.0829 15.8477 89.0585 16.3403 88.9368C17.8669 88.5715 19.3935 88.2185 20.9141 87.8471C23.9612 87.1044 27.0023 86.3435 30.0312 85.5521C31.2537 85.2356 31.3145 84.6816 30.3231 84.012C28.8269 83.0015 27.7504 81.6378 27.2455 79.9029C26.8563 78.5637 26.461 77.2244 26.2846 75.8364C26.2542 75.599 26.2298 75.3616 26.1264 75.1486C26.023 74.9355 25.8223 74.7529 25.5851 74.7407C24.6242 74.6981 23.4625 75.6173 22.6353 76.013C18.4265 78.0462 14.2055 80.1768 10.2339 82.6788C9.89937 82.8919 9.57093 83.0989 9.2425 83.3119C8.53089 83.7746 8.1234 84.6147 8.19638 85.473C8.30586 86.8427 8.41534 88.2063 8.52482 89.576C8.60997 90.6474 8.66471 91.6883 8.99314 92.7232C9.13303 93.1615 9.31549 93.6059 9.66217 93.8981C10.0149 94.1964 10.4893 94.306 10.9455 94.3973C12.1193 94.6286 13.3053 94.793 14.4974 94.8965C15.3064 94.9695 15.9936 95.0669 16.4741 94.306C16.8208 93.7581 16.8816 93.0093 16.5714 92.431C16.4924 92.2849 16.3951 92.151 16.2917 92.0232C15.945 91.6214 15.4949 91.3048 14.9962 91.1222C14.7833 91.0431 14.984 89.7282 15.0813 89.5577C15.1117 89.5395 15.1239 89.5212 15.1361 89.4968Z" fill="#0D294C"/>
</svg>
