<svg width="635" height="141" viewBox="0 0 635 141" fill="none" xmlns="http://www.w3.org/2000/svg">
<path d="M95.612 115.377H36.7148L69.7045 70.5231L105.237 22.1282C109.413 16.4685 108.203 8.47831 102.513 4.30163C100.394 2.75808 97.9425 1.97117 95.5212 1.88037H12.139C5.57134 1.88037 0.244569 7.20715 0.244569 13.7748C0.244569 20.3425 5.57134 25.6693 12.139 25.6693H71.0059L38.0465 70.5231L2.48424 118.888C-1.69244 124.548 -0.48181 132.538 5.20816 136.714C7.32676 138.258 9.77829 139.045 12.1995 139.136H95.5817C102.149 139.136 107.476 133.809 107.476 127.241C107.476 120.704 102.149 115.377 95.612 115.377Z" fill="white"/>
<path d="M622.357 115.377H570.119V12.8369C570.119 5.78494 564.398 0.0949707 557.377 0.0949707C550.325 0.0949707 544.635 5.8152 544.635 12.8369V126.424C544.635 126.576 544.665 126.697 544.665 126.848C544.665 126.999 544.635 127.12 544.635 127.272C544.635 133.839 549.962 139.166 556.529 139.166H622.388C628.955 139.166 634.282 133.839 634.282 127.272C634.252 120.704 628.925 115.377 622.357 115.377Z" fill="white"/>
<path d="M502.505 115.377H449.419V80.8135H484.709C491.276 80.8135 496.603 75.4867 496.603 68.9191C496.603 62.3514 491.276 57.0246 484.709 57.0246H449.419V25.6693H502.505C509.073 25.6693 514.4 20.3425 514.4 13.7748C514.4 7.20715 509.073 1.88037 502.505 1.88037H435.799C429.232 1.88037 423.905 7.20715 423.905 13.7748V127.271C423.905 133.839 429.232 139.166 435.799 139.166H502.505C509.073 139.166 514.4 133.839 514.4 127.271C514.4 120.704 509.073 115.377 502.505 115.377Z" fill="white"/>
<path d="M352.387 79.3645L335.741 99.1583L367.035 136.385C369.547 139.382 373.179 140.925 376.811 140.925C379.717 140.925 382.622 139.926 385.013 137.929C390.401 133.389 391.097 125.368 386.557 119.981L352.387 79.3645Z" fill="white"/>
<path d="M386.557 20.9498C391.097 15.5625 390.401 7.51177 385.013 3.00217C382.622 1.00463 379.717 0.00585938 376.811 0.00585938C373.179 0.00585938 369.578 1.54941 367.035 4.54572L335.741 41.7726L352.387 61.5664L386.557 20.9498Z" fill="white"/>
<path d="M289.495 4.54573C286.983 1.54941 283.351 0.00585938 279.719 0.00585938C276.813 0.00585938 273.908 0.974364 271.517 3.00217C266.129 7.54204 265.433 15.5625 269.973 20.9498L311.619 70.4646L269.973 120.01C265.433 125.397 266.129 133.448 271.517 137.957C273.908 139.955 276.813 140.954 279.719 140.954C283.351 140.954 286.952 139.41 289.495 136.414L344.911 70.4949L289.495 4.54573Z" fill="white"/>
<path d="M240.555 2.18499C234.713 -1.74956 226.784 -0.175742 222.849 5.66555L199.484 40.4107L186.742 59.3873L174 40.4107L150.635 5.63529C146.701 -0.206008 138.801 -1.74956 132.93 2.15472C127.088 6.08927 125.545 14.0189 129.449 19.8602L173.97 86.0817V128.212C173.97 135.264 179.69 140.954 186.712 140.954C193.764 140.954 199.454 135.233 199.454 128.212V86.112L244.005 19.8602C247.94 14.0189 246.396 6.11954 240.555 2.18499Z" fill="white"/>
</svg>
